<?xml version="1.0" encoding="UTF-8"?>
<svg width="48px" height="48px" viewBox="0 0 48 48" version="1.1" xmlns="http://www.w3.org/2000/svg">
    <!-- Generator: Sketch 47.1 (45422) - http://www.bohemiancoding.com/sketch -->
    <title>ic_actions</title>
    <desc>Created with Sketch.</desc>
    <defs></defs>
    <g id="Admin-Panel" stroke="none" stroke-width="1" fill="none" fill-rule="evenodd">
        <g transform="translate(-226.000000, -532.000000)" id="Groups" fill="#ffffff">
            <g transform="translate(180.000000, 505.000000)">
                <path d="M70.0029,27 C68.9569,27 67.9099,27.38 67.1469,28.141 L60.0469,35.237 C59.3649,35.92 59.0189,36.652 59.0189,37.415 C59.0189,38.596 59.9419,39.867 61.9659,39.867 L64.8609,39.867 L64.8609,45.823 L58.9069,45.823 L58.9069,42.928 C58.9069,40.903 57.6349,39.98 56.4539,39.98 C55.6909,39.98 54.9589,40.327 54.2769,41.008 L47.1789,48.108 C45.6069,49.683 45.6079,52.244 47.1789,53.816 L54.2769,60.916 C54.9599,61.599 55.6919,61.944 56.4539,61.944 C57.6349,61.944 58.9069,61.02 58.9069,58.996 L58.9069,56.155 L64.8609,56.155 L64.8609,62.056 L61.9659,62.056 C59.9419,62.056 59.0189,63.327 59.0189,64.508 C59.0189,65.271 59.3639,66.003 60.0469,66.686 L67.1469,73.782 C67.9079,74.542 68.9219,74.961 70.0009,74.961 C71.0809,74.961 72.0939,74.543 72.8559,73.781 L79.9569,66.684 C80.6379,66.002 80.9829,65.27 80.9829,64.507 C80.9829,63.327 80.0599,62.055 78.0359,62.055 L75.1949,62.055 L75.1949,56.154 L81.0959,56.154 L81.0959,58.995 C81.0959,61.019 82.3679,61.943 83.5479,61.943 C84.3089,61.943 85.0419,61.598 85.7249,60.915 L92.8209,53.815 C94.3929,52.243 94.3929,49.683 92.8209,48.107 L85.7249,41.008 C85.0439,40.325 84.3109,39.98 83.5479,39.98 C82.3669,39.98 81.0959,40.903 81.0959,42.928 L81.0959,45.823 L75.1949,45.823 L75.1949,39.867 L78.0349,39.867 C80.0599,39.867 80.9829,38.597 80.9829,37.415 C80.9829,36.654 80.6379,35.921 79.9549,35.237 L72.8559,28.141 C72.0949,27.38 71.0489,27 70.0029,27 M70.0029,29 C70.5639,29 71.0889,29.203 71.4419,29.556 L78.5389,36.65 C78.7419,36.853 78.9829,37.15 78.9829,37.415 C78.9829,37.748 78.4939,37.867 78.0349,37.867 L75.1949,37.867 L73.1949,37.867 L73.1949,39.867 L73.1949,45.823 L73.1949,47.823 L75.1949,47.823 L81.0959,47.823 L83.0959,47.823 L83.0959,45.823 L83.0959,42.928 C83.0959,42.469 83.2149,41.98 83.5479,41.98 C83.8139,41.98 84.1079,42.219 84.3099,42.422 L91.4049,49.52 C92.1989,50.315 92.1999,51.608 91.4059,52.401 L84.3109,59.501 C84.1089,59.703 83.8129,59.943 83.5479,59.943 C83.2139,59.943 83.0959,59.432 83.0959,58.995 L83.0959,56.154 L83.0959,54.154 L81.0959,54.154 L75.1949,54.154 L73.1949,54.154 L73.1949,56.154 L73.1949,62.055 L73.1949,64.055 L75.1949,64.055 L78.0359,64.055 C78.4729,64.055 78.9829,64.174 78.9829,64.507 C78.9829,64.773 78.7429,65.069 78.5429,65.27 L71.4419,72.367 C71.0529,72.756 70.5549,72.961 70.0009,72.961 C69.4559,72.961 68.9439,72.75 68.5609,72.367 L61.4609,65.272 C61.2589,65.07 61.0189,64.774 61.0189,64.508 C61.0189,64.175 61.5079,64.056 61.9659,64.056 L64.8609,64.056 L66.8609,64.056 L66.8609,62.056 L66.8609,56.155 L66.8609,54.155 L64.8609,54.155 L58.9069,54.155 L56.9069,54.155 L56.9069,56.155 L56.9069,58.996 C56.9069,59.433 56.7879,59.944 56.4539,59.944 C56.1889,59.944 55.8929,59.704 55.6909,59.502 L48.5939,52.402 C47.7999,51.609 47.8009,50.316 48.5939,49.522 L55.6909,42.423 C55.8929,42.221 56.1889,41.98 56.4539,41.98 C56.7879,41.98 56.9069,42.469 56.9069,42.928 L56.9069,45.823 L56.9069,47.823 L58.9069,47.823 L64.8609,47.823 L66.8609,47.823 L66.8609,45.823 L66.8609,39.867 L66.8609,37.867 L64.8609,37.867 L61.9659,37.867 C61.5289,37.867 61.0189,37.749 61.0189,37.415 C61.0189,37.15 61.2599,36.853 61.4609,36.652 L68.5589,29.558 C68.9139,29.203 69.4409,29 70.0029,29" id="ic_actions"></path>
            </g>
        </g>
    </g>
</svg>
