<?xml version="1.0" encoding="UTF-8"?>
<svg width="24px" height="20px" viewBox="0 0 24 20" version="1.1" xmlns="http://www.w3.org/2000/svg">
    <!-- Generator: Sketch 49.3 (51167) - http://www.bohemiancoding.com/sketch -->
    <title>ic_actions</title>
    <desc>Created with Sketch.</desc>
    <defs></defs>
    <g id="Location" stroke="none" stroke-width="1" fill="none" fill-rule="evenodd">
        <g id="Events-Main-Side-Bar" transform="translate(-28.000000, -243.000000)" fill="#acb3bf">
            <g id="hide-right-menu-">
                <path d="M30,254.028642 L30,261 L50,261 L50,245 L30,245 L30,251.995834 L32.8024135,252.5105 C33.7274135,252.6805 34.6704135,252.4945 35.4464135,251.9955 L36.3164135,251.4185 C37.1344135,250.8765 38.0674135,250.6065 39.0024135,250.6065 C39.9464135,250.6065 40.8914135,250.8835 41.7144135,251.4365 C42.0964135,251.6925 42.5404135,251.8285 43.0004135,251.8285 L44.5784135,251.8285 L43.4574135,250.7075 C43.0664135,250.3165 43.0664135,249.6835 43.4574135,249.2925 C43.8474135,248.9025 44.4804135,248.9025 44.8714135,249.2925 L47.6994135,252.1215 C47.7914135,252.2135 47.8644135,252.3245 47.9154135,252.4465 C48.0164135,252.6905 48.0164135,252.9665 47.9154135,253.2105 C47.8644135,253.3335 47.7914135,253.4435 47.6994135,253.5355 L44.8714135,256.3645 C44.4804135,256.7545 43.8474135,256.7545 43.4574135,256.3645 C43.0664135,255.9735 43.0664135,255.3405 43.4574135,254.9495 L44.5784135,253.8285 L43.0004135,253.8285 C42.1414135,253.8285 41.3114135,253.5755 40.5984135,253.0965 C39.6354135,252.4495 38.3884135,252.4455 37.4224135,253.0855 L36.5394135,253.6695 C35.3204135,254.4535 33.8644135,254.7415 32.4404135,254.4775 L30,254.028642 Z M50,243 C51.105,243 52,243.895 52,245 L52,261 C52,262.105 51.105,263 50,263 L30,263 C28.896,263 28,262.105 28,261 L28,249.022 L28,245 C28,243.895 28.896,243 30,243 L50,243 Z" id="ic_actions"></path>
            </g>
        </g>
    </g>
</svg>
