<?xml version="1.0" encoding="UTF-8"?>
<svg width="48px" height="48px" viewBox="0 0 48 48" version="1.1" xmlns="http://www.w3.org/2000/svg">
    <!-- Generator: Sketch 47.1 (45422) - http://www.bohemiancoding.com/sketch -->
    <title>actr</title>
    <desc>Created with Sketch.</desc>
    <defs>
        <linearGradient x1="131.426968%" y1="-34.1782798%" x2="0%" y2="100%" id="linearGradient-1">
            <stop stop-color="#FFFFFF" stop-opacity="0" offset="0%"></stop>
            <stop stop-color="#FFFFFF" offset="100%"></stop>
        </linearGradient>
    </defs>
    <g id="Intelico-Admin" stroke="none" stroke-width="1" fill="none" fill-rule="evenodd">
        <g transform="translate(-866.000000, -587.000000)" id="People-Copy-3" fill="url(#linearGradient-1)">
            <g transform="translate(820.000000, 560.000000)">
                <path d="M70.002625,27 C68.956625,27 67.909625,27.38 67.146625,28.141 L60.046625,35.237 C59.364625,35.92 59.018625,36.652 59.018625,37.415 C59.018625,38.596 59.941625,39.867 61.965625,39.867 L64.860625,39.867 L64.860625,45.823 L58.906625,45.823 L58.906625,42.928 C58.906625,40.903 57.634625,39.98 56.453625,39.98 C55.690625,39.98 54.958625,40.327 54.276625,41.008 L47.178625,48.108 C45.606625,49.683 45.607625,52.244 47.178625,53.816 L54.276625,60.916 C54.959625,61.599 55.691625,61.944 56.453625,61.944 C57.634625,61.944 58.906625,61.02 58.906625,58.996 L58.906625,56.155 L64.860625,56.155 L64.860625,62.056 L61.965625,62.056 C59.941625,62.056 59.018625,63.327 59.018625,64.508 C59.018625,65.271 59.363625,66.003 60.046625,66.686 L67.146625,73.782 C67.907625,74.542 68.921625,74.961 70.000625,74.961 C71.080625,74.961 72.093625,74.543 72.855625,73.781 L79.956625,66.684 C80.637625,66.002 80.982625,65.27 80.982625,64.507 C80.982625,63.327 80.059625,62.055 78.035625,62.055 L75.194625,62.055 L75.194625,56.154 L81.095625,56.154 L81.095625,58.995 C81.095625,61.019 82.367625,61.943 83.547625,61.943 C84.308625,61.943 85.041625,61.598 85.724625,60.915 L92.820625,53.815 C94.392625,52.243 94.392625,49.683 92.820625,48.107 L85.724625,41.008 C85.043625,40.325 84.310625,39.98 83.547625,39.98 C82.366625,39.98 81.095625,40.903 81.095625,42.928 L81.095625,45.823 L75.194625,45.823 L75.194625,39.867 L78.034625,39.867 C80.059625,39.867 80.982625,38.597 80.982625,37.415 C80.982625,36.654 80.637625,35.921 79.954625,35.237 L72.855625,28.141 C72.094625,27.38 71.048625,27 70.002625,27" id="actr"></path>
            </g>
        </g>
    </g>
</svg>
