<svg width="512.007" height="512.007" xmlns="http://www.w3.org/2000/svg">

 <g>
  <title>background</title>
  <rect fill="none" id="canvas_background" height="402" width="582" y="-1" x="-1"/>
 </g>
 <g>
  <title>Layer 1</title>
  <g transform="rotate(15 256.0031127929683,256.0035400390626) " id="svg_1">
   <g id="svg_2">
    <path id="svg_3" d="m397.413,199.303c-2.944,-4.576 -8,-7.296 -13.408,-7.296l-112,0l0,-176c0,-7.552 -5.28,-14.08 -12.672,-15.648c-7.52,-1.6 -14.88,2.272 -17.952,9.152l-128,288c-2.208,4.928 -1.728,10.688 1.216,15.2c2.944,4.544 8,7.296 13.408,7.296l112,0l0,176c0,7.552 5.28,14.08 12.672,15.648c1.12,0.224 2.24,0.352 3.328,0.352c6.208,0 12,-3.616 14.624,-9.504l128,-288c2.176,-4.96 1.76,-10.656 -1.216,-15.2z" fill="#ffffff"/>
   </g>
  </g>
 </g>
</svg>
