<?xml version="1.0" encoding="UTF-8"?>
<svg width="24px" height="12px" viewBox="0 0 24 12" version="1.1" xmlns="http://www.w3.org/2000/svg">
    <!-- Generator: Sketch 47.1 (45422) - http://www.bohemiancoding.com/sketch -->
    <title>ic_add_action</title>
    <desc>Created with Sketch.</desc>
    <defs>
        <linearGradient x1="131.426968%" y1="-34.1782798%" x2="0%" y2="100%" id="linearGradient-1">
            <stop stop-color="#FFFFFF" stop-opacity="0" offset="0%"></stop>
            <stop stop-color="#FFFFFF" offset="100%"></stop>
        </linearGradient>
    </defs>
    <g id="Message" stroke="none" stroke-width="1" fill="none" fill-rule="evenodd">
        <g id="Messages_Combined" transform="translate(-1186.000000, -78.000000)" fill="url(#linearGradient-1)">
            <g id="Group-4" transform="translate(1166.000000, 60.000000)">
                <g id="Page-1" transform="translate(20.000000, 18.000000)">
                    <path d="M7,1.99995897 L7,3.99995897 L10,3.99995897 L10,7.99995897 L7,7.99995897 L7,9.99995897 C7,10.551959 6.552,10.999959 6,10.999959 L4,10.999959 C3.448,10.999959 3,10.551959 3,9.99995897 L3,7.99995897 L1,7.99995897 C0.448,7.99995897 0,7.55195897 0,6.99995897 L0,4.99995897 C0,4.44795897 0.448,3.99995897 1,3.99995897 L3,3.99995897 L3,1.99995897 C3,1.44795897 3.448,0.999958973 4,0.999958973 L6,0.999958973 C6.552,0.999958973 7,1.44795897 7,1.99995897 Z M19.7743,0.357658973 L23.6263,4.92565897 C24.1243,5.57665897 24.1243,6.42365897 23.6263,7.07465897 L19.7743,11.641659 C19.1803,12.347659 18.0003,11.940659 18.0003,11.029659 L18.0003,7.99965897 L14.0003,7.99965897 L14.0003,3.99965897 L18.0003,3.99965897 L18.0003,0.970658973 C18.0003,0.059658973 19.1803,-0.347341027 19.7743,0.357658973 Z" id="ic_add_action"></path>
                </g>
            </g>
        </g>
    </g>
</svg>
