<?xml version="1.0" encoding="UTF-8"?>
<svg width="20px" height="4px" viewBox="0 0 20 4" version="1.1" xmlns="http://www.w3.org/2000/svg">
    <!-- Generator: Sketch 47.1 (45422) - http://www.bohemiancoding.com/sketch -->
    <title>Combined Shape</title>
    <desc>Created with Sketch.</desc>
    <defs></defs>
    <g id="Locate" stroke="none" stroke-width="1" fill="none" fill-rule="evenodd">
        <g id="Locate-No-Company" transform="translate(-696.000000, -620.000000)" fill="#888991">
            <g id="Group" transform="translate(682.000000, 250.000000)">
                <path d="M16,374 C14.8954305,374 14,373.104569 14,372 C14,370.895431 14.8954305,370 16,370 C17.1045695,370 18,370.895431 18,372 C18,373.104569 17.1045695,374 16,374 Z M32,374 C30.8954305,374 30,373.104569 30,372 C30,370.895431 30.8954305,370 32,370 C33.1045695,370 34,370.895431 34,372 C34,373.104569 33.1045695,374 32,374 Z M24,374 C22.8954305,374 22,373.104569 22,372 C22,370.895431 22.8954305,370 24,370 C25.1045695,370 26,370.895431 26,372 C26,373.104569 25.1045695,374 24,374 Z" id="Combined-Shape"></path>
            </g>
        </g>
    </g>
</svg>
