<?xml version="1.0" encoding="UTF-8"?>
<svg width="24px" height="24px" viewBox="0 0 24 24" version="1.1" xmlns="http://www.w3.org/2000/svg">
    <!-- Generator: Sketch 47.1 (45422) - http://www.bohemiancoding.com/sketch -->
    <title>ic_add</title>
    <desc>Created with Sketch.</desc>
    <defs></defs>
    <g id="Identifiers-Type-IA" stroke="none" stroke-width="1" fill="none" fill-rule="evenodd">
        <g id="Add-Identifiers-Type-IA-Additional" transform="translate(-975.000000, -466.000000)" fill="#D4D5D9">
            <g id="pop-up" transform="translate(580.000000, 125.000000)">
                <g id="Group-2" transform="translate(30.000000, 330.000000)">
                    <path d="M377.757359,22 L377.757359,19 C377.757359,18.4477152 377.309644,18 376.757359,18 C376.205075,18 375.757359,18.4477152 375.757359,19 L375.757359,22 L372.757359,22 C372.205075,22 371.757359,22.4477152 371.757359,23 C371.757359,23.5522847 372.205075,24 372.757359,24 L375.757359,24 L375.757359,27 C375.757359,27.5522847 376.205075,28 376.757359,28 C377.309644,28 377.757359,27.5522847 377.757359,27 L377.757359,24 L380.757359,24 C381.309644,24 381.757359,23.5522847 381.757359,23 C381.757359,22.4477152 381.309644,22 380.757359,22 L377.757359,22 Z M385.485281,31.4852814 C380.79899,36.1715729 373.20101,36.1715729 368.514719,31.4852814 C363.828427,26.7989899 363.828427,19.2010101 368.514719,14.5147186 C373.20101,9.82842712 380.79899,9.82842712 385.485281,14.5147186 C390.171573,19.2010101 390.171573,26.7989899 385.485281,31.4852814 Z" id="ic_add"></path>
                </g>
            </g>
        </g>
    </g>
</svg>
