<?xml version="1.0" encoding="UTF-8"?>
<svg width="64px" height="50px" viewBox="0 0 64 50" version="1.1" xmlns="http://www.w3.org/2000/svg">
    <!-- Generator: Sketch 47.1 (45422) - http://www.bohemiancoding.com/sketch -->
    <title>Fill 1</title>
    <desc>Created with Sketch.</desc>
    <defs>
        <linearGradient x1="131.426968%" y1="-34.1782798%" x2="0%" y2="100%" id="linearGradient-1">
            <stop stop-color="#1B84FA" stop-opacity="0" offset="0%"></stop>
            <stop stop-color="#1B84FA" offset="100%"></stop>
        </linearGradient>
    </defs>
    <g id="Addons" stroke="none" stroke-width="1" fill="none" fill-rule="evenodd">
        <g transform="translate(-279.000000, -443.000000)" id="Group" fill="url(#linearGradient-1)">
            <g transform="translate(236.000000, 287.000000)">
                <path d="M84.324,156 C82.855,156 81.438,156.577 80.436,157.583 C79.4,158.628 78.83,160.009 78.83,161.475 C78.83,161.756 78.851,162.034 78.892,162.307 C78.05,161.811 77.066,161.539 76.058,161.539 C74.589,161.539 73.172,162.116 72.17,163.122 C71.133,164.168 70.564,165.549 70.564,167.014 C70.564,167.295 70.585,167.572 70.626,167.845 C69.784,167.348 68.799,167.076 67.789,167.076 C66.32,167.076 64.903,167.653 63.901,168.659 C62.865,169.704 62.296,171.085 62.296,172.55 C62.296,172.737 62.305,172.922 62.323,173.105 L52.384,163.122 C51.345,162.079 49.964,161.504 48.495,161.504 C47.028,161.504 45.648,162.077 44.608,163.117 C43.569,164.164 43,165.545 43,167.011 C43,168.481 43.57,169.863 44.605,170.903 L66.481,193.874 L53.86,195.687 C50.447,196.175 47.873,199.154 47.873,202.616 C47.873,204.482 49.388,206 51.251,206 L86.886,206 C90.733,206 94.352,204.495 97.075,201.764 L101.949,196.869 C105.206,193.598 107,188.249 107,183.623 C107,178.997 105.206,174.648 101.949,171.377 L88.212,157.583 C87.21,156.577 85.793,156 84.324,156 M84.324,158 C85.229,158 86.135,158.332 86.795,158.994 L100.532,172.788 C103.412,175.681 105,179.532 105,183.623 C105,187.714 103.412,192.565 100.532,195.458 L95.659,200.352 C93.313,202.705 90.196,204 86.886,204 L51.251,204 C50.49,204 49.873,203.38 49.873,202.616 C49.873,200.144 51.708,198.015 54.145,197.666 L67.981,195.679 C68.496,195.604 68.926,195.244 69.094,194.746 C69.26,194.248 69.13,193.7 68.761,193.329 L46.022,169.491 C45.364,168.83 45,167.947 45,167.011 C45,166.075 45.364,165.195 46.022,164.531 C46.684,163.869 47.56,163.504 48.495,163.504 C49.429,163.504 50.305,163.869 50.967,164.534 L68.193,181.835 C68.462,182.105 68.815,182.24 69.167,182.24 C69.52,182.24 69.873,182.105 70.142,181.835 C70.409,181.564 70.544,181.209 70.544,180.855 C70.544,180.501 70.412,180.146 70.142,179.875 L65.318,175.031 C64.66,174.369 64.296,173.486 64.296,172.55 C64.296,171.615 64.66,170.734 65.318,170.07 C65.978,169.407 66.884,169.076 67.789,169.076 C68.695,169.076 69.6,169.407 70.26,170.07 L75.084,174.914 C75.352,175.184 75.705,175.319 76.058,175.319 C76.411,175.319 76.764,175.184 77.032,174.914 C77.3,174.643 77.435,174.289 77.435,173.934 C77.435,173.58 77.302,173.226 77.032,172.955 L73.587,169.494 C72.928,168.833 72.564,167.95 72.564,167.014 C72.564,166.078 72.928,165.198 73.587,164.534 C74.247,163.871 75.153,163.539 76.058,163.539 C76.963,163.539 77.869,163.871 78.529,164.534 L81.974,167.994 C82.243,168.264 82.596,168.399 82.949,168.399 C83.301,168.399 83.654,168.264 83.923,167.994 C84.19,167.723 84.325,167.368 84.325,167.014 C84.325,166.66 84.19,166.305 83.92,166.031 L81.853,163.955 C81.194,163.294 80.83,162.41 80.83,161.475 C80.83,160.539 81.194,159.659 81.853,158.994 C82.513,158.332 83.419,158 84.324,158" id="Fill-1"></path>
            </g>
        </g>
    </g>
</svg>
