<?xml version="1.0" encoding="UTF-8"?>
<svg width="64px" height="44px" viewBox="0 0 64 44" version="1.1" xmlns="http://www.w3.org/2000/svg">
    <!-- Generator: Sketch 47.1 (45422) - http://www.bohemiancoding.com/sketch -->
    <title>1</title>
    <desc>Created with Sketch.</desc>
    <defs>
        <linearGradient x1="131.426968%" y1="-34.1782798%" x2="0%" y2="100%" id="linearGradient-1">
            <stop stop-color="#1B84FA" stop-opacity="0" offset="0%"></stop>
            <stop stop-color="#1B84FA" offset="100%"></stop>
        </linearGradient>
    </defs>
    <g id="Addons" stroke="none" stroke-width="1" fill="none" fill-rule="evenodd">
        <g transform="translate(-538.000000, -446.000000)" id="Group" fill="url(#linearGradient-1)">
            <g transform="translate(236.000000, 287.000000)">
                <path d="M315,203 L315,201 L362,201 C363.105,201 364,200.105 364,199 L364,168.991926 L304,168.991926 L304,199 C304,200.105 304.895,201 306,201 L315,201 L315,203 L306,203 C303.791,203 302,201.209 302,199 L302,163 C302,160.791 303.791,159 306,159 L362,159 C364.209,159 366,160.791 366,163 L366,199 C366,201.209 364.209,203 362,203 L315,203 Z M364,163 C364,161.897 363.103,161 362,161 L306,161 C304.897,161 304,161.897 304,163 L304,166.991926 L364,166.991926 L364,163 Z M325.403031,185.405069 L328.362031,188.352124 C328.753031,188.741545 328.753031,189.37199 328.362031,189.760415 C327.972031,190.149837 327.339031,190.149837 326.948031,189.760415 L323.291031,186.119175 C323.093031,185.921974 322.998031,185.663024 323.000031,185.405069 C322.998031,185.147115 323.093031,184.888165 323.291031,184.690964 L326.948031,181.049723 C327.339031,180.660302 327.972031,180.660302 328.362031,181.049723 C328.753031,181.438149 328.753031,182.068593 328.362031,182.458015 L325.403031,185.405069 Z M342.25225,185.405069 L339.29325,182.458015 C338.90225,182.068593 338.90225,181.438149 339.29325,181.049723 C339.68325,180.660302 340.31625,180.660302 340.70725,181.049723 L344.36425,184.690964 C344.56225,184.888165 344.65725,185.147115 344.65525,185.405069 C344.65725,185.663024 344.56225,185.921974 344.36425,186.119175 L340.70725,189.760415 C340.31625,190.149837 339.68325,190.149837 339.29325,189.760415 C338.90225,189.37199 338.90225,188.741545 339.29325,188.352124 L342.25225,185.405069 Z M307,163.161481 C307.552285,163.161481 308,163.607389 308,164.157444 C308,164.7075 307.552285,165.153407 307,165.153407 C306.447715,165.153407 306,164.7075 306,164.157444 C306,163.607389 306.447715,163.161481 307,163.161481 Z M311,163.161481 C311.552285,163.161481 312,163.607389 312,164.157444 C312,164.7075 311.552285,165.153407 311,165.153407 C310.447715,165.153407 310,164.7075 310,164.157444 C310,163.607389 310.447715,163.161481 311,163.161481 Z M315,163.161481 C315.552285,163.161481 316,163.607389 316,164.157444 C316,164.7075 315.552285,165.153407 315,165.153407 C314.447715,165.153407 314,164.7075 314,164.157444 C314,163.607389 314.447715,163.161481 315,163.161481 Z M336.513773,179.205243 L332.906773,191.468535 C332.672773,191.967513 332.077773,192.183637 331.577773,191.950582 C331.076773,191.718522 330.860773,191.125924 331.093773,190.626947 L334.700773,178.363655 C334.933773,177.864677 335.528773,177.649549 336.029773,177.881609 C336.530773,178.113668 336.746773,178.706266 336.513773,179.205243 Z" id="1"></path>
            </g>
        </g>
    </g>
</svg>
