<?xml version="1.0" encoding="UTF-8"?>
<svg width="64px" height="54px" viewBox="0 0 64 54" version="1.1" xmlns="http://www.w3.org/2000/svg">
    <!-- Generator: Sketch 47.1 (45422) - http://www.bohemiancoding.com/sketch -->
    <title>2</title>
    <desc>Created with Sketch.</desc>
    <defs>
        <linearGradient x1="131.426968%" y1="-34.1782798%" x2="0%" y2="100%" id="linearGradient-1">
            <stop stop-color="#1B84FA" stop-opacity="0" offset="0%"></stop>
            <stop stop-color="#1B84FA" offset="100%"></stop>
        </linearGradient>
    </defs>
    <g id="Addons" stroke="none" stroke-width="1" fill="none" fill-rule="evenodd">
        <g transform="translate(-798.000000, -441.000000)" id="Group" fill="url(#linearGradient-1)">
            <g transform="translate(236.000000, 287.000000)">
                <path d="M575,154 L622,154 C624.209,154 626,155.79826 626,158.016214 L626,194.162136 C626,196.38009 624.209,198.17835 622,198.17835 L595,198.17835 L595,205.991893 L607,205.991893 C607.552,205.991893 608,206.441709 608,206.995947 C608,207.551188 607.552,208 607,208 L581,208 C580.448,208 580,207.551188 580,206.995947 C580,206.441709 580.448,205.991893 581,205.991893 L593,205.991893 L593,198.17835 L566,198.17835 C563.791,198.17835 562,196.38009 562,194.162136 L562,158.016214 C562,155.79826 563.791,154 566,154 L575,154 C575,154.739653 575,155.409022 575,156.008107 L566,156.008107 C564.895,156.008107 564,156.906735 564,158.016214 L564,188.145922 L624,188.145922 L624,158.016214 C624,156.906735 623.105,156.008107 622,156.008107 L575,156.008107 C575,155.409022 575,154.739653 575,154 Z M624,194.162136 L624,190.154029 L564,190.154029 L564,194.162136 C564,195.269607 564.897,196.170243 566,196.170243 L622,196.170243 C623.103,196.170243 624,195.269607 624,194.162136 Z M585.403031,171.66625 L588.362031,174.62525 C588.753031,175.01625 588.753031,175.64925 588.362031,176.03925 C587.972031,176.43025 587.339031,176.43025 586.948031,176.03925 L583.291031,172.38325 C583.093031,172.18525 582.998031,171.92525 583.000031,171.66625 C582.998031,171.40725 583.093031,171.14725 583.291031,170.94925 L586.948031,167.29325 C587.339031,166.90225 587.972031,166.90225 588.362031,167.29325 C588.753031,167.68325 588.753031,168.31625 588.362031,168.70725 L585.403031,171.66625 Z M602.25225,171.66625 L599.29325,168.70725 C598.90225,168.31625 598.90225,167.68325 599.29325,167.29325 C599.68325,166.90225 600.31625,166.90225 600.70725,167.29325 L604.36425,170.94925 C604.56225,171.14725 604.65725,171.40725 604.65525,171.66625 C604.65725,171.92525 604.56225,172.18525 604.36425,172.38325 L600.70725,176.03925 C600.31625,176.43025 599.68325,176.43025 599.29325,176.03925 C598.90225,175.64925 598.90225,175.01625 599.29325,174.62525 L602.25225,171.66625 Z M591.093773,177.891206 L594.700773,165.578206 C594.934773,165.077206 595.529773,164.860206 596.029773,165.094206 C596.530773,165.327206 596.746773,165.922206 596.513773,166.423206 L592.906773,178.736206 C592.673773,179.237206 592.078773,179.453206 591.577773,179.220206 C591.076773,178.987206 590.860773,178.392206 591.093773,177.891206 Z" id="2"></path>
            </g>
        </g>
    </g>
</svg>
