<?xml version="1.0" encoding="UTF-8"?>
<svg width="16px" height="15px" viewBox="0 0 16 15" version="1.1" xmlns="http://www.w3.org/2000/svg">
    <!-- Generator: Sketch 46.2 (44496) - http://www.bohemiancoding.com/sketch -->
    <title>ic_car</title>
    <desc>Created with Sketch.</desc>
    <defs></defs>
    <g id="Page-1" stroke="none" stroke-width="1" fill="none" fill-rule="evenodd">
        <g id="Messages_Combined" transform="translate(-59.000000, -876.000000)" fill-rule="nonzero" fill="#ffffff">
            <g id="Alerts" transform="translate(40.000000, 788.000000)">
                <g id="Car-alert" transform="translate(0.000000, 80.000000)">
                    <path d="M33.1333333,8.88888889 C32.9555207,8.35555556 32.4222222,8 31.8888889,8 L22.1111111,8 C21.4888889,8 21.0444444,8.35555556 20.8666667,8.88888889 L19,14.2222222 L19,21.3333333 C19,21.8666667 19.3555556,22.2222222 19.8888889,22.2222222 L20.7777778,22.2222222 C21.3111111,22.2222222 21.6666667,21.8666667 21.6666667,21.3333333 L21.6666667,20.4444444 L32.3333333,20.4444444 L32.3333333,21.3333333 C32.3333333,21.8666667 32.6888889,22.2222222 33.2222222,22.2222222 L34.1111111,22.2222222 C34.6444444,22.2222222 35,21.8666667 35,21.3333333 L35,14.2222222 L33.1333333,8.88888889 Z M22.1111111,17.7777778 C21.4,17.7777778 20.7777778,17.1555556 20.7777778,16.4444444 C20.7777778,15.7333333 21.4,15.1111111 22.1111111,15.1111111 C22.8222222,15.1111111 23.4444444,15.7333333 23.4444444,16.4444444 C23.4444444,17.1555556 22.8222222,17.7777778 22.1111111,17.7777778 Z M31.8888889,17.7777778 C31.1777778,17.7777778 30.5555556,17.1555556 30.5555556,16.4444444 C30.5555556,15.7333333 31.1777778,15.1111111 31.8888889,15.1111111 C32.6,15.1111111 33.2222222,15.7333333 33.2222222,16.4444444 C33.2222222,17.1555556 32.6,17.7777778 31.8888889,17.7777778 Z M20.7777778,13.3333333 L22.1111111,9.33333333 L31.8888889,9.33333333 L33.2222222,13.3333333 L20.7777778,13.3333333 Z" id="ic_car"></path>
                </g>
            </g>
        </g>
    </g>
</svg>
