<?xml version="1.0" encoding="UTF-8"?>
<svg width="18px" height="24px" viewBox="0 0 18 24" version="1.1" xmlns="http://www.w3.org/2000/svg">
    <!-- Generator: Sketch 46.2 (44496) - http://www.bohemiancoding.com/sketch -->
    <title>ic_alerts</title>
    <desc>Created with Sketch.</desc>
    <defs>
        <linearGradient x1="131.426968%" y1="-34.1782798%" x2="0%" y2="100%" id="linearGradient-1">
            <stop stop-color="#FFFFFF" stop-opacity="0" offset="0%"></stop>
            <stop stop-color="#FFFFFF" offset="100%"></stop>
        </linearGradient>
    </defs>
    <g id="Page-1" stroke="none" stroke-width="1" fill="none" fill-rule="evenodd">
        <g id="Messages_Combined" transform="translate(-1241.000000, -941.000000)" fill="url(#linearGradient-1)">
            <g id="Menu" transform="translate(785.000000, 653.000000)">
                <g id="ic_alerts" transform="translate(441.000000, 275.000000)">
                    <g transform="translate(15.000000, 13.000000)">
                        <path d="M7.84149167,2 L10.1580311,2 C13.1613278,2 15.7240692,3.95886168 16.2163061,6.63071407 L17.9579986,16.7768955 C18.2359513,18.2856175 17.1050855,19.7118846 15.432139,19.9625521 C15.2658043,19.987475 15.0974759,20 14.9288611,20 L3.07066163,20 C1.37478204,20 3.40911924e-16,18.7601732 0,17.2307692 C0,17.0787064 0.0138883181,16.926902 0.0415240966,16.7768955 L1.7832166,6.63071407 C2.27545348,3.95886168 4.83819492,2 7.84149167,2 Z" id="Rectangle-20"></path>
                        <path d="M5,20 C5.28011077,22.2615294 6.96425727,24 9,24 C11.0357427,24 12.7198892,22.2615294 13,20 L5,20 Z" id="Combined-Shape"></path>
                        <path d="M7,2 C7,0.8954305 7.8954305,0 9,0 C10.1045695,0 11,0.8954305 11,2 L7,2 Z" id="Combined-Shape"></path>
                    </g>
                </g>
            </g>
        </g>
    </g>
</svg>
