<?xml version="1.0" encoding="UTF-8"?>
<svg width="32px" height="32px" viewBox="0 0 32 32" version="1.1" xmlns="http://www.w3.org/2000/svg">
    <!-- Generator: Sketch 47.1 (45422) - http://www.bohemiancoding.com/sketch -->
    <title>allow</title>
    <desc>Created with Sketch.</desc>
    <defs>
        <linearGradient x1="131.426968%" y1="-34.1782798%" x2="0%" y2="100%" id="linearGradient-1">
            <stop stop-color="#AAABB3" stop-opacity="0" offset="0%"></stop>
            <stop stop-color="#AAABB3" offset="100%"></stop>
        </linearGradient>
    </defs>
    <g id="Actions" stroke="none" stroke-width="1" fill="none" fill-rule="evenodd" opacity="0.5">
        <g id="Select-Action-Type" transform="translate(-690.000000, -448.000000)" fill="url(#linearGradient-1)">
            <g id="pop-up" transform="translate(580.000000, 125.000000)">
                <g id="Email-Address" transform="translate(80.000000, 323.000000)">
                    <path d="M43.7627184,17.5471714 L41.0004958,14.9916335 C40.5151342,14.5394617 39.7282076,14.5394617 39.2428461,14.9916335 L38.3640212,15.8103631 C37.8786596,16.2625349 37.8786596,16.9956504 38.3640212,17.4478222 L42.5067821,21.280599 C42.5874588,21.3557589 42.6764674,21.4184257 42.7710382,21.4685995 L42.9774226,21.6608711 C43.4627842,22.113043 44.2497108,22.113043 44.7350724,21.6608711 L53.6359788,12.7953176 C54.1213404,12.3431458 54.1213404,11.6100303 53.6359788,11.1578585 L52.7571539,10.3391289 C52.2717924,9.88695704 51.4848658,9.88695704 50.9995042,10.3391289 L43.7627184,17.5471714 Z M46,32 C37.163444,32 30,24.836556 30,16 C30,7.163444 37.163444,0 46,0 C54.836556,0 62,7.163444 62,16 C62,24.836556 54.836556,32 46,32 Z" id="allow"></path>
                </g>
            </g>
        </g>
    </g>
</svg>
