<?xml version="1.0" encoding="UTF-8"?>
<svg width="20px" height="20px" viewBox="0 0 20 20" version="1.1" xmlns="http://www.w3.org/2000/svg">
    <!-- Generator: Sketch 47.1 (45422) - http://www.bohemiancoding.com/sketch -->
    <title>Shape</title>
    <desc>Created with Sketch.</desc>
    <defs></defs>
    <g id="Notifications" stroke="none" stroke-width="1" fill="none" fill-rule="evenodd" opacity="0.6">
        <g transform="translate(-537.000000, -400.000000)" id="Messages" fill-rule="nonzero" fill="#888991">
            <g transform="translate(227.000000, 148.000000)">
                <g id="Dark-menu">
                    <g id="Open-message" transform="translate(10.000000, 185.000000)">
                        <path d="M319.738614,74.283942 C319.391398,73.9593649 318.83001,73.9608102 318.484665,74.2871061 L307.825977,84.3589973 C306.443143,85.658673 304.197216,85.658673 302.811804,84.3572394 C301.427432,83.0554543 301.427432,80.9445897 302.81197,79.6433123 L313.786161,69.2748915 C314.649503,68.4635073 316.053119,68.4635073 316.918954,69.2766494 C317.78454,70.0901821 317.78454,71.4092332 316.918746,72.2230003 L307.82764,80.7673203 C307.827058,80.7678672 307.826559,80.7684922 307.825977,80.7690391 C307.479635,81.0927568 306.919909,81.0923271 306.574273,80.7674766 C306.228055,80.4420791 306.228055,79.9146852 306.574273,79.5892878 L310.96247,75.464123 C311.308688,75.1386474 311.308646,74.6109801 310.962345,74.2855827 C310.616044,73.9601852 310.054614,73.9602243 309.708397,74.2856998 L305.320242,78.4107865 C304.281547,79.3870179 304.281547,80.9697074 305.320325,81.9459779 C306.359061,82.9222484 308.043018,82.9222484 309.081796,81.9459779 C309.083002,81.944845 309.083958,81.9436341 309.085121,81.9425012 L318.172653,73.4014625 C319.731008,71.9368224 319.731008,69.5624757 318.172653,68.0978356 C316.614091,66.6340548 314.08799,66.6340548 312.53055,68.0978356 L301.556359,78.4663345 C299.480964,80.4169223 299.480964,83.5828091 301.557856,85.5357798 C303.636118,87.4880474 307.004614,87.4880474 309.08163,85.5359361 L319.742022,75.4624824 C320.087325,75.1361474 320.085787,74.6085191 319.738614,74.283942 Z" id="Shape"></path>
                    </g>
                </g>
            </g>
        </g>
    </g>
</svg>
