<?xml version="1.0" encoding="UTF-8"?>
<svg width="24px" height="24px" viewBox="0 0 24 24" version="1.1" xmlns="http://www.w3.org/2000/svg">
    <!-- Generator: sketchtool 50 (54983) - http://www.bohemiancoding.com/sketch -->
    <title>A9445532-D7D5-4428-8676-FBC511279364</title>
    <desc>Created with sketchtool.</desc>
    <defs></defs>
    <g id="Login" stroke="none" stroke-width="1" fill="none" fill-rule="evenodd">
        <g id="Choose-company" transform="translate(-455.000000, -215.000000)" fill="#ACB3BF">
            <g id="Group-3" transform="translate(435.000000, 195.000000)">
                <path d="M30.7573826,32 L33.6360341,29.1213485 C34.121322,28.6360607 34.121322,27.8492537 33.6360341,27.3639659 C33.1507463,26.878678 32.3639393,26.878678 31.8786515,27.3639659 L28.3639659,30.8786515 C28.0592879,31.1833295 27.9458957,31.6068572 28.0237893,32 C27.9458957,32.3931428 28.0592879,32.8166705 28.3639659,33.1213485 L31.8786515,36.6360341 C32.3639393,37.121322 33.1507463,37.121322 33.6360341,36.6360341 C34.121322,36.1507463 34.121322,35.3639393 33.6360341,34.8786515 L30.7573826,32 Z M32,44 C25.372583,44 20,38.627417 20,32 C20,25.372583 25.372583,20 32,20 C38.627417,20 44,25.372583 44,32 C44,38.627417 38.627417,44 32,44 Z" id="ic_back"></path>
            </g>
        </g>
    </g>
</svg>
