<?xml version="1.0" encoding="UTF-8"?>
<svg width="32px" height="20px" viewBox="0 0 32 20" version="1.1" xmlns="http://www.w3.org/2000/svg">
    <!-- Generator: Sketch 47.1 (45422) - http://www.bohemiancoding.com/sketch -->
    <title>ic_barcode </title>
    <desc>Created with Sketch.</desc>
    <defs></defs>
    <g id="Identifiers" stroke="none" stroke-width="1" fill="none" fill-rule="evenodd">
        <g id="Add-Identifier-Type" transform="translate(-914.000000, -180.000000)" fill-rule="nonzero" fill="#1B84FA">
            <g id="pop-up" transform="translate(100.000000, 61.000000)">
                <g id="Barcode" transform="translate(801.000000, 119.000000)">
                    <path d="M13,0 L15,0 L15,20 L13,20 L13,0 Z M29,0 L33,0 L33,20 L29,20 L29,0 Z M35,0 L37,0 L37,20 L35,20 L35,0 Z M39,0 L41,0 L41,20 L39,20 L39,0 Z M43,0 L45,0 L45,20 L43,20 L43,0 Z M17,0 L23,0 L23,20 L17,20 L17,0 Z M25,0 L27,0 L27,20 L25,20 L25,0 Z" id="ic_barcode-"></path>
                </g>
            </g>
        </g>
    </g>
</svg>
