<?xml version="1.0" encoding="UTF-8"?>
<svg width="151px" height="86px" viewBox="0 0 151 86" version="1.1" xmlns="http://www.w3.org/2000/svg">
    <!-- Generator: Sketch 50 (54983) - http://www.bohemiancoding.com/sketch -->
    <title>Group 16</title>
    <desc>Created with Sketch.</desc>
    <defs></defs>
    <g id="Login" stroke="none" stroke-width="1" fill="none" fill-rule="evenodd">
        <g transform="translate(-535.000000, -187.000000)" id="Group">
            <g transform="translate(435.000000, 127.000000)">
                <g id="Group-16" transform="translate(100.000000, 60.000000)">
                    <path d="M126.665714,52 C127.305717,52 127.809998,52.1342844 128.178571,52.4028571 C128.547145,52.6714299 128.731429,53.0371405 128.731429,53.5 C128.731429,53.8314302 128.638572,54.1157131 128.452857,54.3528571 C128.267142,54.5900012 128.01143,54.748571 127.685714,54.8285714 C128.085716,54.9028575 128.39857,55.0742844 128.624286,55.3428571 C128.850001,55.6114299 128.962857,55.9457123 128.962857,56.3457143 C128.962857,56.8600026 128.764288,57.2642842 128.367143,57.5585714 C127.969998,57.8528586 127.428575,58 126.742857,58 L124,58 L124,52 L126.665714,52 Z M126.605714,54.4514286 C126.902859,54.4514286 127.135713,54.3857149 127.304286,54.2542857 C127.472858,54.1228565 127.557143,53.9400012 127.557143,53.7057143 C127.557143,53.4771417 127.472858,53.3000006 127.304286,53.1742857 C127.135713,53.0485708 126.902859,52.9885714 126.605714,52.9942857 L125.148571,52.9942857 L125.148571,54.4514286 L126.605714,54.4514286 Z M126.605714,57.0057143 C126.97143,57.0114286 127.257142,56.9428579 127.462857,56.8 C127.668572,56.6571421 127.771429,56.4571441 127.771429,56.2 C127.771429,55.9542845 127.668572,55.7614293 127.462857,55.6214286 C127.257142,55.4814279 126.97143,55.4142857 126.605714,55.42 L125.148571,55.42 L125.148571,57.0057143 L126.605714,57.0057143 Z M131.505714,52 L135.902857,52 L135.902857,53.0028571 L132.654286,53.0028571 L132.654286,54.4857143 L135.568571,54.4857143 L135.568571,55.4885714 L132.654286,55.4885714 L132.654286,56.9971429 L136.005714,56.9971429 L136.005714,58 L131.505714,58 L131.505714,52 Z M137.931429,52 L142.825714,52 L142.825714,53.02 L140.957143,53.02 L140.957143,58 L139.8,58 L139.8,53.02 L137.931429,53.02 L137.931429,52 Z M148.9,58 L148.368571,56.7314286 L145.437143,56.7314286 L144.905714,58 L143.714286,58 L146.345714,52 L147.537143,52 L150.134286,58 L148.9,58 Z M145.848571,55.7457143 L147.957143,55.7457143 L146.911428,53.2257143 L145.848571,55.7457143 Z" id="Beta" fill="#ACB3BF"></path>
                    <path d="M75,48 C61.745166,48 51,37.254834 51,24 C51,10.745166 61.745166,0 75,0 C88.254834,0 99,10.745166 99,24 C99,37.254834 88.254834,48 75,48 Z M75,36 C81.627417,36 87,30.627417 87,24 C87,17.372583 81.627417,12 75,12 C68.372583,12 63,17.372583 63,24 C63,30.627417 68.372583,36 75,36 Z" id="logo" fill="#1B84FA"></path>
                    <path d="M0,85.7088949 L0,68.7277628 L1.25921541,68.7277628 L1.25921541,85.7088949 L0,85.7088949 Z M7.20820104,85.7088949 L7.20820104,73.3369272 L8.39476941,73.3369272 L8.39476941,75.6415094 C9.21810257,74.1859838 10.5983964,73.0458221 12.8504547,73.0458221 C15.9742776,73.0458221 17.7904536,75.180593 17.7904536,78.1401617 L17.7904536,85.7088949 L16.6038853,85.7088949 L16.6038853,78.3584906 C16.6038853,75.8113208 15.1751601,74.1374663 12.6809449,74.1374663 C10.2593768,74.1374663 8.39476941,75.9811321 8.39476941,78.5525606 L8.39476941,85.7088949 L7.20820104,85.7088949 Z M27.178066,85.9272237 C25.2650272,85.9272237 23.7152236,84.884097 23.7152236,82.5309973 L23.7152236,74.4285714 L21.9232632,74.4285714 L21.9232632,73.3369272 L23.7152236,73.3369272 L23.7152236,69.3827493 L24.901792,69.3827493 L24.901792,73.3369272 L29.2363989,73.3369272 L29.2363989,74.4285714 L24.901792,74.4285714 L24.901792,82.4097035 C24.901792,84.180593 25.9430662,84.8113208 27.3717914,84.8113208 C27.9771834,84.8113208 28.4857127,84.690027 29.1879675,84.3746631 L29.1879675,85.490566 C28.5583598,85.7816712 27.9529678,85.9272237 27.178066,85.9272237 Z M38.5997955,86 C35.3548943,86 32.5458753,83.4043127 32.5458753,79.4986523 C32.5458753,75.9083558 35.0643061,73.0458221 38.4060701,73.0458221 C41.8689124,73.0458221 44.0725394,75.8598383 44.0725394,79.5229111 C44.0725394,79.7412399 44.0725394,79.8140162 44.0483237,80.0080863 L33.8050907,80.0080863 C34.0230318,83.0889488 36.2266588,84.884097 38.6482269,84.884097 C40.5612657,84.884097 41.8689124,84.0350404 42.885971,82.9433962 L43.7093042,83.671159 C42.4500888,85.0296496 40.9729322,86 38.5997955,86 Z M33.8050907,78.9407008 L42.7891083,78.9407008 C42.6195986,76.4420485 41.1908734,74.1374663 38.3576387,74.1374663 C35.9118549,74.1374663 34.0230318,76.1994609 33.8050907,78.9407008 Z M48.7138783,85.7088949 L48.7138783,68 L49.9004466,68 L49.9004466,85.7088949 L48.7138783,85.7088949 Z M55.7525696,85.7088949 L55.7525696,73.3369272 L56.9391379,73.3369272 L56.9391379,85.7088949 L55.7525696,85.7088949 Z M55.6072755,70.1105121 L55.6072755,68.4851752 L57.084432,68.4851752 L57.084432,70.1105121 L55.6072755,70.1105121 Z M68.0702793,86 C64.5105742,86 61.7742022,83.0889488 61.7742022,79.5229111 C61.7742022,75.9811321 64.5347899,73.0458221 68.0702793,73.0458221 C70.3949847,73.0458221 71.8963569,74.1132075 72.9860625,75.3504043 L72.1627294,76.1994609 C71.0972394,75.1078167 69.8864554,74.1617251 68.0460636,74.1617251 C65.3096917,74.1617251 63.0576333,76.5633423 63.0576333,79.5229111 C63.0576333,82.5067385 65.3096917,84.884097 68.1429263,84.884097 C69.8864554,84.884097 71.1941021,83.9380054 72.2353764,82.7735849 L73.1071409,83.5498652 C71.8479255,84.9811321 70.3465533,86 68.0702793,86 Z M82.5674003,86 C78.9108325,86 76.2471076,83.0404313 76.2471076,79.5229111 C76.2471076,76.0539084 78.9350482,73.0458221 82.6158317,73.0458221 C86.2723995,73.0458221 88.9361244,76.0053908 88.9361244,79.5229111 C88.9361244,82.9919137 86.2481838,86 82.5674003,86 Z M82.6158317,84.884097 C85.3522036,84.884097 87.6526933,82.4824798 87.6526933,79.5229111 C87.6526933,76.5390836 85.3522036,74.1617251 82.5674003,74.1617251 C79.782597,74.1617251 77.5305387,76.5633423 77.5305387,79.5229111 C77.5305387,82.5067385 79.7583813,84.884097 82.6158317,84.884097 Z M109.89076,86 C104.757036,86 101.391056,81.9002695 101.391056,77.2183288 C101.391056,72.5849057 104.805467,68.4366577 109.939192,68.4366577 C115.072916,68.4366577 118.438896,72.5363881 118.438896,77.2183288 C118.438896,81.851752 115.024485,86 109.89076,86 Z M109.939192,84.8598383 C114.128505,84.8598383 117.131249,81.4636119 117.131249,77.2183288 C117.131249,73.0215633 114.080073,69.5768194 109.89076,69.5768194 C105.701448,69.5768194 102.698703,72.9730458 102.698703,77.2183288 C102.698703,81.4150943 105.749879,84.8598383 109.939192,84.8598383 Z M123.467686,85.7088949 L123.467686,73.3369272 L124.654254,73.3369272 L124.654254,75.6415094 C125.477587,74.1859838 126.857881,73.0458221 129.109939,73.0458221 C132.233762,73.0458221 134.049938,75.180593 134.049938,78.1401617 L134.049938,85.7088949 L132.86337,85.7088949 L132.86337,78.3584906 C132.86337,75.8113208 131.434645,74.1374663 128.940429,74.1374663 C126.518861,74.1374663 124.654254,75.9811321 124.654254,78.5525606 L124.654254,85.7088949 L123.467686,85.7088949 Z M144.527256,86 C141.282355,86 138.473336,83.4043127 138.473336,79.4986523 C138.473336,75.9083558 140.991767,73.0458221 144.333531,73.0458221 C147.796373,73.0458221 150,75.8598383 150,79.5229111 C150,79.7412399 150,79.8140162 149.975784,80.0080863 L139.732551,80.0080863 C139.950492,83.0889488 142.154119,84.884097 144.575687,84.884097 C146.488726,84.884097 147.796373,84.0350404 148.813432,82.9433962 L149.636765,83.671159 C148.377549,85.0296496 146.900393,86 144.527256,86 Z M139.732551,78.9407008 L148.716569,78.9407008 C148.547059,76.4420485 147.118334,74.1374663 144.285099,74.1374663 C141.839316,74.1374663 139.950492,76.1994609 139.732551,78.9407008 Z" id="Intelico-One" fill="#393B47"></path>
                </g>
            </g>
        </g>
    </g>
</svg>
