<svg width="24.000000000000004" height="22" xmlns="http://www.w3.org/2000/svg">
 <!-- Generator: Sketch 50 (54983) - http://www.bohemiancoding.com/sketch -->
 <title>ic_device</title>
 <desc>Created with Sketch.</desc>

 <g>
  <title>background</title>
  <rect fill="none" id="canvas_background" height="24" width="26" y="-1" x="-1"/>
 </g>
 <g>
  <title>Layer 1</title>
  <g fill-rule="evenodd" fill="none" id="Events">
   <g stroke="null" id="Group-4" fill="#00A1FD">
    <g stroke="null" id="svg_1">
     <g stroke="null" id="events">
      <g stroke="null" id="Content">
       <g stroke="null" id="Row-Copy">
        <path stroke="null" id="ic_device" d="m5.620366,0l12.800927,0c1.009966,0 1.828704,0.818738 1.828704,1.828704l0,18.287039c0,1.009966 -0.818738,1.828704 -1.828704,1.828704l-12.800927,0c-1.009966,0 -1.828704,-0.818738 -1.828704,-1.828704l0,-18.287039c0,-1.009966 0.818738,-1.828704 1.828704,-1.828704zm0.914352,1.828704c-0.504978,0 -0.914352,0.409374 -0.914352,0.914352l0,16.458335c0,0.504978 0.409374,0.914352 0.914352,0.914352l10.972223,0c0.504978,0 0.914352,-0.409374 0.914352,-0.914352l0,-16.458335c0,-0.504978 -0.409374,-0.914352 -0.914352,-0.914352l-10.972223,0zm5.486112,17.372687c-0.504978,0 -0.914352,-0.409374 -0.914352,-0.914352c0,-0.504978 0.409374,-0.914352 0.914352,-0.914352c0.504978,0 0.914352,0.409374 0.914352,0.914352c0,0.504978 -0.409374,0.914352 -0.914352,0.914352zm-1.828704,-16.458335l3.657408,0c0.504978,0 0.914352,0.409374 0.914352,0.914352c0,0.504978 -0.409374,0.914352 -0.914352,0.914352l-3.657408,0c-0.504978,0 -0.914352,-0.409374 -0.914352,-0.914352c0,-0.504978 0.409374,-0.914352 0.914352,-0.914352z"/>
       </g>
      </g>
     </g>
    </g>
   </g>
  </g>
 </g>
</svg>
