<svg xmlns="http://www.w3.org/2000/svg" version="1.1" xmlns:xlink="http://www.w3.org/1999/xlink" xmlns:svgjs="http://svgjs.com/svgjs" viewBox="0 0 24 24" height="24" width="24"><title>Exported from Streamline App (https://app.streamlineicons.com)</title><g transform="matrix(1,0,0,1,0,0)"><path d="M2.5,1.498c1.381,0,2.5,1.119,2.5,2.5s-1.119,2.5-2.5,2.5S0,5.379,0,3.998S1.119,1.498,2.5,1.498z M8.5,5H23 c0.552,0,1-0.448,1-1s-0.448-1-1-1H8.5c-0.552,0-1,0.448-1,1S7.948,5,8.5,5z M2.5,9.498c1.381,0,2.5,1.119,2.5,2.5 s-1.119,2.5-2.5,2.5S0,13.379,0,11.998S1.119,9.498,2.5,9.498z M23,11H8.5c-0.552,0-1,0.448-1,1s0.448,1,1,1H23 c0.552,0,1-0.448,1-1S23.552,11,23,11z M2.5,17.498c1.381,0,2.5,1.119,2.5,2.5s-1.119,2.5-2.5,2.5S0,21.379,0,19.998 S1.119,17.498,2.5,17.498z M23,19H8.5c-0.552,0-1,0.448-1,1s0.448,1,1,1H23c0.552,0,1-0.448,1-1S23.552,19,23,19z" stroke="none" fill="#ffffff" stroke-width="0" stroke-linecap="round" stroke-linejoin="round"></path></g></svg>