<?xml version="1.0" encoding="UTF-8"?>
<svg width="16px" height="16px" viewBox="0 0 16 16" version="1.1" xmlns="http://www.w3.org/2000/svg">
    <!-- Generator: Sketch 47.1 (45422) - http://www.bohemiancoding.com/sketch -->
    <title>ic_calendar</title>
    <desc>Created with Sketch.</desc>
    <defs></defs>
    <g id="History" stroke="none" stroke-width="1" fill="none" fill-rule="evenodd">
        <g id="History-Filter" transform="translate(-974.000000, -490.000000)" fill-rule="nonzero" fill="#888991">
            <g id="Filter" transform="translate(100.000000, 221.000000)">
                <g id="Group-2-Copy" transform="translate(779.000000, 254.000000)">
                    <path d="M109.575845,16.7815398 C110.357627,16.8045818 111,17.4371375 111,18.2146315 L111,29.5573376 C111,30.348106 110.342208,31 109.533342,31 L96.4666583,31 C95.6565856,31 95,30.3494499 95,29.5573376 L95,18.2146315 C95,17.4371375 95.6424067,16.8045818 96.4241887,16.7815398 L96.4241887,18.7169986 C96.4241887,19.5918063 97.1499256,20.2967656 98.0444011,20.2967656 L99.0667211,20.2967656 C99.9611631,20.2967656 100.69652,19.5918063 100.69652,18.7169986 L100.69652,16.7745912 L105.30348,16.7745912 L105.30348,18.7169986 C105.30348,19.5918063 106.03887,20.2967656 106.933446,20.2967656 L107.955565,20.2967656 C108.850074,20.2967656 109.575845,19.5918063 109.575845,18.7169986 L109.575845,16.7815398 Z M100.780253,23.8271013 L100.780253,25.094245 C100.780253,25.2949362 100.613995,25.4573771 100.408853,25.4573771 L99.1128108,25.4573771 C98.9079044,25.4573771 98.7416127,25.2949362 98.7416127,25.094245 L98.7416127,23.8271013 C98.7416127,23.6266724 98.9079044,23.4642971 99.1128108,23.4642971 L100.408853,23.4642971 C100.613995,23.4642971 100.780253,23.6266724 100.780253,23.8271013 Z M104.019236,23.8271013 L104.019236,25.094245 C104.019236,25.2949362 103.852945,25.4573771 103.648206,25.4573771 L102.351995,25.4573771 C102.147089,25.4573771 101.980797,25.2949362 101.980797,25.094245 L101.980797,23.8271013 C101.980797,23.6266724 102.147089,23.4642971 102.351995,23.4642971 L103.648206,23.4642971 C103.852945,23.4642971 104.019236,23.6266724 104.019236,23.8271013 Z M107.258387,23.8271013 L107.258387,25.094245 C107.258387,25.2949362 107.092096,25.4573771 106.887189,25.4573771 L105.591147,25.4573771 C105.386005,25.4573771 105.219747,25.2949362 105.219747,25.094245 L105.219747,23.8271013 C105.219747,23.6266724 105.386005,23.4642971 105.591147,23.4642971 L106.887189,23.4642971 C107.092096,23.4642971 107.258387,23.6266724 107.258387,23.8271013 Z M100.780253,26.9946001 L100.780253,28.2615143 C100.780253,28.4620416 100.613995,28.6244825 100.408853,28.6244825 L99.1128108,28.6244825 C98.9079044,28.6244825 98.7416127,28.4620744 98.7416127,28.2615143 L98.7416127,26.9946001 C98.7416127,26.7938433 98.9079044,26.6315991 99.1128108,26.6315991 L100.408853,26.6315991 C100.613995,26.6315991 100.780253,26.7938433 100.780253,26.9946001 Z M104.019236,26.9946001 L104.019236,28.2615143 C104.019236,28.4620416 103.852945,28.6244825 103.648206,28.6244825 L102.351995,28.6244825 C102.147089,28.6244825 101.980797,28.4620744 101.980797,28.2615143 L101.980797,26.9946001 C101.980797,26.7938433 102.147089,26.6315991 102.351995,26.6315991 L103.648206,26.6315991 C103.852945,26.6315991 104.019236,26.7938433 104.019236,26.9946001 Z M107.258387,26.9946001 L107.258387,28.2615143 C107.258387,28.4620416 107.092096,28.6244825 106.887357,28.6244825 L105.591147,28.6244825 C105.386005,28.6244825 105.219747,28.4620744 105.219747,28.2615143 L105.219747,26.9946001 C105.219747,26.7938433 105.386005,26.6315991 105.591147,26.6315991 L106.887357,26.6315991 C107.092096,26.6315991 107.258387,26.7938433 107.258387,26.9946001 Z M109.101104,28.8510016 L109.101071,22.9920844 C109.101071,22.6496344 108.817225,22.3719182 108.46701,22.3719182 L97.5050343,22.3719182 C97.154786,22.3719182 96.870974,22.6496344 96.870974,22.9920844 L96.870974,28.8510016 C96.870974,29.1933205 97.1548195,29.4710367 97.5050343,29.4710367 L108.467044,29.4710367 C108.817259,29.4710367 109.101104,29.1933205 109.101104,28.8510016 Z M98.0408145,19.2591565 C97.7339074,19.2591565 97.4851235,19.0162162 97.4851235,18.7161464 L97.4851235,15.5432067 C97.4851235,15.2431041 97.7339074,15 98.0408145,15 L99.0518384,15 C99.358712,15 99.6075294,15.2431041 99.6075294,15.5432067 L99.6075294,18.7161464 C99.6075294,19.0162162 99.358712,19.2591565 99.0518384,19.2591565 L98.0408145,19.2591565 Z M106.920441,19.2591565 C106.613601,19.2591565 106.364783,19.0162162 106.364783,18.7161464 L106.364783,15.5432067 C106.364783,15.2431041 106.613601,15 106.920441,15 L107.931465,15 C108.238171,15 108.486988,15.2431041 108.486955,15.5432067 L108.486955,18.7161464 C108.486955,19.0162162 108.238137,19.2591565 107.931465,19.2591565 L106.920441,19.2591565 Z" id="ic_calendar"></path>
                </g>
            </g>
        </g>
    </g>
</svg>
