<?xml version="1.0" encoding="UTF-8"?>
<svg width="20px" height="18px" viewBox="0 0 20 18" version="1.1" xmlns="http://www.w3.org/2000/svg">
    <!-- Generator: sketchtool 49.1 (51147) - http://www.bohemiancoding.com/sketch -->
    <title>7E2AE9E4-5BC8-4067-A5DB-2408262E6E86</title>
    <desc>Created with sketchtool.</desc>
    <defs>
        <linearGradient x1="131.426968%" y1="-34.1782798%" x2="0%" y2="100%" id="linearGradient-1">
            <stop stop-color="#1B84FA" stop-opacity="0" offset="0%"></stop>
            <stop stop-color="#1B84FA" offset="100%"></stop>
        </linearGradient>
    </defs>
    <g id="Locate-1.1" stroke="none" stroke-width="1" fill="none" fill-rule="evenodd">
        <g id="Locate-1.1-Main" transform="translate(-208.000000, -164.000000)" fill="url(#linearGradient-1)">
            <g id="Navbar" transform="translate(100.000000, 125.000000)">
                <g id="Group" transform="translate(92.000000, 30.000000)">
                    <path d="M33.6666667,10.125 C33.4444009,9.45 32.7777778,9 32.1111111,9 L19.8888889,9 C19.1111111,9 18.5555556,9.45 18.3333333,10.125 L16,16.875 L16,25.875 C16,26.55 16.4444444,27 17.1111111,27 L18.2222222,27 C18.8888889,27 19.3333333,26.55 19.3333333,25.875 L19.3333333,24.75 L32.6666667,24.75 L32.6666667,25.875 C32.6666667,26.55 33.1111111,27 33.7777778,27 L34.8888889,27 C35.5555556,27 36,26.55 36,25.875 L36,16.875 L33.6666667,10.125 Z M19.8888889,21.375 C19,21.375 18.2222222,20.5875 18.2222222,19.6875 C18.2222222,18.7875 19,18 19.8888889,18 C20.7777778,18 21.5555556,18.7875 21.5555556,19.6875 C21.5555556,20.5875 20.7777778,21.375 19.8888889,21.375 Z M32.1111111,21.375 C31.2222222,21.375 30.4444444,20.5875 30.4444444,19.6875 C30.4444444,18.7875 31.2222222,18 32.1111111,18 C33,18 33.7777778,18.7875 33.7777778,19.6875 C33.7777778,20.5875 33,21.375 32.1111111,21.375 Z M18.2222222,15.75 L19.8888889,10.6875 L32.1111111,10.6875 L33.7777778,15.75 L18.2222222,15.75 Z" id="ic_car"></path>
                </g>
            </g>
        </g>
    </g>
</svg>
