<?xml version="1.0" encoding="UTF-8"?>
<svg width="24px" height="24px" viewBox="0 0 24 24" version="1.1" xmlns="http://www.w3.org/2000/svg">
    <!-- Generator: Sketch 46.2 (44496) - http://www.bohemiancoding.com/sketch -->
    <title>ic_clear</title>
    <desc>Created with Sketch.</desc>
    <defs></defs>
    <g id="Allerts" stroke="none" stroke-width="1" fill="none" fill-rule="evenodd">
        <g id="Allerts-list" transform="translate(-556.000000, -269.000000)" fill="#737580">
            <g id="List" transform="translate(250.000000, 233.000000)">
                <path d="M319.242641,47.8284271 L321.363961,45.7071068 C321.754485,45.3165825 321.754485,44.6834175 321.363961,44.2928932 C320.973437,43.9023689 320.340272,43.9023689 319.949747,44.2928932 L317.828427,46.4142136 L315.707107,44.2928932 C315.316582,43.9023689 314.683418,43.9023689 314.292893,44.2928932 C313.902369,44.6834175 313.902369,45.3165825 314.292893,45.7071068 L316.414214,47.8284271 L314.292893,49.9497475 C313.902369,50.3402718 313.902369,50.9734367 314.292893,51.363961 C314.683418,51.7544853 315.316582,51.7544853 315.707107,51.363961 L317.828427,49.2426407 L319.949747,51.363961 C320.340272,51.7544853 320.973437,51.7544853 321.363961,51.363961 C321.754485,50.9734367 321.754485,50.3402718 321.363961,49.9497475 L319.242641,47.8284271 Z M318,60 C311.372583,60 306,54.627417 306,48 C306,41.372583 311.372583,36 318,36 C324.627417,36 330,41.372583 330,48 C330,54.627417 324.627417,60 318,60 Z" id="ic_clear"></path>
            </g>
        </g>
    </g>
</svg>
