<?xml version="1.0" encoding="UTF-8"?>
<svg width="14px" height="20px" viewBox="0 0 14 20" version="1.1" xmlns="http://www.w3.org/2000/svg">
    <!-- Generator: Sketch 47.1 (45422) - http://www.bohemiancoding.com/sketch -->
    <title>Combined Shape</title>
    <desc>Created with Sketch.</desc>
    <defs></defs>
    <g id="Locate" stroke="none" stroke-width="1" fill="none" fill-rule="evenodd">
        <g id="Locate-Identifier-Details" transform="translate(-999.000000, -322.000000)" fill-rule="nonzero" fill="#ffffff">
            <g id="Group" transform="translate(982.000000, 308.000000)">
                <path d="M30.3,17.9 L18.2,14 C18.1,14 18,14 17.9,14 C17.4,14 17,14.4 17,14.8 L17,33.1 C17,33.6 17.4,33.9 17.9,33.9 L30,33.9 C30.5,33.9 30.9,33.5 30.9,33.1 L30.9,18.7 C30.9,18.3 30.7,18 30.3,17.9 Z M28.9,31.9 L18.9,31.9 L18.9,16.3 L28.9,19.5 L28.9,31.9 Z M20.9,27.9 L20.9,29.9 L26.9,29.9 L26.9,27.9 L20.9,27.9 Z M20.9,23.9 L20.9,25.9 L26.9,25.9 L26.9,23.9 L20.9,23.9 Z M20.9,19.9 L20.9,21.9 L26.9,21.9 L26.9,19.9 L20.9,19.9 Z" id="Combined-Shape"></path>
            </g>
        </g>
    </g>
</svg>
