<?xml version="1.0" encoding="UTF-8"?>
<svg width="30px" height="32px" viewBox="0 0 30 32" version="1.1" xmlns="http://www.w3.org/2000/svg">
    <!-- Generator: Sketch 47.1 (45422) - http://www.bohemiancoding.com/sketch -->
    <title>ic_container</title>
    <desc>Created with Sketch.</desc>
    <defs></defs>
    <g id="Identifiers" stroke="none" stroke-width="1" fill="none" fill-rule="evenodd">
        <g id="Add-Identifier-Type" transform="translate(-375.000000, -324.000000)" fill-rule="nonzero" fill="#1B84FA">
            <g id="pop-up" transform="translate(100.000000, 61.000000)">
                <g id="Container" transform="translate(256.000000, 263.000000)">
                    <path d="M46.3093339,11.758125 L43.9173292,11.758125 L37.3408345,7.3219375 C37.8223235,5.5843125 36.8296926,3.826625 35.1538163,3.2453125 L35.1538163,1.11625 C35.1538163,0.4998125 34.6372477,0 34,0 C33.3627523,0 32.8461837,0.4998125 32.8461837,1.11625 L32.8461837,3.2453125 C31.1690154,3.827125 30.1779995,5.585875 30.6591655,7.3220625 L24.0826708,11.758125 L21.6906661,11.758125 C20.2069849,11.758125 19,12.9258125 19,14.3611875 L19,29.3968125 C19,30.83225 20.2069849,32 21.6906661,32 L46.3092047,32 C47.7929505,32 49,30.8323125 49,29.3969375 L49,14.36125 C49,12.9258125 47.7930151,11.758125 46.3093339,11.758125 Z M27.8461406,25.004625 C27.8461406,25.621125 27.3295074,26.120875 26.6923243,26.120875 C26.0550765,26.120875 25.5385079,25.6210625 25.5385079,25.004625 L25.5385079,18.7535 C25.5385079,18.137 26.0551411,17.63725 26.6923243,17.63725 C27.329572,17.63725 27.8461406,18.1370625 27.8461406,18.7535 L27.8461406,25.004625 L27.8461406,25.004625 Z M35.1538163,25.004625 C35.1538163,25.621125 34.6371831,26.120875 34,26.120875 C33.3627523,26.120875 32.8461837,25.6210625 32.8461837,25.004625 L32.8461837,18.7535 C32.8461837,18.137 33.3628169,17.63725 34,17.63725 C34.6372477,17.63725 35.1538163,18.1370625 35.1538163,18.7535 L35.1538163,25.004625 Z M28.1175394,11.758125 L31.9569182,9.16825 C33.1586702,10.0308125 34.811483,10.05225 36.0430818,9.16825 L39.8824606,11.758125 L28.1175394,11.758125 Z M42.4615567,25.004625 C42.4615567,25.621125 41.9449235,26.120875 41.3077403,26.120875 C40.6704926,26.120875 40.153924,25.6210625 40.153924,25.004625 L40.153924,18.7535 C40.153924,18.137 40.6705572,17.63725 41.3077403,17.63725 C41.9449881,17.63725 42.4615567,18.1370625 42.4615567,18.7535 L42.4615567,25.004625 Z" id="ic_container"></path>
                </g>
            </g>
        </g>
    </g>
</svg>
