<svg width="24" height="22" xmlns="http://www.w3.org/2000/svg">
 <!-- Generator: Sketch 47.1 (45422) - http://www.bohemiancoding.com/sketch -->
 <title>ic_container</title>
 <desc>Created with Sketch.</desc>

 <g>
  <title>background</title>
  <rect fill="none" id="canvas_background" height="24" width="26" y="-1" x="-1"/>
 </g>
 <g>
  <title>Layer 1</title>
  <g stroke="null" fill-rule="evenodd" fill="none" id="Identifiers">
   <g stroke="null" fill="#00c3f2" fill-rule="nonzero" id="Add-Identifier-Type">
    <g stroke="null" id="pop-up">
     <g stroke="null" id="Container">
      <path stroke="null" id="ic_container" d="m20.28252,8.060132l-1.639704,0l-4.508158,-3.040979c0.330059,-1.191137 -0.350384,-2.396024 -1.499184,-2.794509l0,-1.45946c0,-0.422567 -0.354106,-0.765184 -0.790938,-0.765184c-0.436832,0 -0.790938,0.342617 -0.790938,0.765184l0,1.45946c-1.149685,0.398835 -1.829024,1.604442 -1.499184,2.794592l-4.508158,3.040897l-1.639704,0c-1.017062,0 -1.844441,0.800446 -1.844441,1.784391l0,10.306842c0,0.983987 0.827379,1.784474 1.844441,1.784474l16.875879,0c1.017103,0 1.84453,-0.800446 1.84453,-1.784385l0,-10.30689c0,-0.983987 -0.827379,-1.784433 -1.844441,-1.784433zm-12.656424,9.080416c0,0.422601 -0.354147,0.765184 -0.790938,0.765184c-0.436825,0 -0.790931,-0.342624 -0.790931,-0.765184l0,-4.285118c0,-0.422608 0.354147,-0.765184 0.790931,-0.765184c0.436832,0 0.790938,0.342617 0.790938,0.765184l0,4.285118l0,0zm5.009378,0c0,0.422601 -0.354154,0.765184 -0.790938,0.765184c-0.436832,0 -0.790938,-0.342624 -0.790938,-0.765184l0,-4.285118c0,-0.422608 0.354154,-0.765184 0.790938,-0.765184c0.436832,0 0.790938,0.342617 0.790938,0.765184l0,4.285118zm-4.823335,-9.080416l2.631876,-1.775343c0.823794,0.591281 1.956787,0.605978 2.801042,0l2.631876,1.775343l-8.064794,0zm9.832754,9.080416c0,0.422601 -0.354154,0.765184 -0.790938,0.765184c-0.436832,0 -0.790938,-0.342624 -0.790938,-0.765184l0,-4.285118c0,-0.422608 0.354154,-0.765184 0.790938,-0.765184c0.436832,0 0.790938,0.342617 0.790938,0.765184l0,4.285118z"/>
     </g>
    </g>
   </g>
  </g>
 </g>
</svg>