<?xml version="1.0" encoding="UTF-8"?>
<svg version="1.1" viewBox="0 0 82 59" xmlns="http://www.w3.org/2000/svg" xmlns:xlink="http://www.w3.org/1999/xlink">
    <!--Generated by IJSVG (https://github.com/iconjar/IJSVG)-->
    <g transform="matrix(1,0,0,1,-24,-36)">
        <g transform="matrix(1,0,0,1,25,37)">
            <path fill="none" fill-rule="evenodd" stroke="#FFF" stroke-linecap="round" stroke-linejoin="round" stroke-width="1" d="M76.5908,10.4314l-16.0248,15.3385l-20.8903,-22.7699l-20.8903,22.7699l-15.7855,-15.4564l8.189,32.5795h56.9735Z"></path>
            <path fill="none" fill-rule="evenodd" stroke="#FFF" stroke-linecap="round" stroke-linejoin="round" stroke-width="1" d="M70.4691,54.4154h-60.7718c-7.59647,0 -7.59647,-11.4154 0,-11.4154h60.7718c7.5395,0 7.5433,11.4154 0,11.4154Z"></path>
            <g transform="matrix(1,0,0,1,40,3)">
                <g transform="matrix(6.12323e-17,-1,1,6.12323e-17,0,0)">
                    <g transform="matrix(1,0,0,1,-40,-3)">
                        <path fill="#FFF" fill-rule="evenodd" stroke="#FFF" stroke-width="1.5" d="M41.591,1.40901c0.87868,0.87868 0.87868,2.3033 0,3.18198c-0.87868,0.87868 -2.3033,0.87868 -3.18198,0c-0.87868,-0.87868 -0.87868,-2.3033 0,-3.18198c0.87868,-0.87868 2.3033,-0.87868 3.18198,-4.44089e-16"></path>
                        <path fill="none" fill-rule="evenodd" stroke="#FFF" stroke-width="1" d="M42.1213,0.87868c1.17157,1.17157 1.17157,3.07107 0,4.24264c-1.17157,1.17157 -3.07107,1.17157 -4.24264,8.88178e-16c-1.17157,-1.17157 -1.17157,-3.07107 0,-4.24264c1.17157,-1.17157 3.07107,-1.17157 4.24264,0"></path>
                    </g>
                </g>
            </g>
            <g transform="matrix(1,0,0,1,40,54)">
                <g transform="matrix(6.12323e-17,-1,1,6.12323e-17,0,0)">
                    <g transform="matrix(1,0,0,1,-40,-54)">
                        <path fill="#FFF" fill-rule="evenodd" stroke="#FFF" stroke-width="1.5" d="M41.591,52.409c0.87868,0.87868 0.87868,2.3033 0,3.18198c-0.87868,0.87868 -2.3033,0.87868 -3.18198,0c-0.87868,-0.87868 -0.87868,-2.3033 0,-3.18198c0.87868,-0.87868 2.3033,-0.87868 3.18198,0"></path>
                        <path fill="none" fill-rule="evenodd" stroke="#FFF" stroke-width="1" d="M42.1213,51.8787c1.17157,1.17157 1.17157,3.07107 0,4.24264c-1.17157,1.17157 -3.07107,1.17157 -4.24264,0c-1.17157,-1.17157 -1.17157,-3.07107 0,-4.24264c1.17157,-1.17157 3.07107,-1.17157 4.24264,0"></path>
                    </g>
                </g>
            </g>
            <g transform="matrix(1,0,0,1,77,10)">
                <g transform="matrix(6.12323e-17,-1,1,6.12323e-17,0,0)">
                    <g transform="matrix(1,0,0,1,-77,-10)">
                        <path fill="#FFF" fill-rule="evenodd" stroke="#FFF" stroke-width="1.5" d="M78.591,8.40901c0.87868,0.87868 0.87868,2.3033 0,3.18198c-0.87868,0.87868 -2.3033,0.87868 -3.18198,0c-0.87868,-0.87868 -0.87868,-2.3033 0,-3.18198c0.87868,-0.87868 2.3033,-0.87868 3.18198,0"></path>
                        <path fill="none" fill-rule="evenodd" stroke="#FFF" stroke-width="1" d="M79.1213,7.87868c1.17157,1.17157 1.17157,3.07107 0,4.24264c-1.17157,1.17157 -3.07107,1.17157 -4.24264,0c-1.17157,-1.17157 -1.17157,-3.07107 0,-4.24264c1.17157,-1.17157 3.07107,-1.17157 4.24264,-8.88178e-16"></path>
                    </g>
                </g>
            </g>
            <g transform="matrix(1,0,0,1,3,10)">
                <g transform="matrix(6.12323e-17,-1,1,6.12323e-17,0,0)">
                    <g transform="matrix(1,0,0,1,-3,-10)">
                        <path fill="#FFF" fill-rule="evenodd" stroke="#FFF" stroke-width="1.5" d="M4.59099,8.40901c0.87868,0.87868 0.87868,2.3033 0,3.18198c-0.87868,0.87868 -2.3033,0.87868 -3.18198,0c-0.87868,-0.87868 -0.87868,-2.3033 -4.44089e-16,-3.18198c0.87868,-0.87868 2.3033,-0.87868 3.18198,0"></path>
                        <path fill="none" fill-rule="evenodd" stroke="#FFF" stroke-width="1" d="M5.12132,7.87868c1.17157,1.17157 1.17157,3.07107 0,4.24264c-1.17157,1.17157 -3.07107,1.17157 -4.24264,0c-1.17157,-1.17157 -1.17157,-3.07107 0,-4.24264c1.17157,-1.17157 3.07107,-1.17157 4.24264,-8.88178e-16"></path>
                    </g>
                </g>
            </g>
        </g>
    </g>
</svg>