<?xml version="1.0" encoding="UTF-8"?>
<svg width="32px" height="32px" viewBox="0 0 32 32" version="1.1" xmlns="http://www.w3.org/2000/svg">
    <!-- Generator: Sketch 47.1 (45422) - http://www.bohemiancoding.com/sketch -->
    <title>ic_actions</title>
    <desc>Created with Sketch.</desc>
    <defs>
        <linearGradient x1="131.426968%" y1="-34.1782798%" x2="0%" y2="100%" id="linearGradient-1">
            <stop stop-color="#AAABB3" stop-opacity="0" offset="0%"></stop>
            <stop stop-color="#AAABB3" offset="100%"></stop>
        </linearGradient>
    </defs>
    <g id="Actions" stroke="none" stroke-width="1" fill="none" fill-rule="evenodd" opacity="0.5">
        <g id="Select-Action-Type" transform="translate(-899.000000, -298.000000)" fill="url(#linearGradient-1)">
            <g id="pop-up" transform="translate(580.000000, 125.000000)">
                <g id="Face-Template" transform="translate(283.000000, 173.000000)">
                    <path d="M50.0978602,0.760672609 L46.3644898,5.49137623 C45.9098196,5.94671312 45.6791512,6.43471693 45.6791512,6.94338757 C45.6791512,7.73072706 46.2944893,8.57806701 47.6438332,8.57806701 L49.5738482,8.57806701 L49.5738482,13.5487647 L44.6044839,13.5487647 L44.6044839,11.6187496 C44.6044839,10.2687391 43.7564773,9.65340093 42.9691378,9.65340093 C42.4604672,9.65340093 41.9724633,9.88473607 41.5177931,10.3387396 L36.7857562,14.0721099 C35.737748,15.1221181 35.7384146,16.8294648 36.7857562,17.877473 L41.5177931,21.6108433 C41.97313,22.0661802 42.4611338,22.296182 42.9691378,22.296182 C43.7564773,22.296182 44.6044839,21.6801772 44.6044839,20.3308333 L44.6044839,18.4368185 L49.5738482,18.4368185 L49.5738482,23.3708492 L47.6438332,23.3708492 C46.2944893,23.3708492 45.6791512,24.2181892 45.6791512,25.0055287 C45.6791512,25.5141993 45.909153,26.0022031 46.3644898,26.45754 L50.0978602,31.1882436 C50.6051974,31.6949143 51.2812027,31.9742498 52.0005417,31.9742498 C52.7205473,31.9742498 53.3958859,31.6955809 53.9038899,31.187577 L57.6379269,26.4562067 C58.0919304,26.0015365 58.3219322,25.5135326 58.3219322,25.004862 C58.3219322,24.2181892 57.7065941,23.3701826 56.3572502,23.3701826 L54.4632354,23.3701826 L54.4632354,18.4361518 L59.3972661,18.4361518 L59.3972661,20.3301666 C59.3972661,21.6795105 60.2452728,22.2955153 61.0319456,22.2955153 C61.5392829,22.2955153 62.0279533,22.0655135 62.4832902,21.6101766 L67.2139939,17.8768063 C68.262002,16.8287981 68.262002,15.1221181 67.2139939,14.0714433 L62.4832902,10.3387396 C62.0292867,9.88340273 61.5406162,9.65340093 61.0319456,9.65340093 C60.2446061,9.65340093 59.3972661,10.2687391 59.3972661,11.6187496 L59.3972661,13.5487647 L54.4632354,13.5487647 L54.4632354,8.57806701 L56.3565835,8.57806701 C57.7065941,8.57806701 58.3219322,7.73139373 58.3219322,6.94338757 C58.3219322,6.43605028 58.0919304,5.94737979 57.6365935,5.49137623 L53.9038899,0.760672609 C53.3965526,0.253335312 52.6992138,0 52.001875,0 C51.3045362,0 50.6065308,0.253335312 50.0978602,0.760672609 Z" id="ic_actions"></path>
                </g>
            </g>
        </g>
    </g>
</svg>
