<?xml version="1.0" encoding="UTF-8"?>
<svg width="16px" height="16px" viewBox="0 0 16 16" version="1.1" xmlns="http://www.w3.org/2000/svg">
    <!-- Generator: Sketch 46.2 (44496) - http://www.bohemiancoding.com/sketch -->
    <title>ic_desktop</title>
    <desc>Created with Sketch.</desc>
    <defs></defs>
    <g id="Page-1" stroke="none" stroke-width="1" fill="none" fill-rule="evenodd">
        <g id="Messages_Combined" transform="translate(-1251.000000, -7.000000)" fill="#FFFFFF">
            <g id="Status-bar">
                <path d="M1261,20.0001091 L1261,21 L1264,21 L1264,21 C1264.55228,21 1265,21.4477153 1265,22 C1265,22.5522847 1264.55228,23 1264,23 L1254,23 C1253.44772,23 1253,22.5522847 1253,22 C1253,21.4477153 1253.44772,21 1254,21 L1254,21 L1257,21 L1257,20.0001091 L1253,20.0001091 L1253,20.0001091 C1251.89543,20.0001091 1251,19.1046786 1251,18.0001091 L1251,9.00010914 L1251,9.00010914 C1251,7.89553964 1251.89543,7.00010914 1253,7.00010914 L1253,7.00010914 L1265,7.00010914 L1265,7.00010914 C1266.10457,7.00010914 1267,7.89553964 1267,9.00010914 L1267,18.0001091 L1267,18.0001091 C1267,19.1046786 1266.10457,20.0001091 1265,20.0001091 L1261,20.0001091 Z M1254,9.00000682 C1253.44772,9.00000682 1253,9.44772207 1253,10.0000068 L1253,17.0001091 C1253,17.5523939 1253.44772,18.0001091 1254,18.0001091 L1254,18.0001091 L1264,18.0001091 C1264.55228,18.0001091 1265,17.5523939 1265,17.0001091 L1265,10.0000068 C1265,9.44772207 1264.55228,9.00000682 1264,9.00000682 L1254,9.00000682 Z" id="ic_desktop"></path>
            </g>
        </g>
    </g>
</svg>
