<?xml version="1.0" encoding="UTF-8"?>
<svg width="20px" height="24px" viewBox="0 0 20 24" version="1.1" xmlns="http://www.w3.org/2000/svg">
    <!-- Generator: sketchtool 50 (54983) - http://www.bohemiancoding.com/sketch -->
    <title>81A5C4B8-E29A-44FF-8842-EC68CA6EC511</title>
    <desc>Created with sketchtool.</desc>
    <defs></defs>
    <g id="Events" stroke="none" stroke-width="1" fill="none" fill-rule="evenodd">
        <g transform="translate(-789.000000, -335.000000)" fill="#fff" id="Group-4">
            <g transform="translate(150.000000, 26.000000)">
                <g id="events">
                    <g id="Content" transform="translate(30.000000, 116.000000)">
                        <g id="Row-Copy-2" transform="translate(0.000000, 104.000000)">
                            <g id="Button-Copy-3" transform="translate(570.000000, 81.000000)">
                                <g id="Group-7" transform="translate(39.000000, 8.000000)">
                                    <path d="M0,20 L20,20 L20,4 L0,4 L0,20 Z M20,2 C21.105,2 22,2.895 22,4 L22,20 C22,21.105 21.105,22 20,22 L0,22 C-1.105,22 -2,21.105 -2,20 L-2,4 C-2,2.895 -1.105,2 0,2 L20,2 Z M3,18 L5,18 L5,6 L3,6 L3,18 Z M7,18 L9,18 L9,6 L7,6 L7,18 Z M11,18 L13,18 L13,6 L11,6 L11,18 Z M15,18 L17,18 L17,6 L15,6 L15,18 Z" id="ic_details" transform="translate(10.000000, 12.000000) rotate(-270.000000) translate(-10.000000, -12.000000) "></path>
                                </g>
                            </g>
                        </g>
                    </g>
                </g>
            </g>
        </g>
    </g>
</svg>
