<?xml version="1.0" encoding="UTF-8"?>
<svg width="20px" height="20px" viewBox="0 0 20 20" version="1.1" xmlns="http://www.w3.org/2000/svg">
    <!-- Generator: Sketch 47.1 (45422) - http://www.bohemiancoding.com/sketch -->
    <title>ic_actions</title>
    <desc>Created with Sketch.</desc>
    <defs></defs>
    <g id="Locate" stroke="none" stroke-width="1" fill="none" fill-rule="evenodd">
        <g id="Locate-Identifier-Details" transform="translate(-996.000000, -438.000000)" fill="#888991">
            <g id="Group" transform="translate(982.000000, 308.000000)">
                <path d="M24.6554513,130.252715 L27.8812045,133.477105 C27.9734728,133.569373 28.083013,133.704367 28.083013,133.824815 C28.083013,133.976172 27.860751,134.03026 27.6521247,134.03026 L26.361278,134.03026 L25.452231,134.03026 L25.452231,134.939307 L25.452231,137.646449 L25.452231,138.555496 L26.361278,138.555496 L29.0434211,138.555496 L29.9524681,138.555496 L29.9524681,137.646449 L29.9524681,136.330603 C29.9524681,136.121977 30.0065564,135.899715 30.1579127,135.899715 C30.278816,135.899715 30.4124459,136.008346 30.5042597,136.100614 L33.7291039,139.326822 C34.0899955,139.688168 34.0904501,140.275867 33.7295584,140.636304 L30.5047142,143.863421 C30.4129004,143.955235 30.2783615,144.064321 30.1579127,144.064321 C30.0061019,144.064321 29.9524681,143.832059 29.9524681,143.633432 L29.9524681,142.342131 L29.9524681,141.433084 L29.0434211,141.433084 L26.361278,141.433084 L25.452231,141.433084 L25.452231,142.342131 L25.452231,145.024274 L25.452231,145.933321 L26.361278,145.933321 L27.6525792,145.933321 C27.851206,145.933321 28.083013,145.98741 28.083013,146.138766 C28.083013,146.259669 27.9739273,146.394208 27.8830226,146.485567 L24.6554513,149.711321 C24.4786416,149.88813 24.2522889,149.981308 24.0004829,149.981308 C23.7527676,149.981308 23.5200516,149.885403 23.3459691,149.711321 L20.1188522,146.486476 C20.0270385,146.394663 19.9179528,146.260124 19.9179528,146.13922 C19.9179528,145.987864 20.1402148,145.933776 20.3483866,145.933776 L21.6642321,145.933776 L22.5732791,145.933776 L22.5732791,145.024729 L22.5732791,142.342586 L22.5732791,141.433539 L21.6642321,141.433539 L18.9579992,141.433539 L18.0489522,141.433539 L18.0489522,142.342586 L18.0489522,143.633887 C18.0489522,143.832514 17.9948639,144.064775 17.843053,144.064775 C17.7226043,144.064775 17.5880654,143.95569 17.4962516,143.863876 L14.2704983,140.636759 C13.9096067,140.276322 13.9100612,139.688623 14.2704983,139.327731 L17.4962516,136.101069 C17.5880654,136.009255 17.7226043,135.899715 17.843053,135.899715 C17.9948639,135.899715 18.0489522,136.121977 18.0489522,136.330603 L18.0489522,137.646449 L18.0489522,138.555496 L18.9579992,138.555496 L21.6642321,138.555496 L22.5732791,138.555496 L22.5732791,137.646449 L22.5732791,134.939307 L22.5732791,134.03026 L21.6642321,134.03026 L20.3483866,134.03026 C20.1497598,134.03026 19.9179528,133.976626 19.9179528,133.824815 C19.9179528,133.704367 20.027493,133.569373 20.1188522,133.478014 L23.34506,130.253624 C23.5064158,130.092268 23.7459497,130 24.0013919,130 C24.2563796,130 24.4950045,130.092268 24.6554513,130.252715 Z" id="ic_actions"></path>
            </g>
        </g>
    </g>
</svg>
