<?xml version="1.0" encoding="UTF-8"?>
<svg width="20px" height="16px" viewBox="0 0 20 16" version="1.1" xmlns="http://www.w3.org/2000/svg">
    <!-- Generator: Sketch 50 (54983) - http://www.bohemiancoding.com/sketch -->
    <title>Combined Shape</title>
    <desc>Created with Sketch.</desc>
    <defs></defs>
    <g id="View" stroke="none" stroke-width="1" fill="none" fill-rule="evenodd">
        <g transform="translate(-453.000000, -244.000000)" fill="#ffffff" id="Group-4">
            <g transform="translate(150.000000, 212.000000)">
                <g id="events">
                    <g id="Navigation-bar">
                        <path d="M305,46 L321,46 L321,43 C321,42.4477153 321.447715,42 322,42 C322.552285,42 323,42.4477153 323,43 L323,47 C323,47.5522847 322.552285,48 322,48 L304,48 C303.447715,48 303,47.5522847 303,47 L303,43 C303,42.4477153 303.447715,42 304,42 C304.552285,42 305,42.4477153 305,43 L305,46 Z M312,38.6192881 L312,33 C312,32.4477153 312.447715,32 313,32 C313.552285,32 314,32.4477153 314,33 L314,38.5334227 L316.247468,36.2859548 C316.628741,35.9046817 317.246907,35.9046817 317.62818,36.2859548 C318.009453,36.6672278 318.009453,37.2853936 317.62818,37.6666667 L313.961688,41.3331589 C313.915702,41.4756977 313.836119,41.6097549 313.722937,41.7229369 C313.51308,41.9327938 313.231456,42.0271432 312.957067,42.0059849 C312.682679,42.0271432 312.401055,41.9327938 312.191198,41.7229369 C312.078016,41.6097549 311.998432,41.4756977 311.952447,41.3331589 L308.285955,37.6666667 C307.904682,37.2853936 307.904682,36.6672278 308.285955,36.2859548 C308.667228,35.9046817 309.285394,35.9046817 309.666667,36.2859548 L312,38.6192881 Z" id="Combined-Shape"></path>
                    </g>
                </g>
            </g>
        </g>
    </g>
</svg>
