<?xml version="1.0" encoding="UTF-8"?>
<svg width="20px" height="20px" viewBox="0 0 20 20" version="1.1" xmlns="http://www.w3.org/2000/svg">
    <!-- Generator: Sketch 46.2 (44496) - http://www.bohemiancoding.com/sketch -->
    <title>Combined Shape</title>
    <desc>Created with Sketch.</desc>
    <defs></defs>
    <g id="Page-1" stroke="none" stroke-width="1" fill="none" fill-rule="evenodd">
        <g id="Messages_Combined" transform="translate(-850.000000, -713.000000)" fill="#888991">
            <g id="Messages" transform="translate(250.000000, 237.000000)">
                <g id="White-Message" transform="translate(360.000000, 0.000000)">
                    <g id="Group-3" transform="translate(30.000000, 452.000000)">
                        <path d="M219,34.6407545 L219,25 L219,25 C219,24.4477153 219.447715,24 220,24 L220,24 C220.552285,24 221,24.4477153 221,25 L221,34.6407545 L223.359246,32.281509 C223.734591,31.9061637 224.343146,31.9061637 224.718491,32.281509 C225.093836,32.6568542 225.093836,33.2654092 224.718491,33.6407545 L220.906719,37.4525268 C220.860874,37.5487104 220.798132,37.6388503 220.718491,37.718491 C220.525942,37.9110402 220.272021,38.0048132 220.019695,37.9998099 C220.013145,37.9999364 220.00658,38 220,38 L220,38 C219.99342,38 219.986855,37.9999364 219.980305,37.9998099 C219.727979,38.0048132 219.474058,37.9110402 219.281509,37.718491 C219.201868,37.6388503 219.139126,37.5487104 219.093281,37.4525268 L215.281509,33.6407545 C214.906164,33.2654092 214.906164,32.6568542 215.281509,32.281509 C215.656854,31.9061637 216.265409,31.9061637 216.640754,32.281509 L219,34.6407545 Z M214,26 L212,26 L212,42 L228,42 L228,26 L226,26 L226,24 L214,24 L214,26 Z M210,24 L230,24 L230,44 L210,44 L210,24 Z" id="Combined-Shape"></path>
                    </g>
                </g>
            </g>
        </g>
    </g>
</svg>
