<?xml version="1.0" encoding="UTF-8"?>
<svg width="10px" height="6px" viewBox="0 0 10 6" version="1.1" xmlns="http://www.w3.org/2000/svg">
    <!-- Generator: Sketch 46.2 (44496) - http://www.bohemiancoding.com/sketch -->
    <title>ic_dropdown</title>
    <desc>Created with Sketch.</desc>
    <defs></defs>
    <g id="Allerts" stroke="none" stroke-width="1" fill="none" fill-rule="evenodd">
        <g id="Allerts-Accept" transform="translate(-1130.000000, -318.000000)" fill="#ACB3BF">
            <g id="Accept" transform="translate(890.000000, 233.000000)">
                <g id="Group-2" transform="translate(30.000000, 65.000000)">
                    <path d="M215,23.5719096 L211.709599,20.281509 C211.328326,19.9002359 210.710161,19.9002359 210.328888,20.281509 L210.328888,20.281509 L210.328888,20.281509 C209.947614,20.662782 209.947614,21.2809478 210.328888,21.6622208 L213.99538,25.3287131 C214.041365,25.4712519 214.120949,25.6053091 214.23413,25.718491 C214.443987,25.928348 214.725612,26.0226973 215,26.0015391 C215.274388,26.0226973 215.556013,25.928348 215.76587,25.718491 C215.879051,25.6053091 215.958635,25.4712519 216.00462,25.3287131 L219.671112,21.6622208 C220.052386,21.2809478 220.052386,20.662782 219.671112,20.281509 L219.671112,20.281509 L219.671112,20.281509 C219.289839,19.9002359 218.671674,19.9002359 218.290401,20.281509 L215,23.5719096 Z" id="ic_dropdown"></path>
                </g>
            </g>
        </g>
    </g>
</svg>
