<svg xmlns="http://www.w3.org/2000/svg" version="1.1" xmlns:xlink="http://www.w3.org/1999/xlink" xmlns:svgjs="http://svgjs.com/svgjs" viewBox="0 0 24 24" height="24" width="24"><title>Exported from Streamline App (https://app.streamlineicons.com)</title><g transform="matrix(1,0,0,1,0,0)"><path d="M11.114,14.556c0.489,0.487,1.279,0.487,1.768,0l9.686-9.686c0.196-0.195,0.196-0.511,0.001-0.707 c-0.076-0.077-0.175-0.126-0.282-0.142C22.192,4.007,22.096,4,22,4H2C1.903,4,1.807,4.007,1.711,4.021 c-0.273,0.04-0.463,0.293-0.423,0.567C1.304,4.695,1.353,4.794,1.43,4.87L11.114,14.556z M23.888,5.832 c-0.068-0.029-0.148-0.014-0.2,0.039l-6.2,6.2c-0.097,0.098-0.097,0.256,0,0.354l5.043,5.043c0.298,0.288,0.307,0.762,0.019,1.06 s-0.762,0.307-1.06,0.019c-0.006-0.006-0.012-0.012-0.018-0.018l-5.043-5.043c-0.098-0.098-0.256-0.098-0.354,0c0,0,0,0,0,0 l-2.129,2.129c-1.074,1.073-2.814,1.073-3.888,0l-2.131-2.127c-0.098-0.097-0.256-0.097-0.354,0l-5.043,5.043 c-0.298,0.288-0.773,0.279-1.06-0.019c-0.281-0.291-0.28-0.752,0-1.042l5.043-5.043c0.097-0.098,0.097-0.256,0-0.354l-6.2-6.2 C0.26,5.82,0.18,5.804,0.112,5.834C0.045,5.862,0.001,5.927,0,6v12c0,1.105,0.895,2,2,2h20c1.105,0,2-0.895,2-2V6 C24,5.926,23.956,5.86,23.888,5.832z" stroke="none" fill="#ffffff" stroke-width="0" stroke-linecap="round" stroke-linejoin="round"></path></g></svg>