<?xml version="1.0" encoding="UTF-8"?>
<svg width="24px" height="24px" viewBox="0 0 24 24" version="1.1" xmlns="http://www.w3.org/2000/svg">
    <!-- Generator: sketchtool 49 (51002) - http://www.bohemiancoding.com/sketch -->
    <title>DF45F7A3-4F4B-43E5-8D4D-FAD4E21C037A</title>
    <desc>Created with sketchtool.</desc>
    <defs>
        <linearGradient x1="131.426968%" y1="-34.1782798%" x2="0%" y2="100%" id="linearGradient-1">
            <stop stop-color="#ffffff" stop-opacity="0" offset="0%"></stop>
            <stop stop-color="#ffffff" offset="100%"></stop>
        </linearGradient>
    </defs>
    <g id="Home" stroke="none" stroke-width="1" fill="none" fill-rule="evenodd">
        <g id="Dashboard" transform="translate(-168.000000, -940.000000)" fill="url(#linearGradient-1)" fill-rule="nonzero">
            <g id="Menu" transform="translate(30.000000, 920.000000)">
                <g id="ic_engage" transform="translate(126.000000, 8.000000)">
                    <path d="M28.3413988,27.5209915 L28.3413988,20.5077668 C28.3413988,18.4383013 26.7140015,16.828726 24.7610941,16.828726 L23.9972907,16.828726 L23.9972907,12 L24.7610941,12 C29.2093746,12 32.7896793,15.7939932 32.7896793,20.5077668 L32.7896793,27.5209915 L35.0680966,27.5209915 C35.8275945,27.5209915 36.2615824,28.4406911 35.8275945,29.1305668 L31.2708361,35.5688681 C30.9453261,36.1437106 30.1859046,36.1437106 29.7519167,35.5688681 L25.1951583,29.1305668 C24.7611704,28.4407719 25.1951583,27.5209915 25.9546562,27.5209915 L28.3413988,27.5209915 Z M19.6586012,20.4790085 L19.6586012,27.4922332 C19.6586012,29.5616987 21.2859985,31.171274 23.2389059,31.171274 L24.0027093,31.171274 L24.0027093,36 L23.2389059,36 C18.7906254,36 15.2103207,32.2060068 15.2103207,27.4922332 L15.2103207,20.4790085 L12.9319034,20.4790085 C12.1724055,20.4790085 11.7384176,19.5593089 12.1724055,18.8694332 L16.7291639,12.4311319 C17.0546739,11.8562894 17.8140954,11.8562894 18.2480833,12.4311319 L22.8048417,18.8694332 C23.2388296,19.5592281 22.8048417,20.4790085 22.0453438,20.4790085 L19.6586012,20.4790085 Z" id="Combined-Shape"></path>
                </g>
            </g>
        </g>
    </g>
</svg>
