<?xml version="1.0" encoding="UTF-8"?>
<svg width="32px" height="32px" viewBox="0 0 32 32" version="1.1" xmlns="http://www.w3.org/2000/svg">
    <!-- Generator: Sketch 47.1 (45422) - http://www.bohemiancoding.com/sketch -->
    <title>error</title>
    <desc>Created with Sketch.</desc>
    <defs></defs>
    <g id="Home" stroke="none" stroke-width="1" fill="none" fill-rule="evenodd">
        <g id="Notifications" transform="translate(-60.000000, -90.000000)" fill="#FC6058">
            <g id="Group" transform="translate(30.000000, 60.000000)">
                <g id="Card" transform="translate(30.000000, 30.000000)">
                    <path d="M16,13.0257739 L12.2457676,9.27154145 C11.8552433,8.88101716 11.2220783,8.88101716 10.831554,9.27154145 L9.27154145,10.831554 L9.27154145,10.831554 C8.88101716,11.2220783 8.88101716,11.8552433 9.27154145,12.2457676 L13.0257739,16 L9.27154145,19.7542324 C8.88101716,20.1447567 8.88101716,20.7779217 9.27154145,21.168446 L10.831554,22.7284586 C11.2220783,23.1189828 11.8552433,23.1189828 12.2457676,22.7284586 L16,18.9742261 L19.7542324,22.7284586 C20.1447567,23.1189828 20.7779217,23.1189828 21.168446,22.7284586 L22.7284586,21.168446 C23.1189828,20.7779217 23.1189828,20.1447567 22.7284586,19.7542324 L18.9742261,16 L22.7284586,12.2457676 C23.1189828,11.8552433 23.1189828,11.2220783 22.7284586,10.831554 L21.168446,9.27154145 C20.7779217,8.88101716 20.1447567,8.88101716 19.7542324,9.27154145 L16,13.0257739 Z M16,32 C7.163444,32 0,24.836556 0,16 C0,7.163444 7.163444,0 16,0 C24.836556,0 32,7.163444 32,16 C32,24.836556 24.836556,32 16,32 Z" id="error"></path>
                </g>
            </g>
        </g>
    </g>
</svg>
