<svg width="24" height="21.999999999999996" xmlns="http://www.w3.org/2000/svg">
 <!-- Generator: sketchtool 50 (54983) - http://www.bohemiancoding.com/sketch -->
 <title>8E67405C-4807-4CF2-BB70-84398A12C633</title>
 <desc>Created with sketchtool.</desc>

 <g>
  <title>background</title>
  <rect fill="none" id="canvas_background" height="24" width="26" y="-1" x="-1"/>
 </g>
 <g>
  <title>Layer 1</title>
  <g fill-rule="evenodd" fill="none" id="Location">
   <g stroke="null" id="Navbar" fill="#00c3f2">
    <g stroke="null" id="svg_1">
     <g stroke="null" id="Group-6">
      <g stroke="null" id="Group">
       <path stroke="null" id="Fill-1" d="m16.454615,11.304625c-1.221252,0.94886 -2.750974,1.518898 -4.417793,1.518898c-1.661408,0 -3.18662,-0.56643 -4.406068,-1.509879c-2.143054,1.373683 -4.478225,3.387757 -5.392811,5.779751c-0.364391,0.950664 0.110941,2.014074 1.067919,2.487602c2.934973,1.449448 5.292693,2.262112 8.731862,2.262112c3.437364,0 5.795084,-0.812665 8.728254,-2.26121c0.959684,-0.47443 1.434114,-1.540545 1.069723,-2.49121c-0.915488,-2.392896 -3.168581,-4.412382 -5.381085,-5.786065m-4.417793,-11.108523c-2.989091,0 -5.411752,2.422661 -5.411752,5.411752c0,2.989091 2.422661,5.411752 5.411752,5.411752c2.989091,0 5.411752,-2.422661 5.411752,-5.411752c0,-2.989091 -2.422661,-5.411752 -5.411752,-5.411752m4.414186,13.274125c1.824662,1.308742 3.14964,2.826738 3.699834,4.266264c0.015333,0.038784 -0.036078,0.155137 -0.184,0.228196c-2.723915,1.345722 -4.794812,2.074505 -7.929118,2.074505c-3.13611,0 -5.207007,-0.729685 -7.931824,-2.075407c-0.140706,-0.069451 -0.198431,-0.184902 -0.183098,-0.226392c0.535763,-1.400742 1.842701,-2.886268 3.725089,-4.253637c1.336703,0.751332 2.831248,1.143684 4.388931,1.143684c1.567604,0 3.071169,-0.396862 4.414186,-1.157213m-4.414186,-11.470208c1.989721,0 3.607835,1.619016 3.607835,3.607835c0,1.989721 -1.618114,3.607835 -3.607835,3.607835c-1.989721,0 -3.607835,-1.618114 -3.607835,-3.607835c0,-1.988819 1.618114,-3.607835 3.607835,-3.607835"/>
      </g>
     </g>
    </g>
   </g>
  </g>
 </g>
</svg>