<svg xmlns="http://www.w3.org/2000/svg" version="1.1" xmlns:xlink="http://www.w3.org/1999/xlink" xmlns:svgjs="http://svgjs.com/svgjs" viewBox="0 0 24 24" height="24" width="24"><title>Exported from Streamline App (https://app.streamlineicons.com)</title><g transform="matrix(1,0,0,1,0,0)"><path d="M23.894,0.552C23.724,0.214,23.378,0,23,0H1C0.448,0,0,0.448,0,1c0,0.216,0.07,0.427,0.2,0.6L9,13.423V22 c0.008,1.101,0.899,1.992,2,2c0.433,0.001,0.854-0.14,1.2-0.4l2-1.5c0.503-0.378,0.799-0.971,0.8-1.6v-7.077L23.8,1.6 C24.027,1.297,24.064,0.891,23.894,0.552z M5.417,2.2l3.939,5.25c0.065,0.087,0.1,0.192,0.1,0.3V9c0,0.276-0.224,0.5-0.5,0.5 c-0.157,0-0.306-0.074-0.4-0.2L3.62,2.8c-0.166-0.221-0.121-0.534,0.1-0.7C3.807,2.035,3.912,2,4.02,2h1 C5.176,2.001,5.323,2.075,5.417,2.2z" stroke="none" fill="#6f84ab" stroke-width="0" stroke-linecap="round" stroke-linejoin="round"></path></g></svg>
