<?xml version="1.0" encoding="UTF-8"?>
<svg width="20px" height="10px" viewBox="0 0 20 10" version="1.1" xmlns="http://www.w3.org/2000/svg">
    <!-- Generator: Sketch 46.2 (44496) - http://www.bohemiancoding.com/sketch -->
    <title>ic_forward</title>
    <desc>Created with Sketch.</desc>
    <defs></defs>
    <g id="Page-1" stroke="none" stroke-width="1" fill="none" fill-rule="evenodd">
        <g id="Messages_Combined" transform="translate(-709.000000, -280.000000)" fill="#ACB3BF">
            <g id="Messages" transform="translate(250.000000, 237.000000)">
                <g id="White-Message" transform="translate(360.000000, 0.000000)">
                    <g id="Group-2" transform="translate(30.000000, 30.000000)">
                        <g id="Forward" transform="translate(53.000000, 0.000000)">
                            <path d="M32.6407545,19 L17,19 L17,19 C16.4477153,19 16,18.5522847 16,18 C16,17.4477153 16.4477153,17 17,17 L17,17 L32.6407545,17 L30.281509,14.6407545 C29.9061637,14.2654092 29.9061637,13.6568542 30.281509,13.281509 C30.6568542,12.9061637 31.2654092,12.9061637 31.6407545,13.281509 L35.4525268,17.0932813 C35.5487104,17.1391257 35.6388503,17.2018682 35.718491,17.281509 C35.9110402,17.4740582 36.0048132,17.7279791 35.9998099,17.9803053 C35.9999364,17.9868549 36,17.99342 36,18 C36,18.00658 35.9999364,18.0131451 35.9998099,18.0196947 C36.0048132,18.2720209 35.9110402,18.5259418 35.718491,18.718491 C35.6388503,18.7981318 35.5487104,18.8608743 35.4525268,18.9067187 L31.6407545,22.718491 C31.2654092,23.0938363 30.6568542,23.0938363 30.281509,22.718491 C29.9061637,22.3431458 29.9061637,21.7345908 30.281509,21.3592455 L32.6407545,19 Z" id="ic_forward"></path>
                        </g>
                    </g>
                </g>
            </g>
        </g>
    </g>
</svg>
