<?xml version="1.0" encoding="UTF-8"?>
<svg width="16px" height="16px" viewBox="0 0 16 16" version="1.1" xmlns="http://www.w3.org/2000/svg">
    <!-- Generator: Sketch 46.2 (44496) - http://www.bohemiancoding.com/sketch -->
    <title>ic_full_screen</title>
    <desc>Created with Sketch.</desc>
    <defs></defs>
    <g id="Page-1" stroke="none" stroke-width="1" fill="none" fill-rule="evenodd">
        <g id="Messages_Combined" transform="translate(-1287.000000, -7.000000)" fill="#737580">
            <g id="Status-bar">
                <g id="ic_full_screen" transform="translate(1287.000000, 7.000000)">
                    <path d="M2,12.5857864 L2,9 C2,8.44771525 1.55228475,8 1,8 L1,8 L1,8 C0.44771525,8 -6.76353751e-17,8.44771525 0,9 L0,9 L0,15 C3.38176876e-17,15.2761424 0.111928813,15.5261424 0.292893219,15.7071068 C0.473857625,15.8880712 0.723857625,16 1,16 L7,16 C7.55228475,16 8,15.5522847 8,15 C8,14.4477153 7.55228475,14 7,14 L3.41421356,14 L6.82842712,10.5857864 C7.21895142,10.1952621 7.21895142,9.56209717 6.82842712,9.17157288 C6.43790283,8.78104858 5.80473785,8.78104858 5.41421356,9.17157288 L2,12.5857864 Z" id="Combined-Shape"></path>
                    <path d="M14,3.41421356 L14,7 C14,7.55228475 14.4477153,8 15,8 C15.5522847,8 16,7.55228475 16,7 L16,1 C16,0.723857625 15.8880712,0.473857625 15.7071068,0.292893219 C15.5261424,0.111928813 15.2761424,2.22044605e-16 15,2.22044605e-16 L9,-2.22044605e-16 C8.44771525,0 8,0.44771525 8,1 L8,1 L8,1 C8,1.55228475 8.44771525,2 9,2 L9,2 L12.5857864,2 L9.17157288,5.41421356 C8.78104858,5.80473785 8.78104858,6.43790283 9.17157288,6.82842712 C9.56209717,7.21895142 10.1952621,7.21895142 10.5857864,6.82842712 L10.5857864,6.82842712 L14,3.41421356 Z" id="Combined-Shape"></path>
                </g>
            </g>
        </g>
    </g>
</svg>
