<svg xmlns="http://www.w3.org/2000/svg" version="1.1" xmlns:xlink="http://www.w3.org/1999/xlink" xmlns:svgjs="http://svgjs.com/svgjs" viewBox="0 0 24 24" height="24" width="24"><title>Exported from Streamline App (https://app.streamlineicons.com)</title><g transform="matrix(1,0,0,1,0,0)"><path d="M8.5,6.999h7c0.828,0,1.5,0.672,1.5,1.5v7c0,0.828-0.672,1.5-1.5,1.5h-7c-0.828,0-1.5-0.672-1.5-1.5v-7 C7,7.671,7.672,6.999,8.5,6.999z M0,23.5C0,23.776,0.224,24,0.5,24h5c0.276,0,0.5-0.223,0.501-0.499 c0-0.133-0.053-0.261-0.147-0.355l-1.44-1.439c-0.098-0.098-0.098-0.256,0-0.354c0,0,0,0,0,0l1.97-1.969 c0.488-0.488,0.488-1.28,0-1.768s-1.28-0.488-1.768,0l-1.969,1.97c-0.098,0.097-0.256,0.097-0.354,0l-1.439-1.441 c-0.195-0.196-0.512-0.196-0.707-0.001C0.052,18.238-0.001,18.367,0,18.5V23.5z M24,0.5C24,0.224,23.776,0,23.5,0h-5 C18.224,0,18,0.224,18,0.5c0,0.132,0.052,0.259,0.146,0.353l1.44,1.44c0.097,0.097,0.098,0.255,0.001,0.352 c0,0-0.001,0.001-0.001,0.001l-1.97,1.97c-0.488,0.488-0.488,1.28,0,1.768s1.28,0.488,1.768,0l1.969-1.97 c0.098-0.098,0.256-0.098,0.354,0c0,0,0,0,0,0l1.439,1.439C23.24,5.947,23.367,6,23.5,6c0.066,0,0.13-0.013,0.191-0.038 C23.878,5.885,24,5.702,24,5.5V0.5z M0.5,0C0.224,0,0,0.224,0,0.5v5c0,0.202,0.122,0.385,0.309,0.462C0.37,5.987,0.434,6,0.5,6 c0.133,0,0.26-0.053,0.354-0.147l1.439-1.44c0.098-0.098,0.256-0.098,0.354,0c0,0,0,0,0,0l1.969,1.97 c0.488,0.488,1.28,0.488,1.768,0s0.488-1.28,0-1.768l-1.97-1.97C4.317,2.548,4.316,2.39,4.413,2.293c0,0,0.001-0.001,0.001-0.001 l1.44-1.44c0.194-0.196,0.193-0.513-0.003-0.707C5.758,0.052,5.631,0,5.5,0H0.5z M24,23.5v-5c0-0.276-0.223-0.5-0.499-0.501 c-0.133,0-0.261,0.053-0.355,0.147l-1.439,1.44c-0.098,0.097-0.256,0.097-0.354,0l-1.969-1.97c-0.488-0.488-1.28-0.488-1.768,0 s-0.488,1.28,0,1.768l1.97,1.969c0.098,0.098,0.098,0.256,0,0.354c0,0,0,0,0,0l-1.44,1.439c-0.196,0.195-0.196,0.512-0.001,0.707 C18.239,23.947,18.367,24,18.5,24h5C23.776,24,24,23.776,24,23.5z" stroke="none" fill="#ffffff" stroke-width="0" stroke-linecap="round" stroke-linejoin="round"></path></g></svg>