<?xml version="1.0" encoding="UTF-8"?>
<svg width="48px" height="48px" viewBox="0 0 48 48" version="1.1" xmlns="http://www.w3.org/2000/svg">
    <!-- Generator: sketchtool 49.1 (51147) - http://www.bohemiancoding.com/sketch -->
    <title>B9C4BDBE-94F1-4B61-9E0F-F88BD87E488D</title>
    <desc>Created with sketchtool.</desc>
    <defs>
        <linearGradient x1="131.426968%" y1="-34.1782798%" x2="0%" y2="100%" id="linearGradient-1">
            <stop stop-color="#FFFFFF" stop-opacity="0" offset="0%"></stop>
            <stop stop-color="#FFFFFF" offset="100%"></stop>
        </linearGradient>
    </defs>
    <g id="Protect" stroke="none" stroke-width="1" fill="none" fill-rule="evenodd">
        <g id="Protect-overview" transform="translate(-226.000000, -369.000000)" fill="url(#linearGradient-1)" fill-rule="nonzero">
            <g id="Group" transform="translate(180.000000, 339.000000)">
                <g id="Groups">
                    <path d="M89.1325,40.452 C91.6495,44.1975 93.1195,48.711 93.1225,53.5605 C93.1225,64.6635 85.432,73.95 75.094,76.44 L75.5245,74.883 L79.5685,72.183 L80.629,69.2925 L83.4235,67.9935 L86.071,62.9355 L81.9775,60.528 L79.8565,58.1205 L78.6055,57.9735 L76.1005,57.3 L73.9435,56.9595 L72.055,57.4905 L70.8985,56.1915 L69.7405,55.8525 L69.838,54.1215 L68.44,54.165 L67.645,55.0815 L67.1905,53.154 L69.0175,52.287 L70.8985,53.154 L71.908,53.154 L72.274,51.66 L75.0865,48.2865 L78.9925,46.314 L81.253,46.602 L81.4585,45.4965 L78.655,42.6525 L77.5975,40.5345 L76.0525,40.5345 L75.0895,39.9705 L73.018,39.6645 L72.5845,42.126 L70.075,41.643 L69.8845,40.1025 L71.8105,39.666 L72.445,36.9045 L74.356,37.6905 L74.3065,38.865 L75.763,39.4725 L76.735,39.759 L77.929,39.135 L76.867,37.884 L74.6965,35.766 L74.7475,34.752 L76.963,35.1855 L78.841,36.87 L79.4215,38.364 L79.855,39.765 L82.843,42.459 L83.6125,42.7035 L84.673,41.01 L88.4275,40.6755 L89.1325,40.452 Z M72.2725,65.8755 C72.2725,65.8755 73.354,69.5355 73.3555,69.681 C73.3555,69.825 72.274,74.064 72.274,74.064 L72.52,76.9185 C71.548,77.0355 70.5655,77.124 69.5635,77.124 C56.5525,77.124 46.006,66.573 46.006,53.5635 C46.006,49.227 47.197,45.1785 49.24,41.6895 L50.935,41.298 L49.2355,42.645 L50.5675,43.518 L53.215,43.518 L57.145,42.8175 L59.62,46.842 L59.62,50.6025 L62.9965,55.1805 L63.5695,55.1805 L63.5695,53.565 L64.87,56.286 L68.788,57.165 L70.5565,58.941 L72.1315,59.412 L70.5565,62.694 L72.2725,65.8755 Z M54.76,37.5975 L51.406,38.5665 L51.394,38.5665 C55.711,33.333 62.2495,30 69.562,30 C73.1545,30 76.5445,30.8295 79.591,32.2635 L78.748,32.391 L76.435,32.043 L74.8,33.135 L73.6405,34.413 L69.433,34.8075 L67.7005,34.5225 L66.5125,36.39 L63.0445,36.582 L60.874,35.9565 L58.945,37.014 L54.76,37.5975 Z M70.558,32.343 L69.175,33.204 L70.1365,33.828 L72.2725,33.6135 L74.509,31.911 L72.964,31.0185 L70.558,32.343 Z M63.4315,32.5365 C63.397,32.817 61.8865,33.789 61.888,33.789 L63.4315,34.692 L66.6415,33.849 L65.884,32.5365 L64.4935,32.979 L63.4315,32.5365 Z" id="Combined-Shape"></path>
                </g>
            </g>
        </g>
    </g>
</svg>
