<svg xmlns="http://www.w3.org/2000/svg" viewBox="0 0 24 24"><title>lift-three-people</title><path fill="#fff" d="M2.5,4H3.75a.5.5,0,0,1,.5.5v2a1.25,1.25,0,0,0,2.5,0v-2a.5.5,0,0,1,.5-.5H8.5a.5.5,0,0,0,.354-.854l-3-3a.5.5,0,0,0-.708,0l-3,3A.5.5,0,0,0,2.5,4Z"/><path fill="#fff" d="M18.146,7.854a.5.5,0,0,0,.708,0l3-3A.5.5,0,0,0,21.5,4H20.25a.5.5,0,0,1-.5-.5v-2a1.25,1.25,0,0,0-2.5,0v2a.5.5,0,0,1-.5.5H15.5a.5.5,0,0,0-.354.854Z"/><path fill="#fff" d="M22.5,9H1.5A1.5,1.5,0,0,0,0,10.5v12A1.5,1.5,0,0,0,1.5,24h21A1.5,1.5,0,0,0,24,22.5v-12A1.5,1.5,0,0,0,22.5,9Zm-3.25,2.5a1.5,1.5,0,1,1-1.5,1.5A1.5,1.5,0,0,1,19.25,11.5ZM12,11.5A1.5,1.5,0,1,1,10.5,13,1.5,1.5,0,0,1,12,11.5Zm-7.25,0A1.5,1.5,0,1,1,3.25,13,1.5,1.5,0,0,1,4.75,11.5ZM7,18.5a.5.5,0,0,1-.5.5.385.385,0,0,0-.38.322l-.377,2.26A.5.5,0,0,1,5.25,22h-1a.5.5,0,0,1-.493-.418l-.377-2.26A.385.385,0,0,0,3,19a.5.5,0,0,1-.5-.5v-.75a2.25,2.25,0,0,1,4.5,0Zm7.25,0a.5.5,0,0,1-.5.5.385.385,0,0,0-.38.322l-.377,2.26A.5.5,0,0,1,12.5,22h-1a.5.5,0,0,1-.493-.418l-.377-2.26A.385.385,0,0,0,10.25,19a.5.5,0,0,1-.5-.5v-.75a2.25,2.25,0,0,1,4.5,0Zm7.25,0a.5.5,0,0,1-.5.5.385.385,0,0,0-.38.322l-.377,2.26A.5.5,0,0,1,19.75,22h-1a.5.5,0,0,1-.493-.418l-.377-2.26A.385.385,0,0,0,17.5,19a.5.5,0,0,1-.5-.5v-.75a2.25,2.25,0,0,1,4.5,0Z"/></svg>