<?xml version="1.0" encoding="UTF-8"?>
<svg width="64px" height="56px" viewBox="0 0 64 56" version="1.1" xmlns="http://www.w3.org/2000/svg">
    <!-- Generator: Sketch 46.2 (44496) - http://www.bohemiancoding.com/sketch -->
    <title>ic_groups</title>
    <desc>Created with Sketch.</desc>
    <defs></defs>
    <g id="Admin-Panel" stroke="none" stroke-width="1" fill="none" fill-rule="evenodd">
        <g transform="translate(-858.000000, -368.000000)" id="Groups" fill="#737580">
            <g transform="translate(820.000000, 345.000000)">
                <g id="ic_groups" transform="translate(38.000000, 23.000000)">
                    <path d="M12.4671188,11.4790233 C12.1124979,11.4456406 11.7531508,11.4285714 11.3898305,11.4285714 C5.09940082,11.4285714 4.26325641e-14,16.5453171 4.26325641e-14,22.8571429 C4.26325641e-14,29.1689686 5.09940082,38.8571429 11.3898305,38.8571429 C13.8209271,38.8571429 16.0741277,37.4100855 17.9238207,35.2701234 C14.1550349,29.5458848 11.8116761,22.3010231 11.8116761,16.6116071 C11.8116761,14.837911 12.0394279,13.1177239 12.4671188,11.4790233 Z M45.9058206,35.069721 C47.7867494,37.3192459 50.1039277,38.8571429 52.6101695,38.8571429 C58.9005992,38.8571429 64,29.1689686 64,22.8571429 C64,16.5453171 58.9005992,11.4285714 52.6101695,11.4285714 C52.1463618,11.4285714 51.6890292,11.4563883 51.2397381,11.5104502 C51.6621555,13.1397122 51.8870056,14.849246 51.8870056,16.6116071 C51.8870056,22.2348316 49.5978556,29.3775198 45.9058206,35.069721 Z" id="Combined-Shape"></path>
                    <path d="M56,44.9952656 L56,44.9952656 C51.093534,51.0968272 42.1808732,55.1760797 32,55.1760797 C21.8191268,55.1760797 12.906466,51.0968272 8,44.9952656 C12.4071689,42.2282324 18.3967611,41.1428571 24.9951801,41.1428571 L39.0048199,41.1428571 C45.6032389,41.1428571 51.5928311,42.2282324 56,44.9952656 Z M32,40.8239203 C22.5322614,40.8239203 14.8571429,26.404312 14.8571429,17.0099668 C14.8571429,7.61562153 22.5322614,0 32,0 C41.4677386,0 49.1428571,7.61562153 49.1428571,17.0099668 C49.1428571,26.404312 41.4677386,40.8239203 32,40.8239203 Z" id="ic_face"></path>
                </g>
            </g>
        </g>
    </g>
</svg>
