<svg xmlns="http://www.w3.org/2000/svg" version="1.1" xmlns:xlink="http://www.w3.org/1999/xlink" xmlns:svgjs="http://svgjs.com/svgjs" viewBox="0 0 24 24" height="24" width="24"><title>Exported from Streamline App (https://app.streamlineicons.com)</title><g transform="matrix(1,0,0,1,0,0)"><path d="M22.542,10.527H8.9c-0.138,0-0.25-0.112-0.25-0.25V9.089c-0.001-0.53-0.431-0.958-0.961-0.957 c-0.173,0-0.343,0.047-0.491,0.136L2.4,11.143c-0.454,0.271-0.602,0.859-0.331,1.312c0.081,0.136,0.195,0.249,0.331,0.331 l4.791,2.875c0.454,0.272,1.043,0.125,1.316-0.33c0.089-0.149,0.136-0.319,0.136-0.492v-1.187c0-0.138,0.112-0.25,0.25-0.25h13.649 c0.794-0.021,1.421-0.682,1.4-1.475C23.921,11.162,23.306,10.547,22.542,10.527z M0.021,4.333C0.02,5.127,0.663,5.77,1.457,5.771 c0,0,0.001,0,0.001,0H15.1c0.138,0,0.25,0.112,0.25,0.25v1.187c-0.001,0.529,0.428,0.959,0.957,0.959 c0.174,0,0.346-0.047,0.495-0.137L21.6,5.155c0.454-0.271,0.602-0.859,0.331-1.312c-0.081-0.136-0.195-0.249-0.331-0.331 l-4.794-2.875c-0.453-0.273-1.042-0.127-1.315,0.327c-0.09,0.149-0.137,0.32-0.137,0.494v1.188c0,0.138-0.112,0.25-0.25,0.25H1.458 C0.664,2.896,0.021,3.539,0.021,4.333C0.021,4.333,0.021,4.333,0.021,4.333z M21.6,18.845l-4.794-2.875 c-0.454-0.272-1.043-0.125-1.316,0.33c-0.089,0.149-0.136,0.319-0.136,0.492v1.187c0,0.138-0.112,0.25-0.25,0.25H1.458 c-0.794,0.021-1.421,0.682-1.4,1.475c0.02,0.764,0.635,1.379,1.4,1.4H15.1c0.138,0,0.25,0.112,0.25,0.25v1.188 c0,0.529,0.429,0.958,0.958,0.958c0.174,0,0.345-0.047,0.494-0.137l4.798-2.875c0.454-0.271,0.602-0.859,0.331-1.312 C21.849,19.04,21.736,18.926,21.6,18.845z" stroke="none" fill="#00A1FD" stroke-width="0" stroke-linecap="round" stroke-linejoin="round"></path></g></svg>