<svg xmlns="http://www.w3.org/2000/svg" version="1.1" xmlns:xlink="http://www.w3.org/1999/xlink" xmlns:svgjs="http://svgjs.com/svgjs" viewBox="0 0 24 24" height="24" width="24"><title>Exported from Streamline App (https://app.streamlineicons.com)</title><g transform="matrix(1,0,0,1,0,0)"><path d="M22.75,11.251h-4.879l-1.606-4.2c-0.248-0.644-0.971-0.966-1.615-0.719c-0.399,0.153-0.692,0.5-0.777,0.919l-1.458,7.116 L10.6,2.314c-0.102-0.683-0.739-1.153-1.422-1.051C8.694,1.336,8.297,1.685,8.162,2.156l-2.614,9.095H1.25 c-0.69,0-1.25,0.56-1.25,1.25s0.56,1.25,1.25,1.25h5.239c0.557,0,1.047-0.37,1.2-0.906l1.29-4.489l2.013,13.331 c0.09,0.598,0.596,1.046,1.2,1.063h0.033c0.594,0,1.105-0.418,1.224-1l2.009-9.8l0.382,1c0.186,0.483,0.65,0.801,1.167,0.8h5.743 c0.69,0,1.25-0.56,1.25-1.25s-0.56-1.25-1.25-1.25V11.251z" stroke="none" fill="#00A1FD" stroke-width="0" stroke-linecap="round" stroke-linejoin="round"></path></g></svg>