<svg xmlns="http://www.w3.org/2000/svg" version="1.1" xmlns:xlink="http://www.w3.org/1999/xlink" xmlns:svgjs="http://svgjs.com/svgjs" viewBox="0 0 24 24" height="24" width="24"><title>Exported from Streamline App (https://app.streamlineicons.com)</title><g transform="matrix(1,0,0,1,0,0)"><path d="M23.414,20.591l-4.645-4.645c3.146-4.71,1.879-11.079-2.831-14.225S4.859-0.158,1.713,4.552s-1.879,11.079,2.831,14.225 c3.45,2.305,7.948,2.304,11.397-0.002l4.645,4.644c0.787,0.767,2.041,0.767,2.828,0c0.793-0.768,0.836-2.012,0.067-2.805 C23.466,20.598,23.451,20.583,23.414,20.591z M10.25,3.005c4.004,0,7.25,3.246,7.25,7.25s-3.246,7.25-7.25,7.25S3,14.259,3,10.255 C3.004,6.253,6.248,3.009,10.25,3.005z" stroke="none" fill="#00A1FD" stroke-width="0" stroke-linecap="round" stroke-linejoin="round"></path></g></svg>