<?xml version="1.0" encoding="UTF-8"?>
<svg version="1.1" viewBox="-2 -3 28 28" xmlns="http://www.w3.org/2000/svg" xmlns:xlink="http://www.w3.org/1999/xlink">
    <!--Generated by IJSVG (https://github.com/iconjar/IJSVG)-->
    <path d="M22.13,18.233l1.96768e-08,7.90753e-09c-0.0885307,-0.0355779 -0.148801,-0.118789 -0.155,-0.214l4.63757e-08,6.73319e-07c-0.252595,-3.66737 -3.29894,-6.51456 -6.975,-6.519h-1.75h-1.09278e-08c-0.138071,-6.03528e-09 -0.25,-0.111929 -0.25,-0.25c0,0 0,0 0,0v-5.264l2.87782e-09,-8.77659e-06c3.47881e-05,-0.100724 0.0602773,-0.191671 0.153008,-0.230995l-9.54319e-08,3.97291e-08c1.5296,-0.636784 2.25337,-2.39298 1.61658,-3.92258c-0.636784,-1.5296 -2.39298,-2.25337 -3.92258,-1.61658c-1.5296,0.636784 -2.25337,2.39298 -1.61658,3.92258c0.304367,0.731111 0.885472,1.31222 1.61658,1.61658l-1.94763e-09,-8.2607e-10c0.0927274,0.0393294 0.152963,0.13028 0.152992,0.231003v5.263v0c0,0.138071 -0.111929,0.25 -0.25,0.25h-2.25l2.043e-07,-2.45828e-09c-3.57569,0.0430251 -6.45754,2.94311 -6.478,6.519l-4.85495e-09,7.73339e-08c-0.00602582,0.0959843 -0.0661584,0.18017 -0.155,0.217l1.24434e-07,-5.08556e-08c-1.53371,0.62682 -2.26889,2.37827 -1.64207,3.91198c0.62682,1.53371 2.37827,2.26889 3.91198,1.64207c1.53371,-0.62682 2.26889,-2.37827 1.64207,-3.91198c-0.297603,-0.728178 -0.869312,-1.31033 -1.59198,-1.62107l-4.17124e-11,-1.83213e-11c-0.0976572,-0.0428916 -0.157734,-0.14262 -0.15,-0.249l-1.12232e-07,2.60078e-05c0.0106415,-2.46762 1.99558,-4.47215 4.46297,-4.50703h2.25h-1.09278e-08c0.138071,-6.03528e-09 0.25,0.111929 0.25,0.25v4.263l-2.86794e-09,8.74795e-06c-3.47767e-05,0.100724 -0.0602773,0.191671 -0.153008,0.230995l1.83467e-07,-7.63789e-08c-1.5296,0.636784 -2.25337,2.39298 -1.61658,3.92258c0.636784,1.5296 2.39298,2.25337 3.92258,1.61658c1.5296,-0.636784 2.25337,-2.39298 1.61658,-3.92258c-0.304367,-0.731111 -0.885472,-1.31222 -1.61658,-1.61658l2.19398e-08,9.30823e-09c-0.0930529,-0.0394789 -0.153345,-0.130923 -0.152966,-0.232004v-4.263l3.55271e-15,3.7749e-08c-2.08482e-08,-0.138071 0.111929,-0.25 0.25,-0.25h1.75l-2.84063e-07,-8.13047e-10c2.5633,0.00733662 4.70446,1.95487 4.954,4.506l9.43571e-09,9.47614e-08c0.0107578,0.108039 -0.0494475,0.210671 -0.149,0.254l2.49546e-07,-1.08202e-07c-1.52011,0.65911 -2.21809,2.42572 -1.55898,3.94583c0.65911,1.52011 2.42572,2.21809 3.94583,1.55898c1.52011,-0.65911 2.21809,-2.42572 1.55898,-3.94583c-0.31218,-0.719983 -0.894047,-1.28898 -1.62083,-1.58498Z" fill="#00A1FD"></path>
</svg>
