<?xml version="1.0" encoding="UTF-8"?>
<svg width="20px" height="20px" viewBox="0 0 20 20" version="1.1" xmlns="http://www.w3.org/2000/svg">
    <!-- Generator: Sketch 46.2 (44496) - http://www.bohemiancoding.com/sketch -->
    <title>ic_history *hover</title>
    <desc>Created with Sketch.</desc>
    <defs></defs>
    <g id="Allerts" stroke="none" stroke-width="1" fill="none" fill-rule="evenodd">
        <g id="Allerts-Source" transform="translate(-1176.000000, -383.000000)" fill="#FFFFFF">
            <g id="Alert" transform="translate(610.000000, 233.000000)">
                <g id="Tabs" transform="translate(30.000000, 142.000000)">
                    <path d="M546.967789,17.1699285 L546.411113,11.7960298 C546.364302,11.3441324 545.970393,11 545.499944,11 C545.029495,11 544.635586,11.3441324 544.588775,11.7960298 L544.007444,17.4079405 C544.002484,17.4558177 544,17.5039039 544,17.5520199 C544,17.7172221 544.028659,17.8759627 544.081439,18.0238611 C544.028615,18.1734438 544,18.3335289 544,18.4999439 C544,18.5497867 544.002623,18.5995985 544.00786,18.6491939 C544.094893,19.4734789 544.870987,20.0748724 545.741315,19.9924439 L550.129342,19.4111133 C550.623605,19.3643018 551,18.9703932 551,18.4999439 C551,18.0294946 550.623605,17.635586 550.129342,17.5887745 L546.967789,17.1699285 Z M543.619048,8 L548.380952,8 C552.588836,8 556,11.4111638 556,15.6190476 L556,20.3809524 C556,24.5888362 552.588836,28 548.380952,28 L543.619048,28 C539.411164,28 536,24.5888362 536,20.3809524 L536,15.6190476 C536,11.4111638 539.411164,8 543.619048,8 Z" id="ic_history-*hover"></path>
                </g>
            </g>
        </g>
    </g>
</svg>
