<?xml version="1.0" encoding="UTF-8"?>
<svg width="20px" height="20px" viewBox="0 0 20 20" version="1.1" xmlns="http://www.w3.org/2000/svg">
    <!-- Generator: Sketch 46.2 (44496) - http://www.bohemiancoding.com/sketch -->
    <title>ic_history</title>
    <desc>Created with Sketch.</desc>
    <defs></defs>
    <g id="Allerts" stroke="none" stroke-width="1" fill="none" fill-rule="evenodd">
        <g id="Allerts-Source" transform="translate(-1124.000000, -383.000000)" fill="#AAABB3">
            <g id="Alert" transform="translate(610.000000, 233.000000)">
                <g id="Tabs" transform="translate(30.000000, 142.000000)">
                    <path d="M494.967789,17.1699285 L494.411113,11.7960298 C494.364302,11.3441324 493.970393,11 493.499944,11 C493.029495,11 492.635586,11.3441324 492.588775,11.7960298 L492.007444,17.4079405 C492.002484,17.4558177 492,17.5039039 492,17.5520199 C492,17.7172221 492.028659,17.8759627 492.081439,18.0238611 C492.028615,18.1734438 492,18.3335289 492,18.4999439 C492,18.5497867 492.002623,18.5995985 492.00786,18.6491939 C492.094893,19.4734789 492.870987,20.0748724 493.741315,19.9924439 L498.129342,19.4111133 C498.623605,19.3643018 499,18.9703932 499,18.4999439 C499,18.0294946 498.623605,17.635586 498.129342,17.5887745 L494.967789,17.1699285 Z M491.619048,8 L496.380952,8 C500.588836,8 504,11.4111638 504,15.6190476 L504,20.3809524 C504,24.5888362 500.588836,28 496.380952,28 L491.619048,28 C487.411164,28 484,24.5888362 484,20.3809524 L484,15.6190476 C484,11.4111638 487.411164,8 491.619048,8 Z" id="ic_history"></path>
                </g>
            </g>
        </g>
    </g>
</svg>
