<?xml version="1.0" encoding="UTF-8"?>
<svg width="24px" height="24px" viewBox="0 0 24 24" version="1.1" xmlns="http://www.w3.org/2000/svg">
    <!-- Generator: sketchtool 50 (54983) - http://www.bohemiancoding.com/sketch -->
    <title>13AADD7A-F751-45F2-A838-CF4DEE5ECD72</title>
    <desc>Created with sketchtool.</desc>
    <defs></defs>
    <g id="Events" stroke="none" stroke-width="1" fill="none" fill-rule="evenodd">
        <g transform="translate(-241.000000, -377.000000)" id="Group-4">
            <g transform="translate(150.000000, 26.000000)">
                <g id="events">
                    <g id="Content" transform="translate(30.000000, 116.000000)">
                        <g id="Row-Copy-2" transform="translate(0.000000, 104.000000)">
                            <g id="Button-Copy-4" transform="translate(30.000000, 123.000000)">
                                <g id="Group-6" transform="translate(31.000000, 8.000000)">
                                    <g id="ic_history">
                                        <path d="M9.14285714,1 C4.64568132,1 1,4.64568132 1,9.14285714 L1,14.8571429 C1,19.3543187 4.64568132,23 9.14285714,23 L14.8571429,23 C19.3543187,23 23,19.3543187 23,14.8571429 L23,9.14285714 C23,4.64568132 19.3543187,1 14.8571429,1 L9.14285714,1 Z" stroke="#FFFFFF" stroke-width="2"></path>
                                        <path d="M13.7998435,10.2896454 L17.0049628,10.7850327 C17.5698344,10.847448 18,11.3726594 18,11.9999252 C18,12.627191 17.5698344,13.1524024 17.0049628,13.2148177 L12.7301185,13.875543 C12.5636309,13.9345251 12.3855632,13.9741263 12.1989252,13.9910174 C12.132798,13.9970021 12.0663822,14 11.9999252,14 C11.9652049,14 11.9306913,13.9991993 11.8964056,13.9976171 C11.3835605,14.0251837 10.9055597,13.811914 10.5577105,13.4439704 C10.2123169,13.1186773 10,12.6767908 10,12.1900249 C10,12.1606906 10.000788,12.1313651 10.0023625,12.1020746 C10.000788,12.0680578 10,12.033997 10,11.9999252 C10,11.8031908 10.0257088,11.6130912 10.0736167,11.4335043 L10.7850327,4.99503719 C10.847448,4.43016556 11.3726594,4 11.9999252,4 C12.627191,4 13.1524024,4.43016556 13.2148177,4.99503719 L13.7998435,10.2896454 Z" id="Combined-Shape" fill="#FFFFFF"></path>
                                    </g>
                                </g>
                            </g>
                        </g>
                    </g>
                </g>
            </g>
        </g>
    </g>
</svg>
