<?xml version="1.0" encoding="UTF-8"?>
<svg width="26px" height="32px" viewBox="0 0 26 32" version="1.1" xmlns="http://www.w3.org/2000/svg">
    <!-- Generator: Sketch 47.1 (45422) - http://www.bohemiancoding.com/sketch -->
    <title>ic_fingerprint</title>
    <desc>Created with Sketch.</desc>
    <defs>
        <linearGradient x1="131.426968%" y1="-34.1782798%" x2="0%" y2="100%" id="linearGradient-1">
            <stop stop-color="#ffffff" stop-opacity="0" offset="0%"></stop>
            <stop stop-color="#ffffff" offset="100%"></stop>
        </linearGradient>
    </defs>
    <g id="Identifiers" stroke="none" stroke-width="1" fill="none" fill-rule="evenodd">
        <g id="Add-Identifier-Type" transform="translate(-737.000000, -388.000000)" fill-rule="nonzero" fill="url(#linearGradient-1)">
            <g id="pop-up" transform="translate(100.000000, 125.000000)">
                <g id="Fingerprint" transform="translate(612.000000, 263.000000)">
                    <path d="M38,8 C40.7568125,8 43,10.2431875 43,13 C43,13.55225 42.55225,14 42,14 C41.44775,14 41,13.55225 41,13 C41,11.3456875 39.6543125,10 38,10 C36.3456875,10 35,11.3456875 35,13 L35,29 C35,29.55275 34.55225,30 34,30 C33.44775,30 33,29.55275 33,29 L33,13 C33,10.2431875 35.2431875,8 38,8 Z M38,12 C38.55225,12 39,12.44775 39,13 L39,22 C39,22.55225 38.55225,23 38,23 C37.44775,23 37,22.55225 37,22 L37,13 C37,12.44775 37.44775,12 38,12 Z M38,25 C38.55225,25 39,25.44775 39,26 L39,31 C39,31.55275 38.55225,32 38,32 C37.44775,32 37,31.55275 37,31 L37,26 C37,25.44775 37.44775,25 38,25 Z M42,16 C42.55225,16 43,16.44775 43,17 L43,29 C43,29.55275 42.55225,30 42,30 C41.44775,30 41,29.55275 41,29 L41,17 C41,16.44775 41.44775,16 42,16 Z M30,18 C30.55225,18 31,18.44775 31,19 L31,26 C31,26.55275 30.55225,27 30,27 C29.44775,27 29,26.55275 29,26 L29,19 C29,18.44775 29.44775,18 30,18 Z M50,16 C50.55225,16 51,16.44775 51,17 L51,22 C51,22.55225 50.55225,23 50,23 C49.44775,23 49,22.55225 49,22 L49,17 C49,16.44775 49.44775,16 50,16 Z M45.0444375,9.0751875 C45.5595625,8.868625 46.139625,9.11575 46.3466875,9.6274375 C46.78025,10.6991875 47,11.834 47,13 L47,26 C47,26.55275 46.55225,27 46,27 C45.44775,27 45,26.55275 45,26 L45,13 C45,12.0923125 44.829125,11.2099375 44.4921875,10.3774375 C44.2851875,9.86525 44.53225,9.2826875 45.0444375,9.0751875 Z M38,4 C40.0425,4 42.0425,4.702625 43.631375,5.979 C44.0615625,6.3251875 44.130375,6.9545625 43.7846875,7.38525 C43.4385,7.8159375 42.8105625,7.88375 42.3784375,7.5385625 C41.1255,6.53175 39.6118125,6 38,6 C34.140125,6 31,9.140125 31,13 L31,15 C31,15.55225 30.55225,16 30,16 C29.44775,16 29,15.55225 29,15 L29,13 C29,8.037625 33.037625,4 38,4 Z M33.5966875,2.9165 C33.0918125,3.13525 32.5019375,2.90675 32.27975,2.400375 C32.0585625,1.8945625 32.2895,1.3046875 32.795875,1.0835 C34.4409375,0.36475 36.191875,0 38,0 C45.1684375,0 51,5.8315625 51,13 C51,13.55225 50.55225,14 50,14 C49.44775,14 49,13.55225 49,13 C49,6.9345625 44.0654375,2 38,2 C36.46925,2 34.9878125,2.308125 33.5966875,2.9165 Z M29.7226875,4.254875 C30.13425,4.6230625 30.1689375,5.255375 29.8008125,5.667 C27.994625,7.6845625 27,10.2890625 27,13 L27,22 C27,22.55225 26.55225,23 26,23 C25.44775,23 25,22.55225 25,22 L25,13 C25,9.795875 26.1758125,6.71825 28.3105625,4.333 C28.67925,3.921875 29.3105625,3.88575 29.7226875,4.254875 Z" id="ic_fingerprint"></path>
                </g>
            </g>
        </g>
    </g>
</svg>
