<?xml version="1.0" encoding="UTF-8"?>
<svg width="32px" height="32px" viewBox="0 0 32 32" version="1.1" xmlns="http://www.w3.org/2000/svg">
    <!-- Generator: Sketch 47.1 (45422) - http://www.bohemiancoding.com/sketch -->
    <title>ic_mobilenumber</title>
    <desc>Created with Sketch.</desc>
    <defs>
        <linearGradient x1="131.426968%" y1="-34.1782798%" x2="0%" y2="100%" id="linearGradient-1">
            <stop stop-color="#AAABB3" stop-opacity="0" offset="0%"></stop>
            <stop stop-color="#AAABB3" offset="100%"></stop>
        </linearGradient>
    </defs>
    <g id="Identifiers" stroke="none" stroke-width="1" fill="none" fill-rule="evenodd" opacity="0.5">
        <g id="Add-Identifier-Type" transform="translate(-554.000000, -624.000000)" fill-rule="nonzero" fill="url(#linearGradient-1)">
            <g id="pop-up" transform="translate(100.000000, 61.000000)">
                <g id="Mobile-Number" transform="translate(433.000000, 563.000000)">
                    <path d="M52.9847473,25.2541936 C53.0525549,25.7740221 52.8942448,26.2259987 52.5104809,26.6101234 L48.0049508,31.0845258 C47.8016938,31.3105141 47.5363858,31.5027703 47.2089162,31.660796 C46.8814466,31.8190432 46.5596784,31.9207379 46.2436115,31.9658802 C46.2210274,31.9658802 46.153109,31.9716961 46.0401331,31.9829955 C45.9273786,31.9942395 45.7805819,32 45.599909,32 C45.1707002,32 44.4761834,31.9265538 43.5163587,31.779606 C42.556534,31.6326582 41.3822156,31.2710215 39.9934034,30.6948621 C38.6042592,30.1185919 37.0290728,29.2540759 35.2675675,28.1016463 C33.5060622,26.9492721 31.6315256,25.3672431 29.6441239,23.3558918 C28.0632361,21.7965724 26.7533576,20.3050496 25.7144885,18.8813786 C24.6756194,17.4575969 23.8400073,16.141215 23.2076522,14.9321775 C22.5752417,13.7231401 22.1009754,12.6270968 21.7847979,11.6440476 C21.4686203,10.6609985 21.2540712,9.81354234 21.1411507,9.10167916 C21.0282301,8.38981599 20.9830619,7.83049492 21.005646,7.42371596 C21.0282301,7.01693701 21.0395222,6.7909487 21.0395222,6.74575104 C21.0846904,6.4293674 21.1863189,6.10733406 21.3444077,5.77965101 C21.5024965,5.45196796 21.6944614,5.1864317 21.9203025,4.98304222 L26.4258327,0.47457545 C26.7420102,0.158191817 27.103356,0 27.50987,0 C27.8034634,0 28.0631807,0.084745616 28.2890218,0.254236848 C28.5148629,0.42372808 28.7068279,0.632767266 28.8649167,0.881354407 L32.4896665,7.76269843 C32.6929235,8.12427972 32.7493838,8.51975926 32.6590473,8.94913705 C32.5687109,9.37851484 32.3767459,9.74009614 32.0831525,10.0338809 L30.4232203,11.694895 C30.3780521,11.7400927 30.3385299,11.8135389 30.3046537,11.9152336 C30.2707776,12.0169284 30.2538395,12.101674 30.2538395,12.1694705 C30.3441759,12.6440459 30.5474329,13.1864179 30.8636105,13.7965863 C31.1346198,14.3389582 31.5524259,14.999974 32.1170287,15.7796337 C32.6816314,16.5592934 33.4833674,17.4575415 34.5222365,18.4744889 C35.5385215,19.5141459 36.4418859,20.3219433 37.2323298,20.8983243 C38.0226076,21.4743729 38.6834143,21.8982672 39.2141409,22.1694532 C39.7448675,22.4406391 40.1513815,22.6044806 40.4336275,22.6608116 L40.8569689,22.7456126 C40.9021371,22.7456126 40.9757016,22.728608 41.0772194,22.6947652 C41.1788479,22.6608116 41.2522462,22.621319 41.2974698,22.5760659 L43.2283559,20.6099676 C43.6350913,20.2484417 44.1091363,20.0676511 44.6512103,20.0676511 C45.0352509,20.0676511 45.3399703,20.1353922 45.5658114,20.2710406 L45.5996322,20.2710406 L52.137677,24.1354407 C52.6121094,24.429447 52.8943555,24.802217 52.9847473,25.2541936 Z" id="ic_mobilenumber"></path>
                </g>
            </g>
        </g>
    </g>
</svg>
