<?xml version="1.0" encoding="UTF-8"?>
<svg width="32px" height="14px" viewBox="0 0 32 14" version="1.1" xmlns="http://www.w3.org/2000/svg">
    <!-- Generator: Sketch 47.1 (45422) - http://www.bohemiancoding.com/sketch -->
    <title>ic_numberplate</title>
    <desc>Created with Sketch.</desc>
    <defs>
        <linearGradient x1="131.426968%" y1="-34.1782798%" x2="0%" y2="100%" id="linearGradient-1">
            <stop stop-color="#1B84FA" stop-opacity="0" offset="0%"></stop>
            <stop stop-color="#1B84FA" offset="100%"></stop>
        </linearGradient>
    </defs>
    <g id="Identifiers" stroke="none" stroke-width="1" fill="none" fill-rule="evenodd">
        <g id="Add-Identifier-Type" transform="translate(-194.000000, -247.000000)" fill="url(#linearGradient-1)">
            <g id="pop-up" transform="translate(100.000000, 125.000000)">
                <g id="Numberplate" transform="translate(63.000000, 122.000000)">
                    <path d="M61.6666667,0 C62.4033333,0 63,0.6265 63,1.4 L63,12.6 C63,13.3735 62.4033333,14 61.6666667,14 L32.3333333,14 C31.5973333,14 31,13.3735 31,12.6 L31,1.4 C31,0.6265 31.5973333,0 32.3333333,0 L61.6666667,0 Z M59.0453333,8.386 C59.17,8.1921 59.232,7.9695 59.232,7.7196 C59.232,7.4242 59.1406667,7.1827 58.9573333,6.9944 C58.774,6.8061 58.5313333,6.6892 58.2293333,6.6444 L58.032,6.6052 L59.0506667,5.6252 L59.0506667,5.0316 L56.4373333,5.0316 L56.4373333,5.8156 L57.8666667,5.8156 L57.0026667,6.6892 L57.0026667,7.2492 L57.632,7.2492 C57.842,7.2492 58.002,7.2905 58.112,7.3724 C58.2226667,7.4543 58.2773333,7.574 58.2773333,7.7308 C58.2773333,7.8876 58.2226667,8.008 58.112,8.092 C58.002,8.176 57.8433333,8.218 57.6373333,8.218 C57.46,8.218 57.282,8.1823 57.104,8.1116 C56.926,8.0409 56.7593333,7.9359 56.6026667,7.798 L56.24,8.5204 C56.4213333,8.666 56.6446667,8.7829 56.9093333,8.8704 C57.174,8.9579 57.444,9.002 57.7173333,9.002 C58.0233333,9.002 58.29,8.9481 58.5173333,8.8396 C58.7446667,8.7311 58.9206667,8.5799 59.0453333,8.386 Z M55.4826667,8.9572 L55.4826667,8.134 L53.888,8.134 L54.6506667,7.3276 C54.882,7.0847 55.06,6.8558 55.1866667,6.6416 C55.3126667,6.4267 55.376,6.2188 55.376,6.0172 C55.376,5.8156 55.32,5.6364 55.208,5.4796 C55.096,5.3228 54.9413333,5.2017 54.744,5.1156 C54.5466667,5.0295 54.3233333,4.9868 54.0746667,4.9868 C53.5553333,4.9868 53.038,5.1828 52.5226667,5.5748 L52.896,6.3308 C53.0666667,6.174 53.2433333,6.0522 53.4266667,5.964 C53.61,5.8765 53.776,5.8324 53.9253333,5.8324 C54.06,5.8324 54.1653333,5.8611 54.24,5.9192 C54.3146667,5.9773 54.352,6.0599 54.352,6.1684 C54.352,6.2503 54.318,6.3497 54.2506667,6.4652 C54.1833333,6.5807 54.096,6.6962 53.9893333,6.8124 L52.6293333,8.2796 L52.6346667,8.9572 L55.4826667,8.9572 Z M51.36,8.9572 L51.36,5.0316 L49.664,5.0316 L49.664,5.8716 L50.384,5.8716 L50.384,8.9572 L51.36,8.9572 Z M46.7173333,8.8312 C46.9966667,8.6989 47.2373333,8.5204 47.44,8.2964 L46.8693333,7.6524 C46.738,7.7945 46.5886667,7.9058 46.4213333,7.9884 C46.254,8.0703 46.094,8.1116 45.9413333,8.1116 C45.7533333,8.1116 45.5813333,8.0619 45.4266667,7.9632 C45.272,7.8645 45.1506667,7.728 45.0613333,7.5544 C44.9726667,7.3808 44.928,7.1876 44.928,6.9748 C44.928,6.762 44.9726667,6.5688 45.0613333,6.3952 C45.1506667,6.2216 45.272,6.0851 45.4266667,5.9864 C45.5813333,5.8877 45.7533333,5.838 45.9413333,5.838 C46.1046667,5.838 46.27,5.8856 46.4373333,5.9808 C46.6046667,6.076 46.7486667,6.2041 46.8693333,6.3644 L47.4346667,5.6476 C47.246,5.4383 47.0173333,5.2731 46.7466667,5.152 C46.4766667,5.0309 46.2026667,4.97 45.9253333,4.97 C45.5486667,4.97 45.208,5.0575 44.904,5.2332 C44.6,5.4089 44.3613333,5.6497 44.1866667,5.9556 C44.0126667,6.2615 43.9253333,6.6052 43.9253333,6.986 C43.9253333,7.3703 44.0106667,7.7175 44.1813333,8.0276 C44.352,8.3377 44.5866667,8.582 44.8853333,8.7612 C45.184,8.9404 45.518,9.03 45.888,9.03 C46.162,9.03 46.438,8.9635 46.7173333,8.8312 Z M42.9226667,8.4448 C43.04,8.2789 43.0993333,8.0857 43.0993333,7.8652 C43.0993333,7.6111 43.0306667,7.3948 42.8933333,7.2156 C42.7566667,7.0364 42.5693333,6.9223 42.3306667,6.874 C42.53,6.818 42.6873333,6.7137 42.8026667,6.5604 C42.9186667,6.4071 42.976,6.2279 42.976,6.0228 C42.976,5.8212 42.9193333,5.6455 42.806,5.4964 C42.692,5.3473 42.5313333,5.2325 42.3233333,5.152 C42.1146667,5.0715 41.8706667,5.0316 41.5893333,5.0316 L39.8133333,5.0316 L39.8133333,8.9572 L41.6586667,8.9572 C41.95,8.9572 42.2046667,8.9131 42.4213333,8.8256 C42.6386667,8.7374 42.806,8.6107 42.9226667,8.4448 Z M41.8562,6.4904 C41.7782,6.5597 41.6715333,6.594 41.5362,6.594 L40.7895333,6.594 L40.7895333,5.8324 L41.5362,5.8324 C41.6715333,5.8289 41.7782,5.8597 41.8562,5.9248 C41.9342,5.9899 41.9735333,6.0823 41.9735333,6.202 C41.9735333,6.3252 41.9342,6.4211 41.8562,6.4904 Z M41.5362667,7.33873 C41.7069333,7.33523 41.8416,7.36953 41.9416,7.44233 C42.0409333,7.51513 42.0909333,7.61313 42.0909333,7.73633 C42.0909333,7.87073 42.0409333,7.97503 41.9416,8.04993 C41.8416,8.12483 41.7069333,8.16193 41.5362667,8.16193 L40.7896,8.16193 L40.7896,7.33873 L41.5362667,7.33873 Z M37.9046667,8.9572 L38.9446667,8.9572 L37.3766667,5.0316 L36.374,5.0316 L34.768,8.9572 L35.7706667,8.9572 L36.032,8.2628 L37.648,8.2628 L37.9046667,8.9572 Z M36.3256,7.47887 L36.8482667,6.07887 L37.3602667,7.47887 L36.3256,7.47887 Z" id="ic_numberplate"></path>
                </g>
            </g>
        </g>
    </g>
</svg>
