<?xml version="1.0" encoding="UTF-8"?>
<svg width="32px" height="20px" viewBox="0 0 32 20" version="1.1" xmlns="http://www.w3.org/2000/svg">
    <!-- Generator: Sketch 47.1 (45422) - http://www.bohemiancoding.com/sketch -->
    <title>ic_eye</title>
    <desc>Created with Sketch.</desc>
    <defs>
        <linearGradient x1="131.426968%" y1="-34.1782798%" x2="0%" y2="100%" id="linearGradient-1">
            <stop stop-color="#AAABB3" stop-opacity="0" offset="0%"></stop>
            <stop stop-color="#AAABB3" offset="100%"></stop>
        </linearGradient>
    </defs>
    <g id="Identifiers" stroke="none" stroke-width="1" fill="none" fill-rule="evenodd" opacity="0.5">
        <g id="Add-Identifier-Type" transform="translate(-734.000000, -480.000000)" fill-rule="nonzero" fill="url(#linearGradient-1)">
            <g id="pop-up" transform="translate(100.000000, 61.000000)">
                <g id="Iris" transform="translate(634.000000, 419.000000)">
                    <path d="M31.874902,10.4957217 C32.0416993,10.1868028 32.0416993,9.81314457 31.874902,9.50422568 C28.8179608,3.84318448 22.8552941,0 16.0000261,0 C9.14475817,0 3.18203922,3.84323707 0.125098039,9.50422568 C-0.0416993464,9.81314457 -0.0416993464,10.1868028 0.125098039,10.4957217 C3.1820915,16.1567629 9.14465359,20 15.9999739,20 C22.8552941,20 28.8179085,16.1567629 31.874902,10.4957217 Z M15.9999739,17.6706443 C11.788,17.6706443 8.37356863,14.236354 8.37356863,10 C8.37356863,5.76364602 11.788,2.32930312 15.9999739,2.32930312 C20.2119477,2.32930312 23.6264314,5.76359343 23.6264314,10 C23.6264314,14.2364066 20.2119477,17.6706443 15.9999739,17.6706443 Z M15.9999739,6.09091913 C15.6791373,6.09091913 15.3675556,6.13030971 15.0693595,6.20398954 C15.3747712,6.55950396 15.5599739,7.02246157 15.5599739,7.5291748 C15.5599739,8.64936076 14.6571242,9.55750025 13.5433464,9.55750025 C13.0395556,9.55750025 12.579268,9.37127591 12.2258039,9.06403993 C12.152549,9.36396577 12.1133856,9.67735489 12.1133856,10.0000526 C12.1133856,12.1590138 13.8534641,13.9091335 15.9999216,13.9091335 C18.1463791,13.9091335 19.8864575,12.1589612 19.8864575,10.0000526 C19.8864575,7.84114396 18.1464837,6.09091913 15.9999739,6.09091913 Z" id="ic_eye"></path>
                </g>
            </g>
        </g>
    </g>
</svg>
