<?xml version="1.0" encoding="UTF-8"?>
<svg width="22px" height="32px" viewBox="0 0 22 32" version="1.1" xmlns="http://www.w3.org/2000/svg">
    <!-- Generator: Sketch 47.1 (45422) - http://www.bohemiancoding.com/sketch -->
    <title>ic_bluetooth *hover</title>
    <desc>Created with Sketch.</desc>
    <defs>
        <linearGradient x1="131.426968%" y1="-34.1782798%" x2="0%" y2="100%" id="linearGradient-1">
            <stop stop-color="#ffffff" stop-opacity="0" offset="0%"></stop>
            <stop stop-color="#ffffff" offset="100%"></stop>
        </linearGradient>
    </defs>
    <g id="Identifiers" stroke="none" stroke-width="1" fill="none" fill-rule="evenodd">
        <g id="Add-Identifier-Type" transform="translate(-559.000000, -238.000000)" fill-rule="nonzero" fill="url(#linearGradient-1)">
            <g id="pop-up" transform="translate(100.000000, 125.000000)">
                <g id="Bluetooth-ID" transform="translate(426.000000, 113.000000)">
                    <path d="M44.000275,0 C37.9246083,0 33,4.77537778 33,10.6666667 L33,21.3333333 C33,27.2246222 37.9246083,32 44.000275,32 C50.0753917,32 55,27.2246222 55,21.3333333 L55,10.6666667 C55,4.77537778 50.0753917,0 44.000275,0 Z M50.3586417,19.9224889 C50.6066,20.1152 50.7508833,20.4067556 50.7508833,20.7149333 C50.7508833,21.0231111 50.6066,21.3145778 50.3586417,21.5073778 L43.7905417,26.6130667 C43.6010667,26.7603556 43.36915,26.8362667 43.1353083,26.8362667 C42.9813083,26.8362667 42.8264833,26.8032889 42.6822917,26.7362667 C42.3192,26.5672889 42.0882,26.2112889 42.0882,25.8207111 L42.0882,18.5296889 L38.95485,20.9858667 C38.7610667,21.1377778 38.528325,21.2117333 38.29705,21.2117333 C37.9917083,21.2117333 37.6889333,21.0828444 37.48195,20.8345778 C37.1183083,20.3984 37.18825,19.7589333 37.6380583,19.4063111 L41.9816833,16.0013333 L37.6380583,12.5963556 C37.18825,12.2437333 37.1183083,11.6042667 37.48195,11.1680889 C37.8455917,10.7318222 38.5051333,10.6641778 38.95485,11.0167111 L42.0882,13.4728889 L42.0882,6.17946667 C42.0882,5.78888889 42.3192,5.43288889 42.6822917,5.26391111 C43.045475,5.09493333 43.4764,5.14284444 43.7906333,5.38711111 L50.3587333,10.4929778 C50.6066917,10.6856889 50.750975,10.9772444 50.750975,11.2853333 C50.750975,11.5934222 50.6066917,11.8849778 50.3587333,12.0777778 L45.31285,16 L50.3586417,19.9224889 Z M44,14.2752 L48.0291167,11.2852444 L44,8.2952 L44,14.2752 Z M44,23.7048 L48.0291167,20.7148444 L44,17.7248 L44,23.7048 Z" id="ic_bluetooth-*hover"></path>
                </g>
            </g>
        </g>
    </g>
</svg>
