<?xml version="1.0" encoding="UTF-8"?>
<svg width="32px" height="32px" viewBox="0 0 32 32" version="1.1" xmlns="http://www.w3.org/2000/svg">
    <!-- Generator: Sketch 47.1 (45422) - http://www.bohemiancoding.com/sketch -->
    <title>ic_qrcode</title>
    <desc>Created with Sketch.</desc>
    <defs>
        <linearGradient x1="131.426968%" y1="-34.1782798%" x2="0%" y2="100%" id="linearGradient-1">
            <stop stop-color="#ffffff" stop-opacity="0" offset="0%"></stop>
            <stop stop-color="#ffffff" offset="100%"></stop>
        </linearGradient>
    </defs>
    <g id="Identifiers" stroke="none" stroke-width="1" fill="none" fill-rule="evenodd">
        <g id="Add-Identifier-Type" transform="translate(-554.000000, -388.000000)" fill-rule="nonzero" fill="url(#linearGradient-1)">
            <g id="pop-up" transform="translate(100.000000, 125.000000)">
                <g id="QR-Code" transform="translate(439.000000, 263.000000)">
                    <path d="M27,0 L15,0 L15,12 L27,12 L27,0 Z M25,10 L17,10 L17,2 L25,2 L25,10 Z M19,4 L19,8 L23,8 L23,4 L19,4 Z M15,32 L15,20 L27,20 L27,32 L15,32 Z M17,22 L17,30 L25,30 L25,22 L17,22 Z M19,24 L23,24 L23,28 L19,28 L19,24 Z M35,0 L47,0 L47,12 L35,12 L35,0 Z M45,10 L45,2 L37,2 L37,10 L45,10 Z M39,4 L43,4 L43,8 L39,8 L39,4 Z M19,14 L19,16 L21,16 L21,18 L15,18 L15,14 L19,14 Z M29,18 L33,18 L33,22 L29,22 L29,18 Z M21,14 L25,14 L25,16 L21,16 L21,14 Z M33,24 L33,26 L33,28 L31,28 L31,26 L29,26 L29,24 L33,24 Z M27,14 L29,14 L29,18 L25,18 L25,16 L27,16 L27,14 Z M31,8 L33,8 L33,12 L31,12 L31,8 Z M33,16 L31,16 L31,14 L37,14 L37,18 L33,18 L33,16 Z M29,12 L31,12 L31,14 L29,14 L29,12 Z M33,28 L37,28 L37,32 L33,32 L33,28 Z M29,28 L31,28 L31,32 L29,32 L29,28 Z M33,22 L35,22 L35,24 L33,24 L33,22 Z M33,6 L31,6 L31,8 L29,8 L29,0 L31,0 L31,2 L33,2 L33,6 Z M39,28 L41,28 L41,32 L39,32 L39,28 Z M39,24 L43,24 L43,26 L39,26 L39,24 Z M37,26 L39,26 L39,28 L37,28 L37,26 Z M35,24 L37,24 L37,26 L35,26 L35,24 Z M43,20 L45,20 L47,20 L47,24 L45,24 L45,22 L43,22 L43,20 Z M45,26 L45,28 L47,28 L47,32 L43,32 L43,26 L45,26 Z M35,20 L37,20 L37,18 L41,18 L41,22 L35,22 L35,20 Z M39,14 L43,14 L47,14 L47,18 L43,18 L43,16 L39,16 L39,14 Z" id="ic_qrcode"></path>
                </g>
            </g>
        </g>
    </g>
</svg>
