<?xml version="1.0" encoding="UTF-8"?>
<svg width="28px" height="32px" viewBox="0 0 28 32" version="1.1" xmlns="http://www.w3.org/2000/svg">
    <!-- Generator: Sketch 47.1 (45422) - http://www.bohemiancoding.com/sketch -->
    <title>Shape</title>
    <desc>Created with Sketch.</desc>
    <defs>
        <linearGradient x1="131.426968%" y1="-34.1782798%" x2="0%" y2="100%" id="linearGradient-1">
            <stop stop-color="#AAABB3" stop-opacity="0" offset="0%"></stop>
            <stop stop-color="#AAABB3" offset="100%"></stop>
        </linearGradient>
    </defs>
    <g id="Identifiers" stroke="none" stroke-width="1" fill="none" fill-rule="evenodd" opacity="0.5">
        <g id="Add-Identifier-Type" transform="translate(-377.000000, -624.000000)" fill-rule="nonzero" fill="url(#linearGradient-1)">
            <g id="pop-up" transform="translate(100.000000, 61.000000)">
                <g id="SMS" transform="translate(275.000000, 563.000000)">
                    <path d="M7.11007347,24.1005061 L7.11007347,32 L13.4966857,26.9084735 C14.2028408,27.0188408 14.9031184,27.0745469 15.5838694,27.0745469 C23.0741551,27.0745469 29.1677388,21.0014694 29.1677388,13.537502 C29.1677388,6.07307755 23.0741551,0 15.5838694,0 C8.09358367,0 2,6.07307755 2,13.537502 C2,17.6914286 3.85567347,21.5122286 7.11007347,24.1005061 Z M22.363102,10.9004408 C23.5640816,10.9004408 24.5408,11.8747429 24.5408,13.0725878 C24.5408,14.2704327 23.5640163,15.2447347 22.363102,15.2447347 C21.1621224,15.2447347 20.1853388,14.2704327 20.1853388,13.0725878 C20.1853388,11.8747429 21.1621224,10.9004408 22.363102,10.9004408 Z M15.582498,10.9004408 C16.7834776,10.9004408 17.7602612,11.8747429 17.7602612,13.0725878 C17.7602612,14.2704327 16.7834776,15.2447347 15.582498,15.2447347 C14.3815184,15.2447347 13.4048,14.2704327 13.4048,13.0725878 C13.4048,11.8747429 14.3815184,10.9004408 15.582498,10.9004408 Z M8.80189388,10.9004408 C10.0028735,10.9004408 10.9795918,11.8747429 10.9795918,13.0725878 C10.9795918,14.2704327 10.0028082,15.2447347 8.80189388,15.2447347 C7.60084898,15.2447347 6.62419592,14.2704327 6.62419592,13.0725878 C6.62419592,11.8747429 7.60084898,10.9004408 8.80189388,10.9004408 Z" id="Shape"></path>
                </g>
            </g>
        </g>
    </g>
</svg>
