<?xml version="1.0" encoding="UTF-8"?>
<svg width="32px" height="32px" viewBox="0 0 32 32" version="1.1" xmlns="http://www.w3.org/2000/svg">
    <!-- Generator: Sketch 47.1 (45422) - http://www.bohemiancoding.com/sketch -->
    <title>ic_mobilenumber</title>
    <desc>Created with Sketch.</desc>
    <defs>
        <linearGradient x1="131.426968%" y1="-34.1782798%" x2="0%" y2="100%" id="linearGradient-1">
            <stop stop-color="#ffffff" stop-opacity="0" offset="0%"></stop>
            <stop stop-color="#ffffff" offset="100%"></stop>
        </linearGradient>
    </defs>
    <g id="Identifiers" stroke="none" stroke-width="1" fill="none" fill-rule="evenodd">
        <g id="Add-Identifier-Type" transform="translate(-914.000000, -238.000000)" fill-rule="nonzero" fill="url(#linearGradient-1)">
            <g id="pop-up" transform="translate(100.000000, 125.000000)">
                <g id="Mobile-Number" transform="translate(776.000000, 113.000000)">
                    <path d="M69.9847473,25.2541936 C70.0525549,25.7740221 69.8942448,26.2259987 69.5104809,26.6101234 L65.0049508,31.0845258 C64.8016938,31.3105141 64.5363858,31.5027703 64.2089162,31.660796 C63.8814466,31.8190432 63.5596784,31.9207379 63.2436115,31.9658802 C63.2210274,31.9658802 63.153109,31.9716961 63.0401331,31.9829955 C62.9273786,31.9942395 62.7805819,32 62.599909,32 C62.1707002,32 61.4761834,31.9265538 60.5163587,31.779606 C59.556534,31.6326582 58.3822156,31.2710215 56.9934034,30.6948621 C55.6042592,30.1185919 54.0290728,29.2540759 52.2675675,28.1016463 C50.5060622,26.9492721 48.6315256,25.3672431 46.6441239,23.3558918 C45.0632361,21.7965724 43.7533576,20.3050496 42.7144885,18.8813786 C41.6756194,17.4575969 40.8400073,16.141215 40.2076522,14.9321775 C39.5752417,13.7231401 39.1009754,12.6270968 38.7847979,11.6440476 C38.4686203,10.6609985 38.2540712,9.81354234 38.1411507,9.10167916 C38.0282301,8.38981599 37.9830619,7.83049492 38.005646,7.42371596 C38.0282301,7.01693701 38.0395222,6.7909487 38.0395222,6.74575104 C38.0846904,6.4293674 38.1863189,6.10733406 38.3444077,5.77965101 C38.5024965,5.45196796 38.6944614,5.1864317 38.9203025,4.98304222 L43.4258327,0.47457545 C43.7420102,0.158191817 44.103356,0 44.50987,0 C44.8034634,0 45.0631807,0.084745616 45.2890218,0.254236848 C45.5148629,0.42372808 45.7068279,0.632767266 45.8649167,0.881354407 L49.4896665,7.76269843 C49.6929235,8.12427972 49.7493838,8.51975926 49.6590473,8.94913705 C49.5687109,9.37851484 49.3767459,9.74009614 49.0831525,10.0338809 L47.4232203,11.694895 C47.3780521,11.7400927 47.3385299,11.8135389 47.3046537,11.9152336 C47.2707776,12.0169284 47.2538395,12.101674 47.2538395,12.1694705 C47.3441759,12.6440459 47.5474329,13.1864179 47.8636105,13.7965863 C48.1346198,14.3389582 48.5524259,14.999974 49.1170287,15.7796337 C49.6816314,16.5592934 50.4833674,17.4575415 51.5222365,18.4744889 C52.5385215,19.5141459 53.4418859,20.3219433 54.2323298,20.8983243 C55.0226076,21.4743729 55.6834143,21.8982672 56.2141409,22.1694532 C56.7448675,22.4406391 57.1513815,22.6044806 57.4336275,22.6608116 L57.8569689,22.7456126 C57.9021371,22.7456126 57.9757016,22.728608 58.0772194,22.6947652 C58.1788479,22.6608116 58.2522462,22.621319 58.2974698,22.5760659 L60.2283559,20.6099676 C60.6350913,20.2484417 61.1091363,20.0676511 61.6512103,20.0676511 C62.0352509,20.0676511 62.3399703,20.1353922 62.5658114,20.2710406 L62.5996322,20.2710406 L69.137677,24.1354407 C69.6121094,24.429447 69.8943555,24.802217 69.9847473,25.2541936 Z" id="ic_mobilenumber"></path>
                </g>
            </g>
        </g>
    </g>
</svg>
