<?xml version="1.0" encoding="UTF-8"?>
<svg width="32px" height="30px" viewBox="0 0 32 30" version="1.1" xmlns="http://www.w3.org/2000/svg">
    <!-- Generator: Sketch 47.1 (45422) - http://www.bohemiancoding.com/sketch -->
    <title>ic_address</title>
    <desc>Created with Sketch.</desc>
    <defs>
        <linearGradient x1="131.426968%" y1="-34.1782798%" x2="0%" y2="100%" id="linearGradient-1">
            <stop stop-color="#AAABB3" stop-opacity="0" offset="0%"></stop>
            <stop stop-color="#AAABB3" offset="100%"></stop>
        </linearGradient>
    </defs>
    <g id="Identifiers" stroke="none" stroke-width="1" fill="none" fill-rule="evenodd" opacity="0.5">
        <g id="Add-Identifier-Type" transform="translate(-734.000000, -175.000000)" fill-rule="nonzero" fill="url(#linearGradient-1)">
            <g id="pop-up" transform="translate(100.000000, 61.000000)">
                <g id="Address" transform="translate(622.000000, 114.000000)">
                    <path d="M43.5990836,14.6371021 C44.1791595,14.0193093 44.1231443,13.0724176 43.4740142,12.5227073 L29.1728122,0.404837614 C28.5236821,-0.144872691 27.4829669,-0.13335726 26.8475016,0.43079784 L12.4976904,13.1687836 C11.8622252,13.7329387 11.8310361,14.6786182 12.4286363,15.280148 L12.7884064,15.6429851 C13.3852764,16.2445148 14.3500529,16.3162337 14.941916,15.8026859 L16.0143419,14.8726633 L16.0143419,28.4883472 C16.0143419,29.323721 16.7133328,30 17.5753625,30 L23.1689589,30 C24.0309886,30 24.7299795,29.323721 24.7299795,28.4883472 L24.7299795,18.9628636 L31.864673,18.9628636 L31.864673,28.4883472 C31.85226,29.3231149 32.4690535,29.9993939 33.3310832,29.9993939 L39.2588934,29.9993939 C40.1209231,29.9993939 40.8199141,29.3231149 40.8199141,28.4877411 L40.8199141,15.0643852 C40.8199141,15.0643852 41.1161585,15.3157044 41.4815615,15.626722 C41.8463386,15.9371336 42.6125061,15.6882387 43.192582,15.0698398 L43.5990836,14.6371021 Z" id="ic_address"></path>
                </g>
            </g>
        </g>
    </g>
</svg>
