<?xml version="1.0" encoding="UTF-8"?>
<svg width="20px" height="20px" viewBox="0 0 20 20" version="1.1" xmlns="http://www.w3.org/2000/svg">
    <!-- Generator: Sketch 47.1 (45422) - http://www.bohemiancoding.com/sketch -->
    <title>Shape</title>
    <desc>Created with Sketch.</desc>
    <defs></defs>
    <g id="Locate" stroke="none" stroke-width="1" fill="none" fill-rule="evenodd">
        <g id="Locate-No-Company" transform="translate(-696.000000, -670.000000)" fill-rule="nonzero" fill="#ffffff">
            <g id="Group" transform="translate(682.000000, 250.000000)">
                <path d="M31.675246,420 L16.333362,420 C15.0490373,420 14,421.040429 14,422.324754 L14,437.666064 C14,438.95211 15.0496112,440 16.333362,440 L31.675246,440 C32.9589969,440 34,438.95211 34,437.666064 L34,422.325328 C34,421.039855 32.9589969,420 31.675246,420 Z M31.3596167,436.377722 C31.2316433,436.614157 30.9854524,436.754182 30.7168804,436.754182 L17.5712031,436.754182 C17.3399329,436.754182 17.1224355,436.650885 16.9847063,436.466099 C16.8469771,436.280164 16.8050845,436.043729 16.8716536,435.821641 L18.7522309,429.601446 C18.8761872,429.192276 19.2216579,428.889845 19.6440274,428.820407 C20.0663969,428.751542 20.4910619,428.929442 20.7389745,429.277783 L23.3684543,432.971794 C23.7225331,433.469341 24.4083097,433.592723 24.9115951,433.249548 L27.3327595,431.605406 C27.5818197,431.436114 27.8876933,431.374709 28.1820895,431.433818 C28.4776334,431.492353 28.7364495,431.667958 28.9011506,431.920461 L31.3280537,435.634559 C31.4749649,435.86009 31.4870162,436.142435 31.3596167,436.377722 Z" id="Shape"></path>
            </g>
        </g>
    </g>
</svg>
