<?xml version="1.0" encoding="UTF-8"?>
<svg width="24px" height="24px" viewBox="0 0 24 24" version="1.1" xmlns="http://www.w3.org/2000/svg">
    <!-- Generator: Sketch 46.2 (44496) - http://www.bohemiancoding.com/sketch -->
    <title>Combined Shape*hover</title>
    <desc>Created with Sketch.</desc>
    <defs>
        <linearGradient x1="131.426968%" y1="-34.1782798%" x2="0%" y2="100%" id="linearGradient-1">
            <stop stop-color="#1B84FA" stop-opacity="0" offset="0%"></stop>
            <stop stop-color="#1B84FA" offset="100%"></stop>
        </linearGradient>
    </defs>
    <g id="Message" stroke="none" stroke-width="1" fill="none" fill-rule="evenodd">
        <g id="Messages_Combined" transform="translate(-1271.000000, -609.000000)" fill="url(#linearGradient-1)">
            <g id="Menu" transform="translate(623.000000, 534.000000)">
                <g id="Empty-State-Copy" transform="translate(636.000000, 0.000000)">
                    <g id="ic_settings-copy" transform="translate(0.000000, 63.000000)">
                        <path d="M24,36 C30.627417,36 36,30.627417 36,24 C36,17.372583 30.627417,12 24,12 C17.372583,12 12,17.372583 12,24 C12,30.627417 17.372583,36 24,36 Z M19,20.4608459 C19,19.7849568 19.2169927,19.1001847 19.6509847,18.406509 C20.0849767,17.7128333 20.7181685,17.1383362 21.5505794,16.6830003 C22.3829902,16.2276645 23.3541216,16 24.4640026,16 C25.4956229,16 26.4062809,16.1903133 27.196004,16.5709456 C27.985727,16.9515779 28.5957968,17.4691589 29.0262314,18.1237042 C29.4566661,18.7782494 29.6718802,19.489701 29.6718802,20.2580802 C29.6718802,20.8628231 29.5491548,21.3928545 29.3037003,21.8481903 C29.0582458,22.3035262 28.7665507,22.6966031 28.4286061,23.0274331 C28.0906616,23.358263 27.4841491,23.9149739 26.6090506,24.6975823 C26.3671534,24.9181356 26.1732828,25.1120062 26.0274331,25.2791998 C25.8815833,25.4463934 25.773087,25.5993555 25.7019407,25.7380906 C25.6307945,25.8768258 25.575657,26.0155588 25.5365266,26.154294 C25.4973962,26.2930291 25.4387014,26.5367013 25.3604406,26.8853178 C25.2252628,27.6252385 24.8019491,27.9951933 24.0904868,27.9951933 C23.7205265,27.9951933 23.4092664,27.8742465 23.1566973,27.6323494 C22.9041282,27.3904522 22.7778456,27.0311692 22.7778456,26.5544895 C22.7778456,25.9568612 22.8703343,25.4392802 23.0553145,25.0017309 C23.2402946,24.5641816 23.4857454,24.1799978 23.7916742,23.8491679 C24.097603,23.5183379 24.5102449,23.1252609 25.0296123,22.6699251 C25.4849481,22.2715062 25.8139945,21.970918 26.0167612,21.7681512 C26.2195279,21.5653845 26.3902763,21.3394986 26.5290115,21.0904868 C26.6677466,20.8414751 26.7371131,20.5711235 26.7371131,20.2794239 C26.7371131,19.7102542 26.5254563,19.2300244 26.1021362,18.8387201 C25.6788162,18.4474159 25.1327771,18.2517667 24.4640026,18.2517667 C23.6813942,18.2517667 23.1051184,18.4491945 22.7351581,18.8440561 C22.3651977,19.2389176 22.052159,19.8205293 21.7960326,20.5889085 C21.5541354,21.3928608 21.0952492,21.7948309 20.4193601,21.7948309 C20.0209412,21.7948309 19.6847803,21.6543192 19.4108674,21.3732917 C19.1369544,21.0922641 19,20.7881185 19,20.4608459 Z M24.2078775,32.1572266 C23.7738856,32.1572266 23.3950376,32.0167149 23.0713223,31.7356873 C22.747607,31.4546597 22.5857517,31.0615827 22.5857517,30.5564445 C22.5857517,30.1082233 22.7422711,29.731154 23.0553145,29.4252252 C23.3683578,29.1192965 23.7525417,28.9663344 24.2078775,28.9663344 C24.6560987,28.9663344 25.0331681,29.1192965 25.3390968,29.4252252 C25.6450256,29.731154 25.7979877,30.1082233 25.7979877,30.5564445 C25.7979877,31.0544681 25.6379111,31.4457665 25.3177531,31.7303514 C24.997595,32.0149362 24.6276402,32.1572266 24.2078775,32.1572266 Z" id="Combined-Shape"></path>
                    </g>
                </g>
            </g>
        </g>
    </g>
</svg>
