<?xml version="1.0" encoding="UTF-8"?>
<svg width="24px" height="24px" viewBox="0 0 24 24" version="1.1" xmlns="http://www.w3.org/2000/svg">
    <!-- Generator: Sketch 47.1 (45422) - http://www.bohemiancoding.com/sketch -->
    <title>ic_locate</title>
    <desc>Created with Sketch.</desc>
    <defs>
        <linearGradient x1="131.426968%" y1="-34.1782798%" x2="0%" y2="100%" id="linearGradient-1">
            <stop stop-color="#FFFFFF" stop-opacity="0" offset="0%"></stop>
            <stop stop-color="#FFFFFF" offset="100%"></stop>
        </linearGradient>
    </defs>
    <g id="Message" stroke="none" stroke-width="1" fill="none" fill-rule="evenodd">
        <g id="Messages_Combined" transform="translate(-1043.000000, -940.000000)" fill="url(#linearGradient-1)">
            <g id="Menu" transform="translate(905.000000, 534.000000)">
                <g id="Empty-State" transform="translate(0.000000, 394.000000)">
                    <g id="ic_location" transform="translate(126.000000, 0.000000)">
                        <path d="M35.354367,32.5261538 C35.972367,33.1441538 36.204367,34.1041538 35.802367,34.8801538 C35.135367,36.1671538 33.516367,36.3441538 32.585367,35.4141538 L29.231367,32.0601538 C26.986367,33.6081538 24.140367,34.3481538 21.110367,33.8411538 C16.569367,33.0821538 12.915367,29.4351538 12.158367,24.8941538 C10.898367,17.3421538 17.342367,10.8991538 24.894367,12.1581538 C29.435367,12.9151538 33.082367,16.5691538 33.841367,21.1101538 C34.348367,24.1401538 33.608367,26.9861538 32.060367,29.2321538 L35.354367,32.5261538 Z M23.301367,28.8701538 C23.472367,28.6861538 27.500367,24.3201538 27.500367,21.3461538 C27.499367,18.9491538 25.481367,17.0001538 23.000367,17.0001538 C20.518367,17.0001538 18.500367,18.9491538 18.500367,21.3461538 C18.500367,24.3201538 22.527367,28.6861538 22.698367,28.8701538 C22.859367,29.0431538 23.140367,29.0431538 23.301367,28.8701538 Z M22.999967,19.4998538 C24.104967,19.4998538 24.999967,20.3958538 24.999967,21.4998538 C24.999967,22.6048538 24.104967,23.4998538 22.999967,23.4998538 C21.894967,23.4998538 20.999967,22.6048538 20.999967,21.4998538 C20.999967,20.3958538 21.894967,19.4998538 22.999967,19.4998538 Z" id="ic_locate"></path>
                    </g>
                </g>
            </g>
        </g>
    </g>
</svg>
