<?xml version="1.0" encoding="UTF-8"?>
<svg width="22px" height="24px" viewBox="0 0 22 24" version="1.1" xmlns="http://www.w3.org/2000/svg">
    <!-- Generator: Sketch 46.2 (44496) - http://www.bohemiancoding.com/sketch -->
    <title>ic_off</title>
    <desc>Created with Sketch.</desc>
    <defs>
        <linearGradient x1="131.426968%" y1="-34.1782798%" x2="0%" y2="100%" id="linearGradient-1">
            <stop stop-color="#FFFFFF" stop-opacity="0" offset="0%"></stop>
            <stop stop-color="#FFFFFF" offset="100%"></stop>
        </linearGradient>
    </defs>
    <g id="Page-1" stroke="none" stroke-width="1" fill="none" fill-rule="evenodd">
        <g id="Messages_Combined" transform="translate(-1357.000000, -853.000000)" fill="url(#linearGradient-1)">
            <g id="Menu" transform="translate(785.000000, 653.000000)">
                <g id="ic_off" transform="translate(559.000000, 189.000000)">
                    <path d="M20,13.7498806 L20,18 C20,18.0837472 20.0025737,18.1668932 20.0076463,18.2493634 C18.1898518,19.5137314 17,21.6179133 17,24 C17,27.8659932 20.1340068,31 24,31 C27.8659932,31 31,27.8659932 31,24 C31,21.6179133 29.8101482,19.5137314 27.9923537,18.2493634 C27.9974263,18.1668932 28,18.0837472 28,18 L28,13.7498806 C32.0973569,15.3500188 35,19.3360351 35,24 C35,30.0751322 30.0751322,35 24,35 C17.9248678,35 13,30.0751322 13,24 C13,19.3360351 15.9026431,15.3500188 20,13.7498806 Z M24,11 C25.1045695,11 26,11.8954305 26,13 L26,21 C26,22.1045695 25.1045695,23 24,23 C22.8954305,23 22,22.1045695 22,21 L22,13 C22,11.8954305 22.8954305,11 24,11 Z"></path>
                </g>
            </g>
        </g>
    </g>
</svg>
