<svg xmlns="http://www.w3.org/2000/svg" version="1.1" xmlns:xlink="http://www.w3.org/1999/xlink" xmlns:svgjs="http://svgjs.com/svgjs" viewBox="0 0 24 24" height="24" width="24"><title>Exported from Streamline App (https://app.streamlineicons.com)</title><g transform="matrix(1,0,0,1,0,0)"><path d="M7.5,3h15C23.328,3,24,3.672,24,4.5v1C24,6.328,23.328,7,22.5,7h-15C6.672,7,6,6.328,6,5.5v-1C6,3.672,6.672,3,7.5,3z M4.5,10h15c0.828,0,1.5,0.672,1.5,1.5v1c0,0.828-0.672,1.5-1.5,1.5h-15C3.672,14,3,13.328,3,12.5v-1C3,10.672,3.672,10,4.5,10z M1.5,17h15c0.828,0,1.5,0.672,1.5,1.5v1c0,0.828-0.672,1.5-1.5,1.5h-15C0.672,21,0,20.328,0,19.5v-1C0,17.672,0.672,17,1.5,17z" stroke="none" fill="#788193" stroke-width="0" stroke-linecap="round" stroke-linejoin="round"></path></g></svg>