<?xml version="1.0" encoding="UTF-8"?>
<svg width="20px" height="14px" viewBox="0 0 20 14" version="1.1" xmlns="http://www.w3.org/2000/svg">
    <!-- Generator: Sketch 47.1 (45422) - http://www.bohemiancoding.com/sketch -->
    <title>ic_menu</title>
    <desc>Created with Sketch.</desc>
    <defs></defs>
    <g id="Alerts" stroke="none" stroke-width="1" fill="none" fill-rule="evenodd">
        <g id="Alerts-Details" transform="translate(-1062.000000, -386.000000)" fill="#AAABB3">
            <path d="M1063,386 L1081,386 C1081.55228,386 1082,386.447715 1082,387 L1082,387 C1082,387.552285 1081.55228,388 1081,388 L1063,388 C1062.44772,388 1062,387.552285 1062,387 L1062,387 L1062,387 C1062,386.447715 1062.44772,386 1063,386 L1063,386 Z M1063,392 L1081,392 C1081.55228,392 1082,392.447715 1082,393 C1082,393.552285 1081.55228,394 1081,394 L1063,394 C1062.44772,394 1062,393.552285 1062,393 C1062,392.447715 1062.44772,392 1063,392 L1063,392 Z M1063,398 L1081,398 C1081.55228,398 1082,398.447715 1082,399 C1082,399.552285 1081.55228,400 1081,400 L1063,400 C1062.44772,400 1062,399.552285 1062,399 C1062,398.447715 1062.44772,398 1063,398 L1063,398 Z" id="ic_menu"></path>
        </g>
    </g>
</svg>
