<?xml version="1.0" encoding="UTF-8"?>
<svg width="20px" height="16px" viewBox="0 0 20 16" version="1.1" xmlns="http://www.w3.org/2000/svg">
    <!-- Generator: Sketch 46.2 (44496) - http://www.bohemiancoding.com/sketch -->
    <title>ic_messages*hover</title>
    <desc>Created with Sketch.</desc>
    <defs>
        <linearGradient x1="131.426968%" y1="-34.1782798%" x2="0%" y2="100%" id="linearGradient-1">
            <stop stop-color="#1B84FA" stop-opacity="0" offset="0%"></stop>
            <stop stop-color="#1B84FA" offset="100%"></stop>
        </linearGradient>
    </defs>
    <g id="Message" stroke="none" stroke-width="1" fill="none" fill-rule="evenodd">
        <g id="Messages_Combined" transform="translate(-875.000000, -839.000000)" fill="url(#linearGradient-1)">
            <g id="Menu" transform="translate(735.000000, 653.000000)">
                <g id="Choose-State" transform="translate(0.000000, 170.000000)">
                    <g id="ic_messages" transform="translate(126.000000, 0.000000)">
                        <path d="M34,20.5453743 L34,30 C34,31.1045695 33.1045695,32 32,32 L16,32 C14.8954305,32 14,31.1045695 14,30 L14,20.5454706 L19.5999529,25.1272727 C21.0221682,26.2909091 26.9777141,26.2909091 28.3999294,25.1272727 L34,20.5453743 Z M27.5999529,23.4181818 C26.6518094,24.1939394 21.3481121,24.1939394 20.3999686,23.4181818 L14.5333307,18.6181818 C14.1975912,18.3434845 14,17.9123743 14,17.4545455 C14,16.6512222 14.5969507,16 15.3333268,16 L32.6665947,16 C33.0862691,16 33.4814516,16.2155551 33.7332562,16.5818182 C34.1750818,17.2244768 34.0556917,18.1361879 33.4665908,18.6181818 L27.5999529,23.4181818 Z"></path>
                    </g>
                </g>
            </g>
        </g>
    </g>
</svg>
