<?xml version="1.0" encoding="UTF-8"?>
<svg width="16px" height="24px" viewBox="0 0 16 24" version="1.1" xmlns="http://www.w3.org/2000/svg">
    <!-- Generator: Sketch 47.1 (45422) - http://www.bohemiancoding.com/sketch -->
    <title>ic_mic</title>
    <desc>Created with Sketch.</desc>
    <defs></defs>
    <g id="Message" stroke="none" stroke-width="1" fill="none" fill-rule="evenodd">
        <g id="Assistents" transform="translate(-905.000000, -814.000000)" fill-rule="nonzero" fill="#737580">
            <path d="M912.999927,830.61498 C911.777712,830.61498 910.73135,830.163053 909.861133,829.259602 C908.990915,828.356151 908.555588,827.269221 908.555588,825.999975 L908.555588,818.615511 C908.555588,817.346214 908.990721,816.259638 909.861133,815.355884 C910.731496,814.45218 911.777712,814 912.999927,814 C914.222288,814 915.268358,814.45218 916.138673,815.355884 C917.009182,816.259789 917.443974,817.346214 917.443974,818.615511 L917.443974,825.999975 C917.443974,827.269272 917.008841,828.356151 916.138673,829.259602 C915.268358,830.163053 914.222288,830.61498 912.999927,830.61498 Z M920.735612,823.504825 C920.911806,823.687698 921,823.903861 921,824.15372 L921,825.999975 C921,828.124984 920.316824,829.973613 918.951057,831.545559 C917.585289,833.117556 915.897975,834.018936 913.88897,834.249547 L913.88897,836.153594 L917.443974,836.153594 C917.68472,836.153594 917.893312,836.24508 918.068921,836.427801 C918.245066,836.610421 918.333114,836.826837 918.333114,837.076797 C918.333114,837.326453 918.245066,837.543273 918.068921,837.725792 C917.893263,837.908412 917.684672,838 917.443974,838 L908.555539,838 C908.314793,838 908.106494,837.908362 907.930592,837.725792 C907.754642,837.543223 907.666642,837.326403 907.666642,837.076797 C907.666642,836.826787 907.754642,836.610371 907.930592,836.427801 C908.106494,836.24508 908.314793,836.153594 908.555539,836.153594 L912.110981,836.153594 L912.110981,834.249547 C910.101635,834.018936 908.414176,833.117556 907.048554,831.545559 C905.682981,829.973613 905,828.124984 905,825.999975 L905,824.15372 C905,823.903811 905.087951,823.687496 905.26395,823.504825 C905.439803,823.322104 905.648151,823.230719 905.889043,823.230719 C906.129935,823.230719 906.33804,823.322104 906.51399,823.504825 C906.689843,823.687496 906.777843,823.903811 906.777843,824.15372 L906.777843,825.999975 C906.777843,827.778941 907.386542,829.300774 908.604039,830.564817 C909.821681,831.829264 911.28688,832.461488 912.999878,832.461488 C914.712925,832.461488 916.17827,831.829264 917.395475,830.564817 C918.613069,829.30042 919.222011,827.77889 919.222011,825.999975 L919.222011,824.15372 C919.222011,823.903811 919.309962,823.687496 919.485718,823.504825 C919.661863,823.322104 919.870162,823.230719 920.110665,823.230719 C920.351411,823.230719 920.560197,823.322104 920.735612,823.504825 Z" id="ic_mic"></path>
        </g>
    </g>
</svg>
