<?xml version="1.0" encoding="UTF-8"?>
<svg width="54px" height="64px" viewBox="0 0 54 64" version="1.1" xmlns="http://www.w3.org/2000/svg">
    <!-- Generator: Sketch 47.1 (45422) - http://www.bohemiancoding.com/sketch -->
    <title>Combined Shape</title>
    <desc>Created with Sketch.</desc>
    <defs>
        <linearGradient x1="131.426968%" y1="-34.1782798%" x2="0%" y2="100%" id="linearGradient-1">
            <stop stop-color="#ffffff" stop-opacity="0" offset="0%"></stop>
            <stop stop-color="#ffffff" offset="100%"></stop>
        </linearGradient>
    </defs>
    <g id="Alerts" stroke="none" stroke-width="1" fill="none" fill-rule="evenodd">
        <g id="Alerts-Home" transform="translate(-1008.000000, -438.000000)" fill-rule="nonzero" fill="url(#linearGradient-1)">
            <g id="Group" transform="translate(250.000000, 233.000000)">
                <g id="Group-2" transform="translate(753.000000, 205.000000)">
                    <path d="M29.3206844,0 C42.7525226,0 53.6410605,10.0227406 53.6410605,22.3863769 L53.6410605,28.2691264 L58.6195896,36.6402129 C59.7393078,38.5228914 58.2522086,40.8205055 55.9205803,40.810714 L53.6410605,40.8010643 L53.6410605,47.1342262 C53.6410605,51.3075654 49.9655546,54.6907672 45.4316444,54.6907672 L40.8033837,54.6907672 C39.5510815,54.6907672 38.535889,55.6252239 38.535889,56.7779335 L38.535889,64 L9.80123657,57.9300754 L9.80123657,40.0997605 C6.78202143,36.2729579 5,31.5654812 5,26.4742882 L5,22.3863769 C5,10.0227406 15.8886921,0 29.3206844,0 Z M28.4553222,10.6666667 C24.4509266,10.6666667 21.033938,13.2784822 20.3776221,16.8409521 L18.0553655,30.369194 C18.0185178,30.5692026 18,30.7716086 18,30.974359 C18,33.0135642 19.8330427,34.6666667 22.0942155,34.6666667 L37.9051481,34.6666667 C38.1299679,34.6666667 38.3544057,34.6499667 38.5761853,34.6167361 C40.8067806,34.2825128 42.3146018,32.3808234 41.9439982,30.369194 L39.6217415,16.8409521 C38.9654257,13.2784822 35.5484371,10.6666667 31.5440414,10.6666667 L28.4553222,10.6666667 Z M24.6666667,34.6666667 C25.0401477,37.6820392 27.2856764,40 30,40 C32.7143236,40 34.9598523,37.6820392 35.3333333,34.6666667 L24.6666667,34.6666667 Z M27.3333333,10.6666667 L32.6666667,10.6666667 C32.6666667,9.19390733 31.4727593,8 30,8 C28.5272407,8 27.3333333,9.19390733 27.3333333,10.6666667 Z" id="Combined-Shape"></path>
                </g>
            </g>
        </g>
    </g>
</svg>
