<svg width="23.999999999999996" height="23.999999999999996" xmlns="http://www.w3.org/2000/svg">
 <title>single-neutral-actions</title>

 <g>
  <title>background</title>
  <rect fill="none" id="canvas_background" height="402" width="582" y="-1" x="-1"/>
 </g>
 <g>
  <title>Layer 1</title>
  <path stroke="null" id="svg_1" d="m22.875462,18.304371c-0.756176,-1.517777 -3.236544,-2.43324 -6.669498,-3.704167l-0.881036,-0.324432a0.841754,0.846344 0 0 1 -0.193603,-0.438688a3.609722,3.629406 0 0 1 0.08137,-1.833746a7.881623,7.924603 0 0 0 2.056686,-6.085215c0,-3.409357 -2.215216,-5.886324 -5.26938,-5.886324s-5.26938,2.476967 -5.26938,5.887735a7.863385,7.906266 0 0 0 2.035642,6.065467a3.441371,3.460137 0 0 1 0.102413,1.856315a0.862798,0.867503 0 0 1 -0.189395,0.435867l-0.88805,0.323021c-3.432953,1.269516 -5.913322,2.186389 -6.669498,3.704167a12.869016,12.939193 0 0 0 -1.046581,5.001894a0.701462,0.705287 0 0 0 0.701462,0.705287l22.446774,0a0.701462,0.705287 0 0 0 0.701462,-0.705287a12.869016,12.939193 0 0 0 -1.049387,-5.001894z" fill="#0077be"/>
 </g>
</svg>