<?xml version="1.0" encoding="UTF-8"?>
<svg width="24px" height="16px" viewBox="0 0 24 16" version="1.1" xmlns="http://www.w3.org/2000/svg">
    <!-- Generator: Sketch 49.3 (51167) - http://www.bohemiancoding.com/sketch -->
    <title>ic_events</title>
    <desc>Created with Sketch.</desc>
    <defs></defs>
    <g id="Location" stroke="none" stroke-width="1" fill="none" fill-rule="evenodd">
        <g id="Events-Main-Side-Bar" transform="translate(-28.000000, -373.000000)" fill="#666E80">
            <g id="hide-right-menu-">
                <path d="M29,373 L31,373 C31.5522847,373 32,373.447715 32,374 L32,376 C32,376.552285 31.5522847,377 31,377 L29,377 C28.4477153,377 28,376.552285 28,376 L28,374 C28,373.447715 28.4477153,373 29,373 Z M29,379 L31,379 C31.5522847,379 32,379.447715 32,380 L32,382 C32,382.552285 31.5522847,383 31,383 L29,383 C28.4477153,383 28,382.552285 28,382 L28,380 C28,379.447715 28.4477153,379 29,379 Z M29,385 L31,385 C31.5522847,385 32,385.447715 32,386 L32,388 C32,388.552285 31.5522847,389 31,389 L29,389 C28.4477153,389 28,388.552285 28,388 L28,386 C28,385.447715 28.4477153,385 29,385 Z M37,374 L51,374 C51.5522847,374 52,374.447715 52,375 C52,375.552285 51.5522847,376 51,376 L37,376 C36.4477153,376 36,375.552285 36,375 C36,374.447715 36.4477153,374 37,374 Z M37,380 L51,380 C51.5522847,380 52,380.447715 52,381 C52,381.552285 51.5522847,382 51,382 L37,382 C36.4477153,382 36,381.552285 36,381 C36,380.447715 36.4477153,380 37,380 Z M37,386 L51,386 C51.5522847,386 52,386.447715 52,387 C52,387.552285 51.5522847,388 51,388 L37,388 C36.4477153,388 36,387.552285 36,387 C36,386.447715 36.4477153,386 37,386 Z" id="ic_events"></path>
            </g>
        </g>
    </g>
</svg>
