<svg xmlns="http://www.w3.org/2000/svg" version="1.1" xmlns:xlink="http://www.w3.org/1999/xlink" xmlns:svgjs="http://svgjs.com/svgjs" viewBox="0 0 24 24" height="24" width="24"><title>Exported from Streamline App (https://app.streamlineicons.com)</title><g transform="matrix(1,0,0,1,0,0)"><path d="M22.473,17.064c-1.081-0.742-2.24-1.364-3.455-1.857c-0.349-0.123-0.598-0.433-0.643-0.8v-0.535 c0.001-0.139,0.113-0.251,0.252-0.25c0.002,0,0.003,0,0.005,0c0.154,0.005,0.3,0.007,0.449,0.007 c1.664,0.091,3.308-0.392,4.657-1.37c0.117-0.094,0.188-0.234,0.194-0.384c0.006-0.155-0.053-0.305-0.162-0.414 c-0.661-0.66-1.059-1.058-1.234-3.636C22.23,3.3,19.094,1.7,16.5,1.7c-0.575,0.001-1.146,0.079-1.7,0.232 c-0.133,0.038-0.211,0.177-0.173,0.31c0.005,0.018,0.013,0.036,0.022,0.053c0.129,0.228,0.227,0.471,0.292,0.725 c0.22,1.102,0.164,2.242-0.163,3.317c-0.016,0.058-0.01,0.119,0.016,0.173C15.013,6.976,15.125,7.485,15.12,8 c0.013,0.731-0.218,1.446-0.658,2.031c-0.026,0.033-0.044,0.073-0.05,0.115c-0.14,1.003-0.573,1.942-1.243,2.7 c-0.093,0.102-0.085,0.26,0.018,0.353c0.022,0.02,0.048,0.036,0.075,0.047l3.079,1.22c1.911,0.749,3.166,2.595,3.159,4.648 c0,3.016,0.013,2.895-0.015,3.1c-0.018,0.137,0.079,0.263,0.217,0.281c0.011,0.001,0.021,0.002,0.032,0.002h4.016 c0.138,0,0.25-0.112,0.25-0.25v-1.765C24.101,19.158,23.526,17.873,22.473,17.064z M17.5,22.5c0.276,0,0.5-0.224,0.5-0.5v-2.886 c0.005-1.437-0.873-2.73-2.211-3.255l-4.131-1.636c-0.095-0.038-0.158-0.13-0.158-0.232V12.44c0-0.082,0.04-0.159,0.108-0.205 c0.86-0.652,1.367-1.666,1.373-2.745c0.006-0.072,0.042-0.138,0.1-0.181C13.455,8.981,13.655,8.497,13.62,8 c0.023-0.438-0.125-0.868-0.412-1.2c-0.064-0.066-0.087-0.162-0.059-0.25c0.387-1.011,0.503-2.105,0.336-3.174 C13.139,1.992,11.256,1.5,9.75,1.5c-1.292,0-2.86,0.362-3.5,1.341C6.204,2.91,6.127,2.953,6.044,2.954 c-0.401-0.013-0.79,0.144-1.069,0.433c-0.713,0.769-0.357,2.253-0.1,3.161C4.899,6.635,4.874,6.729,4.81,6.793 C4.728,6.875,4.658,6.969,4.603,7.072C4.453,7.358,4.376,7.677,4.38,8C4.345,8.497,4.545,8.981,4.919,9.309 c0.058,0.043,0.094,0.109,0.1,0.181c0.006,1.079,0.513,2.093,1.373,2.745C6.459,12.282,6.5,12.358,6.5,12.44v1.552 c0,0.102-0.063,0.195-0.158,0.232L2.206,15.87C0.871,16.396-0.005,17.687,0,19.122V22c0,0.276,0.224,0.5,0.5,0.5H17.5z" stroke="none" fill="#45475e" stroke-width="0" stroke-linecap="round" stroke-linejoin="round"></path></g></svg>
