<svg xmlns="http://www.w3.org/2000/svg" version="1.1" xmlns:xlink="http://www.w3.org/1999/xlink" xmlns:svgjs="http://svgjs.com/svgjs" viewBox="0 0 24 24" height="24" width="24"><title>Exported from Streamline App (https://app.streamlineicons.com)</title><g transform="matrix(1,0,0,1,0,0)"><path d="M23.288,2.885C23.099,2.642,22.808,2.5,22.5,2.5h-21c-0.552,0-1,0.448-1,1c0,0.082,0.01,0.164,0.03,0.243l0.5,2.5 C1.141,6.688,1.541,7,2,7h20c0.459,0,0.859-0.312,0.97-0.757l0.5-2.5C23.545,3.444,23.478,3.128,23.288,2.885z M12,12.25 C9.93,12.253,8.253,13.93,8.25,16v4.421c0,0.21,0.131,0.397,0.328,0.469c2.209,0.814,4.635,0.814,6.844,0 c0.197-0.072,0.328-0.259,0.328-0.469V16C15.747,13.93,14.07,12.253,12,12.25z M12,19c-1.105,0-2-0.895-2-2s0.895-2,2-2 s2,0.895,2,2S13.105,19,12,19z M21.161,8.5H2.839c-0.225,0-0.423,0.151-0.482,0.368c-1.082,3.927,0.341,8.117,3.59,10.573 c0.221,0.166,0.534,0.121,0.7-0.1c0.065-0.087,0.1-0.192,0.1-0.3V16c0-2.899,2.351-5.25,5.25-5.25s5.25,2.351,5.25,5.25v3.044 c0,0.276,0.224,0.5,0.5,0.5c0.108,0,0.213-0.035,0.3-0.1c3.249-2.456,4.672-6.646,3.59-10.573 C21.579,8.655,21.385,8.503,21.161,8.5z" stroke="none" fill="#ffffff" stroke-width="0" stroke-linecap="round" stroke-linejoin="round"></path></g></svg>