<?xml version="1.0" encoding="UTF-8"?>
<svg width="24px" height="18px" viewBox="0 0 24 18" version="1.1" xmlns="http://www.w3.org/2000/svg">
    <!-- Generator: Sketch 50 (54983) - http://www.bohemiancoding.com/sketch -->
    <title>ic_messages</title>
    <desc>Created with Sketch.</desc>
    <defs></defs>
    <g id="Archive" stroke="none" stroke-width="1" fill="none" fill-rule="evenodd">
        <g id="Events" transform="translate(-488.000000, -935.000000)" stroke="#ffffff" stroke-width="2">
            <g id="Menu" transform="translate(0.000000, 904.000000)">
                <path d="M511,37.6556236 L507.033169,40.9012285 C505.242587,42.3662572 494.757295,42.3662572 492.966705,40.901222 L489,37.6556517 L489,47 C489,47.5522847 489.447715,48 490,48 L510,48 C510.552285,48 511,47.5522847 511,47 L511,37.6556236 Z M504.966713,37.644226 L510.833351,32.844226 C511.016207,32.694616 511.059177,32.3664763 510.909213,32.1483451 C510.840862,32.0489249 510.751167,32 510.666595,32 L489.333327,32 C489.169599,32 489,32.1850176 489,32.4545455 C489,32.6169992 489.06669,32.7625053 489.16657,32.844226 L495.033208,37.644226 C495.197067,37.7782931 497.52999,38 499.999961,38 C502.469931,38 504.802854,37.7782931 504.966713,37.644226 Z" id="ic_messages"></path>
            </g>
        </g>
    </g>
</svg>
