<?xml version="1.0" encoding="UTF-8"?>
<svg width="30" height="30" version="1.1" viewBox="0 0 30 30" xmlns="http://www.w3.org/2000/svg">
    <!--Generated by IJSVG (https://github.com/iconjar/IJSVG)-->
    <g transform="scale(1.25)">
        <path fill="none" d="M0,0h24v24h-24Z"></path>
        <path fill="#009F9A" d="M21,3h-2v-2h-2v5h-2v-3h-6v-2h-2v5h-2v-3h-2c-1.103,0 -2,0.898 -2,2v15c0,1.102 0.897,2 2,2h18c1.103,0 2,-0.898 2,-2v-15c0,-1.103 -0.897,-2 -2,-2Zm-13,16h-4v-4h4v4Zm0,-6h-4v-4h4v4Zm6,6h-4v-4h4v4Zm0,-6h-4v-4h4v4Zm6,0h-4v-4h4v4Z"></path>
    </g>
</svg>
