<?xml version="1.0" encoding="UTF-8"?>
<svg width="30" height="30" version="1.1" viewBox="0 0 30 30" xmlns="http://www.w3.org/2000/svg">
    <!--Generated by IJSVG (https://github.com/iconjar/IJSVG)-->
    <g transform="scale(1.25)">
        <path fill="none" d="M0.002,0.002h24v24h-24Z"></path>
        <path fill="#009F9A" d="M14.1213,9.87868c1.17157,1.17157 1.17157,3.07107 0,4.24264c-1.17157,1.17157 -3.07107,1.17157 -4.24264,0c-1.17157,-1.17157 -1.17157,-3.07107 0,-4.24264c1.17157,-1.17157 3.07107,-1.17157 4.24264,0"></path>
        <path fill="#009F9A" d="M22,11h-2.069c-0.454,-3.611 -3.319,-6.477 -6.931,-6.931v-2.069h-2v2.069c-3.611,0.454 -6.477,3.32 -6.931,6.931h-2.069v2h2.069c0.454,3.611 3.319,6.478 6.931,6.931v2.069h2v-2.069c3.612,-0.454 6.477,-3.32 6.931,-6.931h2.069v-2Zm-10,7c-3.309,0 -6,-2.691 -6,-6c0,-3.309 2.691,-6 6,-6c3.309,0 6,2.691 6,6c0,3.309 -2.691,6 -6,6Z"></path>
    </g>
</svg>
