<?xml version="1.0" encoding="UTF-8"?>
<svg width="22px" height="24px" viewBox="0 0 22 24" version="1.1" xmlns="http://www.w3.org/2000/svg">
    <!-- Generator: Sketch 49.3 (51167) - http://www.bohemiancoding.com/sketch -->
    <title>ic_admin</title>
    <desc>Created with Sketch.</desc>
    <defs></defs>
    <g id="Location" stroke="none" stroke-width="1" fill="none" fill-rule="evenodd">
        <g id="Events-Main-Side-Bar" transform="translate(-29.000000, -497.000000)" fill="#ACB3BF">
            <g id="hide-right-menu-">
                <path d="M39.9999501,499 C42.2059501,499 43.9999501,500.794 43.9999501,503 C43.9999501,505.206 42.2059501,507 39.9999501,507 C37.7939501,507 35.9999501,505.206 35.9999501,503 C35.9999501,500.794 37.7939501,499 39.9999501,499 M39.9999501,509 C36.6859501,509 33.9999501,506.314 33.9999501,503 C33.9999501,499.686 36.6859501,497 39.9999501,497 C43.3139501,497 45.9999501,499.686 45.9999501,503 C45.9999501,506.314 43.3139501,509 39.9999501,509 Z M50.8638501,515.7308 C51.2678501,516.7848 50.7418501,517.9668 49.6778501,518.4928 C46.4258501,520.0988 43.8118501,520.9998 40.0008501,520.9998 C36.1878501,520.9998 33.5738501,520.0988 30.3198501,518.4918 C29.2588501,517.9668 28.7318501,516.7878 29.1358501,515.7338 C30.1498501,513.0818 32.7388501,510.8488 35.1148501,509.3258 C36.4668501,510.3718 38.1578501,510.9998 39.9998501,510.9998 C41.8478501,510.9998 43.5438501,510.3678 44.8978501,509.3158 C47.3508501,510.8388 49.8488501,513.0778 50.8638501,515.7308 Z M48.7928501,516.6998 C48.9558501,516.6188 49.0128501,516.4898 48.9968501,516.4458 C48.3858501,514.8508 46.9178501,513.1678 44.8948501,511.7158 C43.4048501,512.5598 41.7378501,512.9998 39.9998501,512.9998 C38.2738501,512.9998 36.6168501,512.5648 35.1338501,511.7318 C33.0468501,513.2468 31.5978501,514.8948 31.0038501,516.4488 C30.9888501,516.4868 31.0408501,516.6168 31.2068501,516.6988 C34.2278501,518.1908 36.5238501,518.9998 40.0008501,518.9998 C43.4758501,518.9998 45.7718501,518.1918 48.7928501,516.6998 Z" id="ic_admin"></path>
            </g>
        </g>
    </g>
</svg>
