<svg xmlns="http://www.w3.org/2000/svg" version="1.1" xmlns:xlink="http://www.w3.org/1999/xlink" xmlns:svgjs="http://svgjs.com/svgjs" viewBox="0 0 24 24" height="24" width="24"><title>Exported from Streamline App (https://app.streamlineicons.com)</title><g transform="matrix(1,0,0,1,0,0)"><path d="M14.236,21H9.764c-0.127,0-0.234,0.096-0.248,0.222C9.505,21.314,9.5,21.407,9.5,21.5c0,1.381,1.119,2.5,2.5,2.5 s2.5-1.119,2.5-2.5c0-0.093-0.005-0.186-0.016-0.278C14.471,21.095,14.363,20.999,14.236,21z M21.446,19.276 c-1.145-2.275-1.742-4.785-1.746-7.332v-0.768c0.056-3.025-1.392-5.88-3.866-7.622c-0.71-0.457-1.503-0.769-2.334-0.918V1.5 C13.5,0.672,12.828,0,12,0s-1.5,0.672-1.5,1.5v1.149C9.463,2.845,8.486,3.283,7.649,3.926c-2.162,1.781-3.394,4.45-3.349,7.25 v0.768c-0.004,2.547-0.601,5.057-1.746,7.332c-0.124,0.247-0.024,0.547,0.223,0.671C2.846,19.982,2.923,20,3,20h18 c0.276,0,0.5-0.224,0.499-0.501C21.499,19.422,21.481,19.345,21.446,19.276L21.446,19.276z" stroke="none" fill="#ffffff" stroke-width="0" stroke-linecap="round" stroke-linejoin="round"></path></g></svg>