<?xml version="1.0" encoding="UTF-8"?>
<svg width="24px" height="20px" viewBox="0 0 24 20" version="1.1" xmlns="http://www.w3.org/2000/svg">
    <!-- Generator: sketchtool 50 (54983) - http://www.bohemiancoding.com/sketch -->
    <title>E54D3752-8986-41D2-88A2-FCE18D53A15D</title>
    <desc>Created with sketchtool.</desc>
    <defs></defs>
    <g id="Desktop" stroke="none" stroke-width="1" fill="none" fill-rule="evenodd">
        <g transform="translate(-740.000000, -974.000000)" fill="#ffffff" id="Menu">
            <g transform="translate(0.000000, 898.000000)">
                <g id="Group" transform="translate(486.000000, 0.000000)">
                    <path d="M256,94 L276,94 L276,78 L256,78 L256,94 Z M276,76 C277.105,76 278,76.895 278,78 L278,94 C278,95.105 277.105,96 276,96 L256,96 C254.895,96 254,95.105 254,94 L254,78 C254,76.895 254.895,76 256,76 L276,76 Z M259,92 L261,92 L261,86 L259,86 L259,92 Z M263,92 L265,92 L265,88 L263,88 L263,92 Z M267,92 L269,92 L269,82 L267,82 L267,92 Z M271,92 L273,92 L273,84 L271,84 L271,92 Z" id="ic_reports"></path>
                </g>
            </g>
        </g>
    </g>
</svg>
