<?xml version="1.0" encoding="UTF-8"?>
<svg width="30" height="30" version="1.1" viewBox="0 0 30 30" xmlns="http://www.w3.org/2000/svg">
    <!--Generated by IJSVG (https://github.com/iconjar/IJSVG)-->
    <g transform="scale(1.25)">
        <path fill="none" d="M0,0h24v24h-24Z"></path>
        <path fill="#009F9A" d="M20,4h-16c-1.103,0 -2,0.897 -2,2v12c0,1.103 0.897,2 2,2h16c1.104,0 2,-0.897 2,-2v-12c0,-1.103 -0.896,-2 -2,-2Zm-0.003,14h-15.997v-12h16l-0.003,12Z"></path>
        <path fill="#009F9A" d="M19,7h-14v10h14v-10Zm-10,9h-2v-4h2v4Zm4,0h-2v-6h2v6Zm4,0h-2v-5h2v5Z"></path>
    </g>
</svg>
