<?xml version="1.0" encoding="UTF-8"?>
<svg width="18px" height="24px" viewBox="0 0 18 24" version="1.1" xmlns="http://www.w3.org/2000/svg">
    <!-- Generator: Sketch 50 (54983) - http://www.bohemiancoding.com/sketch -->
    <title>ic_location</title>
    <desc>Created with Sketch.</desc>
    <defs></defs>
    <g id="Archive" stroke="none" stroke-width="1" fill="none" fill-rule="evenodd">
        <g id="Events" transform="translate(-463.000000, -940.000000)" stroke="#666E80" stroke-width="2">
            <g id="Menu" transform="translate(0.000000, 904.000000)">
                <path d="M471.999191,58.9190977 C472.316489,58.5716048 472.760899,58.0652457 473.290707,57.4299385 C474.260838,56.2666267 475.220414,55.0215049 476.107201,53.7398837 C478.549074,50.2107881 480.000375,47.0417656 480.000375,44.6925983 C479.998609,40.4584199 476.417674,37 472.000188,37 C467.580773,37 464,40.4582637 464,44.6921811 C464,47.0418266 465.450956,50.2108765 467.892239,53.7399772 C468.778817,55.0216079 469.738173,56.2667424 470.708054,57.4300267 C471.237767,58.0653688 471.682834,58.5725803 471.999191,58.9190977 Z M472.122738,59.0533371 C472.124569,59.0553093 472.126395,59.0572744 472.128214,59.0592324 C472.122718,59.0533267 472.117012,59.0478626 472.111128,59.0428401 Z M472,42 C473.657017,42 475,43.3434471 475,45 C475,46.6572847 473.657285,48 472,48 C470.342715,48 469,46.6572847 469,45 C469,43.3434471 470.342983,42 472,42 Z" id="ic_location"></path>
            </g>
        </g>
    </g>
</svg>
