<?xml version="1.0" encoding="UTF-8"?>
<svg width="24px" height="16px" viewBox="0 0 24 16" version="1.1" xmlns="http://www.w3.org/2000/svg">
    <!-- Generator: Sketch 49.3 (51167) - http://www.bohemiancoding.com/sketch -->
    <title>ic_viewer</title>
    <desc>Created with Sketch.</desc>
    <defs></defs>
    <g id="Location" stroke="none" stroke-width="1" fill="none" fill-rule="evenodd">
        <g id="Events-Main-Side-Bar" transform="translate(-28.000000, -309.000000)" fill="#1B84FA">
            <g id="hide-right-menu-">
                <path d="M39.9999,322.9999 C35.5489,322.9999 31.6439,318.6799 30.2949,316.9999 C31.6459,315.3199 35.5529,310.9999 39.9999,310.9999 C44.4449,310.9999 48.3519,315.3189 49.7049,316.9999 C48.3519,318.6809 44.4419,322.9999 39.9999,322.9999 M51.8479,316.5119 C52.0509,316.8019 52.0509,317.1979 51.8479,317.4889 C51.6329,317.7949 46.5249,324.9999 39.9999,324.9999 C33.4749,324.9999 28.3669,317.7949 28.1519,317.4879 C27.9489,317.1969 27.9489,316.8019 28.1519,316.5109 C28.3669,316.2049 33.4749,308.9999 39.9999,308.9999 C46.5249,308.9999 51.6329,316.2049 51.8479,316.5119 Z M40,319 C38.897,319 38,318.103 38,317 C38,315.897 38.897,315 40,315 C41.103,315 42,315.897 42,317 C42,318.103 41.103,319 40,319 Z M40,313 C37.794,313 36,314.794 36,317 C36,319.206 37.794,321 40,321 C42.206,321 44,319.206 44,317 C44,314.794 42.206,313 40,313 Z" id="ic_viewer"></path>
            </g>
        </g>
    </g>
</svg>
