<svg xmlns="http://www.w3.org/2000/svg" version="1.1" xmlns:xlink="http://www.w3.org/1999/xlink" xmlns:svgjs="http://svgjs.com/svgjs" viewBox="0 0 24 24" height="24" width="24"><title>Exported from Streamline App (https://app.streamlineicons.com)</title><g transform="matrix(1,0,0,1,0,0)"><path d="M10.779,6.148c2.423-0.175,4.622,1.417,5.211,3.774c0.146,0.533,0.696,0.846,1.229,0.7 c0.515-0.141,0.828-0.663,0.711-1.184c-0.822-3.299-3.898-5.53-7.289-5.285C7.202,4.444,4.468,7.162,4.158,10.6 c-0.25,3.347,1.905,6.402,5.142,7.29c0.537,0.13,1.077-0.201,1.207-0.737c0.124-0.515-0.175-1.038-0.682-1.192 c-2.312-0.637-3.849-2.822-3.669-5.213C6.378,8.297,8.327,6.358,10.779,6.148z M10.241,20.092c-4.692-0.484-8.22-4.497-8.1-9.212 c0.187-4.748,3.993-8.554,8.741-8.741c4.715-0.121,8.729,3.408,9.212,8.1c0.055,0.55,0.545,0.95,1.095,0.895 c0.55-0.055,0.95-0.545,0.895-1.095c-0.581-5.739-5.492-10.058-11.258-9.9C5.023,0.369,0.371,5.021,0.142,10.824 c-0.146,5.762,4.166,10.667,9.9,11.258c0.034,0,0.067,0,0.1,0c0.552,0.028,1.022-0.398,1.05-0.95 c0.028-0.552-0.398-1.022-0.95-1.05L10.241,20.092z M23.594,21.134l-3.744-3.746c-0.098-0.097-0.098-0.254-0.002-0.352 c0.011-0.011,0.023-0.021,0.036-0.03l2.352-1.628l0,0c0.415-0.287,0.518-0.856,0.231-1.27c-0.118-0.17-0.29-0.295-0.488-0.355 l-10.492-3.148c-0.373-0.113-0.767,0.099-0.88,0.472c-0.04,0.133-0.04,0.274,0,0.407l3.147,10.492 c0.145,0.483,0.654,0.757,1.137,0.613c0.198-0.059,0.37-0.184,0.488-0.355l1.629-2.352c0.079-0.114,0.234-0.142,0.348-0.063 c0.012,0.008,0.024,0.018,0.034,0.028l3.745,3.746c0.357,0.356,0.934,0.356,1.291,0l1.168-1.168 C23.941,22.071,23.932,21.496,23.594,21.134z" stroke="none" fill="#ffffff" stroke-width="0" stroke-linecap="round" stroke-linejoin="round"></path></g></svg>