<svg xmlns="http://www.w3.org/2000/svg" viewBox="0 0 24 24"><title>analytics-graph-bar-1</title><path fill="#ffffff" d="M3.167,11.5c-.369,0-.667.224-.667.5v8a.5.5,0,0,0,.5.5H6a.5.5,0,0,0,.5-.5V12c0-.276-.3-.5-.667-.5Z"/><path fill="#ffffff" d="M11.167,14.5c-.369,0-.667.224-.667.5v5a.5.5,0,0,0,.5.5h3a.5.5,0,0,0,.5-.5V15c0-.276-.3-.5-.667-.5Z"/><path fill="#ffffff" d="M18.5,20.5h3a.483.483,0,0,0,.5-.464V7.965c0-.257-.3-.465-.667-.465H18.667c-.369,0-.667.208-.667.465V20.036A.483.483,0,0,0,18.5,20.5Z"/><path fill="#ffffff" d="M23,22H1a1,1,0,0,0,0,2H23a1,1,0,0,0,0-2Z"/><path fill="#ffffff" d="M19.053,3.941A1.785,1.785,0,0,0,19.5,4a2,2,0,1,0-2-2,1.958,1.958,0,0,0,.028.318.247.247,0,0,1-.076.225L12.678,7a.251.251,0,0,1-.231.06A1.832,1.832,0,0,0,12,7a1.985,1.985,0,0,0-.989.264.253.253,0,0,1-.236.007L6.111,4.938a.255.255,0,0,1-.136-.192,1.993,1.993,0,1,0-.986,1.991.253.253,0,0,1,.236-.007L9.889,9.062a.256.256,0,0,1,.136.193A2,2,0,0,0,14,9a1.946,1.946,0,0,0-.028-.317.249.249,0,0,1,.076-.226L18.822,4A.251.251,0,0,1,19.053,3.941Z"/></svg>