<?xml version="1.0" encoding="UTF-8"?>
<svg width="24px" height="24px" viewBox="0 0 24 24" version="1.1" xmlns="http://www.w3.org/2000/svg">
    <!-- Generator: Sketch 49.3 (51167) - http://www.bohemiancoding.com/sketch -->
    <title>ic_home</title>
    <desc>Created with Sketch.</desc>
    <defs></defs>
    <g id="Location" stroke="none" stroke-width="1" fill="none" fill-rule="evenodd">
        <g id="Events-Main-Side-Bar" transform="translate(-28.000000, -113.000000)" fill="#1B84FA">
            <g id="hide-right-menu-">
                <path d="M51.5876564,121.191301 C52.0346474,121.516303 52.1336454,122.141307 51.8086519,122.58831 C51.6126559,122.857312 51.3086621,123.000313 50.9986683,123.000313 C50.7946724,123.000313 50.5896766,122.938312 50.4116802,122.808311 L39.9998907,115.236264 L29.5881013,122.808311 C29.1401103,123.133313 28.5161229,123.034313 28.1921295,122.58831 C27.8661361,122.141307 27.9651341,121.516303 28.412125,121.191301 L39.4119026,113.191251 C39.7618955,112.93625 40.2378859,112.93625 40.5878788,113.191251 L51.5876564,121.191301 Z M48.9998087,124.999925 C49.5527976,124.999925 49.9997885,125.447928 49.9997885,125.999931 L49.9997885,135.999994 C49.9997885,136.552997 49.5527976,137 48.9998087,137 L42.9999301,137 C42.4469412,137 41.9999503,136.552997 41.9999503,135.999994 L41.9999503,128.99995 L38.0000312,128.99995 L38.0000312,135.999994 C38.0000312,136.552997 37.5520402,137 37.0000514,137 L31.0001727,137 C30.4481839,137 30.0001929,136.552997 30.0001929,135.999994 L30.0001929,125.999931 C30.0001929,125.447928 30.4481839,124.999925 31.0001727,124.999925 C31.5521615,124.999925 32.0001525,125.447928 32.0001525,125.999931 L32.0001525,134.999987 L36.0000716,134.999987 L36.0000716,127.999944 C36.0000716,127.44694 36.4480625,126.999937 37.0000514,126.999937 L42.9999301,126.999937 C43.5529189,126.999937 43.9999098,127.44694 43.9999098,127.999944 L43.9999098,134.999987 L47.999829,134.999987 L47.999829,125.999931 C47.999829,125.447928 48.4468199,124.999925 48.9998087,124.999925 Z" id="ic_home"></path>
            </g>
        </g>
    </g>
</svg>
