<?xml version="1.0" encoding="UTF-8"?>
<svg width="20px" height="24px" viewBox="0 0 20 24" version="1.1" xmlns="http://www.w3.org/2000/svg">
    <!-- Generator: Sketch 49.3 (51167) - http://www.bohemiancoding.com/sketch -->
    <title>Combined Shape</title>
    <desc>Created with Sketch.</desc>
    <defs></defs>
    <g id="Location" stroke="none" stroke-width="1" fill="none" fill-rule="evenodd">
        <g id="Events-Main-Side-Bar" transform="translate(-30.000000, -177.000000)" fill="#ffffff">
            <g id="hide-right-menu-">
                <path d="M47.9169373,195 L32.0830627,195 C32.0690628,195 32.0580629,194.999 32.047063,194.997 L34.5660431,188.748 C34.6620423,188.51 34.7110419,188.256 34.7110419,188 C34.7110419,181.832 37.3850207,181 40,181 C42.6149793,181 45.2889581,181.832 45.2889581,188 C45.2889581,188.256 45.3379577,188.51 45.4339569,188.748 L47.951937,194.997 C47.9419371,194.999 47.9309372,195 47.9169373,195 M38.2848594,179.145422 L38.7720759,177.683772 C38.90819,177.27543 39.2903288,177 39.7207592,177 L40.2792408,177 C40.7096712,177 41.09181,177.27543 41.2279241,177.683772 L41.7151406,179.145422 C44.911974,179.701512 47.2889422,182.029383 47.2889422,188 L49.965921,194.642 C50.1979192,195.87 49.215927,197 47.9169373,197 L32.0830627,197 C30.784073,197 29.8020808,195.87 30.034079,194.642 L32.7110578,188 C32.7110578,182.029383 35.088026,179.701512 38.2848594,179.145422 Z M36.535077,199 L43.4647645,199 C42.7731512,200.195603 41.4804737,201 39.9999208,201 C38.5193678,201 37.2266904,200.195603 36.535077,199 Z" id="Combined-Shape"></path>
            </g>
        </g>
    </g>
</svg>
