<?xml version="1.0" encoding="UTF-8"?>
<svg width="24px" height="24px" viewBox="0 0 24 24" version="1.1" xmlns="http://www.w3.org/2000/svg">
    <!-- Generator: Sketch 50.2 (55047) - http://www.bohemiancoding.com/sketch -->
    <title>Combined Shape</title>
    <desc>Created with Sketch.</desc>
    <defs></defs>
    <g id="Desktop" stroke="none" stroke-width="1" fill="none" fill-rule="evenodd">
        <g transform="translate(-868.000000, -972.000000)" fill="#ffffff" id="Menu">
            <g transform="translate(0.000000, 898.000000)">
                <path d="M870,93 L874.267564,93 C874.613374,92.4021986 875.259718,92 876,92 C876.740282,92 877.386626,92.4021986 877.732436,93 L891,93 C891.552285,93 892,93.4477153 892,94 C892,94.5522847 891.552285,95 891,95 L877.732436,95 C877.386626,95.5978014 876.740282,96 876,96 C875.259718,96 874.613374,95.5978014 874.267564,95 L870,95 L870,97 C870,97.5522847 869.552285,98 869,98 C868.447715,98 868,97.5522847 868,97 L868,75 C868,74.4477153 868.447715,74 869,74 C869.552285,74 870,74.4477153 870,75 L870,77 L878.267564,77 C878.613374,76.4021986 879.259718,76 880,76 C880.740282,76 881.386626,76.4021986 881.732436,77 L891,77 C891.552285,77 892,77.4477153 892,78 C892,78.5522847 891.552285,79 891,79 L881.732436,79 C881.386626,79.5978014 880.740282,80 880,80 C879.259718,80 878.613374,79.5978014 878.267564,79 L870,79 L870,85 L884.267564,85 C884.613374,84.4021986 885.259718,84 886,84 C886.740282,84 887.386626,84.4021986 887.732436,85 L891,85 C891.552285,85 892,85.4477153 892,86 C892,86.5522847 891.552285,87 891,87 L887.732436,87 C887.386626,87.5978014 886.740282,88 886,88 C885.259718,88 884.613374,87.5978014 884.267564,87 L870,87 L870,93 Z" id="Combined-Shape"></path>
            </g>
        </g>
    </g>
</svg>
