<?xml version="1.0" encoding="UTF-8"?>
<svg width="30" height="30" version="1.1" viewBox="0 0 30 30" xmlns="http://www.w3.org/2000/svg">
    <!--Generated by IJSVG (https://github.com/iconjar/IJSVG)-->
    <g transform="scale(1.25)">
        <path fill="none" d="M0.001,0.001h24v24.001h-24Z"></path>
        <path fill="#009F9A" d="M18,9c0,-3.313 -2.686,-6 -6,-6c-3.314,0 -6,2.687 -6,6c0,4 6,11 6,11c0,0 6,-7 6,-11Zm-8.5,0c0,-1.38 1.12,-2.5 2.5,-2.5c1.38,0 2.5,1.12 2.5,2.5c0,1.38 -1.12,2.5 -2.5,2.5c-1.38,0 -2.5,-1.12 -2.5,-2.5Z"></path>
        <path fill="#009F9A" d="M8,21h8v2h-8Z"></path>
    </g>
</svg>
