<?xml version="1.0" encoding="UTF-8"?>
<svg width="20px" height="24px" viewBox="0 0 20 24" version="1.1" xmlns="http://www.w3.org/2000/svg">
    <!-- Generator: Sketch 46.2 (44496) - http://www.bohemiancoding.com/sketch -->
    <title>ic_notes</title>
    <desc>Created with Sketch.</desc>
    <defs>
        <linearGradient x1="131.426968%" y1="-34.1782798%" x2="0%" y2="100%" id="linearGradient-1">
            <stop stop-color="#FFFFFF" stop-opacity="0" offset="0%"></stop>
            <stop stop-color="#FFFFFF" offset="100%"></stop>
        </linearGradient>
    </defs>
    <g id="Page-1" stroke="none" stroke-width="1" fill="none" fill-rule="evenodd" opacity="0.900000036">
        <g id="Messages_Combined" transform="translate(-862.000000, -940.000000)" fill="url(#linearGradient-1)">
            <g id="Menu" transform="translate(785.000000, 653.000000)">
                <g id="ic_notes" transform="translate(63.000000, 275.000000)">
                    <path d="M18,12 L30,12 C32.209139,12 34,13.790861 34,16 L34,32 C34,34.209139 32.209139,36 30,36 L18,36 C15.790861,36 14,34.209139 14,32 L14,16 L14,16 C14,13.790861 15.790861,12 18,12 L18,12 Z M19,16 L19,16 C18.4477153,16 18,16.4477153 18,17 C18,17.5522847 18.4477153,18 19,18 L29,18 C29.5522847,18 30,17.5522847 30,17 C30,16.4477153 29.5522847,16 29,16 L29,16 L19,16 Z M19,20 C18.4477153,20 18,20.4477153 18,21 C18,21.5522847 18.4477153,22 19,22 L25,22 C25.5522847,22 26,21.5522847 26,21 C26,20.4477153 25.5522847,20 25,20 L19,20 Z M19,24 C18.4477153,24 18,24.4477153 18,25 C18,25.5522847 18.4477153,26 19,26 L27,26 C27.5522847,26 28,25.5522847 28,25 C28,24.4477153 27.5522847,24 27,24 L19,24 Z"></path>
                </g>
            </g>
        </g>
    </g>
</svg>
