<svg xmlns="http://www.w3.org/2000/svg" version="1.1" xmlns:xlink="http://www.w3.org/1999/xlink" xmlns:svgjs="http://svgjs.com/svgjs" viewBox="0 0 24 24" height="24" width="24"><title>Exported from Streamline App (https://app.streamlineicons.com)</title><g transform="matrix(1,0,0,1,0,0)"><path d="M21.5,2.5h-19C1.119,2.5,0,3.619,0,5v14c0,1.381,1.119,2.5,2.5,2.5h19c1.381,0,2.5-1.119,2.5-2.5V5 C24,3.619,22.881,2.5,21.5,2.5z M21,14.75h-4c-0.414,0-0.75-0.336-0.75-0.75s0.336-0.75,0.75-0.75h4c0.414,0,0.75,0.336,0.75,0.75 S21.414,14.75,21,14.75z M14.531,13.47c0.293,0.292,0.293,0.767,0.001,1.059c0,0-0.001,0.001-0.001,0.001 c-0.297,0.284-0.764,0.284-1.061,0l-1.293-1.293c-0.098-0.097-0.255-0.097-0.353,0l-1.293,1.293c-0.295,0.289-0.766,0.289-1.061,0 c-0.293-0.292-0.293-0.767-0.001-1.059c0,0,0.001-0.001,0.001-0.001l1.293-1.293c0.098-0.098,0.098-0.256,0-0.354c0,0,0,0,0,0 L9.47,10.53c-0.288-0.298-0.279-0.773,0.019-1.06c0.291-0.281,0.752-0.28,1.042,0l1.293,1.293c0.098,0.097,0.255,0.097,0.353,0 L13.47,9.47c0.298-0.288,0.773-0.28,1.061,0.018c0.281,0.291,0.281,0.751,0,1.042l-1.293,1.293c-0.098,0.098-0.098,0.256,0,0.354 c0,0,0,0,0,0L14.531,13.47z M7.531,13.47c0.293,0.292,0.293,0.767,0.001,1.059c0,0-0.001,0.001-0.001,0.001 c-0.295,0.288-0.765,0.288-1.06,0l-1.294-1.293c-0.098-0.097-0.256-0.097-0.354,0L3.53,14.53c-0.297,0.283-0.763,0.283-1.06,0 c-0.293-0.292-0.293-0.767-0.001-1.059c0,0,0.001-0.001,0.001-0.001l1.293-1.293c0.097-0.098,0.097-0.256,0-0.354L2.47,10.53 c-0.282-0.303-0.266-0.778,0.037-1.06c0.288-0.268,0.735-0.268,1.023,0l1.293,1.293c0.098,0.097,0.256,0.097,0.354,0L6.47,9.47 c0.303-0.282,0.778-0.266,1.06,0.037c0.268,0.288,0.268,0.735,0,1.023l-1.293,1.293c-0.097,0.098-0.097,0.256,0,0.354L7.531,13.47z" stroke="none" fill="#ffffff" stroke-width="0" stroke-linecap="round" stroke-linejoin="round"></path></g></svg>