<?xml version="1.0" encoding="UTF-8"?>
<svg width="24px" height="8px" viewBox="0 0 24 8" version="1.1" xmlns="http://www.w3.org/2000/svg">
    <!-- Generator: Sketch 46.2 (44496) - http://www.bohemiancoding.com/sketch -->
    <title>******</title>
    <desc>Created with Sketch.</desc>
    <defs>
        <linearGradient x1="131.426968%" y1="-34.1782798%" x2="0%" y2="100%" id="linearGradient-1">
            <stop stop-color="#FFFFFF" stop-opacity="0" offset="0%"></stop>
            <stop stop-color="#FFFFFF" offset="100%"></stop>
        </linearGradient>
    </defs>
    <g id="Admin-Panel" stroke="none" stroke-width="1" fill="none" fill-rule="evenodd">
        <g id="Settings" transform="translate(-210.000000, -361.000000)" fill="url(#linearGradient-1)">
            <g id="Allert" transform="translate(180.000000, 175.000000)">
                <g id="List">
                    <path d="M32.9311065,186 L34.2087683,186 L34.1837161,188.807947 L36.4885177,187.377483 L37.1148225,188.622517 L34.7849687,190 L37.1148225,191.377483 L36.4885177,192.622517 L34.1837161,191.192053 L34.2087683,194 L32.9311065,194 L32.9561587,191.165563 L30.651357,192.596026 L30,191.377483 L32.3298539,190 L30,188.622517 L30.651357,187.350993 L32.9561587,188.807947 L32.9311065,186 Z M41.3736952,186 L42.651357,186 L42.6263048,188.807947 L44.9311065,187.377483 L45.5574113,188.622517 L43.2275574,190 L45.5574113,191.377483 L44.9311065,192.622517 L42.6263048,191.192053 L42.651357,194 L41.3736952,194 L41.3987474,191.165563 L39.0939457,192.596026 L38.4425887,191.377483 L40.7724426,190 L38.4425887,188.622517 L39.0939457,187.350993 L41.3987474,188.807947 L41.3736952,186 Z M49.8162839,186 L51.0939457,186 L51.0688935,188.807947 L53.3736952,187.377483 L54,188.622517 L51.6701461,190 L54,191.377483 L53.3736952,192.622517 L51.0688935,191.192053 L51.0939457,194 L49.8162839,194 L49.8413361,191.165563 L47.5365344,192.596026 L46.8851775,191.377483 L49.2150313,190 L46.8851775,188.622517 L47.5365344,187.350993 L49.8413361,188.807947 L49.8162839,186 Z" id="******"></path>
                </g>
            </g>
        </g>
    </g>
</svg>
