<?xml version="1.0" encoding="UTF-8"?>
<svg width="22px" height="24px" viewBox="0 0 22 24" version="1.1" xmlns="http://www.w3.org/2000/svg">
    <!-- Generator: sketchtool 50 (54983) - http://www.bohemiancoding.com/sketch -->
    <title>8E67405C-4807-4CF2-BB70-84398A12C633</title>
    <desc>Created with sketchtool.</desc>
    <defs></defs>
    <g id="Location" stroke="none" stroke-width="1" fill="none" fill-rule="evenodd">
        <g transform="translate(-554.000000, -467.000000)" fill="#ffffff" id="Navbar">
            <g transform="translate(447.000000, 431.000000)">
                <g id="Group-6" transform="translate(30.000000, 30.000000)">
                    <g id="Group" transform="translate(77.000000, 6.000000)">
                        <path d="M15.8978501,12.316 C14.5438501,13.368 12.8478501,14 10.9998501,14 C9.15785008,14 7.46685008,13.372 6.11485008,12.326 C3.73885008,13.849 1.14985008,16.082 0.135850081,18.734 C-0.268149919,19.788 0.258850081,20.967 1.31985008,21.492 C4.57385008,23.099 7.18785008,24 11.0008501,24 C14.8118501,24 17.4258501,23.099 20.6778501,21.493 C21.7418501,20.967 22.2678501,19.785 21.8638501,18.731 C20.8488501,16.078 18.3508501,13.839 15.8978501,12.316 M10.9998501,0 C7.68585008,0 4.99985008,2.686 4.99985008,6 C4.99985008,9.314 7.68585008,12 10.9998501,12 C14.3138501,12 16.9998501,9.314 16.9998501,6 C16.9998501,2.686 14.3138501,0 10.9998501,0 M15.8938501,14.717 C17.9168501,16.168 19.3858501,17.851 19.9958501,19.447 C20.0128501,19.49 19.9558501,19.619 19.7918501,19.7 C16.7718501,21.192 14.4758501,22 11.0008501,22 C7.52385008,22 5.22785008,21.191 2.20685008,19.699 C2.05085008,19.622 1.98685008,19.494 2.00385008,19.448 C2.59785008,17.895 4.04685008,16.248 6.13385008,14.732 C7.61585008,15.565 9.27285008,16 10.9998501,16 C12.7378501,16 14.4048501,15.56 15.8938501,14.717 M10.9998501,2 C13.2058501,2 14.9998501,3.795 14.9998501,6 C14.9998501,8.206 13.2058501,10 10.9998501,10 C8.79385008,10 6.99985008,8.206 6.99985008,6 C6.99985008,3.795 8.79385008,2 10.9998501,2" id="Fill-1"></path>
                    </g>
                </g>
            </g>
        </g>
    </g>
</svg>
