<?xml version="1.0" encoding="UTF-8"?>
<svg width="22px" height="24px" viewBox="0 0 22 24" version="1.1" xmlns="http://www.w3.org/2000/svg">
    <!-- Generator: Sketch 50 (54983) - http://www.bohemiancoding.com/sketch -->
    <title>ic_people</title>
    <desc>Created with Sketch.</desc>
    <defs></defs>
    <g id="Events" stroke="none" stroke-width="1" fill="none" fill-rule="evenodd">
        <g transform="translate(-221.000000, -264.000000)" fill="#ffffff" id="Group-4">
            <g transform="translate(150.000000, 42.000000)">
                <g id="events">
                    <g id="Content" transform="translate(40.000000, 100.000000)">
                        <g id="Row-Copy-2" transform="translate(0.000000, 104.000000)">
                            <path d="M41.9999501,30 C38.6859501,30 35.9999501,27.314 35.9999501,24 C35.9999501,20.686 38.6859501,18 41.9999501,18 C45.3139501,18 47.9999501,20.686 47.9999501,24 C47.9999501,27.314 45.3139501,30 41.9999501,30 Z M52.8638501,36.7308 C53.2678501,37.7848 52.7418501,38.9668 51.6778501,39.4928 C48.4258501,41.0988 45.8118501,41.9998 42.0008501,41.9998 C38.1878501,41.9998 35.5738501,41.0988 32.3198501,39.4918 C31.2588501,38.9668 30.7318501,37.7878 31.1358501,36.7338 C32.1498501,34.0818 34.7388501,31.8488 37.1148501,30.3258 C38.4668501,31.3718 40.1578501,31.9998 41.9998501,31.9998 C43.8478501,31.9998 45.5438501,31.3678 46.8978501,30.3158 C49.3508501,31.8388 51.8488501,34.0778 52.8638501,36.7308 Z" id="ic_people"></path>
                        </g>
                    </g>
                </g>
            </g>
        </g>
    </g>
</svg>
