<svg xmlns="http://www.w3.org/2000/svg" viewBox="0 0 24 24"><title>qr-code</title><path d="M1,8H7A1,1,0,0,0,8,7V1A1,1,0,0,0,7,0H1A1,1,0,0,0,0,1V7A1,1,0,0,0,1,8ZM2,2.25A.25.25,0,0,1,2.25,2h3.5A.25.25,0,0,1,6,2.25v3.5A.25.25,0,0,1,5.75,6H2.25A.25.25,0,0,1,2,5.75Z"/><path d="M7,16H1a1,1,0,0,0-1,1v6a1,1,0,0,0,1,1H7a1,1,0,0,0,1-1V17A1,1,0,0,0,7,16ZM6,21.75a.25.25,0,0,1-.25.25H2.25A.25.25,0,0,1,2,21.75v-3.5A.25.25,0,0,1,2.25,18h3.5a.25.25,0,0,1,.25.25Z"/><path d="M23,0H17a1,1,0,0,0-1,1V7a1,1,0,0,0,1,1h6a1,1,0,0,0,1-1V1A1,1,0,0,0,23,0ZM22,5.75a.25.25,0,0,1-.25.25h-3.5A.25.25,0,0,1,18,5.75V2.25A.25.25,0,0,1,18.25,2h3.5a.25.25,0,0,1,.25.25Z"/><path d="M10,4.25h1a.75.75,0,0,0,0-1.5.25.25,0,0,1-.25-.25V1a.75.75,0,0,0-1.5,0V3.5A.75.75,0,0,0,10,4.25Z"/><path d="M13,1.75a.25.25,0,0,1,.25.25V7.5a.75.75,0,0,0,1.5,0V1A.75.75,0,0,0,14,.25H13a.75.75,0,0,0,0,1.5Z"/><path d="M5.75,10.5a.75.75,0,0,0,.75.75H10a.75.75,0,0,0,.75-.75v-4a.75.75,0,0,0-1.5,0v3A.25.25,0,0,1,9,9.75H6.5A.75.75,0,0,0,5.75,10.5Z"/><path d="M3,9.75a.75.75,0,0,0-.75.75V13a.25.25,0,0,1-.25.25H1a.75.75,0,0,0,0,1.5H14a.75.75,0,0,0,.75-.75V11a.75.75,0,0,0-1.5,0v2a.25.25,0,0,1-.25.25H4A.25.25,0,0,1,3.75,13V10.5A.75.75,0,0,0,3,9.75Z"/><path d="M13.75,17a.75.75,0,0,0-.75-.75H10a.75.75,0,0,0-.75.75v4a.75.75,0,0,0,1.5,0V18a.25.25,0,0,1,.25-.25h2A.75.75,0,0,0,13.75,17Z"/><path d="M23,22.25H14.5a.25.25,0,0,1-.25-.25V20a.75.75,0,0,0-1.5,0v3a.75.75,0,0,0,.75.75H23a.75.75,0,0,0,0-1.5Z"/><path d="M16.5,20.25h3a.75.75,0,0,0,.75-.75v-3a.75.75,0,0,0-.75-.75h-3a.75.75,0,0,0-.75.75v3A.75.75,0,0,0,16.5,20.25Zm.75-2.75a.25.25,0,0,1,.25-.25h1a.25.25,0,0,1,.25.25v1a.25.25,0,0,1-.25.25h-1a.25.25,0,0,1-.25-.25Z"/><path d="M22.5,12.75a.75.75,0,0,0-.75.75V20a.75.75,0,0,0,1.5,0V13.5A.75.75,0,0,0,22.5,12.75Z"/><path d="M23.25,10a.75.75,0,0,0-.75-.75H17a.75.75,0,0,0-.75.75v3a.75.75,0,0,0,1.5,0V11a.25.25,0,0,1,.25-.25h4.5A.75.75,0,0,0,23.25,10Z"/></svg>