<?xml version="1.0" encoding="UTF-8"?>
<svg width="20px" height="12px" viewBox="0 0 20 12" version="1.1" xmlns="http://www.w3.org/2000/svg">
    <!-- Generator: Sketch 46.2 (44496) - http://www.bohemiancoding.com/sketch -->
    <title>ic_replay</title>
    <desc>Created with Sketch.</desc>
    <defs></defs>
    <g id="Page-1" stroke="none" stroke-width="1" fill="none" fill-rule="evenodd">
        <g id="Messages_Combined" transform="translate(-656.000000, -280.000000)" fill="#ACB3BF">
            <g id="Messages" transform="translate(250.000000, 237.000000)">
                <g id="White-Message" transform="translate(360.000000, 0.000000)">
                    <g id="Group-2" transform="translate(30.000000, 30.000000)">
                        <g id="Reply">
                            <path d="M26.3195446,19 L19.3446399,19 L21.6936276,21.3592455 C22.0673409,21.7345908 22.0673409,22.3431458 21.6936276,22.718491 C21.3199143,23.0938363 20.7140053,23.0938363 20.3402919,22.718491 L16.5450928,18.9067187 C16.4493274,18.8608743 16.3595794,18.7981318 16.280285,18.718491 C16.088573,18.5259418 15.9952077,18.2720209 16.0001892,18.0196947 C16.0000633,18.0131451 16,18.00658 16.0001892,17.9803053 C15.9952077,17.7279791 16.088573,17.4740582 16.280285,17.281509 C16.3595794,17.2018682 16.4493274,17.1391257 16.5450928,17.0932813 L20.3402919,13.281509 C20.7140053,12.9061637 21.3199143,12.9061637 21.6936276,13.281509 C22.0673409,13.6568542 22.0673409,14.2654092 21.6936276,14.6407545 L19.3446399,17 L26.965826,17 L26.9658704,17.0065706 L35.6288168,23.2577604 C35.9827695,23.5438695 36.1660194,24.1577255 35.8197854,24.5980725 C35.4735515,25.0384194 34.7706729,25.1087802 34.3749927,24.8523977 L26.3195446,19 Z" id="ic_replay"></path>
                        </g>
                    </g>
                </g>
            </g>
        </g>
    </g>
</svg>
