<?xml version="1.0" encoding="UTF-8"?>
<svg width="24px" height="24px" viewBox="0 0 24 24" version="1.1" xmlns="http://www.w3.org/2000/svg">
    <!-- Generator: sketchtool 49.1 (51147) - http://www.bohemiancoding.com/sketch -->
    <title>8B88C83A-F7EA-4326-B7A9-2A636CBB59A3</title>
    <desc>Created with sketchtool.</desc>
    <defs></defs>
    <g id="Protect" stroke="none" stroke-width="1" fill="none" fill-rule="evenodd">
        <g id="Protect-overview" transform="translate(-446.000000, -349.000000)" fill="#5CD65B">
            <g id="Group" transform="translate(180.000000, 339.000000)">
                <g id="Groups" transform="translate(160.000000, 0.000000)">
                    <path d="M116.322039,23.1603785 L114.250372,21.2437251 C113.886351,20.9045962 113.296156,20.9045962 112.932135,21.2437251 L112.273016,21.8577723 C111.908995,22.1969012 111.908995,22.7467378 112.273016,23.0858667 L115.380087,25.9604492 C115.440594,26.0168192 115.507351,26.0638193 115.578279,26.1014496 L115.733067,26.2456533 C116.097088,26.5847822 116.687283,26.5847822 117.051304,26.2456533 L123.726984,19.5964882 C124.091005,19.2573593 124.091005,18.7075227 123.726984,18.3683938 L123.067865,17.7543467 C122.703844,17.4152178 122.113649,17.4152178 121.749628,17.7543467 L116.322039,23.1603785 Z M118,34 C111.372583,34 106,28.627417 106,22 C106,15.372583 111.372583,10 118,10 C124.627417,10 130,15.372583 130,22 C130,28.627417 124.627417,34 118,34 Z" id="Resolved"></path>
                </g>
            </g>
        </g>
    </g>
</svg>
