<svg xmlns="http://www.w3.org/2000/svg"
     xmlns:xlink="http://www.w3.org/1999/xlink" xmlns:a="http://ns.adobe.com/AdobeSVGViewerExtensions/3.0/"
     version="1.2"
     baseProfile="tiny" x="0px" y="0px"
     viewBox="0 0 100 100"
     fill="#00A1FD"
     xml:space="preserve">
  <path d="M85,5H15C9.5,5,5,9.5,5,15v70c0,5.5,4.5,10,10,10h70c5.5,0,10-4.5,10-10V15C95,9.5,90.5,5,85,5z M87.5,85  c0,1.4-1.1,2.5-2.5,2.5H15c-1.4,0-2.5-1.1-2.5-2.5V15c0-1.4,1.1-2.5,2.5-2.5h70c1.4,0,2.5,1.1,2.5,2.5V85z"/>
  <polygon points="17.5,82.5 65,82.5 82.5,82.5 82.5,65 77.5,65 65,77.5 22.5,77.5 22.5,22.5 77.5,22.5 77.5,49 59,67.5 32.5,67.5   32.5,32.5 67.5,32.5 67.5,44 54,57.5 42.5,57.5 42.5,45 47.5,45 47.5,47.5 57.5,47.5 57.5,37.5 47.5,37.5 47.5,40 37.5,40   37.5,62.5 56,62.5 72.5,46 72.5,27.5 27.5,27.5 27.5,72.5 61,72.5 82.5,51 82.5,17.5 17.5,17.5 "/>
<!--  <text x="0" y="115" fill="#00A1FD" font-size="5px" font-weight="bold" font-family="'Helvetica Neue', Helvetica, Arial-Unicode, Arial, Sans-serif">Created by Arthur Shlain</text>
  <text x="0" y="120" fill="#00A1FD" font-size="5px" font-weight="bold" font-family="'Helvetica Neue', Helvetica, Arial-Unicode, Arial, Sans-serif">from the Noun Project</text>-->
</svg>
