<?xml version="1.0" encoding="UTF-8"?>
<svg width="16px" height="16px" viewBox="0 0 16 16" version="1.1" xmlns="http://www.w3.org/2000/svg">
    <!-- Generator: Sketch 46.2 (44496) - http://www.bohemiancoding.com/sketch -->
    <title>ic_search</title>
    <desc>Created with Sketch.</desc>
    <defs>
        <linearGradient x1="131.426968%" y1="-34.1782798%" x2="0%" y2="100%" id="linearGradient-1">
            <stop stop-color="#1B84FA" stop-opacity="0" offset="0%"></stop>
            <stop stop-color="#1B84FA" offset="100%"></stop>
        </linearGradient>
    </defs>
    <g id="Allerts" stroke="none" stroke-width="1" fill="none" fill-rule="evenodd">
        <g id="Allerts-list-filter" transform="translate(-484.000000, -537.000000)" fill="url(#linearGradient-1)">
            <g id="Group" transform="translate(250.000000, 233.000000)">
                <g id="Filter">
                    <g id="Group-2-Copy-5" transform="translate(30.000000, 289.000000)">
                        <path d="M216.580688,26.2262648 C216.601291,26.2436748 216.621335,26.2620895 216.640754,26.281509 L219.718491,29.3592455 C220.093836,29.7345908 220.093836,30.3431458 219.718491,30.718491 C219.343146,31.0938363 218.734591,31.0938363 218.359246,30.718491 L215.281509,27.6407545 C215.26209,27.6213351 215.243675,27.6012914 215.226265,27.580688 C214.051873,28.4714403 212.587662,29 211,29 C207.134007,29 204,25.8659932 204,22 C204,18.1340068 207.134007,15 211,15 C214.865993,15 218,18.1340068 218,22 C218,23.5876624 217.47144,25.0518731 216.580688,26.2262648 Z M211,27 C213.761424,27 216,24.7614237 216,22 C216,19.2385763 213.761424,17 211,17 C208.238576,17 206,19.2385763 206,22 C206,24.7614237 208.238576,27 211,27 Z" id="ic_search"></path>
                    </g>
                </g>
            </g>
        </g>
    </g>
</svg>
