<?xml version="1.0" encoding="UTF-8"?>
<svg width="20px" height="18px" viewBox="0 0 20 18" version="1.1" xmlns="http://www.w3.org/2000/svg">
    <!-- Generator: Sketch 47.1 (45422) - http://www.bohemiancoding.com/sketch -->
    <title>ic_identifier</title>
    <desc>Created with Sketch.</desc>
    <defs></defs>
    <g id="Locate" stroke="none" stroke-width="1" fill="none" fill-rule="evenodd">
        <g id="Locate-Actions" transform="translate(-270.000000, -164.000000)" fill="#ffffff">
            <g id="Navbar" transform="translate(100.000000, 125.000000)">
                <path d="M178.0001,39 L178.0001,41 L170.0001,41 L170.0001,57 L190.0001,57 L190.0001,41 L182.0001,41 L182.0001,39 L178.0001,39 Z M182.0001,45 L182.0001,43 L188.0001,43 L188.0001,55 L172.0001,55 L172.0001,43 L178.0001,43 L178.0001,45 L182.0001,45 Z M174,53 L182,53 L182,51 L174,51 L174,53 Z M174,49 L186,49 L186,47 L174,47 L174,49 Z" id="ic_identifier"></path>
            </g>
        </g>
    </g>
</svg>
