<?xml version="1.0" encoding="UTF-8"?>
<svg width="18px" height="24px" viewBox="0 0 18 24" version="1.1" xmlns="http://www.w3.org/2000/svg">
    <!-- Generator: Sketch 46.2 (44496) - http://www.bohemiancoding.com/sketch -->
    <title>ic_location</title>
    <desc>Created with Sketch.</desc>
    <defs></defs>
    <g id="Message" stroke="none" stroke-width="1" fill="none" fill-rule="evenodd">
        <g id="Messages_Combined" transform="translate(-1115.000000, -940.000000)" fill-rule="nonzero" fill="#ffffff">
            <g id="Menu" transform="translate(735.000000, 653.000000)">
                <g id="Empty-State" transform="translate(50.000000, 275.000000)">
                    <g id="ic_location" transform="translate(315.000000, 0.000000)">
                        <path d="M24,12 C28.9625783,12 32.9999029,15.899161 33,20.6918543 C33,26.6397366 24.9458817,35.3715754 24.6029704,35.7403883 C24.2814639,36.0862325 23.7191186,36.0868419 23.3970296,35.7403883 C23.0541183,35.3715754 15,26.6397366 15,20.6918543 C15,15.899161 19.0373732,12 24,12 Z M24,25 C26.209139,25 28,23.209139 28,21 C28,18.790861 26.209139,17 24,17 C21.790861,17 20,18.790861 20,21 C20,23.209139 21.790861,25 24,25 Z"></path>
                    </g>
                </g>
            </g>
        </g>
    </g>
</svg>
