<?xml version="1.0" encoding="UTF-8"?>
<svg width="22px" height="17px" viewBox="0 0 22 17" version="1.1" xmlns="http://www.w3.org/2000/svg">
    <!-- Generator: Sketch 46.2 (44496) - http://www.bohemiancoding.com/sketch -->
    <title>ic_sound</title>
    <desc>Created with Sketch.</desc>
    <defs></defs>
    <g id="Page-1" stroke="none" stroke-width="1" fill="none" fill-rule="evenodd">
        <g id="Messages_Combined" transform="translate(-1323.000000, -6.000000)" fill="#ffffff">
            <g id="Status-bar">
                <path d="M1326.76575,18.9599134 L1326.76575,18.9599134 L1325,18.9599134 C1323.89543,18.9599134 1323,18.0674609 1323,16.9665649 L1323,12.9798679 C1323,11.8789719 1323.89543,10.9865194 1325,10.9865194 L1326.67219,10.9865194 C1327.85525,9.65070217 1329.66606,8.37437076 1332.10463,7.15752517 C1332.38259,7.01882594 1332.68915,6.94661037 1333,6.94661037 C1334.10456,6.94661037 1334.99998,7.83905199 1334.99998,8.93993453 L1335,8.93993453 L1335,20.9023859 C1335,21.2122 1334.92754,21.5177494 1334.78838,21.7947819 C1334.29388,22.779187 1333.09232,23.1776658 1332.10463,22.6848169 C1329.72947,21.4996147 1327.94985,20.2579802 1326.76575,18.9599134 Z M1337,6.99982244 C1341.41828,6.99982244 1345,10.5696325 1345,14.9732164 C1345,19.3768003 1341.41828,22.9466104 1337,22.9466104 L1337,20.9532619 C1340.31371,20.9532619 1343,18.2759043 1343,14.9732164 C1343,11.6705285 1340.31371,8.99317093 1337,8.99317093 L1337,6.99982244 Z M1337,10.9865194 C1339.20914,10.9865194 1341,12.7714245 1341,14.9732164 C1341,17.1750084 1339.20914,18.9599134 1337,18.9599134 L1337,16.9665649 C1338.10457,16.9665649 1339,16.0741124 1339,14.9732164 C1339,13.8723204 1338.10457,12.9798679 1337,12.9798679 L1337,10.9865194 Z" id="ic_sound"></path>
            </g>
        </g>
    </g>
</svg>
