<?xml version="1.0" encoding="UTF-8"?>
<svg width="30" height="30" version="1.1" viewBox="0 0 30 30" xmlns="http://www.w3.org/2000/svg">
    <!--Generated by IJSVG (https://github.com/iconjar/IJSVG)-->
    <g transform="scale(1.25)">
        <path fill="none" d="M0,0h24v24h-24Z"></path>
        <path fill="#004799" d="M12.002,12.006c-2.206,0 -4,-1.794 -4,-4c0,-2.205 1.794,-4 4,-4c2.206,0 4,1.795 4,4c-3.55271e-15,2.206 -1.794,4 -4,4Zm0,-6c-1.103,0 -2,0.896 -2,2c0,1.103 0.897,2 2,2c1.103,0 2,-0.897 2,-2c0,-1.104 -0.897,-2 -2,-2Z"></path>
        <path fill="#004799" d="M20.002,20.006h-16v-1c0,-3.533 3.29,-6 8,-6c4.71,0 8,2.467 8,6v1Zm-13.841,-2h11.683c-0.598,-1.808 -2.833,-3 -5.841,-3c-3.008,0 -5.244,1.192 -5.842,3Z"></path>
    </g>
</svg>
