<?xml version="1.0" encoding="UTF-8"?>
<svg width="30" height="30" version="1.1" viewBox="0 0 30 30" xmlns="http://www.w3.org/2000/svg">
    <!--Generated by IJSVG (https://github.com/iconjar/IJSVG)-->
    <g transform="scale(1.25)">
        <path fill="none" d="M0,0h24v24h-24Z"></path>
        <path fill="#004799" d="M8,8h4v1.994h2v-1.994h3.737c0.165,0.639 0.262,1.305 0.263,1.994h2c-0.003,-5.512 -4.487,-9.994 -10,-9.994c-5.514,0 -10,4.486 -10,10c0,5.514 4.486,10 10,10v-2c-0.691,0 -1.359,-0.098 -2,-0.264v-3.736h2v-2h-2v-4Zm6,-4.918c1.209,0.702 2.216,1.709 2.918,2.918h-2.918v-2.918Zm-6,-0.818c0.641,-0.166 1.309,-0.264 2,-0.264c0.691,0 1.359,0.098 2,0.264v3.736h-4v-3.736Zm-2,14.654c-1.209,-0.702 -2.216,-1.709 -2.917,-2.918h2.917v2.918Zm0,-4.918h-3.736c-0.166,-0.641 -0.264,-1.309 -0.264,-2c0,-0.691 0.098,-1.359 0.264,-2h3.736v4Zm0,-6h-2.917c0.701,-1.209 1.708,-2.216 2.917,-2.918v2.918Z"></path>
        <path fill="#004799" d="M24.002,18.994v-2h-1.102c-0.13,-0.638 -0.385,-1.229 -0.733,-1.754l0.784,-0.784l-1.414,-1.414l-0.784,0.785c-0.524,-0.348 -1.115,-0.602 -1.752,-0.731v-1.102h-2v1.102c-0.637,0.129 -1.229,0.384 -1.753,0.731l-0.783,-0.783l-1.414,1.414l0.783,0.783c-0.348,0.524 -0.602,1.117 -0.731,1.753h-1.103v2h1.103c0.13,0.638 0.384,1.229 0.732,1.753l-0.784,0.785l1.415,1.413l0.783,-0.784c0.524,0.348 1.116,0.603 1.753,0.732v1.102h2v-1.102c0.638,-0.131 1.229,-0.385 1.753,-0.733l0.784,0.783l1.413,-1.415l-0.783,-0.782c0.347,-0.524 0.602,-1.115 0.731,-1.752h1.102Zm-6.002,1c-1.105,0 -2,-0.896 -2,-2c0,-1.104 0.895,-2 2,-2c1.104,0 2,0.896 2,2c0,1.104 -0.896,2 -2,2Z"></path>
    </g>
</svg>
