<?xml version="1.0" encoding="UTF-8"?>
<svg width="30" height="30" version="1.1" viewBox="0 0 30 30" xmlns="http://www.w3.org/2000/svg">
    <!--Generated by IJSVG (https://github.com/iconjar/IJSVG)-->
    <g transform="scale(1.25)">
        <path fill="none" d="M0,0h24v24h-24Z"></path>
        <path fill="#ffffff" d="M19.726,14h-2.076c-0.826,2.328 -3.044,4 -5.65,4c-3.309,0 -6,-2.69 -6,-6c0,-2.606 1.674,-4.823 4,-5.65v-2.076c-0.899,0.234 -1.745,0.601 -2.493,1.111l-1.518,-1.517l-2.121,2.121l1.518,1.518c-0.511,0.749 -0.89,1.591 -1.122,2.493h-2.264v4h2.264c0.232,0.903 0.611,1.744 1.122,2.493l-1.518,1.518l2.121,2.122l1.518,-1.518c0.749,0.51 1.592,0.888 2.493,1.122v2.263h4v-2.263c0.901,-0.233 1.744,-0.612 2.493,-1.122l1.518,1.518l2.121,-2.122l-1.518,-1.518c0.51,-0.748 0.878,-1.594 1.112,-2.493Z"></path>
        <path fill="#ffffff" d="M22,7.909v-1.819h-1.492c-0.081,-0.312 -0.203,-0.604 -0.358,-0.876l0.941,-0.942l-1.363,-1.363l-0.943,0.941c-0.272,-0.156 -0.564,-0.277 -0.877,-0.358v-1.492h-1.817v1.492c-0.312,0.081 -0.604,0.202 -0.876,0.358l-0.942,-0.941l-1.364,1.363l0.942,0.942c-0.155,0.272 -0.277,0.564 -0.359,0.876h-1.492v1.818h1.491c0.082,0.312 0.204,0.604 0.359,0.877l-0.942,0.942l1.364,1.363l0.942,-0.94c0.272,0.155 0.564,0.277 0.876,0.358v1.492h1.817v-1.491c0.313,-0.082 0.604,-0.203 0.877,-0.358l0.942,0.94l1.363,-1.363l-0.941,-0.942c0.155,-0.273 0.277,-0.565 0.358,-0.877h1.494Zm-5,1.091c-1.105,0 -2,-0.896 -2,-2c0,-1.104 0.895,-2 2,-2c1.105,0 2,0.896 2,2c0,1.104 -0.895,2 -2,2Z"></path>
    </g>
</svg>
