<?xml version="1.0" encoding="UTF-8"?>
<svg width="30" height="30" version="1.1" viewBox="0 0 30 30" xmlns="http://www.w3.org/2000/svg">
    <!--Generated by IJSVG (https://github.com/iconjar/IJSVG)-->
    <g transform="scale(1.25)">
        <path fill="none" d="M0,0h24v24h-24Z"></path>
        <path fill="#ff4b61" d="M15,5.589v2.223c1.791,1.04 3,2.974 3,5.188c0,3.309 -2.691,6 -6,6c-3.309,0 -6,-2.691 -6,-6c0,-2.215 1.209,-4.148 3,-5.188v-2.223c-2.928,1.19 -5,4.061 -5,7.411c0,4.411 3.589,8 8,8c4.411,0 8,-3.589 8,-8c0,-3.35 -2.072,-6.221 -5,-7.411Z"></path>
        <path fill="#ff4b61" d="M11,3h2v8h-2Z"></path>
    </g>
</svg>
