<?xml version="1.0" encoding="UTF-8"?>
<svg width="32px" height="32px" viewBox="0 0 32 32" version="1.1" xmlns="http://www.w3.org/2000/svg">
    <!-- Generator: Sketch 47.1 (45422) - http://www.bohemiancoding.com/sketch -->
    <title>success</title>
    <desc>Created with Sketch.</desc>
    <defs></defs>
    <g id="Home" stroke="none" stroke-width="1" fill="none" fill-rule="evenodd">
        <g id="Notifications" transform="translate(-60.000000, -248.000000)" fill="#5CD65B">
            <g id="Group" transform="translate(30.000000, 218.000000)">
                <g id="Card" transform="translate(30.000000, 30.000000)">
                    <path d="M13.7627184,17.5471714 L11.0004958,14.9916335 C10.5151342,14.5394617 9.72820763,14.5394617 9.24284605,14.9916335 L8.36402118,15.8103631 C7.87865961,16.2625349 7.87865961,16.9956504 8.36402118,17.4478222 L12.5067821,21.280599 C12.5874588,21.3557589 12.6764674,21.4184257 12.7710382,21.4685995 L12.9774226,21.6608711 C13.4627842,22.113043 14.2497108,22.113043 14.7350724,21.6608711 L23.6359788,12.7953176 C24.1213404,12.3431458 24.1213404,11.6100303 23.6359788,11.1578585 L22.7571539,10.3391289 C22.2717924,9.88695704 21.4848658,9.88695704 20.9995042,10.3391289 L13.7627184,17.5471714 Z M16,32 C7.163444,32 0,24.836556 0,16 C0,7.163444 7.163444,0 16,0 C24.836556,0 32,7.163444 32,16 C32,24.836556 24.836556,32 16,32 Z" id="success"></path>
                </g>
            </g>
        </g>
    </g>
</svg>
