<?xml version="1.0" encoding="UTF-8"?>
<svg version="1.1" viewBox="0 0 24 24" xmlns="http://www.w3.org/2000/svg" xmlns:xlink="http://www.w3.org/1999/xlink">
    <!--Generated by IJSVG (https://github.com/iconjar/IJSVG)-->
    <g fill="#00c3f2">
        <path d="M12.524,16.424l8.91677e-09,9.41344e-09c-0.175776,-0.185567 -0.273822,-0.431398 -0.274,-0.687v-12.737v0c0,-1.65685 -1.34315,-3 -3,-3c-1.65685,0 -3,1.34315 -3,3v12.736l-1.30155e-08,-4.00159e-05c8.83702e-05,0.255947 -0.0979662,0.502186 -0.273972,0.688011l-1.91732e-07,2.01704e-07c-0.788714,0.829735 -1.22775,1.93125 -1.22603,3.07603l-2.36279e-09,9.48977e-07c-0.00618764,2.48527 2.00351,4.505 4.48878,4.51119c2.48527,0.00618764 4.505,-2.00351 4.51119,-4.48878c0.00286724,-1.15163 -0.435901,-2.26053 -1.22597,-3.09841Zm-3.274,5.076l1.14714e-07,-9.44738e-11c-1.10457,0.000909694 -2.00074,-0.893783 -2.00165,-1.99835c-0.000589513,-0.715799 0.381406,-1.37734 1.00165,-1.73465l3.91621e-08,-2.26102e-08c0.154697,-0.0893141 0.249995,-0.254372 0.25,-0.433v-5.334l4.20043e-09,-7.07876e-06c0.000247743,-0.414213 0.336235,-0.749799 0.750448,-0.749551c0.413869,0.000247537 0.749312,0.335697 0.749551,0.749565v5.335l-1.61336e-10,-1.26265e-05c2.69721e-08,0.178628 0.0952947,0.343688 0.249989,0.433006l1.20942e-07,6.98338e-08c0.956557,0.552333 1.28425,1.77553 0.731912,2.73209c-0.357263,0.618725 -1.01745,0.999881 -1.73191,0.999912Z"></path>
        <path d="M19.25,12v0c0,0.552285 -0.447715,1 -1,1h-3.5l-4.37114e-08,-1.77636e-15c-0.552285,-2.41411e-08 -1,-0.447715 -1,-1c2.41411e-08,-0.552285 0.447715,-1 1,-1h3.5l3.17865e-08,1.77636e-15c0.552285,4.16963e-08 1,0.447715 1,1Z"></path>
        <path d="M15.75,4h-1l-4.37114e-08,-8.88178e-16c-0.552285,-2.41411e-08 -1,-0.447715 -1,-1c2.41411e-08,-0.552285 0.447715,-1 1,-1h1l-4.37114e-08,8.88178e-16c0.552285,-2.41411e-08 1,0.447715 1,1c2.41411e-08,0.552285 -0.447715,1 -1,1Z"></path>
        <path d="M15.75,8.5h-1l-4.37114e-08,-1.77636e-15c-0.552285,-2.41411e-08 -1,-0.447715 -1,-1c2.41411e-08,-0.552285 0.447715,-1 1,-1h1l4.56956e-08,1.77636e-15c0.552285,4.16963e-08 1,0.447715 1,1c-4.16963e-08,0.552285 -0.447715,1 -1,1Z"></path>
    </g>
</svg>
