<?xml version="1.0" encoding="UTF-8"?>
<svg width="20px" height="20px" viewBox="0 0 20 20" version="1.1" xmlns="http://www.w3.org/2000/svg">
    <!-- Generator: Sketch 46.2 (44496) - http://www.bohemiancoding.com/sketch -->
    <title>ic_trash</title>
    <desc>Created with Sketch.</desc>
    <defs></defs>
    <g id="Page-1" stroke="none" stroke-width="1" fill="none" fill-rule="evenodd">
        <g id="Messages_Combined" transform="translate(-762.000000, -275.000000)">
            <g id="Messages" transform="translate(250.000000, 237.000000)">
                <g id="White-Message" transform="translate(360.000000, 0.000000)">
                    <g id="Group-2" transform="translate(30.000000, 30.000000)">
                        <g id="Delete" transform="translate(106.000000, 0.000000)">
                            <g id="ic_trash" transform="translate(16.000000, 8.000000)">
                                <path d="M10,8.82842712 L8.41421356,7.24264069 C8.09069265,6.91911977 7.5661616,6.91911977 7.24264069,7.24264069 C6.91911977,7.5661616 6.91911977,8.09069265 7.24264069,8.41421356 L8.82842712,10 L7.24264069,11.5857864 C6.91911977,11.9093074 6.91911977,12.4338384 7.24264069,12.7573593 C7.5661616,13.0808802 8.09069265,13.0808802 8.41421356,12.7573593 L10,11.1715729 L11.5857864,12.7573593 C11.9093074,13.0808802 12.4338384,13.0808802 12.7573593,12.7573593 C13.0808802,12.4338384 13.0808802,11.9093074 12.7573593,11.5857864 L11.1715729,10 L12.7573593,8.41421356 C13.0808802,8.09069265 13.0808802,7.5661616 12.7573593,7.24264069 C12.4338384,6.91911977 11.9093074,6.91911977 11.5857864,7.24264069 L10,8.82842712 Z" id="Combined-Shape" fill="#fff"></path>
                                <rect id="Rectangle-10" fill="#fff" x="0" y="0" width="20" height="2" rx="1"></rect>
                                <path d="M3.05124922,1 L3.80873986,16.1498129 C3.88857126,17.7464409 5.20637431,19 6.80499688,19 L13.1950031,19 C14.7936257,19 16.1114287,17.7464409 16.1912601,16.1498129 L16.9487508,1 L3.05124922,1 Z" id="Rectangle-9" stroke="#fff" stroke-width="2"></path>
                            </g>
                        </g>
                    </g>
                </g>
            </g>
        </g>
    </g>
</svg>
