<svg width="24" height="21.999999999999996" xmlns="http://www.w3.org/2000/svg">

 <g>
  <title>background</title>
  <rect fill="none" id="canvas_background" height="24" width="26" y="-1" x="-1"/>
 </g>
 <g>
  <title>Layer 1</title>
  <g stroke="null" id="svg_1">
   <path stroke="null" id="svg_2" fill="#00A1FD" d="m11.999205,0.141994c-6.005748,0 -10.874232,4.868484 -10.874232,10.874232s4.868484,10.874685 10.874232,10.874685s10.874232,-4.868937 10.874232,-10.874685s-4.868484,-10.874232 -10.874232,-10.874232zm0,19.993182c-5.004865,0 -9.06186,-4.057448 -9.06186,-9.062313s4.056995,-9.06186 9.06186,-9.06186s9.06186,4.056995 9.06186,9.06186s-4.056995,9.062313 -9.06186,9.062313z"/>
   <g stroke="null" id="svg_3">
    <path stroke="null" id="svg_4" fill="#00A1FD" d="m11.447338,14.608347c-0.780679,0 -1.170792,0.400987 -1.170792,1.202509c0,0.387395 0.10104,0.688701 0.302666,0.903467s0.491153,0.323055 0.868126,0.323055c0.377426,0 0.667406,-0.110555 0.871751,-0.330758s0.307197,-0.518791 0.307197,-0.895765c0,-0.38241 -0.10104,-0.678733 -0.302666,-0.888515s-0.493871,-0.313993 -0.876282,-0.313993z"/>
    <path stroke="null" id="svg_5" fill="#00A1FD" d="m14.418268,5.759441c-0.610769,-0.50973 -1.436305,-0.764821 -2.476606,-0.764821c-1.034411,0 -2.013092,0.214313 -2.938761,0.637049c-0.519245,0.233796 -0.286355,0.763915 -0.285449,0.766633l0.207517,0.434516c0,0 0.245123,0.415486 0.77343,0.211141c0.005437,-0.001812 0.007249,-0.000906 0.012234,-0.003172c0.228359,-0.095603 0.459436,-0.184409 0.694138,-0.262794c0.429985,-0.143177 0.897124,-0.215219 1.40187,-0.215219c0.557304,0 0.984571,0.119617 1.282253,0.358397s0.445844,0.581318 0.445844,1.027615c0,0.38241 -0.091978,0.711356 -0.275027,0.987743s-0.59038,0.663781 -1.221992,1.162637c-0.530572,0.414127 -0.902561,0.815114 -1.115062,1.202509c-0.212501,0.387848 -0.318524,0.874016 -0.318524,1.458053c-0.020389,0.425001 0.521057,0.50973 0.521057,0.50973l0.327133,0c0,0 0.62255,0.003625 0.717699,-0.532837c0.001359,-0.007249 0.003625,-0.009515 0.004984,-0.016764c0.021748,-0.33982 0.09968,-0.621191 0.240592,-0.83641c0.167191,-0.255091 0.498402,-0.576334 0.991821,-0.964182c0.5786,-0.451281 0.98593,-0.817833 1.221992,-1.099204s0.413221,-0.57724 0.530119,-0.888062s0.175347,-0.665141 0.175347,-1.063409c-0.000906,-0.895765 -0.305838,-1.599418 -0.916607,-2.109148z"/>
   </g>
  </g>
 </g>
</svg>
