<?xml version="1.0" encoding="UTF-8"?>
<svg width="20px" height="20px" viewBox="0 0 20 20" version="1.1" xmlns="http://www.w3.org/2000/svg">
    <!-- Generator: Sketch 47.1 (45422) - http://www.bohemiancoding.com/sketch -->
    <title>Combined Shape</title>
    <desc>Created with Sketch.</desc>
    <defs></defs>
    <g id="Messages" stroke="none" stroke-width="1" fill="none" fill-rule="evenodd">
        <g id="Messages-New" transform="translate(-1097.000000, -568.000000)" fill="#ffffff">
            <g id="Messages" transform="translate(227.000000, 148.000000)">
                <g id="White-Message" transform="translate(360.000000, 0.000000)">
                    <g id="Group-3-Copy" transform="translate(300.000000, 396.000000)">
                        <path d="M219,33.3592455 L216.640754,35.718491 C216.265409,36.0938363 215.656854,36.0938363 215.281509,35.718491 C214.906164,35.3431458 214.906164,34.7345908 215.281509,34.3592455 L219.093281,30.5474732 C219.139126,30.4512896 219.201868,30.3611497 219.281509,30.281509 C219.474058,30.0889598 219.727979,29.9951868 219.980305,30.0001901 C219.986855,30.0000636 219.99342,30 220,30 C220.00658,30 220.013145,30.0000636 220.019695,30.0001901 C220.272021,29.9951868 220.525942,30.0889598 220.718491,30.281509 C220.798132,30.3611497 220.860874,30.4512896 220.906719,30.5474732 L224.718491,34.3592455 C225.093836,34.7345908 225.093836,35.3431458 224.718491,35.718491 C224.343146,36.0938363 223.734591,36.0938363 223.359246,35.718491 L221,33.3592455 L221,43 C221,43.5522847 220.552285,44 220,44 C219.447715,44 219,43.5522847 219,43 L219,33.3592455 Z M214,42 L214,44 L226,44 L226,42 L228,42 L228,26 L212,26 L212,42 L214,42 Z M210,44 L210,24 L230,24 L230,44 L210,44 Z" id="Combined-Shape"></path>
                    </g>
                </g>
            </g>
        </g>
    </g>
</svg>
