<?xml version="1.0" encoding="UTF-8"?>
<svg width="24px" height="24px" viewBox="0 0 24 24" version="1.1" xmlns="http://www.w3.org/2000/svg">
    <!-- Generator: Sketch 47.1 (45422) - http://www.bohemiancoding.com/sketch -->
    <title>ic_admin</title>
    <desc>Created with Sketch.</desc>
    <defs>
        <linearGradient x1="131.426968%" y1="-34.1782798%" x2="0%" y2="100%" id="linearGradient-1">
            <stop stop-color="#FFFFFF" stop-opacity="0" offset="0%"></stop>
            <stop stop-color="#FFFFFF" offset="100%"></stop>
        </linearGradient>
    </defs>
    <g id="Home" stroke="none" stroke-width="1" fill="none" fill-rule="evenodd">
        <g id="Dashboard" transform="translate(-42.000000, -663.000000)" fill="url(#linearGradient-1)">
            <g id="Menu" transform="translate(30.000000, 588.000000)">
                <g id="Empty-State">
                    <g id="ic_settings" transform="translate(0.000000, 63.000000)">
                        <path d="M30.0017,31.9109 C28.9467,31.9109 28.0887,31.0539 28.0887,29.9979 C28.0887,28.9429 28.9467,28.0859 30.0017,28.0859 C31.0567,28.0859 31.9147,28.9429 31.9147,29.9979 C31.9147,31.0539 31.0567,31.9109 30.0017,31.9109 M35.3867,28.7399 C35.7447,28.7999 36.0057,29.1079 36.0007,29.4719 L36.0007,30.5269 C36.0007,30.8909 35.7397,31.1989 35.3817,31.2589 L34.5387,31.3999 C34.4537,31.6799 34.3387,31.9539 34.2007,32.2169 L34.6967,32.9139 C34.9077,33.2099 34.8727,33.6129 34.6167,33.8689 L33.8697,34.6159 C33.7297,34.7559 33.5437,34.8339 33.3457,34.8339 C33.1907,34.8339 33.0397,34.7859 32.9147,34.6959 L32.2207,34.1999 C31.9597,34.3379 31.6867,34.4499 31.4027,34.5379 L31.2597,35.3799 C31.1997,35.7389 30.8917,35.9999 30.5277,35.9999 L29.4707,35.9999 C29.1067,35.9999 28.7987,35.7389 28.7387,35.3799 L28.5977,34.5379 C28.3247,34.4529 28.0587,34.3449 27.8057,34.2119 L27.1017,34.7139 C26.9757,34.8039 26.8277,34.8509 26.6727,34.8509 C26.4747,34.8509 26.2887,34.7739 26.1487,34.6329 L25.4017,33.8859 C25.1437,33.6309 25.1107,33.2269 25.3217,32.9309 L25.8157,32.2439 C25.6747,31.9839 25.5597,31.7099 25.4717,31.4299 L24.6197,31.2839 C24.2607,31.2239 24.0007,30.9159 24.0007,30.5519 L24.0007,29.4969 C24.0007,29.1329 24.2607,28.8249 24.6197,28.7649 L25.4517,28.6249 C25.5367,28.3409 25.6477,28.0679 25.7857,27.8049 L25.2837,27.1009 C25.0737,26.8049 25.1087,26.4009 25.3637,26.1449 L26.1137,25.3979 C26.2517,25.2579 26.4397,25.1799 26.6377,25.1799 C26.7927,25.1799 26.9437,25.2279 27.0687,25.3179 L27.7577,25.8149 C28.0187,25.6739 28.2917,25.5589 28.5727,25.4709 L28.7187,24.6189 C28.7787,24.2599 29.0867,23.9999 29.4497,23.9999 L30.5057,23.9999 C30.8687,23.9999 31.1777,24.2599 31.2377,24.6189 L31.3777,25.4509 C31.6707,25.5389 31.9547,25.6569 32.2257,25.7989 L32.9217,25.3029 C33.0477,25.2129 33.1957,25.1649 33.3507,25.1649 C33.5487,25.1649 33.7347,25.2429 33.8747,25.3829 L34.6217,26.1299 C34.8797,26.3859 34.9127,26.7899 34.7017,27.0849 L34.2057,27.7799 C34.3437,28.0409 34.4567,28.3139 34.5437,28.5969 L35.3867,28.7399 Z M26.1057,23.234 C25.5707,23.341 25.0717,23.605 24.6867,23.997 L23.9527,24.729 C23.2777,25.404 23.0187,26.345 23.2017,27.226 C22.8097,27.491 22.5017,27.859 22.2927,28.282 C21.5737,28.729 20.8047,29 20.0007,29 C16.1347,29 13.0007,22.995 13.0007,19.083 C13.0007,15.171 16.1347,12 20.0007,12 C23.8667,12 27.0007,15.171 27.0007,19.083 C27.0007,20.34 26.6737,21.813 26.1057,23.234 Z M23.232,32.8433 C23.072,33.6633 23.308,34.5193 23.886,35.1693 C22.701,35.6943 21.39,35.9993 20,35.9993 C16.607,35.9993 13.636,34.2553 12,31.6463 C13.469,30.4633 15.466,29.9993 17.665,29.9993 L22,29.9993 L22,30.5523 C22,31.5033 22.482,32.3503 23.232,32.8433 Z" id="ic_admin"></path>
                    </g>
                </g>
            </g>
        </g>
    </g>
</svg>
