<?xml version="1.0" encoding="utf-8" ?>
<svg xmlns="http://www.w3.org/2000/svg" xmlns:xlink="http://www.w3.org/1999/xlink" width="32" height="32">
	<defs>
		<clipPath id="clip_0">
			<rect x="-1061" y="-43" width="1440" height="1024" clip-rule="evenodd"/>
		</clipPath>
	</defs>
	<g clip-path="url(#clip_0)">
		<path fill="none" stroke="#00c3f2" stroke-width="1" stroke-miterlimit="4" transform="translate(1.08002 1.31372)" d="M14.7751 29.4141L29.482 29.4141C29.482 29.4141 29.585 26.7293 28.2033 24.2255C26.2471 20.6805 23.0878 21.0284 17.9723 19.1101L17.9723 15.2733C17.9723 15.2733 19.8906 13.9946 19.8906 11.4366C20.5298 11.4366 21.1694 8.87908 19.8906 8.23949C19.8906 7.85959 21.6043 4.65713 21.1694 2.48441C20.5298 -0.712716 11.5776 -0.712716 10.9384 1.84523C7.10171 1.84523 9.65925 7.72011 9.65925 8.23949C8.38048 8.87908 9.02007 11.4366 9.65925 11.4366C9.65925 13.9946 11.5776 15.2733 11.5776 15.2733L11.5776 19.1101C6.46212 21.0284 4.13187 20.7589 1.34663 24.2255C-0.444545 26.4553 0.0678654 29.4141 0.0678654 29.4141L14.7751 29.4141Z"/>
	</g>
	<defs>
		<clipPath id="clip_1">
			<path d="M16 2.15389C16.5099 2.15389 16.9231 1.74076 16.9231 1.23082L16 0.307739C15.49 0.307739 15.0769 0.720868 15.0769 1.23082C15.0769 1.74076 15.49 2.15389 16 2.15389Z" clip-rule="evenodd"/>
		</clipPath>
	</defs>
	<g clip-path="url(#clip_1)">
		<path fill="#00c3f2" stroke="none" transform="translate(14.7692 0)" d="M2.46154 1.23077C2.46154 0.550974 1.91056 0 1.23077 0C0.550974 0 0 0.550974 0 1.23077C0 1.91056 0.550974 2.46154 1.23077 2.46154C1.91056 2.46154 2.46154 1.91056 2.46154 1.23077"/>
	</g>
	<defs>
		<clipPath id="clip_2">
			<path d="M16 2.46154C16.6798 2.46154 17.2308 1.91056 17.2308 1.23077C17.2308 0.550974 16.6798 0 16 0C15.3202 0 14.7692 0.550974 14.7692 1.23077C14.7692 1.91056 15.3202 2.46154 16 2.46154Z" clip-rule="evenodd"/>
		</clipPath>
	</defs>
	<g clip-path="url(#clip_2)">
		<path fill="none" stroke="#00c3f2" stroke-width="3" stroke-miterlimit="4" transform="translate(14.7692 0)" d="M2.46154 1.23077C2.46154 0.550974 1.91056 0 1.23077 0C0.550974 0 0 0.550974 0 1.23077C0 1.91056 0.550974 2.46154 1.23077 2.46154C1.91056 2.46154 2.46154 1.91056 2.46154 1.23077Z"/>
	</g>
	<defs>
		<clipPath id="clip_3">
			<rect x="-1061" y="-43" width="1440" height="1024" clip-rule="evenodd"/>
		</clipPath>
	</defs>
	<g clip-path="url(#clip_3)">
		<path fill="none" stroke="#00c3f2" stroke-width="1" stroke-miterlimit="4" transform="translate(14.7692 0)" d="M2.46154 1.23077C2.46154 0.550974 1.91056 0 1.23077 0C0.550975 0 0 0.550974 0 1.23077C0 1.91056 0.550975 2.46154 1.23077 2.46154C1.91056 2.46154 2.46154 1.91056 2.46154 1.23077Z"/>
	</g>
	<defs>
		<clipPath id="clip_4">
			<path d="M1.23076 31.6923C1.7407 31.6923 2.15383 31.2792 2.15383 30.7692L1.23076 29.8461C0.720806 29.8461 0.307678 30.2593 0.307678 30.7692C0.307678 31.2792 0.720806 31.6923 1.23076 31.6923Z" clip-rule="evenodd"/>
		</clipPath>
	</defs>
	<g clip-path="url(#clip_4)">
		<path fill="#00c3f2" stroke="none" transform="translate(0 29.5385)" d="M2.46154 1.23077C2.46154 0.550974 1.91056 0 1.23077 0C0.550974 0 0 0.550974 0 1.23077C0 1.91056 0.550974 2.46154 1.23077 2.46154C1.91056 2.46154 2.46154 1.91056 2.46154 1.23077"/>
	</g>
	<defs>
		<clipPath id="clip_5">
			<path d="M1.23077 32C1.91056 32 2.46154 31.449 2.46154 30.7692C2.46154 30.0894 1.91056 29.5385 1.23077 29.5385C0.550974 29.5385 0 30.0894 0 30.7692C0 31.449 0.550974 32 1.23077 32Z" clip-rule="evenodd"/>
		</clipPath>
	</defs>
	<g clip-path="url(#clip_5)">
		<path fill="none" stroke="#00c3f2" stroke-width="3" stroke-miterlimit="4" transform="translate(0 29.5385)" d="M2.46154 1.23077C2.46154 0.550974 1.91056 0 1.23077 0C0.550974 0 0 0.550974 0 1.23077C0 1.91056 0.550974 2.46154 1.23077 2.46154C1.91056 2.46154 2.46154 1.91056 2.46154 1.23077Z"/>
	</g>
	<defs>
		<clipPath id="clip_6">
			<rect x="-1061" y="-43" width="1440" height="1024" clip-rule="evenodd"/>
		</clipPath>
	</defs>
	<g clip-path="url(#clip_6)">
		<path fill="none" stroke="#00c3f2" stroke-width="1" stroke-miterlimit="4" transform="translate(0 29.5385)" d="M2.46154 1.23077C2.46154 0.550974 1.91056 0 1.23077 0C0.550974 0 0 0.550974 0 1.23077C0 1.91056 0.550974 2.46154 1.23077 2.46154C1.91056 2.46154 2.46154 1.91056 2.46154 1.23077Z"/>
	</g>
	<defs>
		<clipPath id="clip_7">
			<path d="M30.7692 31.6923C31.2792 31.6923 31.6923 31.2792 31.6923 30.7692L30.7692 29.8461C30.2593 29.8461 29.8461 30.2593 29.8461 30.7692C29.8461 31.2792 30.2593 31.6923 30.7692 31.6923Z" clip-rule="evenodd"/>
		</clipPath>
	</defs>
	<g clip-path="url(#clip_7)">
		<path fill="#00c3f2" stroke="none" transform="translate(29.5385 29.5385)" d="M2.46154 1.23077C2.46154 0.550974 1.91056 0 1.23077 0C0.550974 0 0 0.550974 0 1.23077C0 1.91056 0.550974 2.46154 1.23077 2.46154C1.91056 2.46154 2.46154 1.91056 2.46154 1.23077"/>
	</g>
	<defs>
		<clipPath id="clip_8">
			<path d="M30.7692 32C31.449 32 32 31.449 32 30.7692C32 30.0894 31.449 29.5385 30.7692 29.5385C30.0894 29.5385 29.5385 30.0894 29.5385 30.7692C29.5385 31.449 30.0894 32 30.7692 32Z" clip-rule="evenodd"/>
		</clipPath>
	</defs>
	<g clip-path="url(#clip_8)">
		<path fill="none" stroke="#00c3f2" stroke-width="3" stroke-miterlimit="4" transform="translate(29.5385 29.5385)" d="M2.46154 1.23077C2.46154 0.550974 1.91056 0 1.23077 0C0.550974 0 0 0.550974 0 1.23077C0 1.91056 0.550974 2.46154 1.23077 2.46154C1.91056 2.46154 2.46154 1.91056 2.46154 1.23077Z"/>
	</g>
	<defs>
		<clipPath id="clip_9">
			<rect x="-1061" y="-43" width="1440" height="1024" clip-rule="evenodd"/>
		</clipPath>
	</defs>
	<g clip-path="url(#clip_9)">
		<path fill="none" stroke="#00c3f2" stroke-width="1" stroke-miterlimit="4" transform="translate(29.5385 29.5385)" d="M2.46154 1.23077C2.46154 0.550974 1.91056 0 1.23077 0C0.550974 0 0 0.550974 0 1.23077C0 1.91056 0.550974 2.46154 1.23077 2.46154C1.91056 2.46154 2.46154 1.91056 2.46154 1.23077Z"/>
	</g>
	<defs>
		<clipPath id="clip_10">
			<path d="M18.8718 17.7436C19.3817 17.7436 19.7949 17.3304 19.7949 16.8205L18.8718 15.8974C18.3618 15.8974 17.9487 16.3105 17.9487 16.8205C17.9487 17.3304 18.3618 17.7436 18.8718 17.7436Z" clip-rule="evenodd"/>
		</clipPath>
	</defs>
	<g clip-path="url(#clip_10)">
		<path fill="#00c3f2" stroke="none" transform="translate(17.641 15.5897)" d="M2.46154 1.23077C2.46154 0.550974 1.91056 0 1.23077 0C0.550974 0 0 0.550974 0 1.23077C0 1.91056 0.550974 2.46154 1.23077 2.46154C1.91056 2.46154 2.46154 1.91056 2.46154 1.23077"/>
	</g>
	<defs>
		<clipPath id="clip_11">
			<path d="M18.8718 18.0513C19.5516 18.0513 20.1026 17.5003 20.1026 16.8205C20.1026 16.1407 19.5516 15.5897 18.8718 15.5897C18.192 15.5897 17.641 16.1407 17.641 16.8205C17.641 17.5003 18.192 18.0513 18.8718 18.0513Z" clip-rule="evenodd"/>
		</clipPath>
	</defs>
	<g clip-path="url(#clip_11)">
		<path fill="none" stroke="#00c3f2" stroke-width="3" stroke-miterlimit="4" transform="translate(17.641 15.5897)" d="M2.46154 1.23077C2.46154 0.550974 1.91056 0 1.23077 0C0.550974 0 0 0.550974 0 1.23077C0 1.91056 0.550974 2.46154 1.23077 2.46154C1.91056 2.46154 2.46154 1.91056 2.46154 1.23077Z"/>
	</g>
	<defs>
		<clipPath id="clip_12">
			<rect x="-1061" y="-43" width="1440" height="1024" clip-rule="evenodd"/>
		</clipPath>
	</defs>
	<g clip-path="url(#clip_12)">
		<path fill="none" stroke="#00c3f2" stroke-width="1" stroke-miterlimit="4" transform="translate(17.641 15.5897)" d="M2.46154 1.23077C2.46154 0.550975 1.91056 0 1.23077 0C0.550974 0 0 0.550975 0 1.23077C0 1.91056 0.550974 2.46154 1.23077 2.46154C1.91056 2.46154 2.46154 1.91056 2.46154 1.23077Z"/>
	</g>
	<defs>
		<clipPath id="clip_13">
			<path d="M12.7179 17.7436C13.2279 17.7436 13.641 17.3304 13.641 16.8205L12.7179 15.8974C12.208 15.8974 11.7949 16.3105 11.7949 16.8205C11.7949 17.3304 12.208 17.7436 12.7179 17.7436Z" clip-rule="evenodd"/>
		</clipPath>
	</defs>
	<g clip-path="url(#clip_13)">
		<path fill="#00c3f2" stroke="none" transform="translate(11.4872 15.5897)" d="M2.46154 1.23077C2.46154 0.550974 1.91056 0 1.23077 0C0.550974 0 0 0.550974 0 1.23077C0 1.91056 0.550974 2.46154 1.23077 2.46154C1.91056 2.46154 2.46154 1.91056 2.46154 1.23077"/>
	</g>
	<defs>
		<clipPath id="clip_14">
			<path d="M12.718 18.0513C13.3977 18.0513 13.9487 17.5003 13.9487 16.8205C13.9487 16.1407 13.3977 15.5897 12.718 15.5897C12.0382 15.5897 11.4872 16.1407 11.4872 16.8205C11.4872 17.5003 12.0382 18.0513 12.718 18.0513Z" clip-rule="evenodd"/>
		</clipPath>
	</defs>
	<g clip-path="url(#clip_14)">
		<path fill="none" stroke="#00c3f2" stroke-width="3" stroke-miterlimit="4" transform="translate(11.4872 15.5897)" d="M2.46154 1.23077C2.46154 0.550974 1.91056 0 1.23077 0C0.550974 0 0 0.550974 0 1.23077C0 1.91056 0.550974 2.46154 1.23077 2.46154C1.91056 2.46154 2.46154 1.91056 2.46154 1.23077Z"/>
	</g>
	<defs>
		<clipPath id="clip_15">
			<rect x="-1061" y="-43" width="1440" height="1024" clip-rule="evenodd"/>
		</clipPath>
	</defs>
	<g clip-path="url(#clip_15)">
		<path fill="none" stroke="#00c3f2" stroke-width="1" stroke-miterlimit="4" transform="translate(11.4872 15.5897)" d="M2.46154 1.23077C2.46154 0.550975 1.91056 0 1.23077 0C0.550974 0 0 0.550975 0 1.23077C0 1.91056 0.550974 2.46154 1.23077 2.46154C1.91056 2.46154 2.46154 1.91056 2.46154 1.23077Z"/>
	</g>

</svg>