<?xml version="1.0" encoding="UTF-8"?>
<svg width="24px" height="17px" viewBox="0 0 24 17" version="1.1" xmlns="http://www.w3.org/2000/svg">
    <!-- Generator: Sketch 50 (54983) - http://www.bohemiancoding.com/sketch -->
    <title>ic_vehicle</title>
    <desc>Created with Sketch.</desc>
    <defs></defs>
    <g id="Events" stroke="none" stroke-width="1" fill="none" fill-rule="evenodd">
        <g transform="translate(-220.000000, -198.000000)" fill="#1B84FA" fill-rule="nonzero" id="Group-4">
            <g transform="translate(150.000000, 42.000000)">
                <g id="events">
                    <g id="Content" transform="translate(40.000000, 100.000000)">
                        <g id="Row" transform="translate(0.000000, 34.000000)">
                            <path d="M53.8620955,27.2557399 C53.7447243,27.1125593 53.5695893,27.0289861 53.3858512,27.0289861 L51.0501034,27.0289861 C50.4736942,25.5086914 49.7227644,24.0191222 48.8692118,23.4568467 C45.9164971,21.5143844 38.0845829,21.5143844 35.1318682,23.4568467 C34.277701,24.0197367 33.5298439,25.5111495 32.9503621,27.0289861 L30.6146143,27.0289861 C30.4290326,27.0289861 30.2545121,27.1125593 30.13837,27.2557399 C30.0216133,27.3983059 29.9749106,27.5869601 30.0130102,27.7682402 L30.3589786,29.4446201 C30.4179714,29.7303667 30.66992,29.9343836 30.9605827,29.9343836 L31.6525196,29.9343836 C30.9845485,30.7049776 30.6607024,31.6752869 30.6564009,32.6462108 C30.6520993,33.8457319 31.1074503,34.9297254 31.9401097,35.6966323 C31.9493273,35.704621 31.9585449,35.7101515 31.9671481,35.7181401 L31.9671481,38.0637201 C31.9671481,38.5719189 32.380098,38.9854833 32.8889112,38.9854833 L35.043379,38.9854833 C35.5521922,38.9854833 35.9651421,38.5719189 35.9651421,38.0637201 L35.9651421,37.1210637 L48.0347089,37.1210637 L48.0347089,38.0637201 C48.0347089,38.5719189 48.4476587,38.9854833 48.956472,38.9854833 L51.1109398,38.9854833 C51.618524,38.9854833 52.0327029,38.5719189 52.0327029,38.0637201 L52.0327029,35.7642283 C52.9163665,34.9549203 53.338534,33.8414304 53.3440646,32.729784 C53.3477517,31.7256767 53.0091573,30.7197258 52.3018577,29.9331546 L53.0398828,29.9331546 C53.3317744,29.9331546 53.583723,29.7291377 53.6414869,29.4427766 L53.9880698,27.7670112 C54.0237113,27.5869601 53.9788522,27.3995349 53.8620955,27.2557399 Z M36.1439642,24.9961911 C38.4975328,23.4470145 45.5023182,23.4470145 47.8546578,24.9961911 C48.3118523,25.2960714 48.8999372,26.5084972 49.4388614,27.9931504 L34.5609896,27.9931504 C35.0986847,26.5091117 35.6867696,25.2973004 36.1439642,24.9961911 Z M33.3872778,32.8772661 C33.3872778,31.8756168 34.1996584,31.0644652 35.2006932,31.0644652 C36.202957,31.0644652 37.0141086,31.8756168 37.0141086,32.8772661 C37.0141086,33.8789154 36.202957,34.6906815 35.2006932,34.6906815 C34.1996584,34.6906815 33.3872778,33.8789154 33.3872778,32.8772661 Z M48.8231236,34.6906815 C47.8220888,34.6906815 47.0097082,33.8789154 47.0097082,32.8772661 C47.0097082,31.8756168 47.8220888,31.0644652 48.8231236,31.0644652 C49.8253874,31.0644652 50.636539,31.8756168 50.636539,32.8772661 C50.636539,33.8789154 49.8241584,34.6906815 48.8231236,34.6906815 Z" id="ic_vehicle"></path>
                        </g>
                    </g>
                </g>
            </g>
        </g>
    </g>
</svg>
