<?xml version="1.0" encoding="UTF-8"?>
<svg version="1.1" viewBox="0 0 24 24" xmlns="http://www.w3.org/2000/svg" xmlns:xlink="http://www.w3.org/1999/xlink">
    <!--Generated by IJSVG (https://github.com/iconjar/IJSVG)-->
    <path d="M0.002,0.001h24v24.001h-24Z" fill="none"></path>
    <path fill="#1B84FA" d="M19,7.001h2v3.999h-2Z"></path>
    <g fill="#1B84FA">
        <path d="M7.001,16h2v1.133l-5,0.715v-2.847h-2.001v7h2v-2.134l6.142,-0.877c0.493,-0.07 0.858,-0.492 0.858,-0.99v-2h2v-1.999h-6v1.999Z"></path>
        <path d="M16,9c0,1.104 -0.896,2.001 -2,2.001h-11v0.999c0,0.552 0.447,1 1,1h13c0.553,0 1,-0.448 1,-1v-5.225l-2,0.666v1.559Z"></path>
        <path d="M20,2.001h-14c-2.205,0 -4,1.794 -4,3.999v3c0,0.552 0.447,1 1,1h11c0.553,0 1,-0.448 1,-1v-2.279l5.316,-1.771c0.409,-0.138 0.684,-0.519 0.684,-0.95v-1c0,-0.552 -0.447,-0.999 -1,-0.999Z"></path>
    </g>
</svg>