<svg xmlns="http://www.w3.org/2000/svg" version="1.1" xmlns:xlink="http://www.w3.org/1999/xlink" xmlns:svgjs="http://svgjs.com/svgjs" viewBox="0 0 24 24" height="24" width="24"><title>Exported from Streamline App (https://app.streamlineicons.com)</title><g transform="matrix(1,0,0,1,0,0)"><path d="M14.677,6.058c0.047-0.047,0.073-0.111,0.073-0.177V3.752c0-0.552-0.448-1-1-1c-0.265,0-0.519,0.105-0.707,0.293 L7.116,8.972C7.069,9.019,7.005,9.045,6.939,9.045H4.75c-1.105,0-2,0.895-2,2v3.414c0,0.883,0.579,1.661,1.424,1.915 c0.088,0.027,0.184,0.002,0.249-0.063L14.677,6.058z M23.707,1.709c0.39-0.39,0.39-1.024,0-1.414c-0.393-0.385-1.021-0.385-1.414,0 l-22,22c-0.39,0.39-0.39,1.024,0,1.414c0.045,0.045,0.094,0.085,0.146,0.121c0.397,0.269,0.929,0.218,1.268-0.121l6.116-6.116 c0.098-0.097,0.256-0.097,0.354,0l4.865,4.866c0.39,0.391,1.023,0.392,1.414,0.002c0.188-0.188,0.294-0.443,0.294-0.709V10.77 c0-0.066,0.026-0.13,0.073-0.177L23.707,1.709z" stroke="none" fill="#ffffff" stroke-width="0" stroke-linecap="round" stroke-linejoin="round"></path></g></svg>