<?xml version="1.0" encoding="UTF-8"?>
<svg width="24px" height="24px" viewBox="0 0 24 24" version="1.1" xmlns="http://www.w3.org/2000/svg">
    <!-- Generator: Sketch 50.2 (55047) - http://www.bohemiancoding.com/sketch -->
    <title>ic_zoom</title>
    <desc>Created with Sketch.</desc>
    <defs></defs>
    <g id="Events" stroke="none" stroke-width="1" fill="none" fill-rule="evenodd">
        <g transform="translate(-495.000000, -370.000000)" fill="#FFFFFF" id="Group-4">
            <g transform="translate(150.000000, 67.000000)">
                <g id="events">
                    <g id="Content" transform="translate(30.000000, 116.000000)">
                        <g id="Row-Copy-2" transform="translate(0.000000, 104.000000)">
                            <path d="M327,93 L330,93 C330.552285,93 331,93.4477153 331,94 C331,94.5522847 330.552285,95 330,95 L327,95 L327,98 C327,98.5522847 326.552285,99 326,99 C325.447715,99 325,98.5522847 325,98 L325,95 L322,95 C321.447715,95 321,94.5522847 321,94 C321,93.4477153 321.447715,93 322,93 L325,93 L325,90 C325,89.4477153 325.447715,89 326,89 C326.552285,89 327,89.4477153 327,90 L327,93 Z M334.428231,101.068985 L338.718491,105.359246 C339.093836,105.734591 339.093836,106.343146 338.718491,106.718491 C338.343146,107.093836 337.734591,107.093836 337.359246,106.718491 L333.068985,102.428231 C331.157265,104.033329 328.691522,105 326,105 C319.924868,105 315,100.075132 315,94 C315,87.9248678 319.924868,83 326,83 C332.075132,83 337,87.9248678 337,94 C337,96.6915215 336.033329,99.1572648 334.428231,101.068985 Z M326,103 C330.970563,103 335,98.9705627 335,94 C335,89.0294373 330.970563,85 326,85 C321.029437,85 317,89.0294373 317,94 C317,98.9705627 321.029437,103 326,103 Z" id="ic_zoom"></path>
                        </g>
                    </g>
                </g>
            </g>
        </g>
    </g>
</svg>
