<?xml version="1.0" encoding="UTF-8"?>
<svg width="48px" height="48px" viewBox="0 0 48 48" version="1.1" xmlns="http://www.w3.org/2000/svg">
    <!-- Generator: Sketch 47.1 (45422) - http://www.bohemiancoding.com/sketch -->
    <title>gj</title>
    <desc>Created with Sketch.</desc>
    <defs>
        <linearGradient x1="131.426968%" y1="-34.1782798%" x2="0%" y2="100%" id="linearGradient-1">
            <stop stop-color="#FFFFFF" stop-opacity="0" offset="0%"></stop>
            <stop stop-color="#FFFFFF" offset="100%"></stop>
        </linearGradient>
    </defs>
    <g id="Intelico-Admin" stroke="none" stroke-width="1" fill="none" fill-rule="evenodd">
        <g transform="translate(-226.000000, -532.000000)" id="People" fill="url(#linearGradient-1)">
            <g transform="translate(180.000000, 505.000000)">
                <path d="M73.195025,37.906 L75.195025,37.906 L76.938025,37.906 C77.177025,38.132 77.450025,38.324 77.758025,38.463 C77.587025,38.931 77.544025,39.426 77.613025,39.906 L75.195025,39.906 L75.195025,45.862 L81.096025,45.862 L81.096025,43.428 C81.250025,43.454 81.405025,43.47 81.563025,43.47 C81.918025,43.47 82.264025,43.408 82.590025,43.289 C82.720025,43.565 82.893025,43.814 83.096025,44.035 L83.096025,45.862 L83.096025,47.862 L81.096025,47.862 L75.195025,47.862 L73.195025,47.862 L73.195025,45.862 L73.195025,39.906 L73.195025,37.906 Z M88.806625,44.1299 L92.820625,48.1459 C94.392625,49.7219 94.392625,52.2819 92.820625,53.8539 L85.724625,60.9539 C85.041625,61.6369 84.308625,61.9819 83.547625,61.9819 C82.367625,61.9819 81.095625,61.0579 81.095625,59.0339 L81.095625,56.1929 L75.194625,56.1929 L75.194625,62.0939 L78.035625,62.0939 C80.059625,62.0939 80.982625,63.3659 80.982625,64.5459 C80.982625,65.3089 80.637625,66.0409 79.956625,66.7229 L72.855625,73.8199 C72.093625,74.5819 71.080625,74.9999 70.000625,74.9999 C68.921625,74.9999 67.907625,74.5809 67.146625,73.8209 L60.046625,66.7249 C59.363625,66.0419 59.018625,65.3099 59.018625,64.5469 C59.018625,63.3659 59.941625,62.0949 61.965625,62.0949 L64.860625,62.0949 L64.860625,56.1939 L58.906625,56.1939 L58.906625,59.0349 C58.906625,61.0589 57.634625,61.9829 56.453625,61.9829 C55.691625,61.9829 54.959625,61.6379 54.276625,60.9549 L47.178625,53.8549 C45.607625,52.2829 45.606625,49.7219 47.178625,48.1469 L54.276625,41.0469 C54.958625,40.3659 55.690625,40.0189 56.453625,40.0189 C57.634625,40.0189 58.906625,40.9419 58.906625,42.9669 L58.906625,45.8619 L64.860625,45.8619 L64.860625,39.9059 L61.965625,39.9059 C59.941625,39.9059 59.018625,38.6349 59.018625,37.4539 C59.018625,36.6909 59.364625,35.9589 60.046625,35.2759 L67.146625,28.1799 C67.909625,27.4189 68.956625,27.0389 70.002625,27.0389 C71.048625,27.0389 72.094625,27.4189 72.855625,28.1799 L76.891625,32.2139 C76.587625,32.5159 76.339625,32.8769 76.186625,33.2899 C76.082625,33.5719 76.031625,33.8669 76.014625,34.1659 L71.441625,29.5949 C71.088625,29.2419 70.563625,29.0389 70.002625,29.0389 C69.440625,29.0389 68.913625,29.2419 68.558625,29.5969 L61.460625,36.6909 C61.259625,36.8919 61.018625,37.1889 61.018625,37.4539 C61.018625,37.7879 61.528625,37.9059 61.965625,37.9059 L64.860625,37.9059 L66.860625,37.9059 L66.860625,39.9059 L66.860625,45.8619 L66.860625,47.8619 L64.860625,47.8619 L58.906625,47.8619 L56.906625,47.8619 L56.906625,45.8619 L56.906625,42.9669 C56.906625,42.5079 56.787625,42.0189 56.453625,42.0189 C56.188625,42.0189 55.892625,42.2599 55.690625,42.4619 L48.593625,49.5609 C47.800625,50.3549 47.799625,51.6479 48.593625,52.4409 L55.690625,59.5409 C55.892625,59.7429 56.188625,59.9829 56.453625,59.9829 C56.787625,59.9829 56.906625,59.4719 56.906625,59.0349 L56.906625,56.1939 L56.906625,54.1939 L58.906625,54.1939 L64.860625,54.1939 L66.860625,54.1939 L66.860625,56.1939 L66.860625,62.0949 L66.860625,64.0949 L64.860625,64.0949 L61.965625,64.0949 C61.507625,64.0949 61.018625,64.2139 61.018625,64.5469 C61.018625,64.8129 61.258625,65.1089 61.460625,65.3109 L68.560625,72.4059 C68.943625,72.7889 69.455625,72.9999 70.000625,72.9999 C70.554625,72.9999 71.052625,72.7949 71.441625,72.4059 L78.542625,65.3089 C78.742625,65.1079 78.982625,64.8119 78.982625,64.5459 C78.982625,64.2129 78.472625,64.0939 78.035625,64.0939 L75.194625,64.0939 L73.194625,64.0939 L73.194625,62.0939 L73.194625,56.1929 L73.194625,54.1929 L75.194625,54.1929 L81.095625,54.1929 L83.095625,54.1929 L83.095625,56.1929 L83.095625,59.0339 C83.095625,59.4709 83.213625,59.9819 83.547625,59.9819 C83.812625,59.9819 84.108625,59.7419 84.310625,59.5399 L91.405625,52.4399 C92.199625,51.6469 92.198625,50.3539 91.404625,49.5589 L86.838625,44.9899 C87.602625,44.9559 88.293625,44.6389 88.806625,44.1299 Z M93.181125,33.321 C93.659125,33.401 94.007125,33.812 94.000125,34.297 L94.000125,35.704 C94.000125,36.189 93.653125,36.6 93.175125,36.68 L92.052125,36.867 C91.938125,37.242 91.784125,37.606 91.600125,37.957 L92.262125,38.886 C92.543125,39.28 92.496125,39.818 92.155125,40.159 L91.159125,41.155 C90.972125,41.343 90.725125,41.446 90.461125,41.446 C90.253125,41.446 90.053125,41.383 89.886125,41.262 L88.960125,40.601 C88.612125,40.784 88.248125,40.935 87.870125,41.052 L87.680125,42.175 C87.600125,42.653 87.189125,43 86.704125,43 L85.293125,43 C84.809125,43 84.398125,42.653 84.317125,42.175 L84.130125,41.052 C83.766125,40.938 83.412125,40.794 83.074125,40.617 L82.135125,41.286 C81.968125,41.406 81.771125,41.47 81.563125,41.47 C81.366125,41.47 81.189125,41.396 81.028125,41.289 C80.973125,41.252 80.913125,41.226 80.865125,41.179 L80.533125,40.847 L79.869125,40.183 C79.524125,39.842 79.481125,39.304 79.762125,38.909 L80.420125,37.994 C80.233125,37.646 80.079125,37.282 79.962125,36.907 L78.826125,36.713 C78.348125,36.633 78.000125,36.222 78.000125,35.737 L78.000125,34.33 C78.000125,34.209 78.022125,34.093 78.062125,33.985 C78.182125,33.661 78.467125,33.414 78.826125,33.354 L79.935125,33.167 C80.049125,32.789 80.196125,32.425 80.380125,32.074 L79.712125,31.135 C79.431125,30.741 79.478125,30.202 79.819125,29.862 L80.818125,28.866 C81.002125,28.678 81.252125,28.575 81.516125,28.575 C81.724125,28.575 81.924125,28.638 82.091125,28.759 L83.011125,29.42 C83.358125,29.233 83.722125,29.079 84.097125,28.962 L84.291125,27.826 C84.371125,27.348 84.782125,27 85.267125,27 L86.674125,27 C87.158125,27 87.570125,27.348 87.650125,27.826 L87.837125,28.936 C88.228125,29.053 88.606125,29.21 88.967125,29.4 L89.896125,28.739 C90.063125,28.618 90.260125,28.555 90.467125,28.555 C90.731125,28.555 90.979125,28.658 91.166125,28.845 L92.162125,29.841 C92.506125,30.182 92.550125,30.721 92.269125,31.115 L91.607125,32.041 C91.791125,32.388 91.941125,32.753 92.058125,33.13 L93.181125,33.321 Z M86.002125,37.549 C87.409125,37.549 88.552125,36.406 88.552125,34.999 C88.552125,33.592 87.409125,32.449 86.002125,32.449 C84.595125,32.449 83.452125,33.592 83.452125,34.999 C83.452125,36.406 84.595125,37.549 86.002125,37.549 Z" id="gj"></path>
            </g>
        </g>
    </g>
</svg>
