<?xml version="1.0" encoding="UTF-8"?>
<svg width="20px" height="24px" viewBox="0 0 20 24" version="1.1" xmlns="http://www.w3.org/2000/svg">
    <!-- Generator: Sketch 46.2 (44496) - http://www.bohemiancoding.com/sketch -->
    <title>ic_admin</title>
    <desc>Created with Sketch.</desc>
    <defs>
        <linearGradient x1="131.426968%" y1="-34.1782798%" x2="0%" y2="100%" id="linearGradient-1">
            <stop stop-color="#FFFFFF" stop-opacity="0" offset="0%"></stop>
            <stop stop-color="#FFFFFF" stop-opacity="0.552040728" offset="55.2040728%"></stop>
            <stop stop-color="#FFFFFF" offset="100%"></stop>
        </linearGradient>
    </defs>
    <g id="Message" stroke="none" stroke-width="1" fill="none" fill-rule="evenodd">
        <g id="Messages_Combined" transform="translate(-1376.000000, -663.000000)" fill-rule="nonzero" fill="url(#linearGradient-1)">
            <g id="Menu" transform="translate(623.000000, 534.000000)">
                <g id="Empty-State" transform="translate(739.000000, 117.000000)">
                    <g id="ic_profile">
                        <path d="M23.0076609,12 C27.9824158,12 32.0152076,15.7585277 32.0152076,20.3948914 L32.0152076,22.6009224 L33.8591073,25.7400798 C34.2738177,26.4460843 33.7230402,27.3076896 32.8594742,27.3040177 L32.0152076,27.3003991 L32.0152076,29.6753348 C32.0152076,31.240337 30.6539091,32.5090377 28.9746831,32.5090377 L27.2605125,32.5090377 C26.7966969,32.5090377 26.4206996,32.859459 26.4206996,33.2917251 L26.4206996,36 L15.7782358,33.7237783 L15.7782358,27.0374102 C14.6600079,25.6023592 14,23.8370554 14,21.9278581 L14,20.3948914 C14,15.7585277 18.0328489,12 23.0076609,12 Z M23,23 C21.8964613,23 21,22.1035387 21,21 C21,19.8964613 21.8964613,19 23,19 C24.1035387,19 25,19.8964613 25,21 C25,22.1035387 24.1035387,23 23,23 Z M29.2833974,19.5303948 L28.3007418,19.3636933 C28.1983819,19.033215 28.0667762,18.7144349 27.9059249,18.4102778 L28.4849898,17.6001671 C28.7306536,17.2550658 28.6926342,16.7842072 28.3914035,16.4858993 L27.5198816,15.6143723 C27.3561057,15.4505954 27.1396875,15.3599332 26.9086465,15.3599332 C26.7273231,15.3599332 26.5547735,15.4155003 26.408545,15.5207855 L25.5955145,16.0998538 C25.2796609,15.9331523 24.9491845,15.7956967 24.6070098,15.6933361 L24.4432339,14.7223731 C24.3730442,14.3041571 24.0133221,14 23.5892594,14 L22.3580154,14 C21.9339527,14 21.5742306,14.3041571 21.5040409,14.7223731 L21.3344159,15.7167328 C21.006864,15.8190934 20.6880859,15.9536244 20.3839306,16.1174013 L19.5796738,15.538333 C19.4334453,15.4330478 19.2579711,15.3774807 19.0766477,15.3774807 C18.8456067,15.3774807 18.6262639,15.4681429 18.4654126,15.6319198 L17.5909661,16.5034468 C17.29266,16.8017548 17.251716,17.2726133 17.4973799,17.6177146 L18.0822939,18.4395237 C17.9214426,18.7466054 17.7927615,19.0653854 17.6933261,19.3958638 L16.7223688,19.5596407 C16.3041553,19.6298308 16,19.989555 16,20.4136202 L16,21.6448715 C16,22.0689367 16.3041553,22.428661 16.7223688,22.4988511 L17.7167226,22.6684771 C17.8190826,22.9960309 17.9536128,23.3148109 18.1173888,23.618968 L17.5412484,24.420305 C17.2955846,24.7654063 17.333604,25.2362649 17.6348347,25.5345728 L18.5063566,26.4060999 C18.6701325,26.5698767 18.8865507,26.660539 19.1175917,26.660539 C19.2989151,26.660539 19.4714647,26.6049718 19.6176932,26.4996867 L20.4394974,25.9147692 C20.734879,26.0697723 21.0448834,26.1955296 21.3636616,26.2949655 L21.5274375,27.2776269 C21.5976272,27.6958429 21.9573493,28 22.381412,28 L23.6155805,28 C24.0396432,28 24.3993653,27.6958429 24.469555,27.2776269 L24.6362555,26.2949655 C24.9667319,26.192605 25.2855101,26.0609985 25.5896654,25.9001462 L26.3997713,26.4792145 C26.5459998,26.5844997 26.721474,26.6400668 26.9027973,26.6400668 C27.1338384,26.6400668 27.3502566,26.5494046 27.5140325,26.3856277 L28.3855544,25.5141007 C28.6838605,25.2157928 28.7248045,24.7449342 28.4791406,24.3998329 L27.9000757,23.5867976 C28.0609271,23.2797159 28.1954573,22.9609359 28.2948927,22.6333821 L29.2775482,22.4696052 C29.6957618,22.3994151 29.9999171,22.0396908 29.9999171,21.6156257 L29.9999171,20.3843743 C30.0057662,19.9603092 29.7016109,19.6005849 29.2833974,19.5303948 Z" id="ic_admin"></path>
                    </g>
                </g>
            </g>
        </g>
    </g>
</svg>
