<?xml version="1.0" encoding="UTF-8"?>
<svg width="56px" height="64px" viewBox="0 0 56 64" version="1.1" xmlns="http://www.w3.org/2000/svg">
    <!-- Generator: Sketch 46.2 (44496) - http://www.bohemiancoding.com/sketch -->
    <title>ic_people</title>
    <desc>Created with Sketch.</desc>
    <defs></defs>
    <g id="Admin-Panel" stroke="none" stroke-width="1" fill="none" fill-rule="evenodd">
        <g transform="translate(-382.000000, -524.000000)" id="People" fill="#888991">
            <g transform="translate(340.000000, 505.000000)">
                <path d="M98,71.3923293 L98,71.3923293 C92.2757897,78.3490341 81.8776854,83 70,83 C58.1223146,83 47.7242103,78.3490341 42,71.3923293 C47.141697,68.2374922 54.1295547,67 61.8277101,67 L78.1722899,67 C85.8704453,67 92.858303,68.2374922 98,71.3923293 Z M69.9537572,67 C58.9080622,67 49.9537572,50.045695 49.9537572,39 C49.9537572,27.954305 58.9080622,19 69.9537572,19 C80.9994522,19 89.9537572,27.954305 89.9537572,39 C89.9537572,50.045695 80.9994522,67 69.9537572,67 Z" id="ic_people"></path>
            </g>
        </g>
    </g>
</svg>
