<?xml version="1.0" encoding="UTF-8"?>
<svg width="30px" height="48px" viewBox="0 0 30 48" version="1.1" xmlns="http://www.w3.org/2000/svg">
    <!-- Generator: Sketch 47.1 (45422) - http://www.bohemiancoding.com/sketch -->
    <title>ic_organisations</title>
    <desc>Created with Sketch.</desc>
    <defs>
        <linearGradient x1="131.426968%" y1="-34.1782798%" x2="0%" y2="100%" id="linearGradient-1">
            <stop stop-color="#FFFFFF" stop-opacity="0" offset="0%"></stop>
            <stop stop-color="#FFFFFF" offset="100%"></stop>
        </linearGradient>
    </defs>
    <g id="Admin-Panel" stroke="none" stroke-width="1" fill="none" fill-rule="evenodd">
        <g id="Super-Admin-Panel" transform="translate(-395.000000, -372.000000)" fill="url(#linearGradient-1)">
            <g id="Group" transform="translate(340.000000, 345.000000)">
                <g id="Companies">
                    <path d="M83.636,36.5448 C84.45,36.8168 85,37.5798 85,38.4378 L85,73.0048 C85,74.1068 84.107,74.9998 83.005,74.9998 L56.995,74.9998 C55.893,74.9998 55,74.1068 55,73.0048 L55,28.9968 C55,27.8588 55.932,26.9998 56.992,26.9998 C57.201,26.9998 57.414,27.0328 57.626,27.1038 L83.636,36.5448 Z M57,73.0048 L83.005,72.9998 L83,38.4378 L57.001,29.0048 L57,73.0048 Z M59,47 L59,43 L65.008,43 L65.008,47 L59,47 Z M67.008,47 L67.008,43 L73.008,43 L73.008,47 L67.008,47 Z M75.008,47 L75.008,43 L81,43 L81,47 L75.008,47 Z M59,53 L59,49 L65.008,49 L65.008,53 L59,53 Z M67.008,53 L67.008,49 L73.008,49 L73.008,53 L67.008,53 Z M75.008,53 L75.008,49 L81,49 L81,53 L75.008,53 Z M59,59 L59,55 L65.008,55 L65.008,59 L59,59 Z M67.008,59 L67.008,55 L73.008,55 L73.008,59 L67.008,59 Z M75.008,59 L75.008,55 L81,55 L81,59 L75.008,59 Z M59,65 L59,61 L65.008,61 L65.008,65 L59,65 Z M67.008,65 L67.008,61 L73.008,61 L73.008,65 L67.008,65 Z M75.008,65 L75.008,61 L81,61 L81,65 L75.008,65 Z M59.008,71 L59.008,67 L65.016,67 L65.016,71 L59.008,71 Z M67.016,71 L67.016,67 L73.016,67 L73.016,71 L67.016,71 Z M75.016,71 L75.016,67 L81.008,67 L81.008,71 L75.016,71 Z" id="ic_organisations"></path>
                </g>
            </g>
        </g>
    </g>
</svg>
