<?xml version="1.0" encoding="UTF-8"?>
<svg width="36px" height="48px" viewBox="0 0 36 48" version="1.1" xmlns="http://www.w3.org/2000/svg">
    <!-- Generator: Sketch 47.1 (45422) - http://www.bohemiancoding.com/sketch -->
    <title>ic_log</title>
    <desc>Created with Sketch.</desc>
    <defs>
        <linearGradient x1="131.426968%" y1="-34.1782798%" x2="0%" y2="100%" id="linearGradient-1">
            <stop stop-color="#FFFFFF" stop-opacity="0" offset="0%"></stop>
            <stop stop-color="#FFFFFF" offset="100%"></stop>
        </linearGradient>
    </defs>
    <g id="Admin-Panel" stroke="none" stroke-width="1" fill="none" fill-rule="evenodd">
        <g transform="translate(-872.000000, -372.000000)" id="Outputs" fill="url(#linearGradient-1)">
            <g transform="translate(820.000000, 345.000000)">
                <path d="M69.1,55.246 L69.1,56.494 L65.26,56.494 L65.26,50.886 L66.724,50.886 L66.724,55.246 L69.1,55.246 Z M76.268,53.678 C76.268,54.227 76.136,54.724 75.872,55.166 C75.608,55.609 75.245,55.958 74.784,56.214 C74.323,56.47 73.807,56.598 73.236,56.598 C72.665,56.598 72.149,56.472 71.688,56.218 C71.226,55.965 70.864,55.616 70.6,55.17 C70.336,54.725 70.204,54.227 70.204,53.678 C70.204,53.134 70.336,52.643 70.6,52.206 C70.864,51.769 71.226,51.425 71.688,51.174 C72.149,50.923 72.665,50.798 73.236,50.798 C73.807,50.798 74.323,50.923 74.784,51.174 C75.245,51.425 75.608,51.769 75.872,52.206 C76.136,52.643 76.268,53.134 76.268,53.678 L76.268,53.678 Z M82,73 L54,73 L54,29 L76,29 L76,35 L82,35 L82,47.698 L61.996,47.698 C60.894,47.698 60,48.592 60,49.694 L60,57.703 C60,58.805 60.894,59.698 61.996,59.698 L82,59.698 L82,73 Z M79.052,54.538 C79.191,54.791 79.383,54.99 79.628,55.134 C79.873,55.278 80.145,55.35 80.444,55.35 C80.727,55.35 81.049,55.259 81.412,55.078 L81.412,53.63 L82.676,53.63 L82.676,55.862 C82.377,56.081 82.011,56.258 81.576,56.394 C81.142,56.53 80.729,56.598 80.34,56.598 C79.775,56.598 79.264,56.472 78.808,56.218 C78.352,55.965 77.994,55.617 77.732,55.174 C77.471,54.731 77.34,54.235 77.34,53.686 C77.34,53.142 77.475,52.65 77.744,52.21 C78.014,51.77 78.384,51.425 78.856,51.174 C79.328,50.923 79.855,50.798 80.436,50.798 C80.852,50.798 81.268,50.874 81.684,51.026 C82.1,51.178 82.452,51.382 82.74,51.638 L81.908,52.662 C81.705,52.47 81.472,52.318 81.208,52.206 C80.944,52.094 80.684,52.038 80.428,52.038 C80.129,52.038 79.86,52.11 79.62,52.254 C79.38,52.398 79.191,52.596 79.052,52.846 C78.913,53.097 78.844,53.377 78.844,53.686 C78.844,54.001 78.913,54.285 79.052,54.538 L79.052,54.538 Z M86.005,47.698 C87.107,47.698 88,48.592 88,49.694 L88,57.703 C88,58.805 87.107,59.698 86.005,59.698 L84,59.698 L84,75 L52,75 L52,27 L78.007,27 L84,32.991 L84,47.698 L86.005,47.698 Z M74.016,52.2538 C73.784,52.1098 73.529,52.0378 73.252,52.0378 C72.974,52.0378 72.717,52.1098 72.48,52.2538 C72.243,52.3978 72.055,52.5968 71.916,52.8498 C71.777,53.1038 71.708,53.3818 71.708,53.6858 C71.708,53.9958 71.779,54.2768 71.92,54.5298 C72.061,54.7838 72.249,54.9828 72.484,55.1298 C72.719,55.2768 72.974,55.3498 73.252,55.3498 C73.529,55.3498 73.784,55.2768 74.016,55.1298 C74.248,54.9828 74.431,54.7838 74.564,54.5298 C74.697,54.2768 74.764,53.9958 74.764,53.6858 C74.764,53.3818 74.697,53.1038 74.564,52.8498 C74.431,52.5968 74.248,52.3978 74.016,52.2538 Z" id="ic_log"></path>
            </g>
        </g>
    </g>
</svg>
