<?xml version="1.0" encoding="UTF-8"?>
<svg width="48px" height="48px" viewBox="0 0 48 48" version="1.1" xmlns="http://www.w3.org/2000/svg">
    <!-- Generator: Sketch 47.1 (45422) - http://www.bohemiancoding.com/sketch -->
    <title>ic_agents</title>
    <desc>Created with Sketch.</desc>
    <defs>
        <linearGradient x1="131.426968%" y1="-34.1782798%" x2="0%" y2="100%" id="linearGradient-1">
            <stop stop-color="#1B84FA" stop-opacity="0" offset="0%"></stop>
            <stop stop-color="#1B84FA" offset="100%"></stop>
        </linearGradient>
    </defs>
    <g id="Admin-Panel" stroke="none" stroke-width="1" fill="none" fill-rule="evenodd">
        <g transform="translate(-706.000000, -372.000000)" id="Access-Profiles" fill="url(#linearGradient-1)">
            <g transform="translate(660.000000, 345.000000)">
                <path d="M65,43 C66.105,43 67,42.105 67,41 L67,29 L73,29 L73,41 C73,42.105 73.895,43 75,43 L76.172,43 L70,50.489 L63.828,43 L65,43 Z M61.508,43.33 C61.189,43.087 61,42.7 61,42.288 C61,41.577 61.552,41 62.232,41 L65,41 L65,29 C65,27.895 65.895,27 67,27 L73,27 C74.105,27 75,27.895 75,29 L75,41 L77.767,41 C78.162,41 78.532,41.197 78.764,41.53 C79.165,42.106 79.043,42.911 78.492,43.33 L70.725,52.754 C70.509,52.918 70.254,53 70,53 C69.746,53 69.491,52.918 69.275,52.754 L61.508,43.33 Z M90,31.109 C92.209,31.109 94,32.9 94,35.109 L94,61.109 C94,63.318 92.209,65.109 90,65.109 L71,65.109 L71,72.891 L79,72.891 C79.552,72.891 80,73.339 80,73.891 C80,74.444 79.552,74.891 79,74.891 L61,74.891 C60.448,74.891 60,74.444 60,73.891 C60,73.339 60.448,72.891 61,72.891 L69,72.891 L69,65.109 L50,65.109 C47.791,65.109 46,63.318 46,61.109 L46,35.109 C46,32.9 47.791,31.109 50,31.109 L59,31.109 C59,32.214 58.105,33.109 57,33.109 L50,33.109 C48.895,33.109 48,34.004 48,35.109 L48,57.109 L92,57.109 L92,35.109 C92,34.004 91.105,33.109 90,33.109 L83,33.109 C81.895,33.109 81,32.214 81,31.109 L90,31.109 Z M92,61.109 L92,59.109 L48,59.109 L48,61.109 C48,62.212 48.897,63.109 50,63.109 L90,63.109 C91.103,63.109 92,62.212 92,61.109 Z" id="ic_agents"></path>
            </g>
        </g>
    </g>
</svg>
