<?xml version="1.0" encoding="UTF-8"?>
<svg width="48px" height="48px" viewBox="0 0 48 48" version="1.1" xmlns="http://www.w3.org/2000/svg">
    <!-- Generator: Sketch 47.1 (45422) - http://www.bohemiancoding.com/sketch -->
    <title>zoty</title>
    <desc>Created with Sketch.</desc>
    <defs>
        <linearGradient x1="131.426968%" y1="-34.1782798%" x2="0%" y2="100%" id="linearGradient-1">
            <stop stop-color="#FFFFFF" stop-opacity="0" offset="0%"></stop>
            <stop stop-color="#FFFFFF" offset="100%"></stop>
        </linearGradient>
    </defs>
    <g id="Intelico-Admin" stroke="none" stroke-width="1" fill="none" fill-rule="evenodd">
        <g transform="translate(-546.000000, -587.000000)" id="People-Copy-2" fill="url(#linearGradient-1)">
            <g transform="translate(500.000000, 560.000000)">
                <path d="M86.0019,32.449 C87.4089,32.449 88.5519,33.592 88.5519,34.999 C88.5519,36.406 87.4089,37.549 86.0019,37.549 C84.5949,37.549 83.4519,36.406 83.4519,34.999 C83.4519,33.592 84.5949,32.449 86.0019,32.449 M78.8259,36.713 C78.3479,36.633 77.9999,36.222 77.9999,35.737 L77.9999,34.33 C77.9999,34.209 78.0219,34.093 78.0619,33.985 C78.1819,33.661 78.4669,33.414 78.8259,33.354 L79.9349,33.167 C80.0489,32.789 80.1959,32.425 80.3799,32.074 L79.7119,31.135 C79.4309,30.741 79.4779,30.202 79.8189,29.862 L80.8179,28.866 C81.0019,28.678 81.2519,28.575 81.5159,28.575 C81.7239,28.575 81.9239,28.638 82.0909,28.759 L83.0109,29.42 C83.3579,29.233 83.7219,29.079 84.0969,28.962 L84.2909,27.826 C84.3709,27.348 84.7819,27 85.2669,27 L86.6739,27 C87.1579,27 87.5699,27.348 87.6499,27.826 L87.8369,28.936 C88.2279,29.053 88.6059,29.21 88.9669,29.4 L89.8959,28.739 C90.0629,28.618 90.2599,28.555 90.4669,28.555 C90.7309,28.555 90.9789,28.658 91.1659,28.845 L92.1619,29.841 C92.5059,30.182 92.5499,30.721 92.2689,31.115 L91.6069,32.041 C91.7909,32.388 91.9409,32.753 92.0579,33.13 L93.1809,33.321 C93.6589,33.401 94.0069,33.812 93.9999,34.297 L93.9999,35.704 C93.9999,36.189 93.6529,36.6 93.1749,36.68 L92.0519,36.867 C91.9379,37.242 91.7839,37.606 91.5999,37.957 L92.2619,38.886 C92.3919,39.069 92.4449,39.283 92.4369,39.494 C92.4379,39.481 92.4449,39.468 92.4449,39.455 C92.4449,39.468 92.4379,39.481 92.4369,39.494 C92.4339,39.577 92.4139,39.655 92.3909,39.735 C92.3799,39.773 92.3769,39.811 92.3609,39.848 C92.3129,39.96 92.2469,40.066 92.1559,40.157 C92.1559,40.158 92.1559,40.158 92.1549,40.159 L91.1589,41.155 C90.9719,41.343 90.7249,41.446 90.4609,41.446 C90.2529,41.446 90.0529,41.383 89.8859,41.262 L88.9599,40.601 C88.6119,40.784 88.2479,40.935 87.8699,41.052 L87.6799,42.175 C87.5999,42.653 87.1889,43 86.7039,43 L85.2929,43 C84.8089,43 84.3979,42.653 84.3169,42.175 L84.1299,41.052 C83.7659,40.938 83.4119,40.794 83.0739,40.617 L82.1349,41.286 C81.9679,41.406 81.7709,41.47 81.5629,41.47 C81.3659,41.47 81.1889,41.396 81.0279,41.289 C80.9729,41.252 80.9129,41.226 80.8649,41.179 L80.5329,40.847 L79.8689,40.183 C79.5239,39.842 79.4809,39.304 79.7619,38.909 L80.4199,37.994 C80.2329,37.646 80.0789,37.282 79.9619,36.907 L78.8259,36.713 Z M92,57 C93.105,57 94,57.895 94,59 C94,60.105 93.105,61 92,61 C91.291,61 90.671,60.628 90.316,60.071 L71.684,71.928 C71.882,72.239 72,72.605 72,73 C72,74.105 71.105,75 70,75 C68.895,75 68,74.105 68,73 C68,72.605 68.118,72.239 68.316,71.928 L49.684,60.072 C49.329,60.628 48.709,61 48,61 C46.895,61 46,60.105 46,59 C46,57.895 46.895,57 48,57 C49.105,57 50,57.895 50,59 L62.433,59 C62.901,59.703 63.366,60.373 63.817,61 L54.868,61 L70,70.629 L85.132,61 L76.182,61 C76.633,60.373 77.099,59.703 77.566,59 L90,59 C90,57.895 90.895,57 92,57 Z M70.759,64.6538 C70.354,65.1148 69.646,65.1158 69.241,64.6538 C68.809,64.1618 58.668,52.5198 58.668,44.5888 C58.668,38.1988 63.751,32.9998 70,32.9998 C72.205,32.9998 74.257,33.6568 76,34.7758 L76,35.7368 C76,36.9398 76.706,37.9898 77.758,38.4628 C77.363,39.5408 77.614,40.7668 78.463,41.6058 L79.119,42.2608 L79.451,42.5928 C79.667,42.8048 79.863,42.9228 79.951,42.9748 C80.375,43.2478 80.818,43.4018 81.276,43.4488 C81.312,43.8238 81.332,44.2038 81.332,44.5888 C81.332,52.5198 71.191,64.1618 70.759,64.6538 Z M65,44.3328 C65,47.0938 67.239,49.3328 70,49.3328 C72.761,49.3328 75,47.0938 75,44.3328 C75,41.5718 72.761,39.3328 70,39.3328 C67.239,39.3328 65,41.5718 65,44.3328 Z" id="zoty"></path>
            </g>
        </g>
    </g>
</svg>
