<?xml version="1.0" encoding="UTF-8"?>
<svg width="48px" height="36px" viewBox="0 0 48 36" version="1.1" xmlns="http://www.w3.org/2000/svg">
    <!-- Generator: Sketch 47.1 (45422) - http://www.bohemiancoding.com/sketch -->
    <title>ic_identifiers</title>
    <desc>Created with Sketch.</desc>
    <defs>
        <linearGradient x1="131.426968%" y1="-34.1782798%" x2="0%" y2="100%" id="linearGradient-1">
            <stop stop-color="#FFFFFF" stop-opacity="0" offset="0%"></stop>
            <stop stop-color="#FFFFFF" offset="100%"></stop>
        </linearGradient>
    </defs>
    <g id="Admin-Panel" stroke="none" stroke-width="1" fill="none" fill-rule="evenodd">
        <g transform="translate(-386.000000, -378.000000)" id="Lanes" fill="url(#linearGradient-1)">
            <g transform="translate(340.000000, 345.000000)">
                <path d="M91.999,67 L48,66.999 L48,39 L66,39 L66,41 C66,42.105 66.895,43 68,43 L72,43 C73.104,43 74,42.105 74,41 L74,39 L91.999,39 L92,39.001 L91.999,67 Z M91.999,37 C93.104,37 94,37.896 94,39.001 L94,66.999 C94,68.104 93.104,69 91.999,69 L48,69 C46.895,69 46,68.104 46,66.999 L46,39.001 C46,37.896 46.895,37 48,37 L66,37 L66,35 C66,33.895 66.895,33 68,33 L72,33 C73.104,33 74,33.895 74,35 L74,37 L91.999,37 Z M56.7205,58 C54.8875,58 53.2235,58.387 51.9995,59.372 C53.3625,61.547 55.8385,63 58.6665,63 C61.4945,63 63.9705,61.547 65.3325,59.372 C64.1085,58.387 62.4455,58 60.6125,58 L56.7205,58 Z M58.6664,57.1667 C61.8884,57.1667 64.4994,52.1627 64.4994,48.9027 C64.4994,45.6427 61.8884,42.9997 58.6664,42.9997 C55.4444,42.9997 52.8334,45.6427 52.8334,48.9027 C52.8334,52.1627 55.4444,57.1667 58.6664,57.1667 Z M86.9997,48 L68.9997,48 C68.4477,48 67.9997,48.448 67.9997,49 C67.9997,49.552 68.4477,50 68.9997,50 L86.9997,50 C87.5517,50 87.9997,49.552 87.9997,49 C87.9997,48.448 87.5517,48 86.9997,48 Z M68.9997,54 L76.9997,54 C77.5517,54 77.9997,53.552 77.9997,53 C77.9997,52.448 77.5517,52 76.9997,52 L68.9997,52 C68.4477,52 67.9997,52.448 67.9997,53 C67.9997,53.552 68.4477,54 68.9997,54 Z M82.9997,56 L68.9997,56 C68.4477,56 67.9997,56.448 67.9997,57 C67.9997,57.552 68.4477,58 68.9997,58 L82.9997,58 C83.5517,58 83.9997,57.552 83.9997,57 C83.9997,56.448 83.5517,56 82.9997,56 Z" id="ic_identifiers"></path>
            </g>
        </g>
    </g>
</svg>
