<?xml version="1.0" encoding="UTF-8"?>
<svg width="48px" height="38px" viewBox="0 0 48 38" version="1.1" xmlns="http://www.w3.org/2000/svg">
    <!-- Generator: Sketch 47.1 (45422) - http://www.bohemiancoding.com/sketch -->
    <title>Combined Shape</title>
    <desc>Created with Sketch.</desc>
    <defs>
        <linearGradient x1="131.426968%" y1="-34.1782798%" x2="0%" y2="100%" id="linearGradient-1">
            <stop stop-color="#1B84FA" stop-opacity="0" offset="0%"></stop>
            <stop stop-color="#1B84FA" offset="100%"></stop>
        </linearGradient>
    </defs>
    <g id="Admin-Panel" stroke="none" stroke-width="1" fill="none" fill-rule="evenodd">
        <g transform="translate(-546.000000, -537.000000)" id="Combined-Shape" fill="url(#linearGradient-1)">
            <path d="M571,555 L588,555 L588,557 L571,557 L571,562 L569,562 L569,557 L552,557 L552,555 L569,555 L569,550 L571,550 L571,555 Z M548,565 L558,565 C559.104569,565 560,565.895431 560,567 L560,573 L560,573 C560,574.104569 559.104569,575 558,575 L548,575 C546.895431,575 546,574.104569 546,573 L546,567 C546,565.895431 546.895431,565 548,565 L548,565 Z M565,565 L575,565 C576.104569,565 577,565.895431 577,567 L577,573 C577,574.104569 576.104569,575 575,575 L565,575 C563.895431,575 563,574.104569 563,573 L563,567 C563,565.895431 563.895431,565 565,565 Z M582,565 L592,565 C593.104569,565 594,565.895431 594,567 L594,573 C594,574.104569 593.104569,575 592,575 L582,575 C580.895431,575 580,574.104569 580,573 L580,567 C580,565.895431 580.895431,565 582,565 Z M565,537 L575,537 C576.104569,537 577,537.895431 577,539 L577,545 C577,546.104569 576.104569,547 575,547 L565,547 C563.895431,547 563,546.104569 563,545 L563,539 L563,539 C563,537.895431 563.895431,537 565,537 Z M552,557 L554,557 L554,562 L552,562 L552,557 Z M586,557 L588,557 L588,562 L586,562 L586,557 Z"></path>
        </g>
    </g>
</svg>
