<?xml version="1.0" encoding="UTF-8"?>
<svg width="64px" height="60px" viewBox="0 0 64 60" version="1.1" xmlns="http://www.w3.org/2000/svg">
    <!-- Generator: Sketch 46.2 (44496) - http://www.bohemiancoding.com/sketch -->
    <title>ic_areas</title>
    <desc>Created with Sketch.</desc>
    <defs>
        <linearGradient x1="131.426968%" y1="-34.1782798%" x2="0%" y2="100%" id="linearGradient-1">
            <stop stop-color="#FFFFFF" stop-opacity="0" offset="0%"></stop>
            <stop stop-color="#FFFFFF" offset="100%"></stop>
        </linearGradient>
    </defs>
    <g id="Admin-Panel" stroke="none" stroke-width="1" fill="none" fill-rule="evenodd">
        <g transform="translate(-538.000000, -206.000000)" id="Areas" fill="url(#linearGradient-1)">
            <g transform="translate(500.000000, 185.000000)">
                <g id="ic_areas" transform="translate(38.000000, 21.000000)">
                    <path d="M19.5727596,40.8060805 C9.20605272,42.2233881 2,45.3592345 2,49 C2,53.9705627 15.4314575,58 32,58 C48.5685425,58 62,53.9705627 62,49 C62,45.3592345 54.7939473,42.2233881 44.4272404,40.8060805 C44.8068142,40.2248416 45.1857876,39.6336263 45.562206,39.0338979 C56.4553151,40.7885479 64,44.5914034 64,49 C64,55.0751322 49.673112,60 32,60 C14.326888,60 0,55.0751322 0,49 C0,44.5914034 7.54468491,40.7885479 18.437794,39.0338979 C18.8142124,39.6336263 19.1931858,40.2248416 19.5727596,40.8060805 Z" id="Combined-Shape"></path>
                    <path d="M32,0 C41.3737589,0 48.9998166,7.79907143 49,17.3853793 C49,29.282287 33.7866654,46.7476428 33.1389442,47.4853396 C32.531654,48.1770944 31.4694462,48.1783132 30.8610558,47.4853396 C30.2133346,46.7476428 15,29.282287 15,17.3853793 C15,7.79907143 22.6261494,0 32,0 Z M32.0007688,25.0015376 C36.4194714,25.0015376 40.0015376,21.4194714 40.0015376,17.0007688 C40.0015376,12.5820662 36.4194714,9 32.0007688,9 C27.5820662,9 24,12.5820662 24,17.0007688 C24,21.4194714 27.5820662,25.0015376 32.0007688,25.0015376 Z" id="ic_sites" fill-rule="nonzero"></path>
                </g>
            </g>
        </g>
    </g>
</svg>
