<?xml version="1.0" encoding="UTF-8"?>
<svg width="46px" height="48px" viewBox="0 0 46 48" version="1.1" xmlns="http://www.w3.org/2000/svg">
    <!-- Generator: Sketch 47.1 (45422) - http://www.bohemiancoding.com/sketch -->
    <title>ic_nodes</title>
    <desc>Created with Sketch.</desc>
    <defs>
        <linearGradient x1="131.426968%" y1="-34.1782798%" x2="0%" y2="100%" id="linearGradient-1">
            <stop stop-color="#1B84FA" stop-opacity="0" offset="0%"></stop>
            <stop stop-color="#1B84FA" offset="100%"></stop>
        </linearGradient>
    </defs>
    <g id="Admin-Panel" stroke="none" stroke-width="1" fill="none" fill-rule="evenodd">
        <g transform="translate(-548.000000, -373.000000)" id="Time-Profiles" fill-rule="nonzero" fill="url(#linearGradient-1)">
            <g transform="translate(500.000000, 345.000000)">
                <path d="M88,28 C84.691,28 82,30.691 82,34 C82,35.035 82.263,36.009 82.726,36.86 L76.897,42.689 C75.542,41.634 73.846,41 72,41 C70.154,41 68.458,41.634 67.102,42.688 L59.433,35.019 C59.785,34.424 60,33.74 60,33 C60,30.794 58.206,29 56,29 C53.794,29 52,30.794 52,33 C52,35.206 53.794,37 56,37 C56.74,37 57.424,36.785 58.019,36.433 L65.688,44.102 C64.634,45.458 64,47.154 64,49 C64,50.846 64.634,52.542 65.688,53.897 L58.024,61.562 C56.958,60.595 55.549,60 54,60 C50.691,60 48,62.691 48,66 C48,69.309 50.691,72 54,72 C57.309,72 60,69.309 60,66 C60,64.965 59.737,63.991 59.274,63.14 L67.103,55.311 C68.209,56.171 69.543,56.747 71.001,56.93 L71.001,64.09 C68.168,64.568 66.001,67.032 66.001,70 C66.001,73.309 68.692,76 72.001,76 C75.31,76 78.001,73.309 78.001,70 C78.001,67.033 75.834,64.569 73.001,64.09 L73.001,56.93 C74.459,56.747 75.793,56.171 76.899,55.311 L84.568,62.98 C84.215,63.576 84,64.26 84,65 C84,67.206 85.794,69 88,69 C90.206,69 92,67.206 92,65 C92,62.794 90.206,61 88,61 C87.26,61 86.576,61.215 85.981,61.567 L78.312,53.898 C79.366,52.542 80,50.846 80,49 C80,47.154 79.366,45.458 78.312,44.103 L83.977,38.438 C85.042,39.405 86.451,40 88,40 C91.309,40 94,37.309 94,34 C94,30.691 91.309,28 88,28 Z M54,33 C54,31.897 54.897,31 56,31 C57.103,31 58,31.897 58,33 C58,34.103 57.103,35 56,35 C54.897,35 54,34.103 54,33 Z M54,70 C51.794,70 50,68.206 50,66 C50,63.794 51.794,62 54,62 C56.206,62 58,63.794 58,66 C58,68.206 56.206,70 54,70 Z M76,70 C76,72.206 74.206,74 72,74 C69.794,74 68,72.206 68,70 C68,67.794 69.794,66 72,66 C74.206,66 76,67.794 76,70 Z M72,55 C68.691,55 66,52.309 66,49 C66,45.691 68.691,43 72,43 C75.309,43 78,45.691 78,49 C78,52.309 75.309,55 72,55 Z M90,65 C90,66.103 89.103,67 88,67 C86.897,67 86,66.103 86,65 C86,63.897 86.897,63 88,63 C89.103,63 90,63.897 90,65 Z M88,38 C85.794,38 84,36.206 84,34 C84,31.794 85.794,30 88,30 C90.206,30 92,31.794 92,34 C92,36.206 90.206,38 88,38 Z" id="ic_nodes"></path>
            </g>
        </g>
    </g>
</svg>
