<?xml version="1.0" encoding="UTF-8"?>
<svg width="48px" height="42px" viewBox="0 0 48 42" version="1.1" xmlns="http://www.w3.org/2000/svg">
    <!-- Generator: Sketch 47.1 (45422) - http://www.bohemiancoding.com/sketch -->
    <title>ic_zones</title>
    <desc>Created with Sketch.</desc>
    <defs>
        <linearGradient x1="131.426968%" y1="-34.1782798%" x2="0%" y2="100%" id="linearGradient-1">
            <stop stop-color="#FFFFFF" stop-opacity="0" offset="0%"></stop>
            <stop stop-color="#FFFFFF" offset="100%"></stop>
        </linearGradient>
    </defs>
    <g id="Admin-Panel" stroke="none" stroke-width="1" fill="none" fill-rule="evenodd">
        <g transform="translate(-546.000000, -215.000000)" id="Areas-Copy" fill="url(#linearGradient-1)">
            <g transform="translate(500.000000, 185.000000)">
                <path d="M65,41.333 C65,38.572 67.239,36.333 70,36.333 C72.761,36.333 75,38.572 75,41.333 C75,44.094 72.761,46.333 70,46.333 C67.239,46.333 65,44.094 65,41.333 M70.759,61.654 C70.354,62.115 69.646,62.116 69.241,61.654 C68.809,61.162 58.668,49.52 58.668,41.589 C58.668,35.199 63.751,30 70,30 C76.249,30 81.332,35.199 81.332,41.589 C81.332,49.52 71.191,61.162 70.759,61.654 Z M92,54.0002 C93.105,54.0002 94,54.8952 94,56.0002 C94,57.1052 93.105,58.0002 92,58.0002 C91.291,58.0002 90.671,57.6282 90.316,57.0712 L71.684,68.9282 C71.882,69.2392 72,69.6052 72,70.0002 C72,71.1052 71.105,72.0002 70,72.0002 C68.895,72.0002 68,71.1052 68,70.0002 C68,69.6052 68.118,69.2392 68.316,68.9282 L49.684,57.0722 C49.329,57.6282 48.709,58.0002 48,58.0002 C46.895,58.0002 46,57.1052 46,56.0002 C46,54.8952 46.895,54.0002 48,54.0002 C49.105,54.0002 50,54.8952 50,56.0002 L62.433,56.0002 C62.901,56.7032 63.366,57.3732 63.817,58.0002 L54.868,58.0002 L70,67.6292 L85.132,58.0002 L76.182,58.0002 C76.633,57.3732 77.099,56.7032 77.566,56.0002 L90,56.0002 C90,54.8952 90.895,54.0002 92,54.0002 Z" id="ic_zones"></path>
            </g>
        </g>
    </g>
</svg>
