<?xml version="1.0" encoding="UTF-8"?>
<svg width="34px" height="48px" viewBox="0 0 34 48" version="1.1" xmlns="http://www.w3.org/2000/svg">
    <!-- Generator: Sketch 47.1 (45422) - http://www.bohemiancoding.com/sketch -->
    <title>ic_sites *hover</title>
    <desc>Created with Sketch.</desc>
    <defs>
        <linearGradient x1="131.426968%" y1="-34.1782798%" x2="0%" y2="100%" id="linearGradient-1">
            <stop stop-color="#ffffff" stop-opacity="0" offset="0%"></stop>
            <stop stop-color="#ffffff" offset="100%"></stop>
        </linearGradient>
    </defs>
    <g id="Admin-Panel" stroke="none" stroke-width="1" fill="none" fill-rule="evenodd">
        <g transform="translate(-233.000000, -212.000000)" id="Sites" fill="url(#linearGradient-1)">
            <g transform="translate(218.000000, 204.000000)">
                <path d="M24.498,24.999 C24.498,20.857 27.856,17.499 31.998,17.499 C36.14,17.499 39.498,20.857 39.498,24.999 C39.498,29.141 36.14,32.499 31.998,32.499 C27.856,32.499 24.498,29.141 24.498,24.999 M33.137,55.481 C33.784,54.743 48.996,37.279 48.996,25.384 C48.996,15.798 41.371,8 31.998,8 C22.625,8 15,15.798 15,25.384 C15,37.279 30.211,54.743 30.859,55.481 C31.467,56.174 32.53,56.172 33.137,55.481" id="ic_sites-*hover"></path>
            </g>
        </g>
    </g>
</svg>
