<?xml version="1.0" encoding="UTF-8"?>
<svg width="64px" height="50px" viewBox="0 0 64 50" version="1.1" xmlns="http://www.w3.org/2000/svg">
    <!-- Generator: Sketch 46.2 (44496) - http://www.bohemiancoding.com/sketch -->
    <title>ic_tags *hover</title>
    <desc>Created with Sketch.</desc>
    <defs>
        <linearGradient x1="131.426968%" y1="-34.1782798%" x2="0%" y2="100%" id="linearGradient-1">
            <stop stop-color="#1B84FA" stop-opacity="0" offset="0%"></stop>
            <stop stop-color="#1B84FA" offset="100%"></stop>
        </linearGradient>
    </defs>
    <g id="Admin-Panel" stroke="none" stroke-width="1" fill="none" fill-rule="evenodd">
        <g transform="translate(-538.000000, -531.000000)" id="People" fill-rule="nonzero" fill="url(#linearGradient-1)">
            <g transform="translate(500.000000, 505.000000)">
                <path d="M55.2622368,74.5624457 C57.1809932,76.4791848 60.2956869,76.4791848 62.2144433,74.5624457 L86.0149084,50.7870042 C86.6983011,50.1043301 87.2239878,49.2903724 87.5656841,48.4239013 C89.9575586,49.0934471 92.2837222,49.4479126 94.3339003,49.4347842 C99.4067769,49.4085275 101.088974,47.1898364 101.640945,45.8638731 C102.192916,44.5510381 102.587181,41.7940846 99.0256541,38.1706601 C98.9862276,38.1312751 98.9468011,38.09189 98.9073745,38.052505 C96.6994904,35.8469422 93.4928016,33.812048 89.8524213,32.3022878 C89.1821707,32.0265924 88.5119202,31.7771538 87.8548118,31.5408435 L87.8548118,31.5014584 C87.8153853,28.5869648 85.4629374,26.2369902 82.5453762,26.1976051 L68.2861246,26.0006799 C66.3936525,25.9744232 64.5800335,26.7096108 63.2526745,28.0487024 L39.4390673,51.8241439 C37.5203109,53.7408829 37.5203109,56.8523018 39.4390673,58.7690409 L55.2622368,74.5624457 Z M73.6087024,34.5078505 C75.1989047,32.9193202 77.7747695,32.9193202 79.3649717,34.5078505 C80.3112078,35.4530917 80.6923306,36.7527983 80.5083403,37.9737349 C82.0722582,39.0765162 83.9384459,40.1005275 85.9360554,40.9276136 C86.6457324,41.2164373 87.3291251,41.4790043 87.9862335,41.7021862 L87.9073805,35.9782257 C88.02566,36.0307391 88.1307973,36.0701241 88.2490768,36.1226375 C91.3637705,37.4223442 94.1630521,39.181543 95.9635291,40.980127 C95.9898134,41.0063837 96.0160977,41.0326404 96.0423821,41.0588971 C97.7508638,42.8049676 97.9348542,43.9208773 97.7902903,44.2622144 C97.3434566,45.3256107 92.5465656,46.2708519 85.2658048,43.2382031 C83.1367737,42.3454753 81.1391643,41.242694 79.5226777,40.0480141 C79.470109,40.1136559 79.4043982,40.1792976 79.3518295,40.2449394 C77.7616273,41.8334697 75.1857625,41.8334697 73.5955602,40.2449394 C72.0185002,38.6695374 72.0185002,36.0963808 73.6087024,34.5078505 Z" id="ic_tags-*hover"></path>
            </g>
        </g>
    </g>
</svg>
