<?xml version="1.0" encoding="UTF-8"?>
<svg width="36px" height="48px" viewBox="0 0 36 48" version="1.1" xmlns="http://www.w3.org/2000/svg">
    <!-- Generator: Sketch 47.1 (45422) - http://www.bohemiancoding.com/sketch -->
    <title>ic_alerts</title>
    <desc>Created with Sketch.</desc>
    <defs>
        <linearGradient x1="131.426968%" y1="-34.1782798%" x2="0%" y2="100%" id="linearGradient-1">
            <stop stop-color="#FFFFFF" stop-opacity="0" offset="0%"></stop>
            <stop stop-color="#FFFFFF" offset="100%"></stop>
        </linearGradient>
    </defs>
    <g id="Intelico-Admin" stroke="none" stroke-width="1" fill="none" fill-rule="evenodd">
        <g transform="translate(-878.000000, -532.000000)" id="Lanes-Copy" fill="url(#linearGradient-1)">
            <g transform="translate(820.000000, 505.000000)">
                <g id="ic_alerts" transform="translate(58.000000, 27.000000)">
                    <path d="M10.4553222,18.6666667 L13.5440414,18.6666667 C17.5484371,18.6666667 20.9654257,21.2784822 21.6217415,24.8409521 L23.9439982,38.369194 C24.3146018,40.3808234 22.8067806,42.2825128 20.5761853,42.6167361 C20.3544057,42.6499667 20.1299679,42.6666667 19.9051481,42.6666667 L4.0942155,42.6666667 C1.83304272,42.6666667 4.54549232e-16,41.0135642 0,38.974359 C0,38.7716086 0.0185177574,38.5692026 0.0553654621,38.369194 L2.37762214,24.8409521 C3.03393797,21.2784822 6.45092656,18.6666667 10.4553222,18.6666667 Z" id="Rectangle-20"></path>
                    <path d="M6.66666667,42.6666667 C7.04014769,45.6820392 9.28567636,48 12,48 C14.7143236,48 16.9598523,45.6820392 17.3333333,42.6666667 L6.66666667,42.6666667 Z" id="Combined-Shape"></path>
                    <path d="M9.33333333,18.6666667 C9.33333333,17.1939073 10.5272407,16 12,16 C13.4727593,16 14.6666667,17.1939073 14.6666667,18.6666667 L9.33333333,18.6666667 Z" id="Combined-Shape"></path>
                    <path d="M22.508,12.33 L28.275,17.754 C28.491,17.918 28.746,18 29,18 C29.254,18 29.509,17.918 29.725,17.754 L35.492,12.33 C36.043,11.911 36.165,11.106 35.764,10.53 C35.532,10.197 35.162,10 34.767,10 L32,10 L32,2 C32,0.895 31.105,0 30,0 L28,0 C26.895,0 26,0.895 26,2 L26,10 L23.232,10 C22.552,10 22,10.577 22,11.288 C22,11.7 22.189,12.087 22.508,12.33 L22.508,12.33 Z" id="Fill-5" transform="translate(29.000092, 9.000000) scale(1, -1) translate(-29.000092, -9.000000) "></path>
                </g>
            </g>
        </g>
    </g>
</svg>
