<?xml version="1.0" encoding="UTF-8"?>
<svg width="36px" height="48px" viewBox="0 0 36 48" version="1.1" xmlns="http://www.w3.org/2000/svg">
    <!-- Generator: Sketch 47.1 (45422) - http://www.bohemiancoding.com/sketch -->
    <title>ic_alerts</title>
    <desc>Created with Sketch.</desc>
    <defs>
        <linearGradient x1="131.426968%" y1="-34.1782798%" x2="0%" y2="100%" id="linearGradient-1">
            <stop stop-color="#1B84FA" stop-opacity="0" offset="0%"></stop>
            <stop stop-color="#1B84FA" offset="100%"></stop>
        </linearGradient>
    </defs>
    <g id="Intelico-Admin" stroke="none" stroke-width="1" fill="none" fill-rule="evenodd">
        <g transform="translate(-238.000000, -587.000000)" id="Lanes-Copy" fill="url(#linearGradient-1)">
            <g transform="translate(180.000000, 560.000000)">
                <g id="ic_alerts" transform="translate(58.000000, 27.000000)">
                    <path d="M10.4553222,18.6666667 L13.5440414,18.6666667 C17.5484371,18.6666667 20.9654257,21.2784822 21.6217415,24.8409521 L23.9439982,38.369194 C24.3146018,40.3808234 22.8067806,42.2825128 20.5761853,42.6167361 C20.3544057,42.6499667 20.1299679,42.6666667 19.9051481,42.6666667 L4.0942155,42.6666667 C1.83304272,42.6666667 4.54549232e-16,41.0135642 0,38.974359 C0,38.7716086 0.0185177574,38.5692026 0.0553654621,38.369194 L2.37762214,24.8409521 C3.03393797,21.2784822 6.45092656,18.6666667 10.4553222,18.6666667 Z" id="Rectangle-20"></path>
                    <path d="M6.66666667,42.6666667 C7.04014769,45.6820392 9.28567636,48 12,48 C14.7143236,48 16.9598523,45.6820392 17.3333333,42.6666667 L6.66666667,42.6666667 Z" id="Combined-Shape"></path>
                    <path d="M9.33333333,18.6666667 C9.33333333,17.1939073 10.5272407,16 12,16 C13.4727593,16 14.6666667,17.1939073 14.6666667,18.6666667 L9.33333333,18.6666667 Z" id="Combined-Shape"></path>
                    <path d="M20.826,9.713 C20.348,9.633 20,9.222 20,8.737 L20,7.33 C20,7.209 20.022,7.093 20.062,6.985 C20.182,6.661 20.467,6.414 20.826,6.354 L21.935,6.167 C22.049,5.789 22.196,5.425 22.38,5.074 L21.712,4.135 C21.431,3.741 21.478,3.202 21.819,2.862 L22.818,1.866 C23.002,1.678 23.252,1.575 23.516,1.575 C23.724,1.575 23.924,1.638 24.091,1.759 L25.011,2.42 C25.358,2.233 25.722,2.079 26.097,1.962 L26.291,0.826 C26.371,0.348 26.782,0 27.267,0 L28.674,0 C29.158,0 29.57,0.348 29.65,0.826 L29.837,1.936 C30.228,2.053 30.606,2.21 30.967,2.4 L31.896,1.739 C32.063,1.618 32.26,1.555 32.467,1.555 C32.731,1.555 32.979,1.658 33.166,1.845 L34.162,2.841 C34.506,3.182 34.55,3.721 34.269,4.115 L33.607,5.041 C33.791,5.388 33.941,5.753 34.058,6.13 L35.181,6.321 C35.659,6.401 36.007,6.812 36,7.297 L36,8.704 C36,9.189 35.653,9.6 35.175,9.68 L34.052,9.867 C33.938,10.242 33.784,10.606 33.6,10.957 L34.262,11.886 C34.543,12.28 34.496,12.818 34.155,13.159 L33.159,14.155 C32.972,14.343 32.725,14.446 32.461,14.446 C32.253,14.446 32.053,14.383 31.886,14.262 L30.96,13.601 C30.612,13.784 30.248,13.935 29.87,14.052 L29.68,15.175 C29.6,15.653 29.189,16 28.704,16 L27.293,16 C26.809,16 26.398,15.653 26.317,15.175 L26.13,14.052 C25.766,13.938 25.412,13.794 25.074,13.617 L24.135,14.286 C23.968,14.406 23.771,14.47 23.563,14.47 C23.366,14.47 23.189,14.396 23.028,14.289 C22.973,14.252 22.913,14.226 22.865,14.179 L22.533,13.847 L21.869,13.183 C21.524,12.842 21.481,12.304 21.762,11.909 L22.42,10.994 C22.233,10.646 22.079,10.282 21.962,9.907 L20.826,9.713 Z M28.002,5.449 C26.595,5.449 25.452,6.592 25.452,7.999 C25.452,9.406 26.595,10.549 28.002,10.549 C29.409,10.549 30.552,9.406 30.552,7.999 C30.552,6.592 29.409,5.449 28.002,5.449 Z" id="Combined-Shape"></path>
                </g>
            </g>
        </g>
    </g>
</svg>
