<?xml version="1.0" encoding="UTF-8"?>
<svg width="48px" height="48px" viewBox="0 0 48 48" version="1.1" xmlns="http://www.w3.org/2000/svg">
    <!-- Generator: Sketch 47.1 (45422) - http://www.bohemiancoding.com/sketch -->
    <title>d</title>
    <desc>Created with Sketch.</desc>
    <defs>
        <linearGradient x1="131.426968%" y1="-34.1782798%" x2="0%" y2="100%" id="linearGradient-1">
            <stop stop-color="#FFFFFF" stop-opacity="0" offset="0%"></stop>
            <stop stop-color="#FFFFFF" offset="100%"></stop>
        </linearGradient>
    </defs>
    <g id="Intelico-Admin" stroke="none" stroke-width="1" fill="none" fill-rule="evenodd">
        <g transform="translate(-706.000000, -372.000000)" id="Companies" fill="url(#linearGradient-1)">
            <g transform="translate(660.000000, 345.000000)">
                <path d="M77.342,61.335 C87.005,62.24 94,64.881 94,68 C94,71.866 83.255,75 70,75 C56.745,75 46,71.866 46,68 C46,64.881 52.995,62.24 62.657,61.335 C63.108,62.003 63.554,62.637 63.986,63.233 C60.079,63.534 56.501,64.121 53.589,64.97 C48.994,66.31 48,67.722 48,68 C48,68.278 48.994,69.69 53.589,71.03 C57.945,72.3 63.773,73 70,73 C76.226,73 82.054,72.3 86.41,71.03 C91.005,69.69 92,68.278 92,68 C92,67.722 91.005,66.31 86.41,64.97 C83.498,64.121 79.92,63.534 76.013,63.233 C76.445,62.637 76.891,62.003 77.342,61.335 Z M70.7588,66.6538 C70.3538,67.1148 69.6458,67.1158 69.2408,66.6538 C68.8088,66.1618 58.6678,54.5198 58.6678,46.5888 C58.6678,40.1988 63.7508,34.9998 69.9998,34.9998 C72.3098,34.9998 74.4578,35.7138 76.2518,36.9318 C76.5448,37.6068 77.0768,38.1568 77.7578,38.4628 C77.3628,39.5408 77.6148,40.7668 78.4628,41.6058 L79.1188,42.2608 L79.4508,42.5928 C79.7238,42.8668 80.0428,43.0818 80.3958,43.2318 L80.4128,43.2388 L80.4358,43.2488 L80.4398,43.2378 C80.5838,43.2988 80.7318,43.3388 80.8798,43.3758 C81.1688,44.3978 81.3318,45.4738 81.3318,46.5888 C81.3318,54.5198 71.1908,66.1618 70.7588,66.6538 Z M64.9998,46.3328 C64.9998,49.0938 67.2388,51.3328 69.9998,51.3328 C72.7608,51.3328 74.9998,49.0938 74.9998,46.3328 C74.9998,43.5718 72.7608,41.3328 69.9998,41.3328 C67.2388,41.3328 64.9998,43.5718 64.9998,46.3328 Z M78.8259,36.713 C78.3479,36.633 77.9999,36.222 77.9999,35.737 L77.9999,34.33 C77.9999,34.209 78.0219,34.093 78.0619,33.985 C78.1819,33.661 78.4669,33.414 78.8259,33.354 L79.9349,33.167 C80.0489,32.789 80.1959,32.425 80.3799,32.074 L79.7119,31.135 C79.4309,30.741 79.4779,30.202 79.8189,29.862 L80.8179,28.866 C81.0019,28.678 81.2519,28.575 81.5159,28.575 C81.7239,28.575 81.9239,28.638 82.0909,28.759 L83.0109,29.42 C83.3579,29.233 83.7219,29.079 84.0969,28.962 L84.2909,27.826 C84.3709,27.348 84.7819,27 85.2669,27 L86.6739,27 C87.1579,27 87.5699,27.348 87.6499,27.826 L87.8369,28.936 C88.2279,29.053 88.6059,29.21 88.9669,29.4 L89.8959,28.739 C90.0629,28.618 90.2599,28.555 90.4669,28.555 C90.7309,28.555 90.9789,28.658 91.1659,28.845 L92.1619,29.841 C92.5059,30.182 92.5499,30.721 92.2689,31.115 L91.6069,32.041 C91.7909,32.388 91.9409,32.753 92.0579,33.13 L93.1809,33.321 C93.6589,33.401 94.0069,33.812 93.9999,34.297 L93.9999,35.704 C93.9999,36.189 93.6529,36.6 93.1749,36.68 L92.0519,36.867 C91.9379,37.242 91.7839,37.606 91.5999,37.957 L92.2619,38.886 C92.5429,39.28 92.4959,39.818 92.1549,40.159 L91.1589,41.155 C90.9719,41.343 90.7249,41.446 90.4609,41.446 C90.2529,41.446 90.0529,41.383 89.8859,41.262 L88.9599,40.601 C88.6119,40.784 88.2479,40.935 87.8699,41.052 L87.6799,42.175 C87.5999,42.653 87.1889,43 86.7039,43 L85.2929,43 C84.8089,43 84.3979,42.653 84.3169,42.175 L84.1299,41.052 C83.7659,40.938 83.4119,40.794 83.0739,40.617 L82.1349,41.286 C81.9679,41.406 81.7709,41.47 81.5629,41.47 C81.3659,41.47 81.1889,41.396 81.0279,41.289 C80.9729,41.252 80.9129,41.226 80.8649,41.179 L80.5329,40.847 L79.8689,40.183 C79.5239,39.842 79.4809,39.304 79.7619,38.909 L80.4199,37.994 C80.2329,37.646 80.0789,37.282 79.9619,36.907 L78.8259,36.713 Z M86.0019,32.449 C84.5949,32.449 83.4519,33.592 83.4519,34.999 C83.4519,36.406 84.5949,37.549 86.0019,37.549 C87.4089,37.549 88.5519,36.406 88.5519,34.999 C88.5519,33.592 87.4089,32.449 86.0019,32.449 Z" id="d"></path>
            </g>
        </g>
    </g>
</svg>
