<?xml version="1.0" encoding="UTF-8"?>
<svg width="39px" height="48px" viewBox="0 0 39 48" version="1.1" xmlns="http://www.w3.org/2000/svg">
    <!-- Generator: Sketch 47.1 (45422) - http://www.bohemiancoding.com/sketch -->
    <title>ic_company_type</title>
    <desc>Created with Sketch.</desc>
    <defs>
        <linearGradient x1="131.426968%" y1="-34.1782798%" x2="0%" y2="100%" id="linearGradient-1">
            <stop stop-color="#FFFFFF" stop-opacity="0" offset="0%"></stop>
            <stop stop-color="#FFFFFF" offset="100%"></stop>
        </linearGradient>
    </defs>
    <g id="Intelico-Admin" stroke="none" stroke-width="1" fill="none" fill-rule="evenodd">
        <g transform="translate(-395.000000, -372.000000)" id="Companies" fill="url(#linearGradient-1)">
            <g transform="translate(340.000000, 345.000000)">
                <path d="M83.005,73.0013 L83.001,43.9263 C83.492,44.5153 84.202,44.9013 85,44.9793 L85,73.0063 C85,74.1083 84.107,75.0013 83.005,75.0013 L56.995,75.0013 C55.893,75.0013 55,74.1083 55,73.0063 L55,28.9983 C55,27.8603 55.932,27.0013 56.992,27.0013 C57.201,27.0013 57.414,27.0343 57.626,27.1053 L76.05,33.7923 C76.018,33.9693 76.001,34.1493 76.001,34.3303 L76.001,35.7373 C76.001,35.7943 76.01,35.8483 76.013,35.9043 L57.001,29.0063 L57,73.0063 L83.005,73.0013 Z M67.0081,53.0013 L67.0081,49.0013 L73.0081,49.0013 L73.0081,53.0013 L67.0081,53.0013 Z M67.0081,47.0013 L67.0081,43.0013 L73.0081,43.0013 L73.0081,47.0013 L67.0081,47.0013 Z M75.008,47.0002 L75.008,43.0002 L81,43.0002 L81,47.0002 L75.008,47.0002 Z M75.0161,71.0013 L75.0161,67.0013 L81.0081,67.0013 L81.0081,71.0013 L75.0161,71.0013 Z M75.0081,53.0013 L75.0081,49.0013 L81.0001,49.0013 L81.0001,53.0013 L75.0081,53.0013 Z M75.0081,65.0013 L75.0081,61.0013 L81.0001,61.0013 L81.0001,65.0013 L75.0081,65.0013 Z M75.0081,59.0013 L75.0081,55.0013 L81.0001,55.0013 L81.0001,59.0013 L75.0081,59.0013 Z M59.0001,65.0013 L59.0001,61.0013 L65.0081,61.0013 L65.0081,65.0013 L59.0001,65.0013 Z M59.0001,59.0013 L59.0001,55.0013 L65.0081,55.0013 L65.0081,59.0013 L59.0001,59.0013 Z M59.0081,71.0013 L59.0081,67.0013 L65.0161,67.0013 L65.0161,71.0013 L59.0081,71.0013 Z M67.0081,59.0013 L67.0081,55.0013 L73.0081,55.0013 L73.0081,59.0013 L67.0081,59.0013 Z M59.0001,47.0013 L59.0001,43.0013 L65.0081,43.0013 L65.0081,47.0013 L59.0001,47.0013 Z M67.0081,65.0013 L67.0081,61.0013 L73.0081,61.0013 L73.0081,65.0013 L67.0081,65.0013 Z M67.0161,71.0013 L67.0161,67.0013 L73.0161,67.0013 L73.0161,71.0013 L67.0161,71.0013 Z M59.0001,53.0013 L59.0001,49.0013 L65.0081,49.0013 L65.0081,53.0013 L59.0001,53.0013 Z M93.1815,33.321 C93.6595,33.401 94.0075,33.812 94.0005,34.297 L94.0005,35.704 C94.0005,36.189 93.6535,36.6 93.1755,36.68 L92.0525,36.867 C91.9385,37.242 91.7845,37.606 91.6005,37.957 L92.2625,38.886 C92.5435,39.28 92.4965,39.818 92.1555,40.159 L91.1595,41.155 C90.9725,41.343 90.7255,41.446 90.4615,41.446 C90.2535,41.446 90.0535,41.383 89.8865,41.262 L88.9605,40.601 C88.6125,40.784 88.2485,40.935 87.8705,41.052 L87.6805,42.175 C87.6005,42.653 87.1895,43 86.7045,43 L85.2935,43 C84.8095,43 84.3985,42.653 84.3175,42.175 L84.1305,41.052 C83.7665,40.938 83.4125,40.794 83.0745,40.617 L82.1355,41.286 C81.9685,41.406 81.7715,41.47 81.5635,41.47 C81.3655,41.47 81.1865,41.395 81.0255,41.287 C81.0795,41.323 81.1265,41.37 81.1855,41.394 C81.0675,41.345 80.9585,41.272 80.8655,41.179 L80.5335,40.847 L79.8695,40.183 C79.5245,39.842 79.4815,39.304 79.7625,38.909 L80.4205,37.994 C80.2335,37.646 80.0795,37.282 79.9625,36.907 L78.8265,36.713 C78.3485,36.633 78.0005,36.222 78.0005,35.737 L78.0005,34.33 C78.0005,34.209 78.0225,34.093 78.0625,33.985 C78.1825,33.661 78.4675,33.414 78.8265,33.354 L79.9355,33.167 C80.0495,32.789 80.1965,32.425 80.3805,32.074 L79.7125,31.135 C79.4315,30.741 79.4785,30.202 79.8195,29.862 L80.8185,28.866 C81.0025,28.678 81.2525,28.575 81.5165,28.575 C81.7245,28.575 81.9245,28.638 82.0915,28.759 L83.0115,29.42 C83.3585,29.233 83.7225,29.079 84.0975,28.962 L84.2915,27.826 C84.3715,27.348 84.7825,27 85.2675,27 L86.6745,27 C87.1585,27 87.5705,27.348 87.6505,27.826 L87.8375,28.936 C88.2285,29.053 88.6065,29.21 88.9675,29.4 L89.8965,28.739 C90.0635,28.618 90.2605,28.555 90.4675,28.555 C90.7315,28.555 90.9795,28.658 91.1665,28.845 L92.1625,29.841 C92.5065,30.182 92.5505,30.721 92.2695,31.115 L91.6075,32.041 C91.7915,32.388 91.9415,32.753 92.0585,33.13 L93.1815,33.321 Z M86.0025,37.549 C87.4095,37.549 88.5525,36.406 88.5525,34.999 C88.5525,33.592 87.4095,32.449 86.0025,32.449 C84.5955,32.449 83.4525,33.592 83.4525,34.999 C83.4525,36.406 84.5955,37.549 86.0025,37.549 Z" id="ic_company_type"></path>
            </g>
        </g>
    </g>
</svg>
