<?xml version="1.0" encoding="UTF-8"?>
<svg width="24px" height="24px" viewBox="0 0 24 24" version="1.1" xmlns="http://www.w3.org/2000/svg">
    <!-- Generator: Sketch 46.2 (44496) - http://www.bohemiancoding.com/sketch -->
    <title>ic_settings</title>
    <desc>Created with Sketch.</desc>
    <defs>
        <linearGradient x1="131.426968%" y1="-34.1782798%" x2="0%" y2="100%" id="linearGradient-1">
            <stop stop-color="#FFFFFF" stop-opacity="0" offset="0%"></stop>
            <stop stop-color="#FFFFFF" offset="100%"></stop>
        </linearGradient>
    </defs>
    <g id="Page-1" stroke="none" stroke-width="1" fill="none" fill-rule="evenodd">
        <g id="Messages_Combined" transform="translate(-1356.000000, -791.000000)" fill-rule="nonzero" fill="url(#linearGradient-1)">
            <g id="Menu" transform="translate(785.000000, 653.000000)">
                <g id="ic_settings" transform="translate(559.000000, 126.000000)">
                    <path d="M34.7574113,21.4747891 C35.473904,21.5950397 35.9949896,22.2113236 35.9849687,22.9378372 L35.9849687,25.0472317 C35.9849687,25.7737453 35.4638831,26.3900292 34.7473904,26.5102797 L33.0638831,26.7908643 C32.8935282,27.3520334 32.663048,27.8981712 32.3874739,28.4242672 L33.3795407,29.8171691 C33.8004175,30.4084008 33.7302714,31.2150814 33.2192067,31.7261461 L31.726096,33.2192568 C31.4455115,33.4998413 31.074739,33.6551649 30.6789144,33.6551649 C30.3682672,33.6551649 30.0676409,33.5599666 29.817119,33.3795908 L28.4292276,32.387524 C27.908142,32.6630981 27.3620042,32.8885678 26.7958246,33.0639332 L26.5102296,34.7474405 C26.3899791,35.4639332 25.7736952,35.9850188 25.0471816,35.9850188 L22.9327766,35.9850188 C22.206263,35.9850188 21.5899791,35.4639332 21.4697286,34.7474405 L21.1891441,33.0639332 C20.6430063,32.8935783 20.1118998,32.6781294 19.6058455,32.4125762 L18.1979123,33.4146639 C17.9473904,33.5950397 17.6517745,33.690238 17.3411273,33.690238 C16.9453027,33.690238 16.5745303,33.5349144 16.2939457,33.2543299 L14.8008351,31.7612192 C14.2847599,31.2501545 14.2196242,30.4434739 14.640501,29.8522422 L15.6275574,28.479382 C15.3469729,27.9582965 15.1164927,27.4121587 14.9411273,26.8509896 L13.2375783,26.5603841 C12.5210856,26.4401336 12,25.8238497 12,25.0973361 L12,22.9879415 C12,22.261428 12.5210856,21.6451441 13.2375783,21.5248935 L14.9010438,21.244309 C15.0713987,20.6781294 15.291858,20.1319916 15.5674322,19.6058956 L14.5653445,18.1979624 C14.1444676,17.6067307 14.2146138,16.8000501 14.7256785,16.2889854 L16.2237996,14.7958747 C16.4993737,14.5152902 16.8751566,14.3599666 17.2709812,14.3599666 C17.5816284,14.3599666 17.8822547,14.4551649 18.1327766,14.6355407 L19.5106472,15.6276075 C20.0317328,15.347023 20.5778706,15.1165428 21.1390397,14.9411775 L21.4296451,13.2376284 C21.5498956,12.5211357 22.1661795,12.0000501 22.8926931,12.0000501 L25.0020877,12.0000501 C25.7286013,12.0000501 26.3448852,12.5211357 26.4651357,13.2376284 L26.7457203,14.9010939 C27.3319415,15.0764593 27.8981211,15.3119499 28.4392484,15.5975449 L29.8321503,14.6054781 C30.0826722,14.4251023 30.3782881,14.329904 30.6889353,14.329904 C31.0847599,14.329904 31.4555324,14.4852276 31.7361169,14.7658121 L33.2292276,16.2589228 C33.7453027,16.7699875 33.8104384,17.5766681 33.3895616,18.1678998 L32.3974948,19.5557912 C32.6730689,20.0768768 32.8985386,20.6230146 33.073904,21.1891942 L34.7574113,21.4747891 Z M23.9949896,27.8129937 C26.1043841,27.8129937 27.8179541,26.0994238 27.8179541,23.9900292 C27.8179541,21.8806347 26.1043841,20.1670647 23.9949896,20.1670647 C21.885595,20.1670647 20.1720251,21.8806347 20.1720251,23.9900292 C20.1720251,26.0994238 21.885595,27.8129937 23.9949896,27.8129937 Z"></path>
                </g>
            </g>
        </g>
    </g>
</svg>
