<?xml version="1.0" encoding="UTF-8"?>
<svg width="26px" height="37px" viewBox="0 0 26 37" version="1.1" xmlns="http://www.w3.org/2000/svg">
    <!-- Generator: Sketch 47.1 (45422) - http://www.bohemiancoding.com/sketch -->
    <title>ic_fingerprint</title>
    <desc>Created with Sketch.</desc>
    <defs>
        <linearGradient x1="131.426968%" y1="-34.1782798%" x2="0%" y2="100%" id="linearGradient-1">
            <stop stop-color="#AAABB3" stop-opacity="0" offset="0%"></stop>
            <stop stop-color="#AAABB3" offset="100%"></stop>
        </linearGradient>
    </defs>
    <g id="Identifiers" stroke="none" stroke-width="1" fill="none" fill-rule="evenodd" opacity="0.5">
        <g id="Add-Identifier-Type" transform="translate(-737.000000, -314.000000)" fill-rule="nonzero" fill="url(#linearGradient-1)">
            <g id="pop-up" transform="translate(100.000000, 61.000000)">
                <g id="Fingerprint" transform="translate(612.000000, 253.000000)">
                    <path d="M38,9.23076923 C40.7568125,9.23076923 43,11.8190625 43,15 C43,15.6372115 42.55225,16.1538462 42,16.1538462 C41.44775,16.1538462 41,15.6372115 41,15 C41,13.0911779 39.6543125,11.5384615 38,11.5384615 C36.3456875,11.5384615 35,13.0911779 35,15 L35,33.4615385 C35,34.0993269 34.55225,34.6153846 34,34.6153846 C33.44775,34.6153846 33,34.0993269 33,33.4615385 L33,15 C33,11.8190625 35.2431875,9.23076923 38,9.23076923 Z M38,13.8461538 C38.55225,13.8461538 39,14.3627885 39,15 L39,25.3846154 C39,26.0218269 38.55225,26.5384615 38,26.5384615 C37.44775,26.5384615 37,26.0218269 37,25.3846154 L37,15 C37,14.3627885 37.44775,13.8461538 38,13.8461538 Z M38,28.8461538 C38.55225,28.8461538 39,29.3627885 39,30 L39,35.7692308 C39,36.4070192 38.55225,36.9230769 38,36.9230769 C37.44775,36.9230769 37,36.4070192 37,35.7692308 L37,30 C37,29.3627885 37.44775,28.8461538 38,28.8461538 Z M42,18.4615385 C42.55225,18.4615385 43,18.9781731 43,19.6153846 L43,33.4615385 C43,34.0993269 42.55225,34.6153846 42,34.6153846 C41.44775,34.6153846 41,34.0993269 41,33.4615385 L41,19.6153846 C41,18.9781731 41.44775,18.4615385 42,18.4615385 Z M30,20.7692308 C30.55225,20.7692308 31,21.2858654 31,21.9230769 L31,30 C31,30.6377885 30.55225,31.1538462 30,31.1538462 C29.44775,31.1538462 29,30.6377885 29,30 L29,21.9230769 C29,21.2858654 29.44775,20.7692308 30,20.7692308 Z M50,18.4615385 C50.55225,18.4615385 51,18.9781731 51,19.6153846 L51,25.3846154 C51,26.0218269 50.55225,26.5384615 50,26.5384615 C49.44775,26.5384615 49,26.0218269 49,25.3846154 L49,19.6153846 C49,18.9781731 49.44775,18.4615385 50,18.4615385 Z M45.0444375,10.4713702 C45.5595625,10.2330288 46.139625,10.5181731 46.3466875,11.1085817 C46.78025,12.3452163 47,13.6546154 47,15 L47,30 C47,30.6377885 46.55225,31.1538462 46,31.1538462 C45.44775,31.1538462 45,30.6377885 45,30 L45,15 C45,13.9526683 44.829125,12.9345433 44.4921875,11.9739663 C44.2851875,11.3829808 44.53225,10.7107933 45.0444375,10.4713702 Z M38,4.61538462 C40.0425,4.61538462 42.0425,5.42610577 43.631375,6.89884615 C44.0615625,7.29829327 44.130375,8.02449519 43.7846875,8.52144231 C43.4385,9.01838942 42.8105625,9.09663462 42.3784375,8.69834135 C41.1255,7.53663462 39.6118125,6.92307692 38,6.92307692 C34.140125,6.92307692 31,10.5462981 31,15 L31,17.3076923 C31,17.9449038 30.55225,18.4615385 30,18.4615385 C29.44775,18.4615385 29,17.9449038 29,17.3076923 L29,15 C29,9.27418269 33.037625,4.61538462 38,4.61538462 Z M33.5966875,3.36519231 C33.0918125,3.61759615 32.5019375,3.35394231 32.27975,2.76966346 C32.0585625,2.18603365 32.2895,1.50540865 32.795875,1.25019231 C34.4409375,0.420865385 36.191875,0 38,0 C45.1684375,0 51,6.72872596 51,15 C51,15.6372115 50.55225,16.1538462 50,16.1538462 C49.44775,16.1538462 49,15.6372115 49,15 C49,8.00141827 44.0654375,2.30769231 38,2.30769231 C36.46925,2.30769231 34.9878125,2.66322115 33.5966875,3.36519231 Z M29.7226875,4.90947115 C30.13425,5.33430288 30.1689375,6.06389423 29.8008125,6.53884615 C27.994625,8.86680288 27,11.8719952 27,15 L27,25.3846154 C27,26.0218269 26.55225,26.5384615 26,26.5384615 C25.44775,26.5384615 25,26.0218269 25,25.3846154 L25,15 C25,11.3029327 26.1758125,7.75182692 28.3105625,4.99961538 C28.67925,4.52524038 29.3105625,4.48355769 29.7226875,4.90947115 Z" id="ic_fingerprint"></path>
                </g>
            </g>
        </g>
    </g>
</svg>
