<?xml version="1.0" encoding="UTF-8"?>
<svg width="32px" height="24px" viewBox="0 0 32 24" version="1.1" xmlns="http://www.w3.org/2000/svg">
    <!-- Generator: Sketch 47.1 (45422) - http://www.bohemiancoding.com/sketch -->
    <title>ic_macaddress *hover</title>
    <desc>Created with Sketch.</desc>
    <defs>
        <linearGradient x1="131.426968%" y1="-34.1782798%" x2="0%" y2="100%" id="linearGradient-1">
            <stop stop-color="#1B84FA" stop-opacity="0" offset="0%"></stop>
            <stop stop-color="#1B84FA" offset="100%"></stop>
        </linearGradient>
    </defs>
    <g id="Identifiers" stroke="none" stroke-width="1" fill="none" fill-rule="evenodd">
        <g id="Add-Identifier-Type" transform="translate(-374.000000, -242.000000)" fill-rule="nonzero" fill="url(#linearGradient-1)">
            <g id="pop-up" transform="translate(100.000000, 125.000000)">
                <g id="Mac-Address" transform="translate(246.000000, 113.000000)">
                    <path d="M59.6307692,10.36 C59.8769231,10.48 60,10.84 60,11.2 C60,11.56 59.8769231,11.8 59.6307692,12.04 L57.9076923,13.72 C57.4153846,14.2 56.6769231,14.2 56.1846154,13.72 C53.1076923,10.72 48.8,8.8 44,8.8 C39.2,8.8 34.8923077,10.72 31.8153846,13.72 C31.3230769,14.2 30.5846154,14.2 30.0923077,13.72 L28.3692308,12.04 C28.1230769,11.8 28,11.56 28,11.2 C28,10.84 28.1230769,10.6 28.3692308,10.36 C32.3076923,6.4 37.8461538,4 44,4 C50.1538462,4 55.5692308,6.4 59.6307692,10.36 Z M44,13.6 L44,13.6 C47.4461538,13.6 50.4,14.92 52.6153846,17.08 C53.1076923,17.56 53.1076923,18.28 52.6153846,18.76 L50.8923077,20.44 C50.4,20.92 49.6615385,20.92 49.1692308,20.44 C47.8153846,19.24 45.9692308,18.4 44,18.4 C42.0307692,18.4 40.1846154,19.12 38.8307692,20.44 C38.3384615,20.92 37.6,20.92 37.1076923,20.44 L35.3846154,18.76 C34.8923077,18.28 34.8923077,17.56 35.3846154,17.08 C37.6,14.92 40.5538462,13.6 44,13.6 Z M44,28 C42.6405298,28 41.5384615,26.9254834 41.5384615,25.6 C41.5384615,24.2745166 42.6405298,23.2 44,23.2 C45.3594702,23.2 46.4615385,24.2745166 46.4615385,25.6 C46.4615385,26.9254834 45.3594702,28 44,28 Z" id="ic_macaddress-*hover"></path>
                </g>
            </g>
        </g>
    </g>
</svg>
