<?xml version="1.0" encoding="UTF-8"?>
<svg width="48px" height="36px" viewBox="0 0 48 36" version="1.1" xmlns="http://www.w3.org/2000/svg">
    <!-- Generator: Sketch 47.1 (45422) - http://www.bohemiancoding.com/sketch -->
    <title>ic_identifiers</title>
    <desc>Created with Sketch.</desc>
    <defs>
        <linearGradient x1="131.426968%" y1="-34.1782798%" x2="0%" y2="100%" id="linearGradient-1">
            <stop stop-color="#FFFFFF" stop-opacity="0" offset="0%"></stop>
            <stop stop-color="#FFFFFF" offset="100%"></stop>
        </linearGradient>
    </defs>
    <g id="Intelico-Admin" stroke="none" stroke-width="1" fill="none" fill-rule="evenodd">
        <g transform="translate(-386.000000, -756.000000)" id="Companies-Copy-2" fill="url(#linearGradient-1)">
            <g transform="translate(340.000000, 720.000000)">
                <path d="M91.999,70 L48,69.999 L48,42 L66,42 L66,44 C66,45.105 66.895,46 68,46 L72,46 C73.104,46 74,45.105 74,44 L74,42 L91.999,42 L92,42.001 L91.999,70 Z M91.999,40 C93.104,40 94,40.896 94,42.001 L94,69.999 C94,71.104 93.104,72 91.999,72 L48,72 C46.895,72 46,71.104 46,69.999 L46,42.001 C46,40.896 46.895,40 48,40 L66,40 L66,38 C66,36.895 66.895,36 68,36 L72,36 C73.104,36 74,36.895 74,38 L74,40 L91.999,40 Z M59,54 C57.8964706,54 57,54.8964706 57,56 C57,57.1035294 57.8964706,58 59,58 C60.1035294,58 61,57.1035294 61,56 C61,54.8964706 60.1035294,54 59,54 Z M53.6195,57.28475 C53.261,57.22475 53,56.91575 53,56.55275 L53,55.4975 C53,55.40675 53.0165,55.319 53.0465,55.238 C53.1365,54.995 53.35025,54.8105 53.6195,54.7655 L54.452,54.62525 C54.53675,54.34175 54.647,54.06875 54.785,53.8055 L54.284,53.1005 C54.07325,52.805 54.1085,52.4015 54.36425,52.14575 L55.1135,51.39875 C55.2515,51.2585 55.439,51.1805 55.637,51.1805 C55.793,51.1805 55.943,51.2285 56.06825,51.3185 L56.75825,51.815 C57.0185,51.67475 57.2915,51.55925 57.57275,51.4715 L57.71825,50.6195 C57.77825,50.261 58.0865,50 58.45025,50 L59.5055,50 C59.8685,50 60.1775,50.261 60.2375,50.6195 L60.37775,51.45125 C60.671,51.539 60.9545,51.65675 61.22525,51.8 L61.922,51.3035 C62.04725,51.2135 62.195,51.1655 62.35025,51.1655 C62.54825,51.1655 62.73425,51.2435 62.8745,51.38375 L63.6215,52.13075 C63.8795,52.3865 63.9125,52.79 63.70175,53.0855 L63.20525,53.78 C63.34325,54.041 63.45575,54.314 63.5435,54.5975 L64.38575,54.74 C64.74425,54.80075 65.00525,55.109 65,55.472 L65,56.52725 C65,56.891 64.73975,57.19925 64.38125,57.25925 L63.539,57.40025 C63.4535,57.68075 63.338,57.953 63.20075,58.21625 C63.20075,58.21625 63.20075,58.217 63.20075,58.217 L63.6965,58.91375 C63.90725,59.21 63.872,59.6135 63.61625,59.86925 C63.6485,59.837 63.6665,59.79725 63.69125,59.76125 C63.6665,59.79725 63.6485,59.837 63.61625,59.86925 L62.86925,60.61625 C62.729,60.7565 62.54375,60.8345 62.34575,60.8345 C62.18975,60.8345 62.03975,60.7865 61.9145,60.6965 L61.22,60.2 C60.959,60.338 60.686,60.4505 60.4025,60.53825 L60.26,61.3805 C60.2,61.739 59.89175,62 59.528,62 L58.46975,62 C58.10675,62 57.7985,61.739 57.73775,61.3805 L57.5975,60.53825 C57.3245,60.4535 57.059,60.3455 56.8055,60.21275 L56.10125,60.71375 C55.976,60.8045 55.82825,60.85175 55.67225,60.85175 C55.52375,60.85175 55.3895,60.7955 55.26875,60.7145 C55.30925,60.7415 55.3445,60.77675 55.38875,60.7955 C55.30025,60.75875 55.2185,60.704 55.14875,60.6335 L54.89975,60.3845 L54.40175,59.8865 C54.143,59.63075 54.11075,59.22725 54.3215,58.93175 L54.815,58.24475 C54.67475,57.98375 54.55925,57.71075 54.4715,57.43025 L53.6195,57.28475 Z M86.9997,51 C87.5517,51 87.9997,51.448 87.9997,52 C87.9997,52.552 87.5517,53 86.9997,53 L68.9997,53 C68.4477,53 67.9997,52.552 67.9997,52 C67.9997,51.448 68.4477,51 68.9997,51 L86.9997,51 Z M68.9997,57 C68.4477,57 67.9997,56.552 67.9997,56 C67.9997,55.448 68.4477,55 68.9997,55 L76.9997,55 C77.5517,55 77.9997,55.448 77.9997,56 C77.9997,56.552 77.5517,57 76.9997,57 L68.9997,57 Z M82.9997,59 C83.5517,59 83.9997,59.448 83.9997,60 C83.9997,60.552 83.5517,61 82.9997,61 L68.9997,61 C68.4477,61 67.9997,60.552 67.9997,60 C67.9997,59.448 68.4477,59 68.9997,59 L82.9997,59 Z" id="ic_identifiers"></path>
            </g>
        </g>
    </g>
</svg>
