<?xml version="1.0" encoding="UTF-8"?>
<svg width="26px" height="32px" viewBox="0 0 26 32" version="1.1" xmlns="http://www.w3.org/2000/svg">
    <!-- Generator: Sketch 47.1 (45422) - http://www.bohemiancoding.com/sketch -->
    <title>ic_hand</title>
    <desc>Created with Sketch.</desc>
    <defs>
        <linearGradient x1="131.426968%" y1="-34.1782798%" x2="0%" y2="100%" id="linearGradient-1">
            <stop stop-color="#AAABB3" stop-opacity="0" offset="0%"></stop>
            <stop stop-color="#AAABB3" offset="100%"></stop>
        </linearGradient>
    </defs>
    <g id="Identifiers" stroke="none" stroke-width="1" fill="none" fill-rule="evenodd" opacity="0.5">
        <g id="Add-Identifier-Type" transform="translate(-377.000000, -474.000000)" fill-rule="nonzero" fill="url(#linearGradient-1)">
            <g id="pop-up" transform="translate(100.000000, 61.000000)">
                <g id="Hand-Vein" transform="translate(254.000000, 413.000000)">
                    <path d="M47.9001439,5.20930233 C47.0311218,4.35880399 45.7275886,4.1461794 44.641311,4.57142857 C44.641311,3.93355482 44.4240554,3.29568106 43.7722888,2.65780731 C43.3377778,2.23255814 42.4687557,1.80730897 41.382478,1.80730897 C40.7307114,1.80730897 40.2962004,2.01993355 39.8616893,2.01993355 C39.8616893,1.59468439 39.6444338,1.3820598 39.4271783,0.956810631 C38.3409006,-0.318936877 36.1683453,-0.318936877 35.0820677,0.956810631 C34.6475566,1.3820598 34.2130456,1.80730897 34.2130456,2.23255814 C33.7785345,2.23255814 33.3440234,2.01993355 32.9095124,2.01993355 C31.8232347,2.01993355 31.1714682,2.44518272 30.5197016,3.08305648 C29.4334239,4.1461794 29.4334239,5.84717608 29.4334239,5.84717608 L29.4334239,13.9269103 C28.7816573,13.2890365 27.6953797,12.2259136 26.174591,12.2259136 C25.7400799,12.2259136 25.0883133,12.4385382 24.6538023,12.6511628 C23.7847802,13.076412 23.3502691,13.7142857 23.1330136,14.5647841 C22.481247,16.6910299 24.4365468,19.6677741 24.4365468,19.8803987 C24.6538023,20.0930233 27.0436131,25.6212625 29.2161684,27.9601329 C31.3887237,30.5116279 33.7785345,32 39.8616893,32 C46.1620997,32 48.9864215,28.5980066 48.9864215,21.1561462 L48.9864215,9.46179402 C48.9864215,9.24916944 49.2036771,6.69767442 47.9001439,5.20930233 L47.9001439,5.20930233 Z M35.9510898,4.35880399 C35.9510898,3.72093023 35.7338343,2.23255814 37.0373674,2.23255814 C38.1236451,2.23255814 38.1236451,3.29568106 38.1236451,4.35880399 L38.1236451,12.8637874 C38.1236451,13.5016611 38.5581561,13.9269103 39.2099227,13.9269103 C39.8616893,13.9269103 40.2962004,13.5016611 40.2962004,12.8637874 L40.2962004,4.78405316 C40.2962004,4.78405316 40.2962004,3.93355482 41.382478,3.93355482 C42.6860112,3.93355482 42.4687557,5.84717608 42.4687557,5.84717608 L42.4687557,12.8637874 C42.4687557,13.5016611 42.9032667,13.9269103 43.5550333,13.9269103 C44.2067999,13.9269103 44.641311,13.5016611 44.641311,12.8637874 L44.641311,7.76079734 C44.641311,7.54817276 44.641311,6.48504983 45.7275886,6.48504983 C46.8138662,6.48504983 46.8138662,8.61129568 46.8138662,8.61129568 L46.8138662,21.1561462 C46.8138662,28.3853821 43.9895444,29.8737542 39.8616893,29.8737542 C34.6475566,29.8737542 32.6922569,28.8106312 30.9542126,26.4717608 C28.9989129,24.345515 26.3918465,18.8172757 26.3918465,18.6046512 C25.7400799,17.9667774 24.8710578,16.0531561 25.0883133,15.2026578 C25.0883133,14.9900332 25.3055689,14.7774086 25.5228244,14.5647841 C25.7400799,14.5647841 25.9573355,14.3521595 25.9573355,14.3521595 C26.8263576,14.3521595 27.6953797,15.4152824 27.9126352,15.8405316 L29.2161684,17.7541528 C29.4334239,18.179402 30.0851905,18.3920266 30.5197016,18.179402 C31.3887237,18.179402 31.6059792,17.7541528 31.6059792,17.3289037 L31.6059792,6.27242525 C31.6059792,5.42192691 31.6059792,4.1461794 32.6922569,4.1461794 C33.561279,4.1461794 33.7785345,4.78405316 33.7785345,5.84717608 L33.7785345,12.8637874 C33.7785345,13.5016611 34.2130456,13.9269103 34.8648122,13.9269103 C35.5165787,13.9269103 35.9510898,13.5016611 35.9510898,12.8637874 L35.9510898,4.35880399 Z" id="ic_hand"></path>
                </g>
            </g>
        </g>
    </g>
</svg>
