<?xml version="1.0" encoding="UTF-8"?>
<svg width="48px" height="42px" viewBox="0 0 48 42" version="1.1" xmlns="http://www.w3.org/2000/svg">
    <!-- Generator: Sketch 47.1 (45422) - http://www.bohemiancoding.com/sketch -->
    <title>ic_ident_type</title>
    <desc>Created with Sketch.</desc>
    <defs>
        <linearGradient x1="131.426968%" y1="-34.1782798%" x2="0%" y2="100%" id="linearGradient-1">
            <stop stop-color="#1B84FA" stop-opacity="0" offset="0%"></stop>
            <stop stop-color="#1B84FA" offset="100%"></stop>
        </linearGradient>
    </defs>
    <g id="Intelico-Admin" stroke="none" stroke-width="1" fill="none" fill-rule="evenodd">
        <g transform="translate(-546.000000, -372.000000)" id="Lanes" fill="url(#linearGradient-1)">
            <g transform="translate(500.000000, 345.000000)">
                <path d="M86.0015,32.4481 C87.4085,32.4481 88.5515,33.5911 88.5515,34.9981 C88.5515,36.4051 87.4085,37.5481 86.0015,37.5481 C84.5945,37.5481 83.4515,36.4051 83.4515,34.9981 C83.4515,33.5911 84.5945,32.4481 86.0015,32.4481 M78.8255,36.7131 C78.3475,36.6331 77.9995,36.2211 77.9995,35.7371 L77.9995,34.3301 C77.9995,34.2091 78.0215,34.0921 78.0615,33.9841 C78.1815,33.6601 78.4665,33.4141 78.8255,33.3541 L79.9355,33.1671 C80.0485,32.7891 80.1955,32.4251 80.3795,32.0741 L79.7115,31.1341 C79.4305,30.7401 79.4775,30.2021 79.8185,29.8611 L80.8175,28.8651 C81.0015,28.6781 81.2515,28.5741 81.5155,28.5741 C81.7235,28.5741 81.9235,28.6381 82.0905,28.7581 L83.0105,29.4201 C83.3575,29.2331 83.7215,29.0791 84.0965,28.9621 L84.2905,27.8261 C84.3705,27.3481 84.7815,27.0001 85.2665,27.0001 L86.6735,27.0001 C87.1575,27.0001 87.5695,27.3481 87.6495,27.8261 L87.8365,28.9351 C88.2275,29.0521 88.6055,29.2091 88.9665,29.4001 L89.8955,28.7381 C90.0625,28.6181 90.2595,28.5541 90.4665,28.5541 C90.7305,28.5541 90.9785,28.6581 91.1655,28.8451 L92.1615,29.8411 C92.5055,30.1821 92.5495,30.7201 92.2685,31.1141 L91.6065,32.0401 C91.7905,32.3881 91.9405,32.7521 92.0575,33.1301 L93.1805,33.3201 C93.6585,33.4011 94.0065,33.8121 93.9995,34.2961 L93.9995,35.7031 C93.9995,36.1881 93.6525,36.5991 93.1745,36.6791 L92.0515,36.8671 C91.9375,37.2411 91.7835,37.6041 91.6005,37.9551 C91.6005,37.9551 91.6005,37.9561 91.6005,37.9561 L92.2615,38.8851 C92.5425,39.2801 92.4955,39.8181 92.1545,40.1591 C92.1975,40.1161 92.2215,40.0631 92.2545,40.0151 C92.2215,40.0631 92.1975,40.1161 92.1545,40.1591 L91.1585,41.1551 C90.9715,41.3421 90.7245,41.4461 90.4605,41.4461 C90.2525,41.4461 90.0525,41.3821 89.8855,41.2621 L88.9595,40.6001 C88.6115,40.7841 88.2475,40.9341 87.8695,41.0511 L87.6795,42.1741 C87.5995,42.6521 87.1885,43.0001 86.7035,43.0001 L85.2925,43.0001 C84.8085,43.0001 84.3975,42.6521 84.3165,42.1741 L84.1295,41.0511 C83.7655,40.9381 83.4115,40.7941 83.0735,40.6171 L82.1345,41.2851 C81.9675,41.4061 81.7705,41.4691 81.5625,41.4691 C81.3645,41.4691 81.1855,41.3941 81.0245,41.2861 C81.0785,41.3221 81.1255,41.3691 81.1845,41.3941 C81.0665,41.3451 80.9575,41.2721 80.8645,41.1781 L80.5325,40.8461 L79.8685,40.1821 C79.5235,39.8411 79.4805,39.3031 79.7615,38.9091 L80.4195,37.9931 C80.2325,37.6451 80.0785,37.2811 79.9615,36.9071 L78.8255,36.7131 Z M68.9996,54 C68.4476,54 67.9996,53.552 67.9996,53 C67.9996,52.448 68.4476,52 68.9996,52 L76.9996,52 C77.5516,52 77.9996,52.448 77.9996,53 C77.9996,53.552 77.5516,54 76.9996,54 L68.9996,54 Z M68.9996,58 C68.4476,58 67.9996,57.552 67.9996,57 C67.9996,56.448 68.4476,56 68.9996,56 L82.9996,56 C83.5516,56 83.9996,56.448 83.9996,57 C83.9996,57.552 83.5516,58 82.9996,58 L68.9996,58 Z M93.5691,41.5731 C93.7391,41.4031 93.8791,41.2131 94.0001,41.0161 L94.0001,66.9991 C94.0001,68.1041 93.1041,69.0001 91.9991,69.0001 L48.0001,69.0001 C46.8951,69.0001 46.0001,68.1041 46.0001,66.9991 L46.0001,39.0011 C46.0001,37.8961 46.8951,37.0001 48.0001,37.0001 L66.0001,37.0001 L66.0001,35.0001 C66.0001,33.8951 66.8951,33.0001 68.0001,33.0001 L72.0001,33.0001 C73.1041,33.0001 74.0001,33.8951 74.0001,35.0001 L74.0001,37.0001 L76.2771,37.0001 C76.5761,37.6441 77.0991,38.1661 77.7571,38.4621 C77.6931,38.6381 77.6521,38.8181 77.6211,39.0001 L74.0001,39.0001 L74.0001,41.0001 C74.0001,42.1051 73.1041,43.0001 72.0001,43.0001 L68.0001,43.0001 C66.8951,43.0001 66.0001,42.1051 66.0001,41.0001 L66.0001,39.0001 L48.0001,39.0001 L48.0001,66.9991 L91.9991,67.0001 L92.0001,43.0071 C92.2041,42.8831 92.3991,42.7431 92.5731,42.5691 L93.5691,41.5731 Z M58.6665,63 C55.8385,63 53.3625,61.547 51.9995,59.372 C53.2235,58.387 54.8875,58 56.7205,58 L60.6125,58 C62.4455,58 64.1085,58.387 65.3325,59.372 C63.9705,61.547 61.4945,63 58.6665,63 Z M64.4993,48.9027 C64.4993,52.1627 61.8883,57.1667 58.6663,57.1667 C55.4443,57.1667 52.8333,52.1627 52.8333,48.9027 C52.8333,45.6427 55.4443,42.9997 58.6663,42.9997 C61.8883,42.9997 64.4993,45.6427 64.4993,48.9027 Z M87.9996,49 C87.9996,49.552 87.5516,50 86.9996,50 L68.9996,50 C68.4476,50 67.9996,49.552 67.9996,49 C67.9996,48.448 68.4476,48 68.9996,48 L86.9996,48 C87.5516,48 87.9996,48.448 87.9996,49 Z" id="ic_ident_type"></path>
            </g>
        </g>
    </g>
</svg>
