<?xml version="1.0" encoding="UTF-8"?>
<svg width="48px" height="48px" viewBox="0 0 48 48" version="1.1" xmlns="http://www.w3.org/2000/svg">
    <!-- Generator: Sketch 47.1 (45422) - http://www.bohemiancoding.com/sketch -->
    <title>8</title>
    <desc>Created with Sketch.</desc>
    <defs>
        <linearGradient x1="131.426968%" y1="-34.1782798%" x2="0%" y2="100%" id="linearGradient-1">
            <stop stop-color="#1B84FA" stop-opacity="0" offset="0%"></stop>
            <stop stop-color="#1B84FA" offset="100%"></stop>
        </linearGradient>
    </defs>
    <g id="Intelico-Admin" stroke="none" stroke-width="1" fill="none" fill-rule="evenodd">
        <g transform="translate(-866.000000, -372.000000)" id="Lanes" fill="url(#linearGradient-1)">
            <g transform="translate(820.000000, 345.000000)">
                <path d="M86.0018,37.549 C84.5948,37.549 83.4518,36.406 83.4518,34.999 C83.4518,33.592 84.5948,32.449 86.0018,32.449 C87.4088,32.449 88.5518,33.592 88.5518,34.999 C88.5518,36.406 87.4088,37.549 86.0018,37.549 M93.1808,33.321 C93.6588,33.401 94.0068,33.812 93.9998,34.297 L93.9998,35.704 C93.9998,36.189 93.6528,36.6 93.1748,36.68 L92.0518,36.867 C91.9378,37.242 91.7838,37.606 91.5998,37.957 L92.2618,38.886 C92.5428,39.28 92.4958,39.818 92.1548,40.159 L91.1588,41.155 C90.9718,41.343 90.7248,41.446 90.4608,41.446 C90.2528,41.446 90.0528,41.383 89.8858,41.262 L88.9598,40.601 C88.6118,40.784 88.2478,40.935 87.8698,41.052 L87.6798,42.175 C87.5998,42.653 87.1888,43 86.7038,43 L85.2928,43 C84.8088,43 84.3978,42.653 84.3168,42.175 L84.1298,41.052 C83.7658,40.938 83.4118,40.794 83.0738,40.617 L82.1348,41.286 C81.9678,41.406 81.7708,41.47 81.5628,41.47 C81.3658,41.47 81.1888,41.396 81.0278,41.289 C80.9728,41.252 80.9128,41.226 80.8648,41.179 L80.5328,40.847 L79.8688,40.183 C79.5238,39.842 79.4808,39.304 79.7618,38.909 L80.4198,37.994 C80.2328,37.646 80.0788,37.282 79.9618,36.907 L78.8258,36.713 C78.3478,36.633 77.9998,36.222 77.9998,35.737 L77.9998,34.33 C77.9998,34.209 78.0218,34.093 78.0618,33.985 C78.1818,33.661 78.4668,33.414 78.8258,33.354 L79.9348,33.167 C80.0488,32.789 80.1958,32.425 80.3798,32.074 L79.7118,31.135 C79.4308,30.741 79.4778,30.202 79.8188,29.862 L80.8178,28.866 C81.0018,28.678 81.2518,28.575 81.5158,28.575 C81.7238,28.575 81.9238,28.638 82.0908,28.759 L83.0108,29.42 C83.3578,29.233 83.7218,29.079 84.0968,28.962 L84.2908,27.826 C84.3708,27.348 84.7818,27 85.2668,27 L86.6738,27 C87.1578,27 87.5698,27.348 87.6498,27.826 L87.8368,28.936 C88.2278,29.053 88.6058,29.21 88.9668,29.4 L89.8958,28.739 C90.0628,28.618 90.2598,28.555 90.4668,28.555 C90.7308,28.555 90.9788,28.658 91.1658,28.845 L92.1618,29.841 C92.5058,30.182 92.5498,30.721 92.2688,31.115 L91.6068,32.041 C91.7908,32.388 91.9408,32.753 92.0578,33.13 L93.1808,33.321 Z M75,41.218 C73.895,41.218 73,40.323 73,39.218 L77.592,39.218 C77.528,39.919 77.713,40.629 78.137,41.218 L75,41.218 Z M59.508,47.439 C59.189,47.196 59,46.809 59,46.397 C59,45.686 59.552,45.109 60.232,45.109 L63,45.109 L63,37.109 C63,36.004 63.895,35.109 65,35.109 L67,35.109 C68.105,35.109 69,36.004 69,37.109 L69,45.109 L71.767,45.109 C72.162,45.109 72.532,45.306 72.764,45.639 C73.165,46.215 73.043,47.02 72.492,47.439 L66.725,52.863 C66.509,53.027 66.254,53.109 66,53.109 C65.746,53.109 65.491,53.027 65.275,52.863 L59.508,47.439 Z M84,44.705 C84.393,44.893 84.831,45 85.293,45 L86,45 L86,65.218 C86,67.427 84.209,69.218 82,69.218 L67,69.218 L67,73 L75,73 C75.552,73 76,73.448 76,74 C76,74.553 75.552,75 75,75 L57,75 C56.448,75 56,74.553 56,74 C56,73.448 56.448,73 57,73 L65,73 L65,69.218 L50,69.218 C47.791,69.218 46,67.427 46,65.218 L46,43.218 C46,41.009 47.791,39.218 50,39.218 L59,39.218 C59,40.323 58.105,41.218 57,41.218 L50,41.218 C48.895,41.218 48,42.113 48,43.218 L48,61.218 L84,61.218 L84,44.705 Z M84,65.218 L84,63.218 L48,63.218 L48,65.218 C48,66.321 48.897,67.218 50,67.218 L82,67.218 C83.103,67.218 84,66.321 84,65.218 Z" id="8"></path>
            </g>
        </g>
    </g>
</svg>
