<?xml version="1.0" encoding="UTF-8"?>
<svg width="46px" height="48px" viewBox="0 0 46 48" version="1.1" xmlns="http://www.w3.org/2000/svg">
    <!-- Generator: Sketch 47.1 (45422) - http://www.bohemiancoding.com/sketch -->
    <title>out_agnt</title>
    <desc>Created with Sketch.</desc>
    <defs>
        <linearGradient x1="131.426968%" y1="-34.1782798%" x2="0%" y2="100%" id="linearGradient-1">
            <stop stop-color="#ffffff" stop-opacity="0" offset="0%"></stop>
            <stop stop-color="#ffffff" offset="100%"></stop>
        </linearGradient>
    </defs>
    <g id="Intelico-Admin" stroke="none" stroke-width="1" fill="none" fill-rule="evenodd">
        <g transform="translate(-227.000000, -747.000000)" id="Lanes-Copy-3" fill="url(#linearGradient-1)">
            <g transform="translate(180.000000, 720.000000)">
                <path d="M66.275,38.246 C66.491,38.082 66.746,38 67,38 C67.254,38 67.509,38.082 67.725,38.246 L73.492,43.67 C74.043,44.089 74.165,44.894 73.764,45.47 C73.532,45.803 73.162,46 72.767,46 L70,46 L70,54 C70,55.105 69.105,56 68,56 L66,56 C64.895,56 64,55.105 64,54 L64,46 L61.232,46 C60.552,46 60,45.423 60,44.712 C60,44.3 60.189,43.913 60.508,43.67 L66.275,38.246 Z M85,61.218 L85,44.705 C85.393,44.893 85.831,45 86.293,45 L87,45 L87,65.218 C87,67.427 85.209,69.218 83,69.218 L68,69.218 L68,73 L76,73 C76.552,73 77,73.448 77,74 C77,74.553 76.552,75 76,75 L58,75 C57.448,75 57,74.553 57,74 C57,73.448 57.448,73 58,73 L66,73 L66,69.218 L51,69.218 C48.791,69.218 47,67.427 47,65.218 L47,43.218 C47,41.009 48.791,39.218 51,39.218 L60,39.218 C60,40.323 59.105,41.218 58,41.218 L51,41.218 C49.895,41.218 49,42.113 49,43.218 L49,61.218 L85,61.218 Z M85,65.218 L85,63.218 L49,63.218 L49,65.218 C49,66.321 49.897,67.218 51,67.218 L83,67.218 C84.103,67.218 85,66.321 85,65.218 Z M88.89,39 C90.3563333,39 91.6873333,39.3093333 92.6666667,40.098 C91.5763333,41.8373333 89.5956667,43 87.3333333,43 C85.071,43 83.0903333,41.8373333 82,40.098 C82.9793333,39.3093333 84.3103333,39 85.7766667,39 L88.89,39 Z M87.6666667,38.3333333 C85.0893333,38.3333333 83,34.3303333 83,31.7223333 C83,29.1143333 85.0893333,27 87.6666667,27 C90.244,27 92.3333333,29.1143333 92.3333333,31.7223333 C92.3333333,34.3303333 90.244,38.3333333 87.6666667,38.3333333 Z M80.137,41.218 L76,41.218 C74.895,41.218 74,40.323 74,39.218 L79.592,39.218 C79.528,39.919 79.713,40.629 80.137,41.218 Z" id="out_agnt"></path>
            </g>
        </g>
    </g>
</svg>
