<?xml version="1.0" encoding="UTF-8"?>
<svg width="40px" height="48px" viewBox="0 0 40 48" version="1.1" xmlns="http://www.w3.org/2000/svg">
    <!-- Generator: Sketch 47.1 (45422) - http://www.bohemiancoding.com/sketch -->
    <title>ic_people_type</title>
    <desc>Created with Sketch.</desc>
    <defs>
        <linearGradient x1="131.426968%" y1="-34.1782798%" x2="0%" y2="100%" id="linearGradient-1">
            <stop stop-color="#1B84FA" stop-opacity="0" offset="0%"></stop>
            <stop stop-color="#1B84FA" offset="100%"></stop>
        </linearGradient>
    </defs>
    <g id="Intelico-Admin" stroke="none" stroke-width="1" fill="none" fill-rule="evenodd">
        <g transform="translate(-234.000000, -372.000000)" id="People" fill="url(#linearGradient-1)">
            <g transform="translate(180.000000, 345.000000)">
                <path d="M86.0016,37.549 C84.5946,37.549 83.4516,36.406 83.4516,34.999 C83.4516,33.592 84.5946,32.449 86.0016,32.449 C87.4086,32.449 88.5516,33.592 88.5516,34.999 C88.5516,36.406 87.4086,37.549 86.0016,37.549 M93.1806,33.321 C93.6586,33.401 94.0066,33.812 93.9996,34.297 L93.9996,35.704 C93.9996,36.189 93.6526,36.6 93.1746,36.68 L92.0516,36.867 C91.9376,37.242 91.7836,37.606 91.5996,37.957 L92.2616,38.886 C92.5426,39.28 92.4956,39.818 92.1546,40.159 L91.1586,41.155 C90.9716,41.343 90.7246,41.446 90.4606,41.446 C90.2526,41.446 90.0526,41.383 89.8856,41.262 L88.9596,40.601 C88.6116,40.784 88.2476,40.935 87.8696,41.052 L87.6796,42.175 C87.5996,42.653 87.1886,43 86.7036,43 L85.2926,43 C84.8086,43 84.3976,42.653 84.3166,42.175 L84.1296,41.052 C83.7656,40.938 83.4116,40.794 83.0736,40.617 L82.1346,41.286 C81.9676,41.406 81.7706,41.47 81.5626,41.47 C81.3646,41.47 81.1856,41.395 81.0246,41.287 C81.0786,41.323 81.1256,41.37 81.1846,41.394 C81.0666,41.345 80.9576,41.272 80.8646,41.179 L80.5326,40.847 L79.8686,40.183 C79.5236,39.842 79.4806,39.304 79.7616,38.909 L80.4196,37.994 C80.2326,37.646 80.0786,37.282 79.9616,36.907 L78.8256,36.713 C78.3476,36.633 77.9996,36.222 77.9996,35.737 L77.9996,34.33 C77.9996,34.209 78.0216,34.093 78.0616,33.985 C78.1816,33.661 78.4666,33.414 78.8256,33.354 L79.9346,33.167 C80.0486,32.789 80.1956,32.425 80.3796,32.074 L79.7116,31.135 C79.4306,30.741 79.4776,30.202 79.8186,29.862 L80.8176,28.866 C81.0016,28.678 81.2516,28.575 81.5156,28.575 C81.7236,28.575 81.9236,28.638 82.0906,28.759 L83.0106,29.42 C83.3576,29.233 83.7216,29.079 84.0966,28.962 L84.2906,27.826 C84.3706,27.348 84.7816,27 85.2666,27 L86.6736,27 C87.1576,27 87.5696,27.348 87.6496,27.826 L87.8366,28.936 C88.2276,29.053 88.6056,29.21 88.9666,29.4 L89.8956,28.739 C90.0626,28.618 90.2596,28.555 90.4666,28.555 C90.7306,28.555 90.9786,28.658 91.1656,28.845 L92.1616,29.841 C92.5056,30.182 92.5496,30.721 92.2686,31.115 L91.6066,32.041 C91.7906,32.388 91.9406,32.753 92.0576,33.13 L93.1806,33.321 Z M70,61.0005 C62.268,61.0005 56,48.9915 56,41.1675 C56,33.3435 62.268,27.0005 70,27.0005 C72.877,27.0005 75.55,27.8815 77.775,29.3875 C77.471,30.0945 77.444,30.8945 77.721,31.6215 C76.69,32.1015 76,33.1415 76,34.3305 L76,35.7375 C76,36.9395 76.706,37.9905 77.757,38.4625 C77.363,39.5395 77.614,40.7645 78.461,41.6035 L79.45,42.5925 C80.016,43.1585 80.766,43.4695 81.563,43.4695 C81.917,43.4695 82.263,43.4075 82.589,43.2885 C82.828,43.7975 83.204,44.2215 83.667,44.5215 C82.28,52.0125 76.69,61.0005 70,61.0005 Z M65.33,63.0005 L74.67,63.0005 C79.069,63.0005 83.062,63.9285 86,66.2945 C82.729,71.5125 76.787,75.0005 70,75.0005 C63.213,75.0005 57.271,71.5125 54,66.2945 C56.938,63.9285 60.931,63.0005 65.33,63.0005 Z" id="ic_people_type"></path>
            </g>
        </g>
    </g>
</svg>
