<?xml version="1.0" encoding="UTF-8"?>
<svg width="48px" height="48px" viewBox="0 0 48 48" version="1.1" xmlns="http://www.w3.org/2000/svg">
    <!-- Generator: Sketch 47.1 (45422) - http://www.bohemiancoding.com/sketch -->
    <title>ps</title>
    <desc>Created with Sketch.</desc>
    <defs>
        <linearGradient x1="131.426968%" y1="-34.1782798%" x2="0%" y2="100%" id="linearGradient-1">
            <stop stop-color="#ffffff" stop-opacity="0" offset="0%"></stop>
            <stop stop-color="#ffffff" offset="100%"></stop>
        </linearGradient>
    </defs>
    <g id="Intelico-Admin" stroke="none" stroke-width="1" fill="none" fill-rule="evenodd">
        <g transform="translate(-706.000000, -587.000000)" id="Lanes-Copy-2" fill="url(#linearGradient-1)">
            <g transform="translate(660.000000, 560.000000)">
                <path d="M86.0019,32.449 C87.4089,32.449 88.5519,33.592 88.5519,34.999 C88.5519,36.406 87.4089,37.549 86.0019,37.549 C84.5949,37.549 83.4519,36.406 83.4519,34.999 C83.4519,33.592 84.5949,32.449 86.0019,32.449 M92.3609,39.848 C92.3769,39.812 92.3799,39.773 92.3909,39.736 C92.3799,39.773 92.3769,39.811 92.3609,39.848 M78.8259,36.713 C78.3479,36.633 77.9999,36.222 77.9999,35.737 L77.9999,34.33 C77.9999,34.209 78.0219,34.093 78.0619,33.985 C78.1819,33.661 78.4669,33.414 78.8259,33.354 L79.9349,33.167 C80.0489,32.789 80.1959,32.425 80.3799,32.074 L79.7119,31.135 C79.4309,30.741 79.4779,30.202 79.8189,29.862 L80.8179,28.866 C81.0019,28.678 81.2519,28.575 81.5159,28.575 C81.7239,28.575 81.9239,28.638 82.0909,28.759 L83.0109,29.42 C83.3579,29.233 83.7219,29.079 84.0969,28.962 L84.2909,27.826 C84.3709,27.348 84.7819,27 85.2669,27 L86.6739,27 C87.1579,27 87.5699,27.348 87.6499,27.826 L87.8369,28.936 C88.2279,29.053 88.6059,29.21 88.9669,29.4 L89.8959,28.739 C90.0629,28.618 90.2599,28.555 90.4669,28.555 C90.7309,28.555 90.9789,28.658 91.1659,28.845 L92.1619,29.841 C92.5059,30.182 92.5499,30.721 92.2689,31.115 L91.6069,32.041 C91.7909,32.388 91.9409,32.753 92.0579,33.13 L93.1809,33.321 C93.6589,33.401 94.0069,33.812 93.9999,34.297 L93.9999,35.704 C93.9999,36.189 93.6529,36.6 93.1749,36.68 L92.0519,36.867 C91.9379,37.242 91.7839,37.606 91.5999,37.957 L92.2619,38.886 C92.3919,39.069 92.4449,39.283 92.4369,39.494 C92.4379,39.481 92.4449,39.468 92.4449,39.455 C92.4449,39.468 92.4379,39.481 92.4369,39.494 C92.4339,39.577 92.4139,39.655 92.3909,39.735 C92.3799,39.773 92.3769,39.811 92.3609,39.848 C92.3129,39.96 92.2469,40.066 92.1559,40.157 C92.1559,40.158 92.1559,40.158 92.1549,40.159 L91.1589,41.155 C90.9719,41.343 90.7249,41.446 90.4609,41.446 C90.2529,41.446 90.0529,41.383 89.8859,41.262 L88.9599,40.601 C88.6119,40.784 88.2479,40.935 87.8699,41.052 L87.6799,42.175 C87.5999,42.653 87.1889,43 86.7039,43 L85.2929,43 C84.8089,43 84.3979,42.653 84.3169,42.175 L84.1299,41.052 C83.7659,40.938 83.4119,40.794 83.0739,40.617 L82.1349,41.286 C81.9679,41.406 81.7709,41.47 81.5629,41.47 C81.3659,41.47 81.1889,41.396 81.0279,41.289 C80.9729,41.252 80.9129,41.226 80.8649,41.179 L80.5329,40.847 L79.8689,40.183 C79.5239,39.842 79.4809,39.304 79.7619,38.909 L80.4199,37.994 C80.2329,37.646 80.0789,37.282 79.9619,36.907 L78.8259,36.713 Z M70.0005,63 C62.8205,63 57.0005,51.697 57.0005,44.333 C57.0005,36.969 62.8205,31 70.0005,31 C72.2815,31 74.4225,31.606 76.2855,32.664 C76.1055,33.415 75.9995,34.194 75.9995,35 C75.9995,39.476 78.9415,43.263 82.9955,44.539 C82.8895,51.906 77.1145,63 70.0005,63 Z M60.492,59.405 C58.971,61.52 57.07,63 55,63 C50.03,63 46,54.523 46,49 C46,43.477 50.03,39 55,39 C55.316,39 55.628,39.019 55.936,39.054 C55.341,40.703 55,42.476 55,44.333 C55,48.973 57.1,55.044 60.492,59.405 Z M85.9999,45 C88.3079,45 90.4269,44.21 92.1189,42.897 C93.2939,44.587 94.0009,46.699 94.0009,49 C94.0009,54.523 89.9719,63 85.0009,63 C82.9309,63 81.0299,61.52 79.5089,59.405 C82.7559,55.23 84.7979,49.5 84.9679,44.947 C85.3069,44.982 85.6509,45 85.9999,45 Z M65.3306,65 L74.6706,65 C79.0696,65 83.0626,65.773 86.0006,67.745 C82.7296,72.093 76.7876,75 70.0006,75 C63.2136,75 57.2716,72.093 54.0006,67.745 C56.9386,65.773 60.9316,65 65.3306,65 Z" id="ps"></path>
            </g>
        </g>
    </g>
</svg>
