<?xml version="1.0" encoding="UTF-8"?>
<svg width="41px" height="48px" viewBox="0 0 41 48" version="1.1" xmlns="http://www.w3.org/2000/svg">
    <!-- Generator: Sketch 47.1 (45422) - http://www.bohemiancoding.com/sketch -->
    <title>65</title>
    <desc>Created with Sketch.</desc>
    <defs>
        <linearGradient x1="131.426968%" y1="-34.1782798%" x2="0%" y2="100%" id="linearGradient-1">
            <stop stop-color="#FFFFFF" stop-opacity="0" offset="0%"></stop>
            <stop stop-color="#FFFFFF" offset="100%"></stop>
        </linearGradient>
    </defs>
    <g id="Intelico-Admin" stroke="none" stroke-width="1" fill="none" fill-rule="evenodd">
        <g transform="translate(-390.000000, -532.000000)" id="Companies" fill="url(#linearGradient-1)">
            <g transform="translate(340.000000, 505.000000)">
                <path d="M66.998,51.499 C62.856,51.499 59.498,48.141 59.498,43.999 C59.498,39.857 62.856,36.499 66.998,36.499 C71.14,36.499 74.498,39.857 74.498,43.999 C74.498,48.141 71.14,51.499 66.998,51.499 L66.998,51.499 Z M82.291,45 L83.702,45 C83.794,45 83.883,44.988 83.973,44.98 C83.488,56.854 68.773,73.755 68.137,74.481 C67.53,75.172 66.467,75.174 65.859,74.481 C65.211,73.743 50,56.279 50,44.384 C50,34.798 57.625,27 66.998,27 C69.872,27 72.578,27.739 74.954,29.032 C74.483,29.816 74.393,30.77 74.72,31.623 C74.019,31.951 73.46,32.546 73.184,33.29 C73.061,33.624 72.998,33.974 72.998,34.33 L72.998,35.737 C72.998,36.94 73.704,37.99 74.756,38.463 C74.361,39.541 74.612,40.767 75.461,41.605 L76.117,42.261 L76.449,42.593 C76.655,42.8 76.857,42.921 76.954,42.977 C77.456,43.304 77.998,43.47 78.561,43.47 C78.916,43.47 79.262,43.408 79.588,43.289 C80.072,44.316 81.108,45 82.291,45 Z M90.1789,33.321 C90.6569,33.401 91.0049,33.812 90.9979,34.297 L90.9979,35.704 C90.9979,36.189 90.6509,36.6 90.1729,36.68 L89.0499,36.867 C88.9359,37.242 88.7819,37.606 88.5979,37.957 L89.2599,38.886 C89.5409,39.28 89.4939,39.818 89.1529,40.159 L88.1569,41.155 C87.9699,41.343 87.7229,41.446 87.4589,41.446 C87.2509,41.446 87.0509,41.383 86.8839,41.262 L85.9579,40.601 C85.6099,40.784 85.2459,40.935 84.8679,41.052 L84.6779,42.175 C84.5979,42.653 84.1869,43 83.7019,43 L82.2909,43 C81.8069,43 81.3959,42.653 81.3149,42.175 L81.1279,41.052 C80.7639,40.938 80.4099,40.794 80.0719,40.617 L79.1329,41.286 C78.9659,41.406 78.7689,41.47 78.5609,41.47 C78.3639,41.47 78.1869,41.396 78.0259,41.289 C77.9709,41.252 77.9109,41.226 77.8629,41.179 L77.5309,40.847 L76.8669,40.183 C76.5219,39.842 76.4789,39.304 76.7599,38.909 L77.4179,37.994 C77.2309,37.646 77.0769,37.282 76.9599,36.907 L75.8239,36.713 C75.3459,36.633 74.9979,36.222 74.9979,35.737 L74.9979,34.33 C74.9979,34.209 75.0199,34.093 75.0599,33.985 C75.1799,33.661 75.4649,33.414 75.8239,33.354 L76.9329,33.167 C77.0469,32.789 77.1939,32.425 77.3779,32.074 L76.7099,31.135 C76.4289,30.741 76.4759,30.202 76.8169,29.862 L77.8159,28.866 C77.9999,28.678 78.2499,28.575 78.5139,28.575 C78.7219,28.575 78.9219,28.638 79.0889,28.759 L80.0089,29.42 C80.3559,29.233 80.7199,29.079 81.0949,28.962 L81.2889,27.826 C81.3689,27.348 81.7799,27 82.2649,27 L83.6719,27 C84.1559,27 84.5679,27.348 84.6479,27.826 L84.8349,28.936 C85.2259,29.053 85.6039,29.21 85.9649,29.4 L86.8939,28.739 C87.0609,28.618 87.2579,28.555 87.4649,28.555 C87.7289,28.555 87.9769,28.658 88.1639,28.845 L89.1599,29.841 C89.5039,30.182 89.5479,30.721 89.2669,31.115 L88.6049,32.041 C88.7889,32.388 88.9389,32.753 89.0559,33.13 L90.1789,33.321 Z M82.9999,37.549 C84.4069,37.549 85.5499,36.406 85.5499,34.999 C85.5499,33.592 84.4069,32.449 82.9999,32.449 C81.5929,32.449 80.4499,33.592 80.4499,34.999 C80.4499,36.406 81.5929,37.549 82.9999,37.549 Z" id="65"></path>
            </g>
        </g>
    </g>
</svg>
