<?xml version="1.0" encoding="UTF-8"?>
<svg width="48px" height="48px" viewBox="0 0 48 48" version="1.1" xmlns="http://www.w3.org/2000/svg">
    <!-- Generator: Sketch 47.1 (45422) - http://www.bohemiancoding.com/sketch -->
    <title>asty</title>
    <desc>Created with Sketch.</desc>
    <defs>
        <linearGradient x1="131.426968%" y1="-34.1782798%" x2="0%" y2="100%" id="linearGradient-1">
            <stop stop-color="#1B84FA" stop-opacity="0" offset="0%"></stop>
            <stop stop-color="#1B84FA" offset="100%"></stop>
        </linearGradient>
    </defs>
    <g id="Intelico-Admin" stroke="none" stroke-width="1" fill="none" fill-rule="evenodd">
        <g transform="translate(-386.000000, -587.000000)" id="Companies-Copy" fill="url(#linearGradient-1)">
            <g transform="translate(340.000000, 560.000000)">
                <path d="M86.0019,32.449 C87.4089,32.449 88.5519,33.592 88.5519,34.999 C88.5519,36.406 87.4089,37.549 86.0019,37.549 C84.5949,37.549 83.4519,36.406 83.4519,34.999 C83.4519,33.592 84.5949,32.449 86.0019,32.449 M92.3609,39.848 C92.3769,39.812 92.3799,39.773 92.3909,39.736 C92.3799,39.773 92.3769,39.811 92.3609,39.848 M78.8259,36.713 C78.3479,36.633 77.9999,36.222 77.9999,35.737 L77.9999,34.33 C77.9999,34.209 78.0219,34.093 78.0619,33.985 C78.1819,33.661 78.4669,33.414 78.8259,33.354 L79.9349,33.167 C80.0489,32.789 80.1959,32.425 80.3799,32.074 L79.7119,31.135 C79.4309,30.741 79.4779,30.202 79.8189,29.862 L80.8179,28.866 C81.0019,28.678 81.2519,28.575 81.5159,28.575 C81.7239,28.575 81.9239,28.638 82.0909,28.759 L83.0109,29.42 C83.3579,29.233 83.7219,29.079 84.0969,28.962 L84.2909,27.826 C84.3709,27.348 84.7819,27 85.2669,27 L86.6739,27 C87.1579,27 87.5699,27.348 87.6499,27.826 L87.8369,28.936 C88.2279,29.053 88.6059,29.21 88.9669,29.4 L89.8959,28.739 C90.0629,28.618 90.2599,28.555 90.4669,28.555 C90.7309,28.555 90.9789,28.658 91.1659,28.845 L92.1619,29.841 C92.5059,30.182 92.5499,30.721 92.2689,31.115 L91.6069,32.041 C91.7909,32.388 91.9409,32.753 92.0579,33.13 L93.1809,33.321 C93.6589,33.401 94.0069,33.812 93.9999,34.297 L93.9999,35.704 C93.9999,36.189 93.6529,36.6 93.1749,36.68 L92.0519,36.867 C91.9379,37.242 91.7839,37.606 91.5999,37.957 L92.2619,38.886 C92.3919,39.069 92.4449,39.283 92.4369,39.494 C92.4379,39.481 92.4449,39.468 92.4449,39.455 C92.4449,39.468 92.4379,39.481 92.4369,39.494 C92.4339,39.577 92.4139,39.655 92.3909,39.735 C92.3799,39.773 92.3769,39.811 92.3609,39.848 C92.3129,39.96 92.2469,40.066 92.1559,40.157 C92.1559,40.158 92.1559,40.158 92.1549,40.159 L91.1589,41.155 C90.9719,41.343 90.7249,41.446 90.4609,41.446 C90.2529,41.446 90.0529,41.383 89.8859,41.262 L88.9599,40.601 C88.6119,40.784 88.2479,40.935 87.8699,41.052 L87.6799,42.175 C87.5999,42.653 87.1889,43 86.7039,43 L85.2929,43 C84.8089,43 84.3979,42.653 84.3169,42.175 L84.1299,41.052 C83.7659,40.938 83.4119,40.794 83.0739,40.617 L82.1349,41.286 C81.9679,41.406 81.7709,41.47 81.5629,41.47 C81.3659,41.47 81.1889,41.396 81.0279,41.289 C80.9729,41.252 80.9129,41.226 80.8649,41.179 L80.5329,40.847 L79.8689,40.183 C79.5239,39.842 79.4809,39.304 79.7619,38.909 L80.4199,37.994 C80.2329,37.646 80.0789,37.282 79.9619,36.907 L78.8259,36.713 Z M93.569,41.5738 C93.739,41.4028 93.879,41.2138 94,41.0168 L94,63.4998 L70,74.9998 L46,63.4998 L46,40.1998 L70,28.6998 L77.046,32.0768 C76.67,32.4008 76.364,32.8098 76.186,33.2908 C76.104,33.5138 76.059,33.7448 76.031,33.9788 L70,31.0998 L49.307,40.9768 L70,50.0998 L83.244,44.1818 C83.783,44.6898 84.503,44.9998 85.293,44.9998 L86.269,44.9998 L71,51.8518 L71,72.3228 L92,62.2998 L92,43.0078 C92.206,42.8828 92.403,42.7408 92.577,42.5658 L93.569,41.5738 Z M69,72.3228 L69,51.8568 L48,42.5548 L48,62.2998 L69,72.3228 Z" id="asty"></path>
            </g>
        </g>
    </g>
</svg>
