<?xml version="1.0" encoding="UTF-8"?>
<svg width="48px" height="32px" viewBox="0 0 48 32" version="1.1" xmlns="http://www.w3.org/2000/svg">
    <!-- Generator: Sketch 47.1 (45422) - http://www.bohemiancoding.com/sketch -->
    <title>ic_user_roles</title>
    <desc>Created with Sketch.</desc>
    <defs>
        <linearGradient x1="131.426968%" y1="-34.1782798%" x2="0%" y2="100%" id="linearGradient-1">
            <stop stop-color="#FFFFFF" stop-opacity="0" offset="0%"></stop>
            <stop stop-color="#FFFFFF" offset="100%"></stop>
        </linearGradient>
    </defs>
    <g id="Intelico-Admin" stroke="none" stroke-width="1" fill="none" fill-rule="evenodd">
        <g transform="translate(-546.000000, -220.000000)" id="Time-Profiles" fill="url(#linearGradient-1)">
            <g transform="translate(500.000000, 185.000000)">
                <path d="M66.8763,59 L73.1033,59 C76.0353,59 78.6973,59.619 80.6563,61.196 C78.4753,64.675 74.5143,67 69.9893,67 C65.4653,67 61.5033,64.675 59.3233,61.196 C61.2813,59.619 63.9433,59 66.8763,59 Z M69.9897,57.6667 C64.8347,57.6667 60.6567,49.6607 60.6567,44.4447 C60.6567,39.2287 64.8347,34.9997 69.9897,34.9997 C75.1447,34.9997 79.3227,39.2287 79.3227,44.4447 C79.3227,49.6607 75.1447,57.6667 69.9897,57.6667 Z M56.0016,44.2515 C56.5526,44.2515 56.9996,44.6985 56.9996,45.2495 L56.9996,45.2505 C56.9996,45.8015 56.5526,46.2485 56.0016,46.2485 L49.4096,46.2485 L52.1916,49.0315 C52.5816,49.4215 52.5816,50.0535 52.1916,50.4435 C51.8016,50.8335 51.1696,50.8335 50.7796,50.4435 L46.2926,45.9565 C46.2006,45.8645 46.1276,45.7535 46.0776,45.6315 C46.0766,45.6295 46.0736,45.6275 46.0736,45.6255 C46.0256,45.5085 46.0036,45.3845 46.0016,45.2595 C46.0016,45.2565 45.9996,45.2535 45.9996,45.2505 L45.9996,45.2495 C45.9996,45.2475 46.0016,45.2445 46.0016,45.2415 C46.0026,45.1145 46.0276,44.9875 46.0776,44.8685 C46.1276,44.7465 46.2006,44.6355 46.2926,44.5435 L50.7796,40.0565 C51.1696,39.6665 51.8016,39.6665 52.1916,40.0565 C52.5816,40.4465 52.5816,41.0785 52.1916,41.4685 L49.4096,44.2515 L56.0016,44.2515 Z M93.9878,45.2401 C93.9878,45.2431 93.9898,45.2461 93.9898,45.2501 C93.9898,45.2531 93.9878,45.2551 93.9878,45.2581 C93.9868,45.3861 93.9618,45.5121 93.9128,45.6321 C93.8618,45.7541 93.7898,45.8641 93.6968,45.9561 L89.2098,50.4431 C88.8198,50.8331 88.1878,50.8331 87.7978,50.4431 C87.4078,50.0531 87.4078,49.4211 87.7978,49.0311 L90.5808,46.2481 L83.9878,46.2481 C83.4368,46.2481 82.9898,45.8011 82.9898,45.2501 C82.9898,44.6981 83.4368,44.2511 83.9878,44.2511 L90.5808,44.2511 L87.7978,41.4691 C87.4078,41.0791 87.4078,40.4461 87.7978,40.0561 C88.1878,39.6671 88.8198,39.6671 89.2098,40.0561 L93.6968,44.5441 C93.7898,44.6361 93.8618,44.7461 93.9128,44.8681 C93.9138,44.8701 93.9158,44.8721 93.9168,44.8741 C93.9638,44.9911 93.9868,45.1161 93.9878,45.2401 Z" id="ic_user_roles"></path>
            </g>
        </g>
    </g>
</svg>
